<svg width="173" height="104" viewBox="0 0 173 104" fill="none" xmlns="http://www.w3.org/2000/svg">
<path d="M66.3997 47.8008C67.5997 50.6808 70.0997 51.8008 71.1997 52.0008H172.3L94.2997 48.4008L66.3997 47.8008ZM66.3997 47.8008H66.0997M66.0997 47.8008V52.0008V56.3274M66.0997 47.8008V40.6008C66.5997 38.8008 68.1997 35.3208 70.5997 35.8008C68.5997 35.2008 64.3597 35.5008 63.3997 41.5008C63.3121 42.6395 63.1018 45.052 62.8896 46.6008M62.8896 46.6008C62.8596 46.8202 62.8295 47.0222 62.7997 47.2008C62.4997 48.1008 61.9597 50.3208 62.1997 52.0008C61.9597 53.6808 62.4997 56.0274 62.7997 56.9274C62.8295 57.106 62.8596 57.308 62.8896 57.5274M62.8896 46.6008C60.4596 47.0008 55.1797 47.6808 53.4997 47.2008C52.1997 47.2008 49.2397 47.0808 47.7997 46.6008C45.9997 46.0008 44.1997 46.6008 43.5997 46.6008M43.5997 46.6008C43.9997 47.2008 44.9197 48.2808 45.3997 47.8008M43.5997 46.6008C42.6997 45.7008 41.4397 43.3608 43.5997 41.2008C43.4998 41.1008 43.9 40.6008 46.3 39.4008C46.3 38.3008 46.84 36.1608 49 36.4008C49.7261 36.2395 51.4675 36.2603 53.4997 37.2826M53.4997 37.2826C53.9864 37.5275 54.4899 37.8298 55 38.2008L53.4997 37.2826ZM53.4997 37.2826C53.6998 37.1887 54.1 36.9408 54.1 36.7008C54.1 36.4008 52.6 35.5008 52.9 35.2008C53.2 34.9008 54.4 34.6008 54.1 34.3008C53.8 34.0008 47.5 29.8008 49 29.8008C50.5 29.8008 52.9 30.4008 52.9 29.8008C52.9 29.2008 50.5 26.5008 51.1 26.2008C51.7 25.9008 53.8 26.2008 53.8 25.9008C53.8 25.6008 52.9 24.7008 52.9 24.1008C52.9 23.5443 56.7711 23.2459 60.2048 24.6417M60.2048 24.6417C60.4732 24.7508 60.739 24.8703 61 25.0008C60.7516 24.8932 60.4847 24.773 60.2048 24.6417ZM60.2048 24.6417C57.1033 23.1876 52.3988 20.382 53.4997 18.4008C53.3998 18.0008 53.8 16.9608 56.2 16.0008C56.5 16.0008 56.98 15.9408 56.5 15.7008C55.9 15.4008 52.9003 13.3008 53.2 13.0008C53.4997 12.7008 57.1 10.6008 56.8 10.3008C56.5 10.0008 54.7 7.30081 55 7.00081C55.3 6.70081 55.9 5.80081 55.9 5.50081C55.9 5.20081 54.7 3.70081 55.3 3.70081C57.6745 3.02238 62.1059 1.81176 63.5442 1.60586M63.5442 1.60586C63.8019 1.56897 63.9635 1.56434 64 1.60081C64.0578 1.65864 63.8815 1.64958 63.5442 1.60586ZM63.5442 1.60586C62.1316 1.42281 57.8952 0.632151 56.2 1.60081C50 4.10081 37.54 9.34081 37.3 10.3008C32.8825 12.3623 24.1285 16.7944 23.809 18.3185M23.8 18.4008C24.3 20.9008 26.14 26.5008 29.5 28.9008C31.8 31.4008 36.4 36.8808 36.4 38.8008C36.8 39.0008 37.36 40.1808 36.4 43.3008C35.8 43.8008 35.14 45.4008 37.3 47.8008M23.8 18.4008C23.8033 18.3745 23.8063 18.347 23.809 18.3185M23.8 18.4008C23.8 18.3744 23.803 18.347 23.809 18.3185M22 19.3008C22.48 16.9008 20.4 14.9008 19.3 14.2008C20.02 14.2008 21.6 14.6008 22.3 14.8008C23.6926 15.7292 23.8881 17.4806 23.809 18.3185M22 19.3008L23.809 18.3185M22 19.3008C22.2 21.4008 23.5 26.7408 27.1 31.3008C29.9 34.0008 35.26 39.8808 34.3 41.8008C34 42.3008 33.22 43.4808 32.5 44.2008C31.9 44.7008 30.7 46.1208 30.7 47.8008L25.6 48.1008V48.7008H24.4L25 49.6008L23.2 49.0008L24.1 50.2008L16.3 49.6008C18.4937 48.1091 22.6585 45.3547 23.8083 44.8642M23.8083 44.8642C23.9688 44.7957 24.0706 44.7714 24.1 44.8008C24.006 44.821 23.9087 44.8421 23.8083 44.8642ZM23.8083 44.8642C20.9177 45.5012 15.4958 46.9411 14.8 48.1008L14.2 48.7008L13.9 46.9008C13.1 47.2008 10.9 48.2808 8.5 50.2008L2.8 51.4008L1 52L2.8 52.7274L8.5 53.9274C10.9 55.8474 13.1 56.9274 13.9 57.2274L14.2 55.4274L14.8 56.0274C15.4958 57.1871 20.9177 58.627 23.8083 59.264M66.3997 56.3274C67.5997 53.4474 70.0997 52.3274 71.1997 52.1274H172.3L94.2997 55.7274L66.3997 56.3274ZM66.3997 56.3274H66.0997M66.0997 56.3274V63.5274C66.5997 65.3274 68.1997 68.8074 70.5997 68.3274C68.5997 68.9274 64.3597 68.6274 63.3997 62.6274C63.3121 61.4886 63.1018 59.0762 62.8896 57.5274M62.8896 57.5274C60.4596 57.1274 55.1797 56.4474 53.4997 56.9274C52.1997 56.9274 49.2397 57.0474 47.7997 57.5274C45.9997 58.1274 44.1997 57.5274 43.5997 57.5274M43.5997 57.5274C43.9997 56.9274 44.9197 55.8474 45.3997 56.3274M43.5997 57.5274C42.6997 58.4274 41.4397 60.7674 43.5997 62.9274C43.4998 63.0274 43.9 63.5274 46.3 64.7274C46.3 65.8274 46.84 67.9674 49 67.7274C49.7261 67.8887 51.4675 67.8678 53.4997 66.8456M53.4997 66.8456C53.9864 66.6007 54.4899 66.2984 55 65.9274L53.4997 66.8456ZM53.4997 66.8456C53.6998 66.9395 54.1 67.1874 54.1 67.4274C54.1 67.7274 52.6 68.6274 52.9 68.9274C53.2 69.2274 54.4 69.5274 54.1 69.8274C53.8 70.1274 47.5 74.3274 49 74.3274C50.5 74.3274 52.9 73.7274 52.9 74.3274C52.9 74.9274 50.5 77.6274 51.1 77.9274C51.7 78.2274 53.8 77.9274 53.8 78.2274C53.8 78.5274 52.9 79.4274 52.9 80.0274C52.9 80.5839 56.7711 80.8823 60.2048 79.4865M60.2048 79.4865C60.4732 79.3774 60.739 79.2579 61 79.1274C60.7516 79.235 60.4847 79.3552 60.2048 79.4865ZM60.2048 79.4865C57.1033 80.9406 52.3988 83.7462 53.4997 85.7274C53.3998 86.1274 53.8 87.1674 56.2 88.1274C56.5 88.1274 56.98 88.1874 56.5 88.4274C55.9 88.7274 52.9003 90.8274 53.2 91.1274C53.4997 91.4274 57.1 93.5274 56.8 93.8274C56.5 94.1274 54.7 96.8274 55 97.1274C55.3 97.4274 55.9 98.3274 55.9 98.6274C55.9 98.9274 54.7 100.427 55.3 100.427C57.6745 101.106 62.1059 102.316 63.5442 102.522M63.5442 102.522C63.8019 102.559 63.9635 102.564 64 102.527C64.0578 102.47 63.8815 102.479 63.5442 102.522ZM63.5442 102.522C62.1316 102.705 57.8952 103.496 56.2 102.527C50 100.027 37.54 94.7874 37.3 93.8274C32.8825 91.7659 24.1285 87.3338 23.809 85.8097M23.8 85.7274C24.3 83.2274 26.14 77.6274 29.5 75.2274C31.8 72.7274 36.4 67.2474 36.4 65.3274C36.8 65.1274 37.36 63.9474 36.4 60.8274C35.8 60.3274 35.14 58.7274 37.3 56.3274M23.8 85.7274C23.8033 85.7537 23.8063 85.7812 23.809 85.8097M23.8 85.7274C23.8 85.7538 23.803 85.7812 23.809 85.8097M22 84.8274C22.48 87.2274 20.4 89.2274 19.3 89.9274C20.02 89.9274 21.6 89.5274 22.3 89.3274C23.6926 88.399 23.8881 86.6476 23.809 85.8097M22 84.8274L23.809 85.8097M22 84.8274C22.2 82.7274 23.5 77.3874 27.1 72.8274C29.9 70.1274 35.26 64.2474 34.3 62.3274C34 61.8274 33.22 60.6474 32.5 59.9274C31.9 59.4274 30.7 58.0074 30.7 56.3274L25.6 56.0274V55.4274H24.4L25 54.5274L23.2 55.1274L24.1 53.9274L16.3 54.5274C18.4937 56.0191 22.6585 58.7735 23.8083 59.264M23.8083 59.264C23.9688 59.3324 24.0706 59.3568 24.1 59.3274C24.006 59.3072 23.9087 59.2861 23.8083 59.264Z" stroke="#F6EE94" stroke-width="0.6"/>
</svg>
