<svg width="578" height="165" viewBox="0 0 578 165" fill="none" xmlns="http://www.w3.org/2000/svg">
<g filter="url(#filter0_d_3372_447)">
<mask id="path-1-inside-1_3372_447" fill="white">
<path d="M344.112 28.6222C344.139 28.6178 344.166 28.6121 344.192 28.605C350.98 28.1864 354.643 26.1443 354.805 26.0534L353.756 25.0778C353.479 25.2205 353.191 25.3524 352.895 25.4728V25.1068C352.885 24.9474 352.791 24.797 352.632 24.6868C352.473 24.5767 352.262 24.5152 352.042 24.5152C351.823 24.5152 351.612 24.5767 351.453 24.6868C351.294 24.797 351.2 24.9474 351.19 25.1068V26.0929C350.864 26.1956 350.508 26.3009 350.124 26.4036V25.7848C350.13 25.7011 350.112 25.6174 350.071 25.5389C350.031 25.4604 349.969 25.3886 349.889 25.328C349.809 25.2673 349.714 25.2191 349.607 25.1861C349.501 25.1531 349.387 25.1361 349.272 25.1361C349.156 25.1361 349.042 25.1531 348.936 25.1861C348.83 25.2191 348.734 25.2673 348.655 25.328C348.575 25.3886 348.513 25.4604 348.472 25.5389C348.432 25.6174 348.414 25.7011 348.419 25.7848V26.8013C348.121 26.8618 347.81 26.9193 347.488 26.9737V26.3009C347.478 26.1416 347.384 25.9912 347.225 25.881C347.066 25.7709 346.855 25.7094 346.635 25.7094C346.416 25.7094 346.205 25.7709 346.046 25.881C345.887 25.9912 345.793 26.1416 345.783 26.3009V27.2134C345.466 27.2489 345.141 27.2818 344.806 27.3108V26.6169C344.806 26.4528 344.716 26.2954 344.557 26.1794C344.397 26.0633 344.18 25.9981 343.954 25.9981C343.729 25.9981 343.512 26.0633 343.352 26.1794C343.193 26.2954 343.103 26.4528 343.103 26.6169V27.4069H342.949C337.645 27.5741 334.4 24.2984 333.273 22.9198C333.173 22.7553 333.075 22.5867 332.981 22.4129H333.724V21.7033H331.789V20.8646H333.724V20.1549H324.028V18.3788H323.062C324.105 18.0424 325.117 17.6572 326.092 17.2254L329.975 15.5007V13.6942C329.975 13.6942 325.459 15.0741 320.482 14.7633C320.509 14.7599 320.536 14.7546 320.562 14.7475C327.349 14.3289 331.013 12.2868 331.175 12.1959L330.125 11.219C329.849 11.3653 329.562 11.4998 329.265 11.6219V11.2598C329.255 11.1004 329.16 10.9501 329.002 10.8399C328.843 10.7297 328.632 10.6682 328.412 10.6682C328.193 10.6682 327.981 10.7297 327.823 10.8399C327.664 10.9501 327.57 11.1004 327.56 11.2598V12.2459C327.233 12.3486 326.878 12.454 326.494 12.5567V11.9379C326.499 11.8541 326.481 11.7704 326.441 11.6919C326.4 11.6134 326.338 11.5416 326.259 11.481C326.179 11.4204 326.083 11.3721 325.977 11.3391C325.871 11.3062 325.757 11.2892 325.642 11.2892C325.526 11.2892 325.412 11.3062 325.306 11.3391C325.2 11.3721 325.104 11.4204 325.024 11.481C324.945 11.5416 324.883 11.6134 324.842 11.6919C324.802 11.7704 324.784 11.8541 324.789 11.9379V12.9543C324.489 13.0149 324.179 13.0724 323.858 13.1268V12.4448C323.863 12.361 323.845 12.2773 323.804 12.1988C323.764 12.1203 323.702 12.0485 323.622 11.9879C323.543 11.9273 323.447 11.879 323.341 11.846C323.235 11.8131 323.121 11.7961 323.005 11.7961C322.89 11.7961 322.776 11.8131 322.669 11.846C322.563 11.879 322.468 11.9273 322.388 11.9879C322.308 12.0485 322.246 12.1203 322.206 12.1988C322.165 12.2773 322.147 12.361 322.153 12.4448V13.3664C321.835 13.4033 321.511 13.4362 321.176 13.4651V12.7713C321.176 12.6072 321.086 12.4498 320.926 12.3337C320.767 12.2177 320.55 12.1525 320.324 12.1525C320.098 12.1525 319.882 12.2177 319.722 12.3337C319.562 12.4498 319.473 12.6072 319.473 12.7713V13.5613H319.319C314.02 13.7272 310.777 10.4619 309.646 9.08473C309.545 8.91751 309.445 8.74768 309.351 8.57256H310.094V7.8629H308.159V7.02421H310.094V6.31455H306.127V5.1862H302.021V2.83338H300.108V0.718881H295.279V3.28894H298.595V1.62077H296.515V2.08554H297.955V2.82417H295.917V1.18234H299.468V3.65101H294.661V0.718881H289.502V2.23827H289.124V0.463455H294.643V0H282.8V0.463455H288.486V2.23432H287.922V0.718881H282.764V3.65101H277.954V1.18234H281.506V2.82417H279.469V2.08554H280.908V1.62077H278.831V3.28894H282.147V0.718881H277.328V2.83338H275.405V5.18225H271.297V6.31059H267.374V7.02026H269.174V7.85895H267.382V8.56861H268.124C268.028 8.74372 267.931 8.91489 267.829 9.08078C266.698 10.4632 263.455 13.7298 258.155 13.5573H258.003V12.7673C258.003 12.6032 257.913 12.4458 257.753 12.3298C257.593 12.2137 257.377 12.1485 257.151 12.1485C256.925 12.1485 256.709 12.2137 256.549 12.3298C256.389 12.4458 256.299 12.6032 256.299 12.7673V13.4612C255.964 13.4322 255.64 13.3993 255.323 13.3624V12.4448C255.328 12.361 255.31 12.2773 255.269 12.1988C255.229 12.1203 255.167 12.0485 255.087 11.9879C255.008 11.9273 254.912 11.879 254.806 11.846C254.7 11.8131 254.586 11.7961 254.47 11.7961C254.355 11.7961 254.241 11.8131 254.134 11.846C254.028 11.879 253.933 11.9273 253.853 11.9879C253.773 12.0485 253.711 12.1203 253.671 12.1988C253.63 12.2773 253.612 12.361 253.618 12.4448V13.1176C253.295 13.064 252.984 13.0065 252.684 12.9451V11.9286C252.684 11.7645 252.595 11.6071 252.435 11.4911C252.275 11.375 252.059 11.3098 251.833 11.3098C251.607 11.3098 251.39 11.375 251.231 11.4911C251.071 11.6071 250.981 11.7645 250.981 11.9286V12.5475C250.595 12.4448 250.24 12.3394 249.916 12.2367V11.2598C249.906 11.1004 249.811 10.9501 249.653 10.8399C249.494 10.7297 249.283 10.6682 249.063 10.6682C248.844 10.6682 248.633 10.7297 248.474 10.8399C248.315 10.9501 248.221 11.1004 248.211 11.2598V11.6258C247.915 11.5057 247.628 11.3738 247.352 11.2308L246.301 12.2065C246.46 12.2973 250.124 14.3394 256.914 14.7581C256.939 14.7652 256.966 14.7705 256.993 14.7739C252.016 15.0846 247.5 13.7048 247.5 13.7048V15.5112L251.383 17.236C252.358 17.6677 253.37 18.053 254.413 18.3893H253.59V20.1826H243.896V20.8922H245.83V21.7309H243.887V22.4406H244.628C244.534 22.6144 244.436 22.7829 244.337 22.9475C243.21 24.326 239.964 27.6018 234.661 27.4346H234.508V26.6446C234.498 26.4852 234.404 26.3348 234.245 26.2247C234.086 26.1145 233.875 26.053 233.656 26.053C233.436 26.053 233.225 26.1145 233.066 26.2247C232.908 26.3348 232.813 26.4852 232.803 26.6446V27.3226C232.468 27.2937 232.144 27.2608 231.827 27.2252V26.3128C231.816 26.1534 231.722 26.003 231.563 25.8929C231.405 25.7827 231.194 25.7212 230.974 25.7212C230.755 25.7212 230.543 25.7827 230.385 25.8929C230.226 26.003 230.132 26.1534 230.122 26.3128V26.9856C229.799 26.932 229.489 26.8746 229.19 26.8131V25.7967C229.195 25.7129 229.177 25.6293 229.137 25.5507C229.096 25.4722 229.035 25.4005 228.955 25.3398C228.875 25.2792 228.779 25.2309 228.673 25.198C228.567 25.165 228.453 25.148 228.338 25.148C228.222 25.148 228.108 25.165 228.002 25.198C227.896 25.2309 227.8 25.2792 227.72 25.3398C227.641 25.4005 227.579 25.4722 227.538 25.5507C227.498 25.6293 227.48 25.7129 227.485 25.7967V26.4155C227.101 26.3128 226.746 26.2075 226.42 26.1048V25.1186C226.42 24.9545 226.33 24.7971 226.17 24.681C226.01 24.565 225.794 24.4998 225.568 24.4998C225.342 24.4998 225.125 24.565 224.966 24.681C224.806 24.7971 224.716 24.9545 224.716 25.1186V25.4794C224.42 25.3587 224.132 25.2269 223.854 25.0844L222.805 26.06C222.966 26.1508 226.63 28.1929 233.418 28.6116C233.444 28.6185 233.47 28.6242 233.497 28.6287C228.52 28.9381 224.006 27.5583 224.006 27.5583V29.3647L227.887 31.0895C232.037 32.9312 236.805 33.9057 241.668 33.9058H237.937V34.6141H239.607V55.48H238.968V56.8151H238.045V59.8842H245.641V56.8151H244.721V55.4708H244.081V36.3639H263.094V55.5867H262.455V56.931H261.534V59.9987H269.13V56.931H268.208V55.5867H267.57V31.4924H268.333V32.4575H272.345V28.9447H275.153V30.3246H273.537V29.7979H274.033V30.0046H274.673V29.3345H272.897V30.792H275.796V29.8703H301.684V30.792H304.584V29.3318H302.808V30.002H303.446V29.7953H303.944V30.3219H302.328V28.9447H305.133V32.4575H309.146V31.4937H309.909V55.588H309.269V56.9323H308.349V60H315.945V56.9323H315.017V55.588H314.377V36.3652H333.534V55.4761H332.894V56.8151H331.974V59.8842H339.569V56.8151H338.647V55.4708H338.009V34.6089H339.678V33.9058H335.947C340.807 33.9041 345.572 32.9292 349.718 31.0882L353.602 29.3634V27.5517C353.602 27.5517 349.082 28.9316 344.112 28.6222ZM306.423 26.6025V25.4399H307.896V25.8349H307.488V25.6439H306.849V26.3023H308.535V25.9797H309.902V26.6077L306.423 26.6025ZM267.574 26.6025V25.9744H269.023V26.297H270.708V25.6387H270.08V25.8296H269.672V25.4346H271.147V26.5972L267.574 26.6025ZM262.862 20.8817V21.7204H261.382V20.8817H262.862ZM273.425 7.02421V7.8629H271.933V7.02421H273.425ZM306.028 21.7928V20.7474H307.519V21.7928H306.028ZM308.532 24.0837V23.5992H309.898V25.5057H308.532V24.9725H307.466V24.0837H308.532ZM306.827 24.9725H305.776V25.5057H304.337V23.6032H305.776V24.0877H306.823L306.827 24.9725ZM270.73 24.9725V24.0837H271.777V23.5992H273.127V25.5057H271.777V24.9725H270.73ZM269.027 24.9725V25.5057H267.577V23.6032H269.027V24.0877H270.092V24.9764L269.027 24.9725ZM303.897 21.7928V20.7474H305.388V21.7928H303.897ZM303.257 21.7928H301.766V20.7474H303.257V21.7928ZM301.126 21.7928H299.635V20.7474H301.126V21.7928ZM298.997 21.7928H297.504V20.7474H298.997V21.7928ZM296.866 21.7928H295.375V20.7474H296.866V21.7928ZM294.735 21.7928H293.244V20.7474H294.735V21.7928ZM292.604 21.7928H291.113V20.7474H292.604V21.7928ZM290.474 21.7928H288.982V20.7474H290.474V21.7928ZM288.343 21.7928H286.851V20.7474H288.343V21.7928ZM286.206 21.7928H284.715V20.7474H286.206V21.7928ZM284.075 21.7928H282.582V20.7474H284.074L284.075 21.7928ZM281.946 21.7928H280.455V20.7474H281.946V21.7928ZM279.815 21.7928H278.324V20.7474H279.815V21.7928ZM277.69 21.7928H276.199V20.7474H277.69V21.7928ZM275.559 21.7928H274.066V20.7474H275.557L275.559 21.7928ZM273.428 21.7928H271.937V20.7474H273.428V21.7928ZM271.297 21.7928H269.806V20.7474H271.297V21.7928ZM269.174 21.7928H267.577V20.7474H269.174V21.7928ZM271.147 22.5025V23.6203H269.672V23.2253H270.08V23.4162H270.719V22.7579H269.034V23.1292H267.584V22.4972L271.147 22.5025ZM273.14 23.1345H271.79V22.5025H273.14V23.1345ZM305.792 23.1345H304.353V22.5025H305.776L305.792 23.1345ZM286.851 9.40336V17.5059C286.845 17.5645 286.809 17.6193 286.75 17.6592C286.69 17.6992 286.612 17.7214 286.532 17.7214C286.451 17.7214 286.373 17.6992 286.313 17.6592C286.254 17.6193 286.218 17.5645 286.212 17.5059V9.40336C286.218 9.34474 286.254 9.28997 286.313 9.25C286.373 9.21003 286.451 9.18781 286.532 9.18781C286.612 9.18781 286.69 9.21003 286.75 9.25C286.809 9.28997 286.845 9.34474 286.851 9.40336ZM284.72 9.40336V17.5059C284.714 17.5645 284.678 17.6193 284.619 17.6592C284.559 17.6992 284.482 17.7214 284.401 17.7214C284.32 17.7214 284.242 17.6992 284.183 17.6592C284.123 17.6193 284.087 17.5645 284.081 17.5059V9.40336C284.087 9.34474 284.123 9.28997 284.183 9.25C284.242 9.21003 284.32 9.18781 284.401 9.18781C284.482 9.18781 284.559 9.21003 284.619 9.25C284.678 9.28997 284.714 9.34474 284.72 9.40336ZM282.59 9.40336V17.5059C282.59 17.5673 282.556 17.6263 282.496 17.6697C282.436 17.7132 282.355 17.7376 282.271 17.7376C282.186 17.7376 282.105 17.7132 282.045 17.6697C281.985 17.6263 281.952 17.5673 281.952 17.5059V9.40336C281.952 9.3419 281.985 9.28296 282.045 9.2395C282.105 9.19604 282.186 9.17163 282.271 9.17163C282.355 9.17163 282.436 9.19604 282.496 9.2395C282.556 9.28296 282.59 9.3419 282.59 9.40336ZM280.46 9.40336V17.5059C280.454 17.5645 280.418 17.6193 280.359 17.6592C280.299 17.6992 280.222 17.7214 280.141 17.7214C280.06 17.7214 279.982 17.6992 279.923 17.6592C279.863 17.6193 279.827 17.5645 279.821 17.5059V9.40336C279.827 9.34474 279.863 9.28997 279.923 9.25C279.982 9.21003 280.06 9.18781 280.141 9.18781C280.222 9.18781 280.299 9.21003 280.359 9.25C280.418 9.28997 280.454 9.34474 280.46 9.40336ZM278.33 9.40336V17.5059C278.323 17.5645 278.287 17.6193 278.228 17.6592C278.169 17.6992 278.091 17.7214 278.01 17.7214C277.929 17.7214 277.851 17.6992 277.792 17.6592C277.732 17.6193 277.696 17.5645 277.69 17.5059V9.40336C277.696 9.34474 277.732 9.28997 277.792 9.25C277.851 9.21003 277.929 9.18781 278.01 9.18781C278.091 9.18781 278.169 9.21003 278.228 9.25C278.287 9.28997 278.323 9.34474 278.33 9.40336ZM276.199 9.40336V17.5059C276.193 17.5645 276.156 17.6193 276.097 17.6592C276.038 17.6992 275.96 17.7214 275.879 17.7214C275.798 17.7214 275.72 17.6992 275.661 17.6592C275.601 17.6193 275.565 17.5645 275.559 17.5059V9.40336C275.565 9.34474 275.601 9.28997 275.661 9.25C275.72 9.21003 275.798 9.18781 275.879 9.18781C275.96 9.18781 276.038 9.21003 276.097 9.25C276.156 9.28997 276.193 9.34474 276.199 9.40336ZM274.068 9.40336V17.5059C274.062 17.5645 274.025 17.6193 273.966 17.6592C273.907 17.6992 273.829 17.7214 273.748 17.7214C273.667 17.7214 273.589 17.6992 273.53 17.6592C273.471 17.6193 273.434 17.5645 273.428 17.5059V9.40336C273.434 9.34474 273.471 9.28997 273.53 9.25C273.589 9.21003 273.667 9.18781 273.748 9.18781C273.829 9.18781 273.907 9.21003 273.966 9.25C274.025 9.28997 274.062 9.34474 274.068 9.40336ZM271.937 9.40336V17.5059C271.931 17.5645 271.894 17.6193 271.835 17.6592C271.776 17.6992 271.698 17.7214 271.617 17.7214C271.536 17.7214 271.458 17.6992 271.399 17.6592C271.34 17.6193 271.303 17.5645 271.297 17.5059V9.40336C271.303 9.34474 271.34 9.28997 271.399 9.25C271.458 9.21003 271.536 9.18781 271.617 9.18781C271.698 9.18781 271.776 9.21003 271.835 9.25C271.894 9.28997 271.931 9.34474 271.937 9.40336ZM307.838 10.3658C307.923 10.3658 308.004 10.3904 308.065 10.4341C308.125 10.4778 308.159 10.537 308.159 10.5988V17.5059C308.153 17.5645 308.116 17.6193 308.057 17.6592C307.998 17.6992 307.92 17.7214 307.839 17.7214C307.758 17.7214 307.68 17.6992 307.621 17.6592C307.561 17.6193 307.525 17.5645 307.519 17.5059V10.6015C307.518 10.5707 307.526 10.5402 307.542 10.5116C307.557 10.483 307.581 10.457 307.61 10.4351C307.64 10.4131 307.675 10.3957 307.715 10.3838C307.754 10.3719 307.796 10.3658 307.838 10.3658ZM306.026 9.40336V17.5059C306.02 17.5645 305.983 17.6193 305.924 17.6592C305.865 17.6992 305.787 17.7214 305.706 17.7214C305.625 17.7214 305.547 17.6992 305.488 17.6592C305.429 17.6193 305.392 17.5645 305.386 17.5059V9.40336C305.392 9.34474 305.429 9.28997 305.488 9.25C305.547 9.21003 305.625 9.18781 305.706 9.18781C305.787 9.18781 305.865 9.21003 305.924 9.25C305.983 9.28997 306.02 9.34474 306.026 9.40336ZM303.895 9.40336V17.5059C303.889 17.5645 303.853 17.6193 303.793 17.6592C303.734 17.6992 303.656 17.7214 303.575 17.7214C303.494 17.7214 303.416 17.6992 303.357 17.6592C303.298 17.6193 303.261 17.5645 303.255 17.5059V9.40336C303.261 9.34474 303.298 9.28997 303.357 9.25C303.416 9.21003 303.494 9.18781 303.575 9.18781C303.656 9.18781 303.734 9.21003 303.793 9.25C303.853 9.28997 303.889 9.34474 303.895 9.40336ZM301.764 9.40336V17.5059C301.758 17.5645 301.722 17.6193 301.662 17.6592C301.603 17.6992 301.525 17.7214 301.444 17.7214C301.363 17.7214 301.285 17.6992 301.226 17.6592C301.167 17.6193 301.13 17.5645 301.124 17.5059V9.40336C301.13 9.34474 301.167 9.28997 301.226 9.25C301.285 9.21003 301.363 9.18781 301.444 9.18781C301.525 9.18781 301.603 9.21003 301.662 9.25C301.722 9.28997 301.758 9.34474 301.764 9.40336ZM299.633 9.40336V17.5059C299.633 17.5673 299.6 17.6263 299.54 17.6697C299.48 17.7132 299.399 17.7376 299.314 17.7376C299.23 17.7376 299.149 17.7132 299.089 17.6697C299.029 17.6263 298.995 17.5673 298.995 17.5059V9.40336C298.995 9.3419 299.029 9.28296 299.089 9.2395C299.149 9.19604 299.23 9.17163 299.314 9.17163C299.399 9.17163 299.48 9.19604 299.54 9.2395C299.6 9.28296 299.633 9.3419 299.633 9.40336ZM297.502 9.40336V17.5059C297.502 17.5673 297.469 17.6263 297.409 17.6697C297.349 17.7132 297.268 17.7376 297.183 17.7376C297.099 17.7376 297.018 17.7132 296.958 17.6697C296.898 17.6263 296.864 17.5673 296.864 17.5059V9.40336C296.864 9.3419 296.898 9.28296 296.958 9.2395C297.018 9.19604 297.099 9.17163 297.183 9.17163C297.268 9.17163 297.349 9.19604 297.409 9.2395C297.469 9.28296 297.502 9.3419 297.502 9.40336ZM295.373 9.40336V17.5059C295.367 17.5645 295.331 17.6193 295.271 17.6592C295.212 17.6992 295.134 17.7214 295.053 17.7214C294.972 17.7214 294.895 17.6992 294.835 17.6592C294.776 17.6193 294.74 17.5645 294.734 17.5059V9.40336C294.74 9.34474 294.776 9.28997 294.835 9.25C294.895 9.21003 294.972 9.18781 295.053 9.18781C295.134 9.18781 295.212 9.21003 295.271 9.25C295.331 9.28997 295.367 9.34474 295.373 9.40336ZM293.242 9.40336V17.5059C293.236 17.5645 293.2 17.6193 293.141 17.6592C293.081 17.6992 293.003 17.7214 292.922 17.7214C292.842 17.7214 292.764 17.6992 292.704 17.6592C292.645 17.6193 292.609 17.5645 292.603 17.5059V9.40336C292.609 9.34474 292.645 9.28997 292.704 9.25C292.764 9.21003 292.842 9.18781 292.922 9.18781C293.003 9.18781 293.081 9.21003 293.141 9.25C293.2 9.28997 293.236 9.34474 293.242 9.40336ZM291.111 9.40336V17.5059C291.105 17.5645 291.069 17.6193 291.01 17.6592C290.95 17.6992 290.872 17.7214 290.792 17.7214C290.711 17.7214 290.633 17.6992 290.573 17.6592C290.514 17.6193 290.478 17.5645 290.472 17.5059V9.40336C290.478 9.34474 290.514 9.28997 290.573 9.25C290.633 9.21003 290.711 9.18781 290.792 9.18781C290.872 9.18781 290.95 9.21003 291.01 9.25C291.069 9.28997 291.105 9.34474 291.111 9.40336ZM288.341 9.40336C288.347 9.34474 288.383 9.28997 288.443 9.25C288.502 9.21003 288.58 9.18781 288.661 9.18781C288.742 9.18781 288.819 9.21003 288.879 9.25C288.938 9.28997 288.974 9.34474 288.98 9.40336V17.5059C288.974 17.5645 288.938 17.6193 288.879 17.6592C288.819 17.6992 288.742 17.7214 288.661 17.7214C288.58 17.7214 288.502 17.6992 288.443 17.6592C288.383 17.6193 288.347 17.5645 288.341 17.5059V9.40336ZM309.648 17.5059V12.0498C309.654 11.9912 309.69 11.9364 309.75 11.8964C309.809 11.8564 309.887 11.8342 309.968 11.8342C310.049 11.8342 310.127 11.8564 310.186 11.8964C310.245 11.9364 310.282 11.9912 310.288 12.0498V17.5125C310.282 17.5711 310.245 17.6258 310.186 17.6658C310.127 17.7058 310.049 17.728 309.968 17.728C309.887 17.728 309.809 17.7058 309.75 17.6658C309.69 17.6258 309.654 17.5711 309.648 17.5125V17.5059ZM279.819 7.02421V7.8629H278.328V7.02421H279.819ZM280.459 7.02421H281.95V7.8629H280.459V7.02421ZM282.588 7.02421H284.079V7.8629H282.582L282.588 7.02421ZM284.719 7.02421H286.206V7.8629H284.715L284.719 7.02421ZM286.85 7.02421H288.341V7.8629H286.85V7.02421ZM297.502 7.8629V7.02421H298.995V7.8629H297.502ZM296.864 7.8629H295.373V7.02421H296.864V7.8629ZM294.734 7.8629H293.242V7.02421H294.734V7.8629ZM292.603 7.8629H291.111V7.02421H292.603V7.8629ZM290.472 7.8629H288.98V7.02421H290.472V7.8629ZM303.895 7.8629V7.02421H305.386V7.8629H303.895ZM303.255 7.8629H301.764V7.02421H303.255V7.8629ZM301.124 7.8629H299.633V7.02421H301.124V7.8629ZM277.688 7.8629H276.197V7.02421H277.69L277.688 7.8629ZM275.557 7.8629H274.066V7.02421H275.557V7.8629ZM269.806 10.6015V17.5085C269.8 17.5671 269.764 17.6219 269.704 17.6619C269.645 17.7018 269.567 17.724 269.486 17.724C269.405 17.724 269.327 17.7018 269.268 17.6619C269.209 17.6219 269.172 17.5671 269.166 17.5085V10.6015C269.163 10.5695 269.169 10.5374 269.183 10.5071C269.198 10.4768 269.221 10.449 269.251 10.4255C269.281 10.402 269.317 10.3832 269.358 10.3704C269.398 10.3576 269.442 10.3509 269.486 10.3509C269.53 10.3509 269.574 10.3576 269.614 10.3704C269.655 10.3832 269.691 10.402 269.721 10.4255C269.751 10.449 269.774 10.4768 269.789 10.5071C269.803 10.5374 269.809 10.5695 269.806 10.6015ZM267.675 12.0498V17.5125C267.675 17.5739 267.641 17.6329 267.582 17.6763C267.522 17.7198 267.441 17.7442 267.356 17.7442C267.272 17.7442 267.19 17.7198 267.131 17.6763C267.071 17.6329 267.037 17.5739 267.037 17.5125V12.0498C267.037 11.9883 267.071 11.9294 267.131 11.8859C267.19 11.8425 267.272 11.818 267.356 11.818C267.441 11.818 267.522 11.8425 267.582 11.8859C267.641 11.9294 267.675 11.9883 267.675 12.0498ZM271.777 25.981H273.127V26.609H271.777V25.981ZM304.341 25.981H305.776V26.609H304.337L304.341 25.981ZM309.898 23.145H308.532V22.7671H306.845V23.4254H307.485V23.2345H307.892V23.6295H306.419V22.5117H309.898V23.145ZM309.898 21.8033H308.159V20.7579H309.898V21.8033ZM307.519 7.8629H306.028V7.02421H307.519V7.8629ZM300.108 4.11578V3.30078H301.376V5.65097H305.484V6.30928H300.392V4.5213H297.528V4.11578H300.108ZM289.502 2.70172V4.11446H292.97V1.59575H290.517V2.93081H291.157V2.06052H292.333V3.65101H290.142V1.18234H294.021V4.11578H296.897V4.5213H289.124V2.70172H289.502ZM283.403 4.11446V1.18234H287.293V3.65101H285.103V2.06052H286.279V2.93081H286.917V1.59575H284.463V4.11578H287.931V2.70172H288.495V4.51998H280.542V4.11446H283.403ZM271.937 5.65097H276.045V3.30078H277.313V4.11578H279.888V4.5213H277.206V6.31455H271.937V5.65097ZM269.806 7.02421H271.297V7.8629H269.806V7.02421ZM260.735 20.8817V21.7204H259.244V20.8817H260.735ZM258.604 20.8817V21.7204H257.113V20.8817H258.604ZM256.475 20.8817V21.7204H254.984V20.8817H256.475ZM252.851 20.8817H254.342V21.7204H252.851V20.8817ZM250.72 20.8817H252.212V21.7204H250.72V20.8817ZM248.589 20.8817H250.081V21.7204H248.589V20.8817ZM246.458 20.8817H247.95V21.7204H246.458V20.8817ZM244.009 31.5951C243.967 31.5953 243.925 31.5894 243.886 31.5778C243.847 31.5663 243.812 31.5492 243.782 31.5277C243.752 31.5062 243.728 31.4806 243.712 31.4524C243.696 31.4242 243.688 31.3939 243.688 31.3634V25.9007C243.694 25.8421 243.73 25.7873 243.79 25.7473C243.849 25.7074 243.927 25.6851 244.008 25.6851C244.089 25.6851 244.167 25.7074 244.226 25.7473C244.285 25.7873 244.321 25.8421 244.328 25.9007V31.3634C244.328 31.4246 244.294 31.4833 244.235 31.5268C244.175 31.5702 244.095 31.5948 244.01 31.5951H244.009ZM245.821 35.6543H244.081V34.6089H245.821V35.6543ZM246.46 31.3634C246.454 31.422 246.418 31.4768 246.359 31.5167C246.299 31.5567 246.221 31.5789 246.14 31.5789C246.06 31.5789 245.982 31.5567 245.922 31.5167C245.863 31.4768 245.827 31.422 245.821 31.3634V24.4563C245.817 24.4244 245.823 24.3922 245.838 24.3619C245.852 24.3317 245.875 24.3039 245.905 24.2804C245.935 24.2568 245.972 24.2381 246.012 24.2253C246.053 24.2124 246.096 24.2058 246.14 24.2058C246.185 24.2058 246.228 24.2124 246.269 24.2253C246.309 24.2381 246.346 24.2568 246.376 24.2804C246.406 24.3039 246.429 24.3317 246.443 24.3619C246.458 24.3922 246.464 24.4244 246.46 24.4563V31.3634ZM247.952 35.6543H246.46V34.6089H247.952V35.6543ZM248.591 31.3634C248.585 31.422 248.549 31.4768 248.489 31.5167C248.43 31.5567 248.352 31.5789 248.271 31.5789C248.19 31.5789 248.113 31.5567 248.053 31.5167C247.994 31.4768 247.958 31.422 247.952 31.3634V23.2609C247.958 23.2022 247.994 23.1475 248.053 23.1075C248.113 23.0675 248.19 23.0453 248.271 23.0453C248.352 23.0453 248.43 23.0675 248.489 23.1075C248.549 23.1475 248.585 23.2022 248.591 23.2609V31.3634ZM250.082 35.6543H248.591V34.6089H250.082V35.6543ZM250.722 31.3634C250.716 31.422 250.68 31.4768 250.62 31.5167C250.561 31.5567 250.483 31.5789 250.402 31.5789C250.321 31.5789 250.243 31.5567 250.184 31.5167C250.125 31.4768 250.088 31.422 250.082 31.3634V23.2609C250.088 23.2022 250.125 23.1475 250.184 23.1075C250.243 23.0675 250.321 23.0453 250.402 23.0453C250.483 23.0453 250.561 23.0675 250.62 23.1075C250.68 23.1475 250.716 23.2022 250.722 23.2609V31.3634ZM252.213 35.6543H250.722V34.6089H252.213V35.6543ZM252.853 31.3634C252.847 31.422 252.811 31.4768 252.751 31.5167C252.692 31.5567 252.614 31.5789 252.533 31.5789C252.452 31.5789 252.374 31.5567 252.315 31.5167C252.256 31.4768 252.219 31.422 252.213 31.3634V23.2609C252.219 23.2022 252.256 23.1475 252.315 23.1075C252.374 23.0675 252.452 23.0453 252.533 23.0453C252.614 23.0453 252.692 23.0675 252.751 23.1075C252.811 23.1475 252.847 23.2022 252.853 23.2609V31.3634ZM254.344 35.6543H252.853V34.6089H254.344V35.6543ZM254.984 31.3634C254.978 31.422 254.941 31.4768 254.882 31.5167C254.823 31.5567 254.745 31.5789 254.664 31.5789C254.583 31.5789 254.505 31.5567 254.446 31.5167C254.387 31.4768 254.35 31.422 254.344 31.3634V23.2609C254.35 23.2022 254.387 23.1475 254.446 23.1075C254.505 23.0675 254.583 23.0453 254.664 23.0453C254.745 23.0453 254.823 23.0675 254.882 23.1075C254.941 23.1475 254.978 23.2022 254.984 23.2609V31.3634ZM256.475 35.6543H254.984V34.6089H256.475V35.6543ZM257.113 31.3634C257.113 31.4248 257.079 31.4838 257.02 31.5272C256.96 31.5707 256.879 31.5951 256.794 31.5951C256.709 31.5951 256.628 31.5707 256.569 31.5272C256.509 31.4838 256.475 31.4248 256.475 31.3634V23.2609C256.475 23.1994 256.509 23.1405 256.569 23.097C256.628 23.0535 256.709 23.0291 256.794 23.0291C256.879 23.0291 256.96 23.0535 257.02 23.097C257.079 23.1405 257.113 23.1994 257.113 23.2609V31.3634ZM258.604 35.6543H257.113V34.6089H258.604V35.6543ZM259.244 31.3634C259.238 31.422 259.201 31.4768 259.142 31.5167C259.083 31.5567 259.005 31.5789 258.924 31.5789C258.843 31.5789 258.765 31.5567 258.706 31.5167C258.647 31.4768 258.61 31.422 258.604 31.3634V23.2609C258.61 23.2022 258.647 23.1475 258.706 23.1075C258.765 23.0675 258.843 23.0453 258.924 23.0453C259.005 23.0453 259.083 23.0675 259.142 23.1075C259.201 23.1475 259.238 23.2022 259.244 23.2609V31.3634ZM260.735 35.6543H259.244V34.6089H260.735V35.6543ZM261.382 31.3634C261.376 31.422 261.34 31.4768 261.28 31.5167C261.221 31.5567 261.143 31.5789 261.062 31.5789C260.981 31.5789 260.903 31.5567 260.844 31.5167C260.785 31.4768 260.748 31.422 260.742 31.3634V23.2609C260.748 23.2022 260.785 23.1475 260.844 23.1075C260.903 23.0675 260.981 23.0453 261.062 23.0453C261.143 23.0453 261.221 23.0675 261.28 23.1075C261.34 23.1475 261.376 23.2022 261.382 23.2609V31.3634ZM262.873 35.6543H261.382V34.6089H262.873V35.6543ZM262.873 31.3634V23.2609C262.874 23.2111 262.896 23.1626 262.937 23.1228C262.978 23.083 263.036 23.0538 263.102 23.0397V31.5846C263.035 31.5714 262.975 31.5426 262.933 31.5027C262.89 31.4628 262.867 31.4139 262.866 31.3634H262.873ZM267.584 31.025V27.3121H269.578V30.0152H268.353V31.025H267.584ZM271.71 28.48V31.9888H268.972V30.4825H270.765V31.179H270.197V30.8183H269.558V31.6438H271.404V30.0152H270.197V27.3121H273.127V28.0547H273.49V28.48H271.71ZM275.793 28.9447H277.509V29.4003H275.786L275.793 28.9447ZM298.823 28.9447V29.4003H297.332V28.9447H298.823ZM296.692 29.4003H295.201V28.9447H296.692V29.4003ZM294.561 29.4003H293.07V28.9447H294.561V29.4003ZM292.43 29.4003H290.939V28.9447H292.43V29.4003ZM290.3 29.4003H288.808V28.9447H290.3V29.4003ZM288.169 29.4003H286.677V28.9447H288.169V29.4003ZM286.038 29.4003H284.547V28.9447H286.038V29.4003ZM283.909 29.4003H282.416V28.9447H283.909V29.4003ZM281.778 29.4003H280.287V28.9447H281.778V29.4003ZM279.647 29.4003H278.156V28.9447H279.647V29.4003ZM299.461 29.4003V28.9447H301.681V29.4003H299.461ZM301.998 28.4786H274.138V28.0534H303.33V28.4786H301.998ZM308.494 31.9888H305.76V28.48H303.964V28.0547H304.337V27.3121H307.267V30.0152H306.06V31.6412H307.907V30.8157H307.267V31.1764H306.698V30.4825H308.492L308.494 31.9888ZM309.133 31.025V30.0152H307.909V27.3121H309.902V31.025H309.133ZM314.423 31.5951C314.405 31.5964 314.388 31.5964 314.37 31.5951V23.037C314.388 23.0357 314.405 23.0357 314.423 23.037C314.507 23.037 314.588 23.0614 314.648 23.1049C314.708 23.1484 314.742 23.2073 314.742 23.2688V31.3713C314.739 31.4311 314.704 31.4879 314.645 31.5296C314.586 31.5713 314.507 31.5948 314.424 31.5951H314.423ZM316.235 35.6543H314.743V34.6089H316.235V35.6543ZM316.235 21.7204H314.743V20.8817H316.235V21.7204ZM316.554 31.5951C316.469 31.5951 316.388 31.5707 316.328 31.5272C316.268 31.4838 316.235 31.4248 316.235 31.3634V23.2609C316.241 23.2022 316.277 23.1475 316.336 23.1075C316.396 23.0675 316.474 23.0453 316.554 23.0453C316.635 23.0453 316.713 23.0675 316.773 23.1075C316.832 23.1475 316.868 23.2022 316.874 23.2609V31.3634C316.874 31.3939 316.866 31.4242 316.85 31.4524C316.834 31.4806 316.81 31.5062 316.78 31.5277C316.75 31.5492 316.715 31.5663 316.676 31.5778C316.637 31.5894 316.596 31.5953 316.554 31.5951ZM318.366 35.6543H316.874V34.6089H318.366V35.6543ZM318.366 21.7204H316.874V20.8817H318.366V21.7204ZM318.684 31.5951C318.6 31.5951 318.519 31.5707 318.459 31.5272C318.399 31.4838 318.366 31.4248 318.366 31.3634V23.2609C318.372 23.2022 318.408 23.1475 318.467 23.1075C318.527 23.0675 318.604 23.0453 318.685 23.0453C318.766 23.0453 318.844 23.0675 318.903 23.1075C318.963 23.1475 318.999 23.2022 319.005 23.2609V31.3634C319.005 31.3939 318.997 31.4242 318.981 31.4524C318.965 31.4806 318.941 31.5062 318.911 31.5277C318.881 31.5492 318.846 31.5663 318.807 31.5778C318.768 31.5894 318.726 31.5953 318.684 31.5951ZM320.496 35.6543H319.003V34.6089H320.495L320.496 35.6543ZM320.496 21.7204H319.003V20.8817H320.495L320.496 21.7204ZM320.815 31.5951C320.731 31.5951 320.65 31.5707 320.59 31.5272C320.53 31.4838 320.496 31.4248 320.496 31.3634V23.2609C320.503 23.2022 320.539 23.1475 320.598 23.1075C320.657 23.0675 320.735 23.0453 320.816 23.0453C320.897 23.0453 320.975 23.0675 321.034 23.1075C321.094 23.1475 321.13 23.2022 321.136 23.2609V31.3634C321.136 31.3939 321.128 31.4242 321.112 31.4524C321.095 31.4806 321.072 31.5062 321.042 31.5277C321.012 31.5492 320.977 31.5663 320.938 31.5778C320.899 31.5894 320.857 31.5953 320.815 31.5951ZM322.627 35.6543H321.136V34.6089H322.627V35.6543ZM322.627 21.7204H321.136V20.8817H322.627V21.7204ZM322.946 31.5951C322.862 31.5951 322.781 31.5707 322.721 31.5272C322.661 31.4838 322.627 31.4248 322.627 31.3634V23.2609C322.627 23.1994 322.661 23.1405 322.721 23.097C322.781 23.0535 322.862 23.0291 322.946 23.0291C323.031 23.0291 323.112 23.0535 323.172 23.097C323.232 23.1405 323.265 23.1994 323.265 23.2609V31.3634C323.265 31.4248 323.232 31.4838 323.172 31.5272C323.112 31.5707 323.031 31.5951 322.946 31.5951ZM324.758 35.6543H323.267V34.6089H324.758V35.6543ZM324.758 21.7204H323.267V20.8817H324.758V21.7204ZM325.079 31.5951C325.037 31.5953 324.995 31.5894 324.956 31.5778C324.917 31.5663 324.882 31.5492 324.852 31.5277C324.822 31.5062 324.799 31.4806 324.783 31.4524C324.767 31.4242 324.758 31.3939 324.758 31.3634V23.2609C324.764 23.2022 324.801 23.1475 324.86 23.1075C324.919 23.0675 324.997 23.0453 325.078 23.0453C325.159 23.0453 325.237 23.0675 325.296 23.1075C325.355 23.1475 325.392 23.2022 325.398 23.2609V31.3634C325.398 31.3939 325.39 31.4242 325.373 31.4524C325.357 31.4806 325.334 31.5062 325.304 31.5277C325.274 31.5492 325.239 31.5663 325.2 31.5778C325.161 31.5894 325.119 31.5953 325.077 31.5951H325.079ZM326.891 35.6543H325.4V34.6089H326.891V35.6543ZM326.891 21.7204H325.4V20.8817H326.891V21.7204ZM327.212 31.5951C327.17 31.5953 327.128 31.5894 327.089 31.5778C327.05 31.5663 327.015 31.5492 326.985 31.5277C326.955 31.5062 326.932 31.4806 326.915 31.4524C326.899 31.4242 326.891 31.3939 326.891 31.3634V23.2609C326.897 23.2022 326.933 23.1475 326.993 23.1075C327.052 23.0675 327.13 23.0453 327.211 23.0453C327.292 23.0453 327.37 23.0675 327.429 23.1075C327.488 23.1475 327.525 23.2022 327.531 23.2609V31.3634C327.531 31.394 327.522 31.4244 327.506 31.4527C327.49 31.4809 327.466 31.5066 327.436 31.5282C327.406 31.5497 327.37 31.5667 327.331 31.5782C327.292 31.5897 327.25 31.5954 327.208 31.5951H327.212ZM329.024 35.6543H327.52V34.6089H329.011L329.024 35.6543ZM329.024 21.7204H327.52V20.8817H329.011L329.024 21.7204ZM329.344 31.5951C329.302 31.5953 329.261 31.5894 329.222 31.5778C329.183 31.5663 329.148 31.5492 329.118 31.5277C329.088 31.5062 329.064 31.4806 329.048 31.4524C329.032 31.4242 329.024 31.3939 329.024 31.3634V23.2609C329.03 23.2022 329.066 23.1475 329.125 23.1075C329.185 23.0675 329.263 23.0453 329.343 23.0453C329.424 23.0453 329.502 23.0675 329.562 23.1075C329.621 23.1475 329.657 23.2022 329.663 23.2609V31.3634C329.663 31.3946 329.655 31.4255 329.638 31.4542C329.621 31.483 329.596 31.5089 329.565 31.5306C329.534 31.5522 329.498 31.5691 329.458 31.5802C329.417 31.5913 329.375 31.5963 329.332 31.5951H329.344ZM331.156 35.6543H329.665V34.6089H331.144L331.156 35.6543ZM331.156 21.7204H329.665V20.8817H331.144L331.156 21.7204ZM331.475 31.5951C331.391 31.5951 331.31 31.5707 331.25 31.5272C331.19 31.4838 331.156 31.4248 331.156 31.3634V24.4563C331.153 24.4244 331.159 24.3922 331.173 24.3619C331.188 24.3317 331.211 24.3039 331.241 24.2804C331.271 24.2568 331.307 24.2381 331.348 24.2253C331.388 24.2124 331.432 24.2058 331.476 24.2058C331.52 24.2058 331.564 24.2124 331.604 24.2253C331.645 24.2381 331.681 24.2568 331.711 24.2804C331.741 24.3039 331.764 24.3317 331.779 24.3619C331.794 24.3922 331.799 24.4244 331.796 24.4563V31.3634C331.796 31.3944 331.787 31.4251 331.771 31.4536C331.754 31.4822 331.73 31.508 331.699 31.5296C331.669 31.5512 331.633 31.5681 331.593 31.5794C331.553 31.5906 331.511 31.596 331.468 31.5951H331.475ZM333.536 35.6543H331.796V34.6089H333.536V35.6543ZM333.927 31.3634C333.921 31.422 333.885 31.4768 333.825 31.5167C333.766 31.5567 333.688 31.5789 333.607 31.5789C333.526 31.5789 333.448 31.5567 333.389 31.5167C333.33 31.4768 333.293 31.422 333.287 31.3634V25.9007C333.293 25.8421 333.33 25.7873 333.389 25.7473C333.448 25.7074 333.526 25.6851 333.607 25.6851C333.688 25.6851 333.766 25.7074 333.825 25.7473C333.885 25.7873 333.921 25.8421 333.927 25.9007V31.3634Z"/>
</mask>
<path d="M344.112 28.6222C344.139 28.6178 344.166 28.6121 344.192 28.605C350.98 28.1864 354.643 26.1443 354.805 26.0534L353.756 25.0778C353.479 25.2205 353.191 25.3524 352.895 25.4728V25.1068C352.885 24.9474 352.791 24.797 352.632 24.6868C352.473 24.5767 352.262 24.5152 352.042 24.5152C351.823 24.5152 351.612 24.5767 351.453 24.6868C351.294 24.797 351.2 24.9474 351.19 25.1068V26.0929C350.864 26.1956 350.508 26.3009 350.124 26.4036V25.7848C350.13 25.7011 350.112 25.6174 350.071 25.5389C350.031 25.4604 349.969 25.3886 349.889 25.328C349.809 25.2673 349.714 25.2191 349.607 25.1861C349.501 25.1531 349.387 25.1361 349.272 25.1361C349.156 25.1361 349.042 25.1531 348.936 25.1861C348.83 25.2191 348.734 25.2673 348.655 25.328C348.575 25.3886 348.513 25.4604 348.472 25.5389C348.432 25.6174 348.414 25.7011 348.419 25.7848V26.8013C348.121 26.8618 347.81 26.9193 347.488 26.9737V26.3009C347.478 26.1416 347.384 25.9912 347.225 25.881C347.066 25.7709 346.855 25.7094 346.635 25.7094C346.416 25.7094 346.205 25.7709 346.046 25.881C345.887 25.9912 345.793 26.1416 345.783 26.3009V27.2134C345.466 27.2489 345.141 27.2818 344.806 27.3108V26.6169C344.806 26.4528 344.716 26.2954 344.557 26.1794C344.397 26.0633 344.18 25.9981 343.954 25.9981C343.729 25.9981 343.512 26.0633 343.352 26.1794C343.193 26.2954 343.103 26.4528 343.103 26.6169V27.4069H342.949C337.645 27.5741 334.4 24.2984 333.273 22.9198C333.173 22.7553 333.075 22.5867 332.981 22.4129H333.724V21.7033H331.789V20.8646H333.724V20.1549H324.028V18.3788H323.062C324.105 18.0424 325.117 17.6572 326.092 17.2254L329.975 15.5007V13.6942C329.975 13.6942 325.459 15.0741 320.482 14.7633C320.509 14.7599 320.536 14.7546 320.562 14.7475C327.349 14.3289 331.013 12.2868 331.175 12.1959L330.125 11.219C329.849 11.3653 329.562 11.4998 329.265 11.6219V11.2598C329.255 11.1004 329.16 10.9501 329.002 10.8399C328.843 10.7297 328.632 10.6682 328.412 10.6682C328.193 10.6682 327.981 10.7297 327.823 10.8399C327.664 10.9501 327.57 11.1004 327.56 11.2598V12.2459C327.233 12.3486 326.878 12.454 326.494 12.5567V11.9379C326.499 11.8541 326.481 11.7704 326.441 11.6919C326.4 11.6134 326.338 11.5416 326.259 11.481C326.179 11.4204 326.083 11.3721 325.977 11.3391C325.871 11.3062 325.757 11.2892 325.642 11.2892C325.526 11.2892 325.412 11.3062 325.306 11.3391C325.2 11.3721 325.104 11.4204 325.024 11.481C324.945 11.5416 324.883 11.6134 324.842 11.6919C324.802 11.7704 324.784 11.8541 324.789 11.9379V12.9543C324.489 13.0149 324.179 13.0724 323.858 13.1268V12.4448C323.863 12.361 323.845 12.2773 323.804 12.1988C323.764 12.1203 323.702 12.0485 323.622 11.9879C323.543 11.9273 323.447 11.879 323.341 11.846C323.235 11.8131 323.121 11.7961 323.005 11.7961C322.89 11.7961 322.776 11.8131 322.669 11.846C322.563 11.879 322.468 11.9273 322.388 11.9879C322.308 12.0485 322.246 12.1203 322.206 12.1988C322.165 12.2773 322.147 12.361 322.153 12.4448V13.3664C321.835 13.4033 321.511 13.4362 321.176 13.4651V12.7713C321.176 12.6072 321.086 12.4498 320.926 12.3337C320.767 12.2177 320.55 12.1525 320.324 12.1525C320.098 12.1525 319.882 12.2177 319.722 12.3337C319.562 12.4498 319.473 12.6072 319.473 12.7713V13.5613H319.319C314.02 13.7272 310.777 10.4619 309.646 9.08473C309.545 8.91751 309.445 8.74768 309.351 8.57256H310.094V7.8629H308.159V7.02421H310.094V6.31455H306.127V5.1862H302.021V2.83338H300.108V0.718881H295.279V3.28894H298.595V1.62077H296.515V2.08554H297.955V2.82417H295.917V1.18234H299.468V3.65101H294.661V0.718881H289.502V2.23827H289.124V0.463455H294.643V0H282.8V0.463455H288.486V2.23432H287.922V0.718881H282.764V3.65101H277.954V1.18234H281.506V2.82417H279.469V2.08554H280.908V1.62077H278.831V3.28894H282.147V0.718881H277.328V2.83338H275.405V5.18225H271.297V6.31059H267.374V7.02026H269.174V7.85895H267.382V8.56861H268.124C268.028 8.74372 267.931 8.91489 267.829 9.08078C266.698 10.4632 263.455 13.7298 258.155 13.5573H258.003V12.7673C258.003 12.6032 257.913 12.4458 257.753 12.3298C257.593 12.2137 257.377 12.1485 257.151 12.1485C256.925 12.1485 256.709 12.2137 256.549 12.3298C256.389 12.4458 256.299 12.6032 256.299 12.7673V13.4612C255.964 13.4322 255.64 13.3993 255.323 13.3624V12.4448C255.328 12.361 255.31 12.2773 255.269 12.1988C255.229 12.1203 255.167 12.0485 255.087 11.9879C255.008 11.9273 254.912 11.879 254.806 11.846C254.7 11.8131 254.586 11.7961 254.47 11.7961C254.355 11.7961 254.241 11.8131 254.134 11.846C254.028 11.879 253.933 11.9273 253.853 11.9879C253.773 12.0485 253.711 12.1203 253.671 12.1988C253.63 12.2773 253.612 12.361 253.618 12.4448V13.1176C253.295 13.064 252.984 13.0065 252.684 12.9451V11.9286C252.684 11.7645 252.595 11.6071 252.435 11.4911C252.275 11.375 252.059 11.3098 251.833 11.3098C251.607 11.3098 251.39 11.375 251.231 11.4911C251.071 11.6071 250.981 11.7645 250.981 11.9286V12.5475C250.595 12.4448 250.24 12.3394 249.916 12.2367V11.2598C249.906 11.1004 249.811 10.9501 249.653 10.8399C249.494 10.7297 249.283 10.6682 249.063 10.6682C248.844 10.6682 248.633 10.7297 248.474 10.8399C248.315 10.9501 248.221 11.1004 248.211 11.2598V11.6258C247.915 11.5057 247.628 11.3738 247.352 11.2308L246.301 12.2065C246.46 12.2973 250.124 14.3394 256.914 14.7581C256.939 14.7652 256.966 14.7705 256.993 14.7739C252.016 15.0846 247.5 13.7048 247.5 13.7048V15.5112L251.383 17.236C252.358 17.6677 253.37 18.053 254.413 18.3893H253.59V20.1826H243.896V20.8922H245.83V21.7309H243.887V22.4406H244.628C244.534 22.6144 244.436 22.7829 244.337 22.9475C243.21 24.326 239.964 27.6018 234.661 27.4346H234.508V26.6446C234.498 26.4852 234.404 26.3348 234.245 26.2247C234.086 26.1145 233.875 26.053 233.656 26.053C233.436 26.053 233.225 26.1145 233.066 26.2247C232.908 26.3348 232.813 26.4852 232.803 26.6446V27.3226C232.468 27.2937 232.144 27.2608 231.827 27.2252V26.3128C231.816 26.1534 231.722 26.003 231.563 25.8929C231.405 25.7827 231.194 25.7212 230.974 25.7212C230.755 25.7212 230.543 25.7827 230.385 25.8929C230.226 26.003 230.132 26.1534 230.122 26.3128V26.9856C229.799 26.932 229.489 26.8746 229.19 26.8131V25.7967C229.195 25.7129 229.177 25.6293 229.137 25.5507C229.096 25.4722 229.035 25.4005 228.955 25.3398C228.875 25.2792 228.779 25.2309 228.673 25.198C228.567 25.165 228.453 25.148 228.338 25.148C228.222 25.148 228.108 25.165 228.002 25.198C227.896 25.2309 227.8 25.2792 227.72 25.3398C227.641 25.4005 227.579 25.4722 227.538 25.5507C227.498 25.6293 227.48 25.7129 227.485 25.7967V26.4155C227.101 26.3128 226.746 26.2075 226.42 26.1048V25.1186C226.42 24.9545 226.33 24.7971 226.17 24.681C226.01 24.565 225.794 24.4998 225.568 24.4998C225.342 24.4998 225.125 24.565 224.966 24.681C224.806 24.7971 224.716 24.9545 224.716 25.1186V25.4794C224.42 25.3587 224.132 25.2269 223.854 25.0844L222.805 26.06C222.966 26.1508 226.63 28.1929 233.418 28.6116C233.444 28.6185 233.47 28.6242 233.497 28.6287C228.52 28.9381 224.006 27.5583 224.006 27.5583V29.3647L227.887 31.0895C232.037 32.9312 236.805 33.9057 241.668 33.9058H237.937V34.6141H239.607V55.48H238.968V56.8151H238.045V59.8842H245.641V56.8151H244.721V55.4708H244.081V36.3639H263.094V55.5867H262.455V56.931H261.534V59.9987H269.13V56.931H268.208V55.5867H267.57V31.4924H268.333V32.4575H272.345V28.9447H275.153V30.3246H273.537V29.7979H274.033V30.0046H274.673V29.3345H272.897V30.792H275.796V29.8703H301.684V30.792H304.584V29.3318H302.808V30.002H303.446V29.7953H303.944V30.3219H302.328V28.9447H305.133V32.4575H309.146V31.4937H309.909V55.588H309.269V56.9323H308.349V60H315.945V56.9323H315.017V55.588H314.377V36.3652H333.534V55.4761H332.894V56.8151H331.974V59.8842H339.569V56.8151H338.647V55.4708H338.009V34.6089H339.678V33.9058H335.947C340.807 33.9041 345.572 32.9292 349.718 31.0882L353.602 29.3634V27.5517C353.602 27.5517 349.082 28.9316 344.112 28.6222ZM306.423 26.6025V25.4399H307.896V25.8349H307.488V25.6439H306.849V26.3023H308.535V25.9797H309.902V26.6077L306.423 26.6025ZM267.574 26.6025V25.9744H269.023V26.297H270.708V25.6387H270.08V25.8296H269.672V25.4346H271.147V26.5972L267.574 26.6025ZM262.862 20.8817V21.7204H261.382V20.8817H262.862ZM273.425 7.02421V7.8629H271.933V7.02421H273.425ZM306.028 21.7928V20.7474H307.519V21.7928H306.028ZM308.532 24.0837V23.5992H309.898V25.5057H308.532V24.9725H307.466V24.0837H308.532ZM306.827 24.9725H305.776V25.5057H304.337V23.6032H305.776V24.0877H306.823L306.827 24.9725ZM270.73 24.9725V24.0837H271.777V23.5992H273.127V25.5057H271.777V24.9725H270.73ZM269.027 24.9725V25.5057H267.577V23.6032H269.027V24.0877H270.092V24.9764L269.027 24.9725ZM303.897 21.7928V20.7474H305.388V21.7928H303.897ZM303.257 21.7928H301.766V20.7474H303.257V21.7928ZM301.126 21.7928H299.635V20.7474H301.126V21.7928ZM298.997 21.7928H297.504V20.7474H298.997V21.7928ZM296.866 21.7928H295.375V20.7474H296.866V21.7928ZM294.735 21.7928H293.244V20.7474H294.735V21.7928ZM292.604 21.7928H291.113V20.7474H292.604V21.7928ZM290.474 21.7928H288.982V20.7474H290.474V21.7928ZM288.343 21.7928H286.851V20.7474H288.343V21.7928ZM286.206 21.7928H284.715V20.7474H286.206V21.7928ZM284.075 21.7928H282.582V20.7474H284.074L284.075 21.7928ZM281.946 21.7928H280.455V20.7474H281.946V21.7928ZM279.815 21.7928H278.324V20.7474H279.815V21.7928ZM277.69 21.7928H276.199V20.7474H277.69V21.7928ZM275.559 21.7928H274.066V20.7474H275.557L275.559 21.7928ZM273.428 21.7928H271.937V20.7474H273.428V21.7928ZM271.297 21.7928H269.806V20.7474H271.297V21.7928ZM269.174 21.7928H267.577V20.7474H269.174V21.7928ZM271.147 22.5025V23.6203H269.672V23.2253H270.08V23.4162H270.719V22.7579H269.034V23.1292H267.584V22.4972L271.147 22.5025ZM273.14 23.1345H271.79V22.5025H273.14V23.1345ZM305.792 23.1345H304.353V22.5025H305.776L305.792 23.1345ZM286.851 9.40336V17.5059C286.845 17.5645 286.809 17.6193 286.75 17.6592C286.69 17.6992 286.612 17.7214 286.532 17.7214C286.451 17.7214 286.373 17.6992 286.313 17.6592C286.254 17.6193 286.218 17.5645 286.212 17.5059V9.40336C286.218 9.34474 286.254 9.28997 286.313 9.25C286.373 9.21003 286.451 9.18781 286.532 9.18781C286.612 9.18781 286.69 9.21003 286.75 9.25C286.809 9.28997 286.845 9.34474 286.851 9.40336ZM284.72 9.40336V17.5059C284.714 17.5645 284.678 17.6193 284.619 17.6592C284.559 17.6992 284.482 17.7214 284.401 17.7214C284.32 17.7214 284.242 17.6992 284.183 17.6592C284.123 17.6193 284.087 17.5645 284.081 17.5059V9.40336C284.087 9.34474 284.123 9.28997 284.183 9.25C284.242 9.21003 284.32 9.18781 284.401 9.18781C284.482 9.18781 284.559 9.21003 284.619 9.25C284.678 9.28997 284.714 9.34474 284.72 9.40336ZM282.59 9.40336V17.5059C282.59 17.5673 282.556 17.6263 282.496 17.6697C282.436 17.7132 282.355 17.7376 282.271 17.7376C282.186 17.7376 282.105 17.7132 282.045 17.6697C281.985 17.6263 281.952 17.5673 281.952 17.5059V9.40336C281.952 9.3419 281.985 9.28296 282.045 9.2395C282.105 9.19604 282.186 9.17163 282.271 9.17163C282.355 9.17163 282.436 9.19604 282.496 9.2395C282.556 9.28296 282.59 9.3419 282.59 9.40336ZM280.46 9.40336V17.5059C280.454 17.5645 280.418 17.6193 280.359 17.6592C280.299 17.6992 280.222 17.7214 280.141 17.7214C280.06 17.7214 279.982 17.6992 279.923 17.6592C279.863 17.6193 279.827 17.5645 279.821 17.5059V9.40336C279.827 9.34474 279.863 9.28997 279.923 9.25C279.982 9.21003 280.06 9.18781 280.141 9.18781C280.222 9.18781 280.299 9.21003 280.359 9.25C280.418 9.28997 280.454 9.34474 280.46 9.40336ZM278.33 9.40336V17.5059C278.323 17.5645 278.287 17.6193 278.228 17.6592C278.169 17.6992 278.091 17.7214 278.01 17.7214C277.929 17.7214 277.851 17.6992 277.792 17.6592C277.732 17.6193 277.696 17.5645 277.69 17.5059V9.40336C277.696 9.34474 277.732 9.28997 277.792 9.25C277.851 9.21003 277.929 9.18781 278.01 9.18781C278.091 9.18781 278.169 9.21003 278.228 9.25C278.287 9.28997 278.323 9.34474 278.33 9.40336ZM276.199 9.40336V17.5059C276.193 17.5645 276.156 17.6193 276.097 17.6592C276.038 17.6992 275.96 17.7214 275.879 17.7214C275.798 17.7214 275.72 17.6992 275.661 17.6592C275.601 17.6193 275.565 17.5645 275.559 17.5059V9.40336C275.565 9.34474 275.601 9.28997 275.661 9.25C275.72 9.21003 275.798 9.18781 275.879 9.18781C275.96 9.18781 276.038 9.21003 276.097 9.25C276.156 9.28997 276.193 9.34474 276.199 9.40336ZM274.068 9.40336V17.5059C274.062 17.5645 274.025 17.6193 273.966 17.6592C273.907 17.6992 273.829 17.7214 273.748 17.7214C273.667 17.7214 273.589 17.6992 273.53 17.6592C273.471 17.6193 273.434 17.5645 273.428 17.5059V9.40336C273.434 9.34474 273.471 9.28997 273.53 9.25C273.589 9.21003 273.667 9.18781 273.748 9.18781C273.829 9.18781 273.907 9.21003 273.966 9.25C274.025 9.28997 274.062 9.34474 274.068 9.40336ZM271.937 9.40336V17.5059C271.931 17.5645 271.894 17.6193 271.835 17.6592C271.776 17.6992 271.698 17.7214 271.617 17.7214C271.536 17.7214 271.458 17.6992 271.399 17.6592C271.34 17.6193 271.303 17.5645 271.297 17.5059V9.40336C271.303 9.34474 271.34 9.28997 271.399 9.25C271.458 9.21003 271.536 9.18781 271.617 9.18781C271.698 9.18781 271.776 9.21003 271.835 9.25C271.894 9.28997 271.931 9.34474 271.937 9.40336ZM307.838 10.3658C307.923 10.3658 308.004 10.3904 308.065 10.4341C308.125 10.4778 308.159 10.537 308.159 10.5988V17.5059C308.153 17.5645 308.116 17.6193 308.057 17.6592C307.998 17.6992 307.92 17.7214 307.839 17.7214C307.758 17.7214 307.68 17.6992 307.621 17.6592C307.561 17.6193 307.525 17.5645 307.519 17.5059V10.6015C307.518 10.5707 307.526 10.5402 307.542 10.5116C307.557 10.483 307.581 10.457 307.61 10.4351C307.64 10.4131 307.675 10.3957 307.715 10.3838C307.754 10.3719 307.796 10.3658 307.838 10.3658ZM306.026 9.40336V17.5059C306.02 17.5645 305.983 17.6193 305.924 17.6592C305.865 17.6992 305.787 17.7214 305.706 17.7214C305.625 17.7214 305.547 17.6992 305.488 17.6592C305.429 17.6193 305.392 17.5645 305.386 17.5059V9.40336C305.392 9.34474 305.429 9.28997 305.488 9.25C305.547 9.21003 305.625 9.18781 305.706 9.18781C305.787 9.18781 305.865 9.21003 305.924 9.25C305.983 9.28997 306.02 9.34474 306.026 9.40336ZM303.895 9.40336V17.5059C303.889 17.5645 303.853 17.6193 303.793 17.6592C303.734 17.6992 303.656 17.7214 303.575 17.7214C303.494 17.7214 303.416 17.6992 303.357 17.6592C303.298 17.6193 303.261 17.5645 303.255 17.5059V9.40336C303.261 9.34474 303.298 9.28997 303.357 9.25C303.416 9.21003 303.494 9.18781 303.575 9.18781C303.656 9.18781 303.734 9.21003 303.793 9.25C303.853 9.28997 303.889 9.34474 303.895 9.40336ZM301.764 9.40336V17.5059C301.758 17.5645 301.722 17.6193 301.662 17.6592C301.603 17.6992 301.525 17.7214 301.444 17.7214C301.363 17.7214 301.285 17.6992 301.226 17.6592C301.167 17.6193 301.13 17.5645 301.124 17.5059V9.40336C301.13 9.34474 301.167 9.28997 301.226 9.25C301.285 9.21003 301.363 9.18781 301.444 9.18781C301.525 9.18781 301.603 9.21003 301.662 9.25C301.722 9.28997 301.758 9.34474 301.764 9.40336ZM299.633 9.40336V17.5059C299.633 17.5673 299.6 17.6263 299.54 17.6697C299.48 17.7132 299.399 17.7376 299.314 17.7376C299.23 17.7376 299.149 17.7132 299.089 17.6697C299.029 17.6263 298.995 17.5673 298.995 17.5059V9.40336C298.995 9.3419 299.029 9.28296 299.089 9.2395C299.149 9.19604 299.23 9.17163 299.314 9.17163C299.399 9.17163 299.48 9.19604 299.54 9.2395C299.6 9.28296 299.633 9.3419 299.633 9.40336ZM297.502 9.40336V17.5059C297.502 17.5673 297.469 17.6263 297.409 17.6697C297.349 17.7132 297.268 17.7376 297.183 17.7376C297.099 17.7376 297.018 17.7132 296.958 17.6697C296.898 17.6263 296.864 17.5673 296.864 17.5059V9.40336C296.864 9.3419 296.898 9.28296 296.958 9.2395C297.018 9.19604 297.099 9.17163 297.183 9.17163C297.268 9.17163 297.349 9.19604 297.409 9.2395C297.469 9.28296 297.502 9.3419 297.502 9.40336ZM295.373 9.40336V17.5059C295.367 17.5645 295.331 17.6193 295.271 17.6592C295.212 17.6992 295.134 17.7214 295.053 17.7214C294.972 17.7214 294.895 17.6992 294.835 17.6592C294.776 17.6193 294.74 17.5645 294.734 17.5059V9.40336C294.74 9.34474 294.776 9.28997 294.835 9.25C294.895 9.21003 294.972 9.18781 295.053 9.18781C295.134 9.18781 295.212 9.21003 295.271 9.25C295.331 9.28997 295.367 9.34474 295.373 9.40336ZM293.242 9.40336V17.5059C293.236 17.5645 293.2 17.6193 293.141 17.6592C293.081 17.6992 293.003 17.7214 292.922 17.7214C292.842 17.7214 292.764 17.6992 292.704 17.6592C292.645 17.6193 292.609 17.5645 292.603 17.5059V9.40336C292.609 9.34474 292.645 9.28997 292.704 9.25C292.764 9.21003 292.842 9.18781 292.922 9.18781C293.003 9.18781 293.081 9.21003 293.141 9.25C293.2 9.28997 293.236 9.34474 293.242 9.40336ZM291.111 9.40336V17.5059C291.105 17.5645 291.069 17.6193 291.01 17.6592C290.95 17.6992 290.872 17.7214 290.792 17.7214C290.711 17.7214 290.633 17.6992 290.573 17.6592C290.514 17.6193 290.478 17.5645 290.472 17.5059V9.40336C290.478 9.34474 290.514 9.28997 290.573 9.25C290.633 9.21003 290.711 9.18781 290.792 9.18781C290.872 9.18781 290.95 9.21003 291.01 9.25C291.069 9.28997 291.105 9.34474 291.111 9.40336ZM288.341 9.40336C288.347 9.34474 288.383 9.28997 288.443 9.25C288.502 9.21003 288.58 9.18781 288.661 9.18781C288.742 9.18781 288.819 9.21003 288.879 9.25C288.938 9.28997 288.974 9.34474 288.98 9.40336V17.5059C288.974 17.5645 288.938 17.6193 288.879 17.6592C288.819 17.6992 288.742 17.7214 288.661 17.7214C288.58 17.7214 288.502 17.6992 288.443 17.6592C288.383 17.6193 288.347 17.5645 288.341 17.5059V9.40336ZM309.648 17.5059V12.0498C309.654 11.9912 309.69 11.9364 309.75 11.8964C309.809 11.8564 309.887 11.8342 309.968 11.8342C310.049 11.8342 310.127 11.8564 310.186 11.8964C310.245 11.9364 310.282 11.9912 310.288 12.0498V17.5125C310.282 17.5711 310.245 17.6258 310.186 17.6658C310.127 17.7058 310.049 17.728 309.968 17.728C309.887 17.728 309.809 17.7058 309.75 17.6658C309.69 17.6258 309.654 17.5711 309.648 17.5125V17.5059ZM279.819 7.02421V7.8629H278.328V7.02421H279.819ZM280.459 7.02421H281.95V7.8629H280.459V7.02421ZM282.588 7.02421H284.079V7.8629H282.582L282.588 7.02421ZM284.719 7.02421H286.206V7.8629H284.715L284.719 7.02421ZM286.85 7.02421H288.341V7.8629H286.85V7.02421ZM297.502 7.8629V7.02421H298.995V7.8629H297.502ZM296.864 7.8629H295.373V7.02421H296.864V7.8629ZM294.734 7.8629H293.242V7.02421H294.734V7.8629ZM292.603 7.8629H291.111V7.02421H292.603V7.8629ZM290.472 7.8629H288.98V7.02421H290.472V7.8629ZM303.895 7.8629V7.02421H305.386V7.8629H303.895ZM303.255 7.8629H301.764V7.02421H303.255V7.8629ZM301.124 7.8629H299.633V7.02421H301.124V7.8629ZM277.688 7.8629H276.197V7.02421H277.69L277.688 7.8629ZM275.557 7.8629H274.066V7.02421H275.557V7.8629ZM269.806 10.6015V17.5085C269.8 17.5671 269.764 17.6219 269.704 17.6619C269.645 17.7018 269.567 17.724 269.486 17.724C269.405 17.724 269.327 17.7018 269.268 17.6619C269.209 17.6219 269.172 17.5671 269.166 17.5085V10.6015C269.163 10.5695 269.169 10.5374 269.183 10.5071C269.198 10.4768 269.221 10.449 269.251 10.4255C269.281 10.402 269.317 10.3832 269.358 10.3704C269.398 10.3576 269.442 10.3509 269.486 10.3509C269.53 10.3509 269.574 10.3576 269.614 10.3704C269.655 10.3832 269.691 10.402 269.721 10.4255C269.751 10.449 269.774 10.4768 269.789 10.5071C269.803 10.5374 269.809 10.5695 269.806 10.6015ZM267.675 12.0498V17.5125C267.675 17.5739 267.641 17.6329 267.582 17.6763C267.522 17.7198 267.441 17.7442 267.356 17.7442C267.272 17.7442 267.19 17.7198 267.131 17.6763C267.071 17.6329 267.037 17.5739 267.037 17.5125V12.0498C267.037 11.9883 267.071 11.9294 267.131 11.8859C267.19 11.8425 267.272 11.818 267.356 11.818C267.441 11.818 267.522 11.8425 267.582 11.8859C267.641 11.9294 267.675 11.9883 267.675 12.0498ZM271.777 25.981H273.127V26.609H271.777V25.981ZM304.341 25.981H305.776V26.609H304.337L304.341 25.981ZM309.898 23.145H308.532V22.7671H306.845V23.4254H307.485V23.2345H307.892V23.6295H306.419V22.5117H309.898V23.145ZM309.898 21.8033H308.159V20.7579H309.898V21.8033ZM307.519 7.8629H306.028V7.02421H307.519V7.8629ZM300.108 4.11578V3.30078H301.376V5.65097H305.484V6.30928H300.392V4.5213H297.528V4.11578H300.108ZM289.502 2.70172V4.11446H292.97V1.59575H290.517V2.93081H291.157V2.06052H292.333V3.65101H290.142V1.18234H294.021V4.11578H296.897V4.5213H289.124V2.70172H289.502ZM283.403 4.11446V1.18234H287.293V3.65101H285.103V2.06052H286.279V2.93081H286.917V1.59575H284.463V4.11578H287.931V2.70172H288.495V4.51998H280.542V4.11446H283.403ZM271.937 5.65097H276.045V3.30078H277.313V4.11578H279.888V4.5213H277.206V6.31455H271.937V5.65097ZM269.806 7.02421H271.297V7.8629H269.806V7.02421ZM260.735 20.8817V21.7204H259.244V20.8817H260.735ZM258.604 20.8817V21.7204H257.113V20.8817H258.604ZM256.475 20.8817V21.7204H254.984V20.8817H256.475ZM252.851 20.8817H254.342V21.7204H252.851V20.8817ZM250.72 20.8817H252.212V21.7204H250.72V20.8817ZM248.589 20.8817H250.081V21.7204H248.589V20.8817ZM246.458 20.8817H247.95V21.7204H246.458V20.8817ZM244.009 31.5951C243.967 31.5953 243.925 31.5894 243.886 31.5778C243.847 31.5663 243.812 31.5492 243.782 31.5277C243.752 31.5062 243.728 31.4806 243.712 31.4524C243.696 31.4242 243.688 31.3939 243.688 31.3634V25.9007C243.694 25.8421 243.73 25.7873 243.79 25.7473C243.849 25.7074 243.927 25.6851 244.008 25.6851C244.089 25.6851 244.167 25.7074 244.226 25.7473C244.285 25.7873 244.321 25.8421 244.328 25.9007V31.3634C244.328 31.4246 244.294 31.4833 244.235 31.5268C244.175 31.5702 244.095 31.5948 244.01 31.5951H244.009ZM245.821 35.6543H244.081V34.6089H245.821V35.6543ZM246.46 31.3634C246.454 31.422 246.418 31.4768 246.359 31.5167C246.299 31.5567 246.221 31.5789 246.14 31.5789C246.06 31.5789 245.982 31.5567 245.922 31.5167C245.863 31.4768 245.827 31.422 245.821 31.3634V24.4563C245.817 24.4244 245.823 24.3922 245.838 24.3619C245.852 24.3317 245.875 24.3039 245.905 24.2804C245.935 24.2568 245.972 24.2381 246.012 24.2253C246.053 24.2124 246.096 24.2058 246.14 24.2058C246.185 24.2058 246.228 24.2124 246.269 24.2253C246.309 24.2381 246.346 24.2568 246.376 24.2804C246.406 24.3039 246.429 24.3317 246.443 24.3619C246.458 24.3922 246.464 24.4244 246.46 24.4563V31.3634ZM247.952 35.6543H246.46V34.6089H247.952V35.6543ZM248.591 31.3634C248.585 31.422 248.549 31.4768 248.489 31.5167C248.43 31.5567 248.352 31.5789 248.271 31.5789C248.19 31.5789 248.113 31.5567 248.053 31.5167C247.994 31.4768 247.958 31.422 247.952 31.3634V23.2609C247.958 23.2022 247.994 23.1475 248.053 23.1075C248.113 23.0675 248.19 23.0453 248.271 23.0453C248.352 23.0453 248.43 23.0675 248.489 23.1075C248.549 23.1475 248.585 23.2022 248.591 23.2609V31.3634ZM250.082 35.6543H248.591V34.6089H250.082V35.6543ZM250.722 31.3634C250.716 31.422 250.68 31.4768 250.62 31.5167C250.561 31.5567 250.483 31.5789 250.402 31.5789C250.321 31.5789 250.243 31.5567 250.184 31.5167C250.125 31.4768 250.088 31.422 250.082 31.3634V23.2609C250.088 23.2022 250.125 23.1475 250.184 23.1075C250.243 23.0675 250.321 23.0453 250.402 23.0453C250.483 23.0453 250.561 23.0675 250.62 23.1075C250.68 23.1475 250.716 23.2022 250.722 23.2609V31.3634ZM252.213 35.6543H250.722V34.6089H252.213V35.6543ZM252.853 31.3634C252.847 31.422 252.811 31.4768 252.751 31.5167C252.692 31.5567 252.614 31.5789 252.533 31.5789C252.452 31.5789 252.374 31.5567 252.315 31.5167C252.256 31.4768 252.219 31.422 252.213 31.3634V23.2609C252.219 23.2022 252.256 23.1475 252.315 23.1075C252.374 23.0675 252.452 23.0453 252.533 23.0453C252.614 23.0453 252.692 23.0675 252.751 23.1075C252.811 23.1475 252.847 23.2022 252.853 23.2609V31.3634ZM254.344 35.6543H252.853V34.6089H254.344V35.6543ZM254.984 31.3634C254.978 31.422 254.941 31.4768 254.882 31.5167C254.823 31.5567 254.745 31.5789 254.664 31.5789C254.583 31.5789 254.505 31.5567 254.446 31.5167C254.387 31.4768 254.35 31.422 254.344 31.3634V23.2609C254.35 23.2022 254.387 23.1475 254.446 23.1075C254.505 23.0675 254.583 23.0453 254.664 23.0453C254.745 23.0453 254.823 23.0675 254.882 23.1075C254.941 23.1475 254.978 23.2022 254.984 23.2609V31.3634ZM256.475 35.6543H254.984V34.6089H256.475V35.6543ZM257.113 31.3634C257.113 31.4248 257.079 31.4838 257.02 31.5272C256.96 31.5707 256.879 31.5951 256.794 31.5951C256.709 31.5951 256.628 31.5707 256.569 31.5272C256.509 31.4838 256.475 31.4248 256.475 31.3634V23.2609C256.475 23.1994 256.509 23.1405 256.569 23.097C256.628 23.0535 256.709 23.0291 256.794 23.0291C256.879 23.0291 256.96 23.0535 257.02 23.097C257.079 23.1405 257.113 23.1994 257.113 23.2609V31.3634ZM258.604 35.6543H257.113V34.6089H258.604V35.6543ZM259.244 31.3634C259.238 31.422 259.201 31.4768 259.142 31.5167C259.083 31.5567 259.005 31.5789 258.924 31.5789C258.843 31.5789 258.765 31.5567 258.706 31.5167C258.647 31.4768 258.61 31.422 258.604 31.3634V23.2609C258.61 23.2022 258.647 23.1475 258.706 23.1075C258.765 23.0675 258.843 23.0453 258.924 23.0453C259.005 23.0453 259.083 23.0675 259.142 23.1075C259.201 23.1475 259.238 23.2022 259.244 23.2609V31.3634ZM260.735 35.6543H259.244V34.6089H260.735V35.6543ZM261.382 31.3634C261.376 31.422 261.34 31.4768 261.28 31.5167C261.221 31.5567 261.143 31.5789 261.062 31.5789C260.981 31.5789 260.903 31.5567 260.844 31.5167C260.785 31.4768 260.748 31.422 260.742 31.3634V23.2609C260.748 23.2022 260.785 23.1475 260.844 23.1075C260.903 23.0675 260.981 23.0453 261.062 23.0453C261.143 23.0453 261.221 23.0675 261.28 23.1075C261.34 23.1475 261.376 23.2022 261.382 23.2609V31.3634ZM262.873 35.6543H261.382V34.6089H262.873V35.6543ZM262.873 31.3634V23.2609C262.874 23.2111 262.896 23.1626 262.937 23.1228C262.978 23.083 263.036 23.0538 263.102 23.0397V31.5846C263.035 31.5714 262.975 31.5426 262.933 31.5027C262.89 31.4628 262.867 31.4139 262.866 31.3634H262.873ZM267.584 31.025V27.3121H269.578V30.0152H268.353V31.025H267.584ZM271.71 28.48V31.9888H268.972V30.4825H270.765V31.179H270.197V30.8183H269.558V31.6438H271.404V30.0152H270.197V27.3121H273.127V28.0547H273.49V28.48H271.71ZM275.793 28.9447H277.509V29.4003H275.786L275.793 28.9447ZM298.823 28.9447V29.4003H297.332V28.9447H298.823ZM296.692 29.4003H295.201V28.9447H296.692V29.4003ZM294.561 29.4003H293.07V28.9447H294.561V29.4003ZM292.43 29.4003H290.939V28.9447H292.43V29.4003ZM290.3 29.4003H288.808V28.9447H290.3V29.4003ZM288.169 29.4003H286.677V28.9447H288.169V29.4003ZM286.038 29.4003H284.547V28.9447H286.038V29.4003ZM283.909 29.4003H282.416V28.9447H283.909V29.4003ZM281.778 29.4003H280.287V28.9447H281.778V29.4003ZM279.647 29.4003H278.156V28.9447H279.647V29.4003ZM299.461 29.4003V28.9447H301.681V29.4003H299.461ZM301.998 28.4786H274.138V28.0534H303.33V28.4786H301.998ZM308.494 31.9888H305.76V28.48H303.964V28.0547H304.337V27.3121H307.267V30.0152H306.06V31.6412H307.907V30.8157H307.267V31.1764H306.698V30.4825H308.492L308.494 31.9888ZM309.133 31.025V30.0152H307.909V27.3121H309.902V31.025H309.133ZM314.423 31.5951C314.405 31.5964 314.388 31.5964 314.37 31.5951V23.037C314.388 23.0357 314.405 23.0357 314.423 23.037C314.507 23.037 314.588 23.0614 314.648 23.1049C314.708 23.1484 314.742 23.2073 314.742 23.2688V31.3713C314.739 31.4311 314.704 31.4879 314.645 31.5296C314.586 31.5713 314.507 31.5948 314.424 31.5951H314.423ZM316.235 35.6543H314.743V34.6089H316.235V35.6543ZM316.235 21.7204H314.743V20.8817H316.235V21.7204ZM316.554 31.5951C316.469 31.5951 316.388 31.5707 316.328 31.5272C316.268 31.4838 316.235 31.4248 316.235 31.3634V23.2609C316.241 23.2022 316.277 23.1475 316.336 23.1075C316.396 23.0675 316.474 23.0453 316.554 23.0453C316.635 23.0453 316.713 23.0675 316.773 23.1075C316.832 23.1475 316.868 23.2022 316.874 23.2609V31.3634C316.874 31.3939 316.866 31.4242 316.85 31.4524C316.834 31.4806 316.81 31.5062 316.78 31.5277C316.75 31.5492 316.715 31.5663 316.676 31.5778C316.637 31.5894 316.596 31.5953 316.554 31.5951ZM318.366 35.6543H316.874V34.6089H318.366V35.6543ZM318.366 21.7204H316.874V20.8817H318.366V21.7204ZM318.684 31.5951C318.6 31.5951 318.519 31.5707 318.459 31.5272C318.399 31.4838 318.366 31.4248 318.366 31.3634V23.2609C318.372 23.2022 318.408 23.1475 318.467 23.1075C318.527 23.0675 318.604 23.0453 318.685 23.0453C318.766 23.0453 318.844 23.0675 318.903 23.1075C318.963 23.1475 318.999 23.2022 319.005 23.2609V31.3634C319.005 31.3939 318.997 31.4242 318.981 31.4524C318.965 31.4806 318.941 31.5062 318.911 31.5277C318.881 31.5492 318.846 31.5663 318.807 31.5778C318.768 31.5894 318.726 31.5953 318.684 31.5951ZM320.496 35.6543H319.003V34.6089H320.495L320.496 35.6543ZM320.496 21.7204H319.003V20.8817H320.495L320.496 21.7204ZM320.815 31.5951C320.731 31.5951 320.65 31.5707 320.59 31.5272C320.53 31.4838 320.496 31.4248 320.496 31.3634V23.2609C320.503 23.2022 320.539 23.1475 320.598 23.1075C320.657 23.0675 320.735 23.0453 320.816 23.0453C320.897 23.0453 320.975 23.0675 321.034 23.1075C321.094 23.1475 321.13 23.2022 321.136 23.2609V31.3634C321.136 31.3939 321.128 31.4242 321.112 31.4524C321.095 31.4806 321.072 31.5062 321.042 31.5277C321.012 31.5492 320.977 31.5663 320.938 31.5778C320.899 31.5894 320.857 31.5953 320.815 31.5951ZM322.627 35.6543H321.136V34.6089H322.627V35.6543ZM322.627 21.7204H321.136V20.8817H322.627V21.7204ZM322.946 31.5951C322.862 31.5951 322.781 31.5707 322.721 31.5272C322.661 31.4838 322.627 31.4248 322.627 31.3634V23.2609C322.627 23.1994 322.661 23.1405 322.721 23.097C322.781 23.0535 322.862 23.0291 322.946 23.0291C323.031 23.0291 323.112 23.0535 323.172 23.097C323.232 23.1405 323.265 23.1994 323.265 23.2609V31.3634C323.265 31.4248 323.232 31.4838 323.172 31.5272C323.112 31.5707 323.031 31.5951 322.946 31.5951ZM324.758 35.6543H323.267V34.6089H324.758V35.6543ZM324.758 21.7204H323.267V20.8817H324.758V21.7204ZM325.079 31.5951C325.037 31.5953 324.995 31.5894 324.956 31.5778C324.917 31.5663 324.882 31.5492 324.852 31.5277C324.822 31.5062 324.799 31.4806 324.783 31.4524C324.767 31.4242 324.758 31.3939 324.758 31.3634V23.2609C324.764 23.2022 324.801 23.1475 324.86 23.1075C324.919 23.0675 324.997 23.0453 325.078 23.0453C325.159 23.0453 325.237 23.0675 325.296 23.1075C325.355 23.1475 325.392 23.2022 325.398 23.2609V31.3634C325.398 31.3939 325.39 31.4242 325.373 31.4524C325.357 31.4806 325.334 31.5062 325.304 31.5277C325.274 31.5492 325.239 31.5663 325.2 31.5778C325.161 31.5894 325.119 31.5953 325.077 31.5951H325.079ZM326.891 35.6543H325.4V34.6089H326.891V35.6543ZM326.891 21.7204H325.4V20.8817H326.891V21.7204ZM327.212 31.5951C327.17 31.5953 327.128 31.5894 327.089 31.5778C327.05 31.5663 327.015 31.5492 326.985 31.5277C326.955 31.5062 326.932 31.4806 326.915 31.4524C326.899 31.4242 326.891 31.3939 326.891 31.3634V23.2609C326.897 23.2022 326.933 23.1475 326.993 23.1075C327.052 23.0675 327.13 23.0453 327.211 23.0453C327.292 23.0453 327.37 23.0675 327.429 23.1075C327.488 23.1475 327.525 23.2022 327.531 23.2609V31.3634C327.531 31.394 327.522 31.4244 327.506 31.4527C327.49 31.4809 327.466 31.5066 327.436 31.5282C327.406 31.5497 327.37 31.5667 327.331 31.5782C327.292 31.5897 327.25 31.5954 327.208 31.5951H327.212ZM329.024 35.6543H327.52V34.6089H329.011L329.024 35.6543ZM329.024 21.7204H327.52V20.8817H329.011L329.024 21.7204ZM329.344 31.5951C329.302 31.5953 329.261 31.5894 329.222 31.5778C329.183 31.5663 329.148 31.5492 329.118 31.5277C329.088 31.5062 329.064 31.4806 329.048 31.4524C329.032 31.4242 329.024 31.3939 329.024 31.3634V23.2609C329.03 23.2022 329.066 23.1475 329.125 23.1075C329.185 23.0675 329.263 23.0453 329.343 23.0453C329.424 23.0453 329.502 23.0675 329.562 23.1075C329.621 23.1475 329.657 23.2022 329.663 23.2609V31.3634C329.663 31.3946 329.655 31.4255 329.638 31.4542C329.621 31.483 329.596 31.5089 329.565 31.5306C329.534 31.5522 329.498 31.5691 329.458 31.5802C329.417 31.5913 329.375 31.5963 329.332 31.5951H329.344ZM331.156 35.6543H329.665V34.6089H331.144L331.156 35.6543ZM331.156 21.7204H329.665V20.8817H331.144L331.156 21.7204ZM331.475 31.5951C331.391 31.5951 331.31 31.5707 331.25 31.5272C331.19 31.4838 331.156 31.4248 331.156 31.3634V24.4563C331.153 24.4244 331.159 24.3922 331.173 24.3619C331.188 24.3317 331.211 24.3039 331.241 24.2804C331.271 24.2568 331.307 24.2381 331.348 24.2253C331.388 24.2124 331.432 24.2058 331.476 24.2058C331.52 24.2058 331.564 24.2124 331.604 24.2253C331.645 24.2381 331.681 24.2568 331.711 24.2804C331.741 24.3039 331.764 24.3317 331.779 24.3619C331.794 24.3922 331.799 24.4244 331.796 24.4563V31.3634C331.796 31.3944 331.787 31.4251 331.771 31.4536C331.754 31.4822 331.73 31.508 331.699 31.5296C331.669 31.5512 331.633 31.5681 331.593 31.5794C331.553 31.5906 331.511 31.596 331.468 31.5951H331.475ZM333.536 35.6543H331.796V34.6089H333.536V35.6543ZM333.927 31.3634C333.921 31.422 333.885 31.4768 333.825 31.5167C333.766 31.5567 333.688 31.5789 333.607 31.5789C333.526 31.5789 333.448 31.5567 333.389 31.5167C333.33 31.4768 333.293 31.422 333.287 31.3634V25.9007C333.293 25.8421 333.33 25.7873 333.389 25.7473C333.448 25.7074 333.526 25.6851 333.607 25.6851C333.688 25.6851 333.766 25.7074 333.825 25.7473C333.885 25.7873 333.921 25.8421 333.927 25.9007V31.3634Z" stroke="white" stroke-width="8" mask="url(#path-1-inside-1_3372_447)"/>
<g filter="url(#filter1_d_3372_447)">
<path d="M6 48V56L7 66L9 74L20 112L25 127L103 131H233H550L567 78L572 54V48L571 46L568 47L559 51L553 53L546 55L524 59L510 60H58L44 58L29 54L15 49L6 46V48Z" fill="url(#paint0_linear_3372_447)"/>
<path d="M6 48V56L7 66L9 74L20 112L25 127L103 131H233H550L567 78L572 54V48L571 46L568 47L559 51L553 53L546 55L524 59L510 60H58L44 58L29 54L15 49L6 46V48Z" stroke="#EDECEC" stroke-width="1.25"/>
</g>
<path d="M7.01965 51.0897C7.04887 50.7414 7.15426 50.4047 7.32773 50.1054C7.50121 49.8061 7.73815 49.5522 8.02039 49.3632C8.30263 49.1742 8.62264 49.0551 8.9559 49.0151C9.28916 48.975 9.62681 49.015 9.94292 49.1321C10.9353 49.6345 11.7435 50.4603 12.2452 51.4844C12.4724 51.7538 12.6752 52.0444 12.8511 52.3527C13.4274 53.5532 14.0697 54.7181 14.7746 55.8416C15.532 56.9151 16.2893 57.9886 17.0314 59.1095C17.3041 59.3305 17.5616 59.5673 17.8343 59.7567C19.3489 60.8302 20.0607 62.3458 21.4391 63.4824C22.6696 64.3539 23.7631 65.419 24.6804 66.6398C26.7464 67.2787 28.6642 68.3534 30.3149 69.7972C31.3031 70.7357 32.5701 71.2929 33.9046 71.3759C34.9684 71.3914 36.0304 71.4704 37.0854 71.6127C38.7818 71.7232 40.4176 70.4918 41.9777 69.8761C43.0655 69.374 44.1778 68.9314 45.3099 68.55C46.3566 68.3791 47.4179 68.3261 48.4755 68.3922C49.7781 68.3922 50.8232 67.6975 52.0804 67.587C53.9131 67.4449 55.2157 68.9447 56.6243 69.9235C57.624 70.6023 58.7903 70.7917 59.7899 71.5022C60.7426 72.378 61.7897 73.1356 62.9101 73.7597C63.0919 73.7597 63.0313 74.1859 62.8192 74.1386C61.1683 73.8071 60.1383 72.1021 58.6085 71.4232C57.7473 71.1084 56.9199 70.7011 56.1396 70.2076C55.2878 69.438 54.3274 68.8097 53.2921 68.3448C52.2369 68.1381 51.1459 68.299 50.1871 68.8026C49.1223 69.0102 48.0437 69.1315 46.9609 69.1657C44.4314 69.513 41.8565 71.1864 39.5846 72.3231C37.7215 73.2703 35.8131 72.9388 33.8592 73.444C33.057 73.5859 32.2348 73.5436 31.45 73.32C30.6651 73.0964 29.9366 72.6969 29.3153 72.1494C27.9975 71.2654 26.8918 70.255 25.5892 69.4814C25.7231 70.6528 25.6975 71.838 25.5135 73.0019C25.0486 75.1443 25.3503 77.3898 26.3617 79.3167C27.4371 81.4479 28.3762 83.6581 29.497 85.7577C30.006 86.5844 30.573 87.3706 31.1934 88.11C31.6012 88.8611 31.8685 89.6861 31.981 90.5412C31.981 90.8095 32.1476 91.0937 32.2385 91.3621C32.8041 92.3208 33.276 93.3362 33.6471 94.3932L33.738 94.6773C33.9814 95.0087 34.3039 95.2676 34.6734 95.4283C35.0428 95.589 35.4463 95.6458 35.8434 95.593C38.8515 95.5287 41.8436 96.0645 44.6586 97.1717C44.8707 97.0612 45.0979 96.9664 45.3099 96.8401C47.9585 95.5305 50.8327 94.7896 53.7616 94.6616C56.594 94.33 57.7755 95.6719 59.2901 98.0084C59.4766 98.4346 59.7452 98.8161 60.0794 99.1293C60.4136 99.4425 60.806 99.6806 61.2323 99.8287C61.6587 99.9768 62.1097 100.032 62.5573 99.9902C63.005 99.9487 63.4396 99.8114 63.8341 99.5871C65.1482 99.1641 66.5056 98.9045 67.8781 98.8135C67.9266 98.8269 67.9695 98.8566 68 98.898C68.0306 98.9394 68.0472 98.9902 68.0472 99.0424C68.0472 99.0947 68.0306 99.1454 68 99.1868C67.9695 99.2282 67.9266 99.2579 67.8781 99.2713C66.6154 99.6004 65.3796 100.033 64.1824 100.566C63.3949 101.035 62.5131 101.305 61.6075 101.355C59.8051 101.26 58.7448 99.7765 57.836 98.1978C57.5268 97.5155 57.0314 96.9433 56.4117 96.553C55.7921 96.1627 55.0757 95.9715 54.3524 96.0034C53.0577 96.1384 51.7726 96.3599 50.5051 96.6665C49.1316 96.7949 47.784 97.1354 46.5065 97.6768L46.3248 97.7873L47.5516 98.2294C49.0452 98.5596 50.4108 99.3454 51.4745 100.487C51.797 100.983 52.071 101.512 52.2925 102.066C52.8645 103.095 53.5965 104.017 54.4584 104.797C55.8973 106.375 55.8822 108.586 58.0935 109.438C60.3049 110.291 62.6375 109.438 64.8034 109.28C66.8554 109.077 68.9244 109.167 70.9529 109.549C71.9895 109.908 73.0016 110.341 73.9822 110.843C74.8304 111.19 75.7392 111.08 76.6025 111.348C77.8294 111.727 78.9351 112.28 80.2225 112.548C81.1255 112.688 82.0005 112.981 82.8126 113.416C84.6686 114.403 86.4115 115.605 88.0078 117C86.4876 115.85 84.8704 114.846 83.1761 114C81.2979 112.895 79.0259 112.816 77.0115 112.074C76.1027 111.727 75.2091 111.806 74.2851 111.554C73.5321 111.256 72.794 110.919 72.0737 110.543C69.7511 109.852 67.3139 109.686 64.9246 110.054C61.8953 110.212 58.0481 111.727 55.7004 108.854C55.2868 108.289 54.9597 107.661 54.731 106.991C54.1924 106.006 53.4717 105.142 52.6105 104.449C51.4291 103.297 50.7172 101.497 49.248 100.771C47.4624 100.01 45.604 99.4487 43.7044 99.0977H43.6135C41.2516 99.8233 38.7849 100.107 36.3281 99.9344C35.6312 99.9711 34.938 99.8081 34.3238 99.463C33.7096 99.1178 33.1979 98.6038 32.8444 97.9768C32.8444 98.1504 32.9353 98.2925 32.9656 98.4662C33.42 100.945 32.9656 104.592 34.662 106.549C35.3921 107.313 36.056 108.142 36.6461 109.028C37.3298 110.056 38.2663 110.874 39.3574 111.396C40.9746 112.44 42.2439 113.978 42.9925 115.8C43.0107 115.848 43.0126 115.9 42.9979 115.949C42.9831 115.998 42.9526 116.04 42.9115 116.068C42.8704 116.095 42.8213 116.108 42.7726 116.102C42.7238 116.097 42.6784 116.074 42.6441 116.037C41.9561 115.046 41.2073 114.102 40.4025 113.211C39.6226 112.511 38.7503 111.932 37.8124 111.49C36.9857 110.936 36.3039 110.177 35.8282 109.28C35.1921 108.238 34.2378 107.544 33.6017 106.533C32.3748 104.576 32.6021 101.687 32.3143 99.445C32.0265 97.2032 30.7996 95.2141 30.2998 93.1302C29.7863 92.4312 29.1487 91.8417 28.4216 91.3937C27.3008 90.7306 26.3011 89.8939 25.1954 89.1993C24.3604 88.7415 23.6828 88.0243 23.2567 87.147C22.3479 85.0473 23.2567 82.9477 23.2567 80.8322C23.2713 80.6536 23.2713 80.4741 23.2567 80.2955C23.1312 80.4188 22.9777 80.5067 22.8106 80.5511C22.6435 80.5954 22.4684 80.5946 22.3017 80.5488C22.1349 80.503 21.9821 80.4137 21.8577 80.2892C21.7333 80.1648 21.6413 80.0094 21.5905 79.8377C21.1513 78.6063 21.3634 77.3433 20.8635 76.1751C20.3387 74.917 19.678 73.7253 18.8945 72.623C17.2136 70.166 15.806 67.5179 14.6989 64.7296C13.3059 61.9947 11.7425 59.3579 10.0187 56.8361C9.60693 55.8483 9.01537 54.953 8.27679 54.1997C7.84235 53.8253 7.50119 53.3469 7.2823 52.8054C7.06342 52.2639 6.97331 51.6753 7.01965 51.0897ZM40.3419 98.3083H40.6903C39.2441 97.851 37.7286 97.6796 36.222 97.8031C35.8737 97.8031 35.5556 97.8979 35.2678 97.9137C36.6461 98.7661 39.0544 98.4978 40.3419 98.3083ZM27.5885 87.4469C27.4522 87.2417 27.3311 87.0365 27.2099 86.8312C26.3465 85.3473 25.6195 83.7844 24.8319 82.253C24.857 83.0326 24.943 83.8088 25.0894 84.5737C25.4983 86.1366 26.5283 86.7207 27.6643 87.4469H27.5885ZM22.772 70.3181C22.7513 69.7318 22.6044 69.1579 22.3422 68.6387C22.0801 68.1195 21.7093 67.6684 21.2573 67.3186C20.9998 67.2239 20.9241 67.0976 20.9393 67.4449C21.5603 68.4711 22.1661 69.3551 22.8477 70.3181H22.772Z" fill="#730000"/>
<path d="M570.989 49.9668C570.961 49.6389 570.863 49.322 570.7 49.0404C570.537 48.7587 570.315 48.5197 570.05 48.3419C569.785 48.164 569.485 48.0519 569.172 48.0142C568.859 47.9765 568.543 48.0142 568.246 48.1244C567.315 48.5972 566.557 49.3744 566.086 50.3382C565.873 50.5918 565.682 50.8653 565.517 51.1554C564.977 52.2854 564.374 53.3817 563.713 54.4391C563.002 55.4495 562.291 56.4598 561.595 57.5148C561.339 57.7228 561.098 57.9457 560.842 58.124C559.421 59.1343 558.753 60.5607 557.46 61.6305C556.305 62.4507 555.279 63.4532 554.418 64.6022C552.48 65.2035 550.68 66.2149 549.132 67.5738C548.204 68.4572 547.016 68.9816 545.763 69.0597C544.765 69.0742 543.769 69.1486 542.779 69.2825C541.187 69.3865 539.653 68.2276 538.189 67.6481C537.168 67.1755 536.124 66.7589 535.062 66.4C534.08 66.2391 533.084 66.1893 532.092 66.2514C530.87 66.2514 529.889 65.5977 528.71 65.4937C526.99 65.3599 525.768 66.7715 524.446 67.6927C523.508 68.3316 522.414 68.5099 521.476 69.1785C520.582 70.0029 519.6 70.7159 518.548 71.3032C518.378 71.3032 518.435 71.7044 518.634 71.6598C520.183 71.3478 521.149 69.7431 522.585 69.1042C523.393 68.808 524.169 68.4245 524.901 67.9601C525.7 67.2358 526.601 66.6444 527.573 66.2068C528.563 66.0124 529.587 66.1638 530.486 66.6377C531.485 66.8331 532.497 66.9473 533.513 66.9795C535.886 67.3064 538.302 68.8813 540.434 69.9511C542.182 70.8426 543.973 70.5306 545.806 71.0061C546.559 71.1397 547.33 71.0999 548.067 70.8894C548.803 70.679 549.487 70.303 550.07 69.7877C551.306 68.9556 552.343 68.0047 553.566 67.2766C553.44 68.3791 553.464 69.4946 553.637 70.59C554.073 72.6064 553.79 74.7198 552.841 76.5334C551.832 78.5392 550.951 80.6194 549.899 82.5955C549.421 83.3735 548.889 84.1135 548.307 84.8094C547.925 85.5164 547.674 86.2928 547.568 87.0976C547.568 87.3502 547.412 87.6176 547.327 87.8702C546.796 88.7725 546.353 89.7282 546.005 90.723L545.92 90.9904C545.691 91.3023 545.389 91.546 545.042 91.6972C544.696 91.8484 544.317 91.9019 543.944 91.8522C541.122 91.7917 538.315 92.296 535.673 93.338C535.474 93.234 535.261 93.1449 535.062 93.026C532.577 91.7934 529.88 91.0961 527.132 90.9756C524.475 90.6636 523.366 91.9265 521.945 94.1255C521.77 94.5266 521.518 94.8858 521.204 95.1805C520.891 95.4753 520.523 95.6994 520.123 95.8388C519.723 95.9782 519.299 96.0299 518.879 95.9908C518.459 95.9517 518.052 95.8225 517.682 95.6113C516.449 95.2133 515.175 94.9689 513.887 94.8833C513.842 94.8959 513.801 94.9238 513.773 94.9628C513.744 95.0018 513.728 95.0496 513.728 95.0987C513.728 95.1479 513.744 95.1957 513.773 95.2347C513.801 95.2736 513.842 95.3016 513.887 95.3142C515.072 95.6239 516.231 96.0313 517.355 96.5325C518.094 96.9737 518.921 97.2281 519.771 97.2755C521.462 97.1863 522.457 95.7896 523.309 94.3038C523.599 93.6616 524.064 93.1231 524.646 92.7558C525.227 92.3884 525.899 92.2085 526.578 92.2385C527.793 92.3656 528.998 92.574 530.188 92.8626C531.476 92.9835 532.741 93.304 533.939 93.8135L534.11 93.9175L532.959 94.3335C531.558 94.6443 530.276 95.3839 529.278 96.4583C528.976 96.9256 528.719 97.4233 528.511 97.9441C527.974 98.9125 527.287 99.7812 526.478 100.515C525.128 102 525.143 104.081 523.068 104.883C520.993 105.685 518.804 104.883 516.772 104.734C514.847 104.543 512.905 104.628 511.002 104.987C510.03 105.326 509.08 105.733 508.16 106.205C507.364 106.532 506.511 106.428 505.701 106.681C504.55 107.037 503.513 107.557 502.305 107.81C501.457 107.942 500.636 108.218 499.875 108.627C498.133 109.555 496.498 110.687 495 112C496.426 110.918 497.944 109.973 499.533 109.177C501.296 108.137 503.427 108.063 505.318 107.364C506.17 107.037 507.009 107.112 507.876 106.874C508.582 106.594 509.275 106.276 509.95 105.923C512.13 105.273 514.416 105.116 516.658 105.462C519.501 105.611 523.11 107.037 525.313 104.333C525.701 103.801 526.008 103.21 526.223 102.58C526.728 101.653 527.404 100.84 528.212 100.188C529.321 99.103 529.989 97.4092 531.367 96.7257C533.043 96.0091 534.786 95.4811 536.569 95.1507H536.654C538.87 95.8337 541.184 96.1003 543.49 95.9382C544.143 95.9728 544.794 95.8194 545.37 95.4945C545.946 95.1697 546.427 94.6859 546.758 94.0958C546.758 94.2592 546.673 94.393 546.645 94.5564C546.218 96.8891 546.645 100.321 545.053 102.164C544.368 102.883 543.745 103.663 543.191 104.497C542.55 105.465 541.671 106.234 540.647 106.725C539.13 107.708 537.939 109.155 537.237 110.871C537.219 110.915 537.218 110.965 537.232 111.011C537.245 111.057 537.274 111.096 537.313 111.122C537.351 111.149 537.397 111.16 537.443 111.155C537.489 111.15 537.531 111.128 537.563 111.094C538.209 110.161 538.912 109.272 539.667 108.434C540.398 107.775 541.217 107.23 542.097 106.814C542.873 106.293 543.512 105.578 543.959 104.734C544.556 103.754 545.451 103.1 546.048 102.149C547.199 100.307 546.986 97.5875 547.256 95.4776C547.526 93.3678 548.677 91.4956 549.146 89.5343C549.628 88.8765 550.226 88.3216 550.908 87.8999C551.96 87.2759 552.898 86.4884 553.935 85.8346C554.719 85.4038 555.354 84.7287 555.754 83.903C556.607 81.9269 555.754 79.9507 555.754 77.9597C555.74 77.7916 555.74 77.6226 555.754 77.4546C555.872 77.5706 556.016 77.6534 556.173 77.6951C556.329 77.7368 556.494 77.7361 556.65 77.693C556.807 77.6499 556.95 77.5658 557.067 77.4487C557.183 77.3316 557.27 77.1853 557.317 77.0237C557.73 75.8647 557.531 74.6761 558 73.5766C558.492 72.3925 559.112 71.2709 559.847 70.2334C561.424 67.921 562.745 65.4286 563.784 62.8043C565.091 60.2303 566.558 57.7486 568.175 55.3752C568.561 54.4455 569.116 53.6028 569.809 52.8939C570.217 52.5414 570.537 52.0912 570.742 51.5816C570.948 51.0719 571.032 50.5179 570.989 49.9668ZM539.724 94.4078H539.397C540.754 93.9774 542.176 93.8161 543.589 93.9324C543.916 93.9324 544.214 94.0215 544.484 94.0364C543.191 94.8387 540.932 94.5861 539.724 94.4078ZM551.69 84.1853C551.818 83.9922 551.931 83.799 552.045 83.6059C552.855 82.2092 553.537 80.7382 554.276 79.297C554.253 80.0307 554.172 80.7612 554.035 81.4812C553.651 82.9521 552.684 83.5019 551.619 84.1853H551.69ZM556.209 68.0641C556.228 67.5123 556.366 66.9721 556.612 66.4835C556.858 65.9948 557.206 65.5702 557.63 65.2411C557.872 65.1519 557.943 65.0331 557.929 65.3599C557.346 66.3257 556.777 67.1578 556.138 68.0641H556.209Z" fill="#730000"/>
<path d="M132.92 80H165.08V116H156.632V103.376H146.744C146.648 105.2 146.216 106.928 145.448 108.56C144.712 110.16 143.72 111.552 142.472 112.736C141.224 113.92 139.784 114.864 138.152 115.568C136.52 116.24 134.776 116.576 132.92 116.576V108.08C133.592 108.08 134.232 107.968 134.84 107.744C135.448 107.488 135.992 107.152 136.472 106.736C136.952 106.288 137.336 105.792 137.624 105.248C137.944 104.672 138.136 104.048 138.2 103.376H132.92V95.744H138.248V88.496H132.92V80ZM156.632 88.496H146.744V95.744H156.632V88.496ZM207.451 84.224C207.451 85.088 207.403 86.016 207.307 87.008C207.211 87.968 207.019 88.96 206.731 89.984C206.443 90.976 206.027 91.968 205.483 92.96C204.971 93.92 204.283 94.832 203.419 95.696H208.939V116H179.227V88.496H173.707V80H207.451V84.224ZM187.723 88.496V94.736C189.579 94.736 191.147 94.608 192.427 94.352C193.739 94.096 194.811 93.712 195.643 93.2C196.507 92.688 197.163 92.048 197.611 91.28C198.091 90.48 198.427 89.552 198.619 88.496H187.723ZM200.443 103.232H187.723V107.504H200.443V103.232ZM241.477 80C242.853 80 244.133 80.272 245.317 80.816C246.533 81.328 247.589 82.032 248.485 82.928C249.381 83.824 250.085 84.88 250.597 86.096C251.141 87.28 251.413 88.544 251.413 89.888V116H231.589C230.245 116 228.965 115.744 227.749 115.232C226.565 114.688 225.525 113.968 224.629 113.072C223.733 112.176 223.013 111.136 222.469 109.952C221.957 108.736 221.701 107.456 221.701 106.112V88.496H216.181V80H241.477ZM242.917 89.888C242.917 89.504 242.773 89.184 242.485 88.928C242.197 88.64 241.861 88.496 241.477 88.496H230.197V106.112C230.197 106.496 230.325 106.832 230.581 107.12C230.869 107.376 231.205 107.504 231.589 107.504H242.917V89.888ZM294.777 105.872C294.777 107.248 294.825 108.48 294.921 109.568C295.049 110.624 295.177 111.52 295.305 112.256C295.465 112.992 295.609 113.552 295.737 113.936C295.865 114.32 295.929 114.512 295.929 114.512L295.881 114.464L288.009 117.536C287.945 117.376 287.753 116.784 287.433 115.76C287.113 114.704 286.841 113.216 286.617 111.296C284.857 112.768 282.873 113.92 280.665 114.752C278.489 115.584 276.169 116 273.705 116H265.113V88.496H259.593V80H273.609V107.504H274.665C276.265 107.504 277.769 107.2 279.177 106.592C280.585 105.984 281.817 105.152 282.873 104.096C283.929 103.04 284.761 101.808 285.369 100.4C285.977 98.992 286.281 97.488 286.281 95.888V80H294.777V105.872ZM304.083 80H334.467V88.496H323.523V116H315.027V88.496H304.083V80ZM399.419 105.872C399.419 107.248 399.467 108.48 399.563 109.568C399.691 110.624 399.819 111.52 399.947 112.256C400.107 112.992 400.251 113.552 400.379 113.936C400.507 114.32 400.571 114.512 400.571 114.512L400.523 114.464L392.651 117.536C392.587 117.376 392.395 116.784 392.075 115.76C391.755 114.704 391.483 113.216 391.259 111.296C389.499 112.768 387.515 113.92 385.307 114.752C383.131 115.584 380.811 116 378.347 116H369.755V88.496H364.235V80H378.251V107.504H379.307C380.907 107.504 382.411 107.2 383.819 106.592C385.227 105.984 386.459 105.152 387.515 104.096C388.571 103.04 389.403 101.808 390.011 100.4C390.619 98.992 390.923 97.488 390.923 95.888V80H399.419V105.872ZM430.999 75.344H439.495V88.496H419.143V93.776H439.495V104.192C439.495 105.824 439.175 107.36 438.535 108.8C437.927 110.24 437.095 111.488 436.039 112.544C434.983 113.6 433.735 114.448 432.295 115.088C430.887 115.696 429.367 116 427.735 116H410.647V107.504H427.735C428.631 107.504 429.399 107.184 430.039 106.544C430.679 105.904 430.999 105.12 430.999 104.192V102.224H410.647V80H430.999V75.344Z" fill="white"/>
</g>
<defs>
<filter id="filter0_d_3372_447" x="2.375" y="0" width="573.25" height="164.625" filterUnits="userSpaceOnUse" color-interpolation-filters="sRGB">
<feFlood flood-opacity="0" result="BackgroundImageFix"/>
<feColorMatrix in="SourceAlpha" type="matrix" values="0 0 0 0 0 0 0 0 0 0 0 0 0 0 0 0 0 0 127 0" result="hardAlpha"/>
<feOffset dy="30"/>
<feGaussianBlur stdDeviation="1.5"/>
<feComposite in2="hardAlpha" operator="out"/>
<feColorMatrix type="matrix" values="0 0 0 0 0 0 0 0 0 0 0 0 0 0 0 0 0 0 0.3 0"/>
<feBlend mode="luminosity" in2="BackgroundImageFix" result="effect1_dropShadow_3372_447"/>
<feBlend mode="normal" in="SourceGraphic" in2="effect1_dropShadow_3372_447" result="shape"/>
</filter>
<filter id="filter1_d_3372_447" x="0.575" y="45.1328" width="576.85" height="96.0922" filterUnits="userSpaceOnUse" color-interpolation-filters="sRGB">
<feFlood flood-opacity="0" result="BackgroundImageFix"/>
<feColorMatrix in="SourceAlpha" type="matrix" values="0 0 0 0 0 0 0 0 0 0 0 0 0 0 0 0 0 0 127 0" result="hardAlpha"/>
<feOffset dy="4.8"/>
<feGaussianBlur stdDeviation="2.4"/>
<feComposite in2="hardAlpha" operator="out"/>
<feColorMatrix type="matrix" values="0 0 0 0 0 0 0 0 0 0 0 0 0 0 0 0 0 0 0.7 0"/>
<feBlend mode="normal" in2="BackgroundImageFix" result="effect1_dropShadow_3372_447"/>
<feBlend mode="normal" in="SourceGraphic" in2="effect1_dropShadow_3372_447" result="shape"/>
</filter>
<linearGradient id="paint0_linear_3372_447" x1="6" y1="88.5" x2="572" y2="88.5" gradientUnits="userSpaceOnUse">
<stop/>
<stop offset="0.538462" stop-color="#842728"/>
<stop offset="0.975962"/>
</linearGradient>
</defs>
</svg>
