<svg width="1920" height="477" viewBox="0 0 1920 477" fill="none" xmlns="http://www.w3.org/2000/svg">
<path d="M1940.74 487.886L1621.75 48.8702M1858.57 489.946L1562.55 50.3539M1775.58 487.404L1497.1 51.9946M1689.35 494.187L1444.17 53.3212M1609.96 496.177L1393.34 54.5954M1530.58 498.167L1340.41 55.9219M1444.23 500.331L1290.97 57.1612M1357.88 502.496L1236.65 58.5227M1267.35 504.765L1187.21 59.762M1181.7 506.912L1135.68 61.0536M1091.87 509.163L1073.52 62.6117M997.857 511.52L999.877 64.4576" stroke="black"/>
<path d="M-61.6405 478.988L284.492 20.6475M22.6547 484.341L345.213 24.5039M107.978 484.794L412.364 28.7686M196.246 495.366L466.656 32.2167M277.683 500.538L518.804 35.5286M359.121 505.71L573.096 38.9767M447.703 511.336L623.816 42.1979M536.284 516.962L679.537 45.7367M629.152 522.86L730.257 48.9579M717.019 528.44L783.12 52.3153M809.172 534.293L846.888 56.3652M905.611 540.418L922.435 61.1631" stroke="black"/>
</svg>
