<svg width="602" height="675" viewBox="0 0 602 675" fill="none" xmlns="http://www.w3.org/2000/svg">
<g clip-path="url(#clip0_3323_11)">
<rect width="602" height="675" rx="4" fill="#D6C05C"/>
<g opacity="0.15">
<path d="M-79.3359 388.457C-77.7292 387.728 -76.1467 386.854 -74.5312 385.98C-72.9024 385.152 -71.299 384.161 -69.6623 383.179C-68.0002 382.233 -66.4248 381.115 -64.7909 380.043C-64.384 379.772 -63.9763 379.502 -63.5656 379.232C-63.1549 378.934 -62.7433 378.646 -62.3298 378.348C-61.5132 377.762 -60.6947 377.176 -59.8837 376.554C-53.3532 371.695 -46.8636 365.986 -39.8095 360.667C-36.2867 358.017 -32.6002 355.466 -28.7195 353.286C-27.7543 352.746 -26.791 352.205 -25.7567 351.71C-25.2552 351.458 -24.7537 351.206 -24.2503 350.963C-23.7403 350.729 -23.2294 350.495 -22.7175 350.261C-20.6577 349.352 -18.5441 348.515 -16.3945 347.715C-12.0954 346.114 -7.65828 344.622 -3.16952 342.895C1.3117 341.15 5.87105 339.189 10.2399 336.368C14.5803 333.565 18.7817 329.759 21.7453 324.577C22.0943 323.918 22.4706 323.295 22.794 322.582L23.283 321.525L23.5218 321.001L23.7179 320.496L24.1102 319.493L24.2083 319.24C24.2387 319.177 24.3083 318.951 24.3179 318.915L24.4886 318.355L25.1636 316.133C25.8963 313.088 26.2704 309.926 26.2921 306.754C26.2523 303.581 25.8819 300.435 25.2755 297.352C24.6209 294.287 23.7236 291.312 22.6774 288.409C21.5858 285.532 20.3548 282.728 18.9891 280.014C17.6167 277.336 16.0768 274.613 14.5316 272.152C11.3213 267.057 7.95884 262.252 4.76539 257.248C1.59844 252.253 -1.39389 247.077 -3.57466 241.47C-3.83458 240.764 -4.11818 240.068 -4.36198 239.353L-5.05452 237.201C-5.27842 236.478 -5.43705 235.772 -5.63444 235.058C-5.83663 234.371 -5.98837 233.575 -6.14394 232.788L-6.38016 231.613L-6.43919 231.315C-6.43078 231.369 -6.45786 231.17 -6.46531 231.107L-6.53987 230.537L-6.84012 228.268C-6.91242 227.509 -6.93735 226.741 -6.99071 225.981L-7.06028 224.833L-7.05127 223.676C-7.11685 220.594 -6.74487 217.513 -6.24797 214.459C-5.72076 211.405 -4.87459 208.433 -3.90822 205.507C-1.83922 199.708 0.973523 194.219 4.44508 189.336C5.28676 188.081 6.20865 186.971 7.09752 185.798C7.57413 185.22 8.08387 184.643 8.57564 184.065L9.28671 183.235L10.0432 182.423C12.0336 180.24 14.1828 178.246 16.3754 176.316C25.2149 168.657 35.3277 163.043 45.5308 157.674C66.0527 146.945 86.5736 136.216 106.774 125.655C116.887 120.363 126.877 115.171 136.801 109.875C141.753 107.153 146.724 104.056 150.945 99.5942C151.458 99.0194 151.991 98.4746 152.47 97.8546L153.205 96.9494L153.918 95.962C154.423 95.2878 154.783 94.6712 155.188 94.0393L155.337 93.8028C155.38 93.7396 155.499 93.5365 155.519 93.4968L155.813 92.974C156.014 92.6273 156.202 92.2752 156.381 91.9176C157.851 89.0779 158.939 86.1137 159.99 83.2552C161.037 80.3939 162.058 77.6003 163.297 75.0865C164.582 72.5718 166.051 70.241 167.77 68.1384C171.23 63.9621 175.376 60.6232 179.713 57.7446C184.051 54.848 188.573 52.3675 193.031 49.7621C197.51 47.1794 201.883 44.2791 205.863 40.8215C209.845 37.3774 213.482 33.3298 216.218 28.496C217.599 26.0863 218.646 23.4529 219.451 20.7095C219.624 19.9959 219.796 19.2839 219.968 18.5739C220.067 18.2098 220.104 17.8828 220.155 17.5476L220.306 16.5464L220.456 15.547C220.458 15.5344 220.495 15.2842 220.497 15.2101L220.518 14.9443L220.559 14.4121L220.639 13.3484L220.662 12.2865C220.762 6.60629 219.562 1.23999 218.106 -3.71288C216.633 -8.68386 214.872 -13.3427 213.349 -17.945C211.827 -22.5401 210.508 -27.1041 210 -31.6765C209.747 -33.9572 209.707 -36.2294 209.937 -38.4334C210.012 -38.98 210.087 -39.5258 210.161 -40.0689C210.265 -40.5911 210.368 -41.1123 210.472 -41.6318C210.593 -42.163 210.766 -42.7195 210.909 -43.2588C211.028 -43.7267 211.245 -44.2523 211.406 -44.7455C212.886 -48.7285 215.295 -52.0761 217.724 -55.2177C220.161 -58.3601 222.687 -61.384 224.737 -64.7269C226.779 -68.0807 228.343 -71.6631 229.462 -75.2762C230.559 -78.9029 231.221 -82.5421 231.581 -86.0609C232.293 -93.1155 231.849 -99.6427 231.115 -105.408C230.373 -111.187 229.295 -116.245 228.24 -120.592C227.188 -124.943 226.141 -128.583 225.274 -131.525C224.404 -134.467 223.688 -136.7 223.214 -138.207C223.194 -138.268 223.177 -138.319 223.158 -138.377L223.106 -138.377C223.126 -138.313 223.143 -138.253 223.162 -138.186C223.605 -136.664 224.271 -134.41 225.076 -131.446C225.877 -128.482 226.843 -124.814 227.796 -120.448C228.744 -116.082 229.725 -111.022 230.373 -105.282C231.008 -99.5539 231.336 -93.0993 230.527 -86.2238C230.119 -82.7937 229.416 -79.2711 228.299 -75.7909C227.161 -72.3242 225.598 -68.9144 223.587 -65.7386C221.559 -62.5628 219.057 -59.6772 216.529 -56.544C214.024 -53.4179 211.422 -49.9884 209.718 -45.6507C209.523 -45.0898 209.302 -44.594 209.127 -43.9725C208.972 -43.4251 208.801 -42.9067 208.657 -42.3303C208.527 -41.7331 208.396 -41.1341 208.265 -40.5325C208.175 -39.9352 208.086 -39.3353 207.997 -38.7335C207.715 -36.3128 207.733 -33.8318 207.976 -31.3793C208.465 -26.4608 209.795 -21.6952 211.284 -17.0017C212.777 -12.3 214.474 -7.63321 215.843 -2.79257C217.203 2.03178 218.241 7.09414 218.085 12.2012L218.054 13.1565L217.97 14.1062L217.928 14.5815L217.908 14.8202C217.902 14.9141 217.909 14.83 217.886 14.9845L217.725 15.982L217.563 16.9804C217.508 17.312 217.462 17.6608 217.374 17.9427L216.917 19.7304C216.183 22.1304 215.225 24.5156 213.948 26.6868C211.42 31.061 207.998 34.8243 204.177 38.0563C202.262 39.6723 200.26 41.1932 198.165 42.5811C196.077 43.9916 193.937 45.2819 191.708 46.5357C187.275 49.0644 182.681 51.514 178.171 54.4528C175.924 55.9362 173.676 57.4937 171.528 59.3099C169.378 61.118 167.312 63.1332 165.406 65.4044C163.512 67.6866 161.842 70.2945 160.417 73.0575C159.01 75.8747 157.939 78.7911 156.878 81.636C155.817 84.4801 154.767 87.2646 153.447 89.7746C153.286 90.0934 153.118 90.403 152.941 90.7027L152.68 91.1596C152.608 91.2842 152.637 91.2463 152.576 91.3374L152.426 91.5721C152.026 92.1914 151.619 92.8658 151.23 93.3603L150.64 94.1663L149.985 94.9622C149.561 95.5073 149.078 95.9908 148.62 96.5015C144.825 100.471 140.154 103.385 135.301 106.004C125.399 111.148 115.376 116.354 105.275 121.602C85.0527 132.117 64.5091 142.799 43.9665 153.48C33.7121 158.899 23.3632 164.653 14.1319 172.679C11.8415 174.699 9.59174 176.791 7.49492 179.11L6.69859 179.958L5.92015 180.87C5.42458 181.456 4.92999 182.016 4.43533 182.62C3.45912 183.902 2.43185 185.147 1.54835 186.474C-2.13983 191.691 -5.14463 197.551 -7.36423 203.819C-8.40687 206.99 -9.31707 210.224 -9.88937 213.557C-10.4304 216.901 -10.8286 220.289 -10.7542 223.706L-10.7559 224.98L-10.6734 226.254C-10.6126 227.104 -10.5765 227.954 -10.4911 228.803L-10.1459 231.326L-10.0592 231.95C-10.0367 232.085 -10.0462 232.085 -9.9984 232.338L-9.93746 232.628L-9.69555 233.803C-9.53618 234.59 -9.38721 235.358 -9.14557 236.199C-8.92092 237.013 -8.72094 237.863 -8.47066 238.65L-7.70369 240.992C-7.4354 241.77 -7.12725 242.511 -6.84092 243.271C-4.45364 249.304 -1.28656 254.679 1.97302 259.764C5.2478 264.823 8.67171 269.673 11.7774 274.533C13.3793 277.057 14.7597 279.491 16.1124 282.079C17.4273 284.657 18.6055 287.307 19.6474 290.003C20.6418 292.716 21.4894 295.483 22.1067 298.295C22.6842 301.107 23.041 303.955 23.1033 306.784C23.1041 309.613 22.7962 312.405 22.1807 315.079L21.6018 317.039L21.4588 317.536C21.414 317.662 21.4415 317.626 21.4015 317.726L21.3054 317.969L20.9216 318.981L20.7302 319.487L20.5295 319.929L20.1299 320.814C19.8692 321.401 19.5242 321.979 19.2275 322.566C16.6544 327.17 12.9091 330.679 8.84447 333.374C4.76283 336.068 0.362576 338.039 -4.03061 339.803C-8.43232 341.566 -12.8581 343.094 -17.1887 344.794C-19.3544 345.639 -21.4985 346.521 -23.6039 347.493C-24.1281 347.745 -24.6523 347.988 -25.1746 348.24C-25.6913 348.511 -26.2061 348.772 -26.7209 349.042C-27.7296 349.537 -28.7442 350.132 -29.7521 350.717C-33.7534 353.05 -37.4675 355.701 -41.0114 358.451C-48.0887 363.969 -54.5131 369.741 -60.8922 374.7C-61.6843 375.331 -62.482 375.926 -63.2778 376.521C-63.6705 376.818 -64.0612 377.107 -64.452 377.395C-64.857 377.675 -65.261 377.963 -65.6632 378.243C-67.2754 379.351 -68.8508 380.505 -70.4486 381.46C-72.037 382.46 -73.5884 383.47 -75.1869 384.334C-76.7684 385.226 -78.3168 386.127 -79.8933 386.883C-86.1305 390.071 -92.1898 392.445 -97.8843 394.224C-101.401 395.293 -104.779 396.118 -107.988 396.781L-107.99 397.82C-104.706 397.23 -101.242 396.468 -97.6274 395.454C-91.8564 393.793 -85.6989 391.545 -79.3359 388.457Z" fill="#F9D8DF"/>
<path d="M-79.1271 396.417C-73.5125 394.764 -67.5197 392.534 -61.3282 389.464C-59.7651 388.744 -58.2262 387.87 -56.6533 387.014C-55.0691 386.186 -53.5092 385.204 -51.9161 384.23C-50.2985 383.285 -48.7658 382.185 -47.1754 381.121C-46.78 380.851 -46.3835 380.581 -45.9843 380.31C-45.585 380.022 -45.1838 379.724 -44.7807 379.436C-43.9868 378.859 -43.19 378.273 -42.4008 377.66C-36.0466 372.827 -29.7314 367.163 -22.8667 361.889C-19.4396 359.256 -15.8517 356.723 -12.0761 354.561C-11.1365 354.03 -10.1997 353.49 -9.19288 352.994C-8.7056 352.751 -8.21736 352.499 -7.72721 352.247C-7.23145 352.022 -6.73374 351.788 -6.23511 351.554C-4.2312 350.654 -2.17442 349.826 -0.0836131 349.035C4.09992 347.443 8.41863 345.96 12.7852 344.242C17.1461 342.524 21.5823 340.571 25.8337 337.768C30.0576 334.983 34.1453 331.213 37.0293 326.067C37.3687 325.408 37.7346 324.794 38.0505 324.089L38.5252 323.042L38.7583 322.518L38.9488 322.021L39.3306 321.019L39.4258 320.775C39.4553 320.703 39.523 320.486 39.5335 320.45L39.6985 319.899L40.3556 317.686C41.0693 314.669 41.4328 311.533 41.4545 308.379C41.4156 305.234 41.0556 302.106 40.4653 299.05C39.8286 296.012 38.9549 293.055 37.9371 290.179C36.8757 287.321 35.6778 284.535 34.349 281.839C33.0145 279.188 31.5152 276.483 30.0126 274.04C26.8884 268.982 23.6168 264.212 20.5095 259.245C17.4286 254.286 14.5177 249.156 12.3955 243.585C12.1422 242.888 11.8662 242.201 11.63 241.486L10.9553 239.352C10.7371 238.638 10.5832 237.932 10.3915 237.227C10.194 236.549 10.048 235.753 9.8952 234.976L9.66562 233.809L9.60848 233.511C9.61689 233.565 9.58981 233.366 9.58237 233.303L9.51061 232.743L9.21887 230.492C9.1475 229.741 9.12352 228.973 9.07206 228.214L9.00339 227.075L9.01334 225.936C8.94962 222.872 9.31204 219.809 9.79467 216.791C10.3086 213.755 11.132 210.801 12.0718 207.893C14.0858 202.139 16.8227 196.695 20.2014 191.857C21.0203 190.602 21.9175 189.501 22.7818 188.337C23.246 187.768 23.7416 187.191 24.2201 186.613L24.9113 185.792L25.6487 184.998C27.5842 182.824 29.6766 180.848 31.8104 178.936C40.4111 171.324 50.252 165.755 60.1805 160.427C80.1491 149.778 100.118 139.13 119.774 128.648C129.614 123.397 139.334 118.244 148.99 112.987C153.808 110.285 158.648 107.21 162.755 102.784C163.253 102.214 163.771 101.672 164.238 101.058L164.953 100.158L165.647 99.1787C166.139 98.5099 166.489 97.8978 166.883 97.2704L167.028 97.0357C167.07 96.9734 167.186 96.772 167.205 96.7332L167.491 96.214C167.686 95.8692 167.869 95.5198 168.043 95.1658C169.474 92.3469 170.533 89.4052 171.556 86.5674C172.575 83.7286 173.568 80.9558 174.775 78.4608C176.024 75.966 177.454 73.6523 179.127 71.5658C182.493 67.421 186.529 64.1072 190.748 61.2492C194.969 58.3749 199.37 55.9132 203.707 53.3265C208.066 50.7643 212.32 47.8847 216.194 44.4539C220.068 41.0367 223.608 37.0188 226.269 32.2219C227.613 29.8303 228.632 27.2157 229.415 24.494C229.584 23.7857 229.752 23.0793 229.92 22.3746C230.015 22.0124 230.051 21.6889 230.102 21.3564L230.248 20.3616L230.394 19.3695C230.397 19.3577 230.433 19.1093 230.435 19.0361L230.455 18.7713L230.495 18.2427L230.572 17.1881L230.595 16.1343C230.693 10.4965 229.525 5.17186 228.108 0.256113C226.675 -4.67683 224.961 -9.30123 223.479 -13.8682C222 -18.4271 220.716 -22.9576 220.223 -27.4956C219.977 -29.7592 219.938 -32.0142 220.161 -34.201C220.234 -34.7431 220.307 -35.2853 220.379 -35.8238C220.48 -36.3433 220.582 -36.8601 220.681 -37.3751C220.801 -37.9018 220.968 -38.4546 221.107 -38.9903C221.223 -39.4537 221.435 -39.9757 221.591 -40.4652C223.03 -44.4185 225.375 -47.741 227.739 -50.8592C230.11 -53.9773 232.567 -56.9778 234.564 -60.2955C236.549 -63.625 238.072 -67.1804 239.162 -70.7664C240.228 -74.3643 240.873 -77.9764 241.224 -81.4681C241.917 -88.4703 241.485 -94.9478 240.771 -100.669C240.049 -106.403 239.001 -111.424 237.974 -115.737C236.951 -120.055 235.931 -123.668 235.088 -126.588C234.242 -129.507 233.546 -131.724 233.084 -133.22C232.612 -134.713 232.369 -135.482 232.369 -135.482C232.369 -135.482 232.595 -134.706 233.034 -133.199C233.464 -131.688 234.113 -129.453 234.896 -126.51C235.676 -123.568 236.615 -119.928 237.543 -115.594C238.465 -111.262 239.418 -106.241 240.049 -100.544C240.667 -94.8598 240.986 -88.454 240.198 -81.6291C239.801 -78.2261 239.116 -74.7297 238.03 -71.2765C236.922 -67.836 235.401 -64.4514 233.445 -61.2999C231.471 -58.1485 229.036 -55.2835 226.577 -52.1746C224.139 -49.0728 221.606 -45.6684 219.949 -41.3631C219.758 -40.8068 219.544 -40.3146 219.373 -39.6976C219.222 -39.1547 219.056 -38.6407 218.916 -38.0689C218.788 -37.4763 218.661 -36.8809 218.534 -36.2837C218.447 -35.691 218.36 -35.0956 218.274 -34.4992C218 -32.0965 218.016 -29.6336 218.253 -27.2011C218.728 -22.3187 220.023 -17.5894 221.471 -12.9303C222.924 -8.26661 224.575 -3.63421 225.907 1.1693C227.229 5.95743 228.24 10.9818 228.087 16.05L228.058 16.9981L227.976 17.9406L227.935 18.4122L227.916 18.6481C227.909 18.743 227.916 18.6589 227.894 18.8116L227.736 19.8019L227.578 20.7931C227.524 21.1229 227.481 21.469 227.395 21.7472L226.95 23.5223C226.236 25.9052 225.304 28.2713 224.062 30.4264C221.601 34.7672 218.272 38.5018 214.554 41.7096C212.689 43.3139 210.742 44.8242 208.704 46.2004C206.672 47.6011 204.589 48.8805 202.42 50.1255C198.107 52.6345 193.636 55.0663 189.249 57.9837C187.061 59.4554 184.874 61.0022 182.784 62.8041C180.692 64.5978 178.68 66.5986 176.827 68.8519C174.984 71.1179 173.358 73.706 171.971 76.4482C170.602 79.2438 169.561 82.1386 168.528 84.9619C167.495 87.7843 166.473 90.5471 165.189 93.0383C165.032 93.3543 164.869 93.6622 164.696 93.9601L164.443 94.4125C164.373 94.5362 164.401 94.4983 164.342 94.5895L164.195 94.8223C163.806 95.4361 163.411 96.1051 163.031 96.597L162.457 97.3967L161.821 98.1872C161.408 98.7278 160.938 99.2077 160.492 99.7139C156.799 103.655 152.254 106.547 147.532 109.145C137.897 114.251 128.145 119.418 118.315 124.626C98.6374 135.062 78.6471 145.664 58.6578 156.266C48.679 161.643 38.6096 167.354 29.6275 175.317C27.3987 177.328 25.2086 179.403 23.1687 181.704L22.3941 182.543L21.6365 183.445C21.1542 184.031 20.672 184.591 20.1915 185.187C19.2419 186.45 18.242 187.695 17.3832 189.013C13.7936 194.185 10.8703 200.009 8.70951 206.223C7.69439 209.367 6.80891 212.574 6.2518 215.889C5.72499 219.205 5.33824 222.576 5.40982 225.965L5.40908 227.231L5.48789 228.496C5.54771 229.337 5.58192 230.177 5.66541 231.018L6.00116 233.522L6.08606 234.146C6.10756 234.282 6.09808 234.282 6.14492 234.526L6.20397 234.815L6.43929 235.981C6.59488 236.759 6.74007 237.528 6.97511 238.359C7.19313 239.173 7.38837 240.014 7.63109 240.792L8.37729 243.116C8.63897 243.885 8.93858 244.626 9.21735 245.377C11.5394 251.374 14.6214 256.703 17.7929 261.743C20.9788 266.765 24.3099 271.58 27.3314 276.403C28.8907 278.909 30.2343 281.316 31.5501 283.894C32.8299 286.454 33.976 289.078 34.9895 291.755C35.9565 294.45 36.7814 297.199 37.3817 299.984C37.9441 302.778 38.2905 305.607 38.351 308.409C38.3528 311.22 38.0525 313.985 37.4532 316.641L36.8894 318.592L36.7502 319.08C36.7073 319.206 36.7339 319.17 36.6949 319.261L36.6015 319.514L36.2282 320.516L36.0416 321.013L35.8465 321.455L35.4573 322.331C35.2033 322.918 34.8677 323.496 34.5796 324.074C32.0747 328.642 28.4308 332.124 24.4762 334.792C20.5044 337.478 16.2225 339.431 11.9477 341.176C7.66445 342.922 3.35799 344.441 -0.855105 346.132C-2.96308 346.978 -5.04935 347.85 -7.0979 348.814C-7.60791 349.057 -8.11791 349.309 -8.62603 349.552C-9.12852 349.822 -9.63005 350.083 -10.1306 350.344C-11.1118 350.84 -12.0999 351.425 -13.0803 352.011C-16.9737 354.326 -20.5883 356.959 -24.0364 359.691C-30.9233 365.164 -37.1743 370.891 -43.381 375.814C-44.1532 376.436 -44.9291 377.031 -45.7041 377.626C-46.0863 377.915 -46.4667 378.203 -46.8461 378.492C-47.2407 378.771 -47.6333 379.051 -48.025 379.33C-49.5937 380.43 -51.1265 381.584 -52.6806 382.53C-54.2263 383.512 -55.7361 384.521 -57.291 385.368C-58.8299 386.26 -60.3366 387.152 -61.8705 387.899C-67.941 391.078 -73.8364 393.426 -79.3774 395.196C-84.9297 396.921 -90.1256 398.005 -94.8424 398.764C-96.2227 398.96 -97.5574 399.12 -98.8532 399.262L-98.8549 400.058C-97.5316 399.952 -96.1705 399.819 -94.76 399.641C-90.0035 398.999 -84.754 398.024 -79.1271 396.417Z" fill="#F9D8DF"/>
<path d="M-85.1277 404.63C-80.3713 403.988 -75.1207 403.013 -69.4948 401.406C-63.8793 399.762 -57.8884 397.523 -51.6969 394.462C-50.1328 393.742 -48.593 392.868 -47.021 392.003C-45.4368 391.184 -43.8769 390.193 -42.2839 389.22C-40.6672 388.274 -39.1336 387.174 -37.5441 386.11C-37.1477 385.84 -36.7503 385.57 -36.352 385.299C-35.9517 385.011 -35.5505 384.713 -35.1484 384.425C-34.3535 383.848 -33.5578 383.262 -32.7695 382.649C-26.4143 377.816 -20.0991 372.152 -13.2354 366.878C-9.80824 364.245 -6.21942 361.722 -2.44286 359.551C-1.50513 359.019 -0.567402 358.479 0.439381 357.983C0.926664 357.74 1.41491 357.488 1.90503 357.245C2.40082 357.011 2.89853 356.777 3.39714 356.552C5.40106 355.643 7.45782 354.824 9.54865 354.024C13.7322 352.432 18.05 350.949 22.4184 349.24C26.7784 347.513 31.2146 345.56 35.4659 342.766C39.6898 339.981 43.7775 336.202 46.6615 331.065C47.001 330.397 47.3669 329.783 47.6818 329.079L48.1575 328.031L48.3906 327.507L48.5811 327.011L48.9629 326.008L49.0581 325.764C49.0876 325.692 49.1553 325.475 49.1658 325.439L49.3308 324.888L49.9879 322.675C50.7016 319.658 51.0651 316.522 51.0859 313.368C51.0479 310.223 50.6869 307.104 50.0975 304.048C49.4599 301.001 48.5881 298.053 47.5703 295.168C46.508 292.31 45.3101 289.533 43.9813 286.837C42.6467 284.177 41.1475 281.472 39.644 279.029C36.5207 273.98 33.2491 269.201 30.1417 264.243C27.0609 259.284 24.1499 254.145 22.0278 248.583C21.7745 247.877 21.4985 247.19 21.2622 246.484L20.5876 244.341C20.3704 243.627 20.2155 242.921 20.0228 242.216C19.8263 241.538 19.6793 240.742 19.5284 239.965L19.2979 238.798L19.2407 238.5C19.2492 238.554 19.2221 238.355 19.2147 238.292L19.1429 237.732L18.8511 235.481C18.7798 234.73 18.7558 233.971 18.7043 233.212L18.6366 232.073L18.6456 230.925C18.5819 227.87 18.9443 224.807 19.427 221.78C19.9399 218.744 20.7643 215.79 21.7041 212.891C23.7181 207.137 26.455 201.684 29.8336 196.846C30.6526 195.591 31.5498 194.49 32.414 193.335C32.8783 192.757 33.3738 192.18 33.8523 191.611L34.5444 190.781L35.281 189.987C37.2175 187.813 39.3089 185.837 41.4427 183.925C50.0434 176.322 59.8843 170.746 69.8127 165.418C89.7814 154.77 109.75 144.122 129.406 133.64C139.246 128.389 148.967 123.235 158.623 117.979C163.442 115.277 168.28 112.202 172.386 107.776C172.885 107.205 173.404 106.664 173.871 106.049L174.586 105.15L175.279 104.17C175.771 103.501 176.122 102.89 176.515 102.262L176.66 102.027C176.702 101.963 176.818 101.764 176.837 101.724L177.123 101.205C177.319 100.861 177.502 100.511 177.676 100.158C179.107 97.3368 180.165 94.396 181.188 91.5582C182.207 88.7186 183.2 85.9476 184.407 83.4517C185.657 80.9578 187.086 78.6431 188.76 76.5576C192.125 72.4128 196.161 69.099 200.381 66.241C204.602 63.3658 209.002 60.904 213.339 58.3182C217.698 55.7561 221.953 52.8765 225.826 49.4457C229.7 46.0276 233.24 42.0097 235.902 37.2128C237.246 34.8212 238.264 32.2075 239.048 29.4849C239.216 28.7775 239.384 28.0711 239.551 27.3655C239.647 27.0042 239.684 26.6798 239.734 26.3472L239.88 25.3533L240.026 24.3604C240.029 24.3496 240.065 24.101 240.067 24.0278L240.087 23.7631L240.127 23.2345L240.204 22.1789L240.227 21.1261C240.325 15.4883 239.158 10.1636 237.741 5.24786C236.308 0.314009 234.594 -4.30943 233.112 -8.87643C231.632 -13.4362 230.349 -17.9667 229.855 -22.5047C229.609 -24.7674 229.57 -27.0225 229.794 -29.2093C229.867 -29.7514 229.939 -30.2935 230.011 -30.8329C230.112 -31.3515 230.214 -31.8683 230.314 -32.3833C230.432 -32.91 230.6 -33.4637 230.739 -33.9985C230.856 -34.4628 231.066 -34.9848 231.223 -35.4735C232.664 -39.4267 235.007 -42.7492 237.371 -45.8674C239.744 -48.9855 242.2 -51.9869 244.196 -55.3047C246.182 -58.6332 247.705 -62.1886 248.794 -65.7747C249.86 -69.3734 250.505 -72.9847 250.856 -76.4772C251.549 -83.4786 251.117 -89.956 250.403 -95.6784C249.682 -101.412 248.633 -106.433 247.606 -110.747C246.583 -115.064 245.564 -118.678 244.72 -121.598C243.874 -124.517 243.178 -126.732 242.715 -128.23C242.244 -129.721 242.001 -130.492 242.001 -130.492C242.001 -130.492 242.227 -129.714 242.667 -128.207C243.096 -126.697 243.745 -124.461 244.528 -121.518C245.308 -118.577 246.247 -114.936 247.175 -110.603C248.097 -106.271 249.051 -101.25 249.682 -95.5524C250.299 -89.8681 250.617 -83.4623 249.83 -76.6382C249.433 -73.2353 248.748 -69.7388 247.663 -66.2847C246.554 -62.8442 245.034 -59.4615 243.076 -56.3082C241.103 -53.1567 238.668 -50.2926 236.209 -47.1837C233.771 -44.081 231.239 -40.6776 229.581 -36.3723C229.391 -35.815 229.177 -35.3237 229.005 -34.7068C228.854 -34.163 228.688 -33.649 228.548 -33.0772C228.422 -32.4845 228.293 -31.8901 228.166 -31.2929C228.08 -30.6992 227.992 -30.1047 227.906 -29.5074C227.632 -27.1056 227.649 -24.6428 227.885 -22.2093C228.361 -17.3269 229.655 -12.5985 231.103 -7.9394C232.556 -3.27484 234.207 1.35664 235.539 6.16105C236.861 10.9492 237.872 15.9735 237.72 21.0408L237.69 21.9889L237.607 22.9314L237.568 23.404L237.547 23.6399C237.542 23.7348 237.548 23.6498 237.526 23.8034L237.369 24.7937L237.21 25.784C237.158 26.1147 237.113 26.4589 237.028 26.739L236.582 28.514C235.869 30.896 234.936 33.2623 233.694 35.4173C231.234 39.7581 227.904 43.4936 224.185 46.7014C222.322 48.3048 220.374 49.8151 218.336 51.1922C216.304 52.5929 214.22 53.8714 212.052 55.1173C207.74 57.6253 203.268 60.0572 198.88 62.9745C196.693 64.4472 194.506 65.9931 192.416 67.7959C190.324 69.5896 188.313 71.5904 186.458 73.8437C184.616 76.1079 182.991 78.6969 181.603 81.44C180.235 84.2347 179.193 87.1294 178.16 89.9527C177.128 92.7752 176.106 95.538 174.821 98.0301C174.664 98.3452 174.501 98.6531 174.33 98.951L174.076 99.4042C174.005 99.5279 174.033 99.49 173.974 99.5803L173.828 99.8132C173.438 100.428 173.043 101.097 172.664 101.588L172.09 102.388L171.452 103.178C171.041 103.72 170.57 104.2 170.124 104.706C166.431 108.646 161.887 111.538 157.164 114.137C147.529 119.242 137.777 124.41 127.947 129.618C108.27 140.054 88.2794 150.655 68.29 161.258C58.3122 166.635 48.2419 172.342 39.2597 180.315C37.0309 182.317 34.8409 184.401 32.8009 186.693L32.0264 187.532L31.2688 188.434C30.7865 189.021 30.3052 189.58 29.8238 190.176C28.8732 191.448 27.8743 192.685 27.0155 194.002C23.4259 199.174 20.5026 204.998 18.3418 211.213C17.3267 214.356 16.4412 217.572 15.8841 220.879C15.3582 224.195 14.9705 227.565 15.0421 230.954L15.0413 232.22L15.1211 233.485C15.1809 234.326 15.2152 235.176 15.2977 236.007L15.6335 238.511L15.7183 239.135C15.7398 239.271 15.7304 239.271 15.7772 239.515L15.8363 239.813L16.0725 240.98C16.2272 241.748 16.3714 242.517 16.6064 243.349C16.8254 244.162 17.0206 245.003 17.2634 245.781L18.0105 248.105C18.2713 248.874 18.5699 249.616 18.8487 250.375C21.1716 256.363 24.2536 261.692 27.4252 266.741C30.611 271.763 33.9422 276.569 36.9646 281.392C38.5229 283.907 39.8666 286.314 41.1823 288.883C42.4612 291.443 43.6083 294.067 44.6218 296.744C45.5888 299.439 46.4137 302.188 47.014 304.973C47.5764 307.767 47.9228 310.596 47.9842 313.407C47.9841 316.209 47.6838 318.974 47.0855 321.63L46.5227 323.581L46.3834 324.069C46.3396 324.196 46.3671 324.159 46.3271 324.259L46.2338 324.503L45.8605 325.505L45.6738 326.011L45.4778 326.453L45.0896 327.32C44.8356 327.907 44.5001 328.485 44.2119 329.063C41.7079 333.632 38.0631 337.113 34.1084 339.79C30.1357 342.467 25.8548 344.42 21.58 346.174C17.2967 347.92 12.9902 349.439 8.77716 351.121C6.67013 351.967 4.58296 352.839 2.53441 353.803C2.02343 354.055 1.51438 354.298 1.00531 354.541C0.503769 354.811 0.00126057 355.072 -0.498371 355.333C-1.48055 355.838 -2.46765 356.423 -3.44903 357C-7.34237 359.315 -10.956 361.948 -14.4042 364.68C-21.291 370.153 -27.542 375.889 -33.7497 380.803C-34.5199 381.425 -35.2968 382.029 -36.0718 382.615C-36.4531 382.904 -36.8344 383.192 -37.2138 383.481C-37.6074 383.76 -38.001 384.04 -38.3927 384.319C-39.9605 385.419 -41.4952 386.573 -43.0484 387.519C-44.5941 388.51 -46.1038 389.511 -47.6597 390.366C-49.1986 391.249 -50.7053 392.15 -52.2382 392.897C-58.3087 396.067 -64.2051 398.424 -69.7442 400.185C-75.2975 401.91 -80.4933 403.003 -85.2111 403.753C-90.3636 404.493 -94.9375 404.801 -98.8631 404.875L-98.8642 405.39C-94.9246 405.443 -90.3245 405.28 -85.1277 404.63Z" fill="#F9D8DF"/>
</g>
<g opacity="0.15">
<path d="M603.964 654.188C602.647 652.879 601.399 651.396 600.12 649.906C598.813 648.468 597.584 646.835 596.319 645.205C595.019 643.613 593.857 641.831 592.625 640.09C592.319 639.652 592.012 639.214 591.703 638.775C591.402 638.303 591.097 637.842 590.794 637.369C590.194 636.437 589.593 635.505 589.01 634.529C584.27 626.862 579.844 618.153 574.747 609.784C572.199 605.611 569.461 601.521 566.414 597.84C565.656 596.926 564.9 596.013 564.06 595.138C563.657 594.699 563.253 594.26 562.845 593.832C562.428 593.413 562.009 592.994 561.59 592.574C559.893 590.927 558.12 589.356 556.3 587.821C552.661 584.75 548.853 581.779 545.071 578.504C541.303 575.209 537.529 571.626 534.218 567.028C530.929 562.46 528.1 556.686 526.915 549.523C526.791 548.619 526.629 547.753 526.548 546.789L526.417 545.358L526.356 544.649L526.331 543.974L526.277 542.634L526.264 542.297C526.255 542.211 526.261 541.914 526.263 541.867L526.28 541.131L526.348 538.21C526.627 534.258 527.291 530.251 528.299 526.322C529.367 522.407 530.746 518.61 532.333 514.95C533.96 511.324 535.794 507.871 537.747 504.545C539.737 501.264 541.837 498.108 544.039 495.097C546.235 492.133 548.608 489.154 550.901 486.502C555.659 481.014 560.471 475.923 565.183 470.543C569.867 465.167 574.441 459.524 578.369 453.14C578.85 452.334 579.35 451.544 579.818 450.722L581.186 448.235C581.637 447.397 582.019 446.565 582.442 445.731C582.861 444.932 583.266 443.987 583.671 443.053L584.281 441.659L584.435 441.305C584.409 441.37 584.5 441.131 584.528 441.054L584.785 440.369L585.811 437.638C586.127 436.717 586.401 435.773 586.699 434.847L587.139 433.445L587.505 432.011C588.568 428.215 589.208 424.309 589.719 420.405C590.199 416.494 590.345 412.603 590.36 408.738C590.24 401.04 589.3 393.535 587.526 386.614C587.119 384.848 586.588 383.241 586.108 381.565C585.835 380.729 585.529 379.886 585.241 379.046L584.822 377.839L584.354 376.643C583.137 373.437 581.705 370.426 580.21 367.482C574.145 355.765 566.184 346.254 558.057 337.025C541.687 318.546 525.319 300.068 509.205 281.879C501.14 272.768 493.162 263.81 485.281 254.742C481.374 250.117 477.57 245.025 474.934 238.435C474.625 237.594 474.286 236.785 474.024 235.897L473.607 234.591L473.237 233.188C472.967 232.226 472.819 231.372 472.633 230.487L472.565 230.157C472.544 230.068 472.495 229.787 472.489 229.732L472.373 229.011C472.292 228.531 472.224 228.048 472.167 227.56C471.666 223.675 471.576 219.732 471.486 215.929C471.402 212.124 471.321 208.409 470.938 204.985C470.511 201.548 469.846 198.292 468.865 195.255C466.874 189.211 463.946 184.029 460.685 179.368C457.429 174.684 453.859 170.469 450.393 166.115C446.898 161.783 443.609 157.086 440.881 151.8C438.147 146.529 435.942 140.599 434.864 133.926C434.31 130.594 434.151 127.071 434.263 123.473C434.327 122.547 434.392 121.622 434.456 120.7C434.478 120.225 434.549 119.811 434.607 119.383L434.786 118.106L434.966 116.832C434.968 116.816 435.013 116.497 435.035 116.405L435.101 116.071L435.234 115.402L435.502 114.066L435.824 112.747C437.57 105.694 440.472 99.3605 443.488 93.6032C446.525 87.8275 449.74 82.5113 452.706 77.2043C455.669 71.9061 458.426 66.595 460.4 61.0676C461.385 58.3104 462.161 55.5096 462.653 52.725C462.759 52.0299 462.863 51.3358 462.968 50.6452C463.037 49.9728 463.106 49.3017 463.174 48.6329C463.229 47.945 463.243 47.2128 463.279 46.5094C463.316 45.9003 463.276 45.195 463.28 44.5441C463.141 39.2416 461.897 34.4893 460.567 29.9869C459.229 25.4812 457.767 21.1 456.868 16.4444C455.982 11.7779 455.631 6.94939 455.72 2.19591C455.836 -2.56864 456.377 -7.23843 457.169 -11.6827C458.77 -20.59 461.317 -28.5518 463.897 -35.4969C466.49 -42.4581 469.173 -48.4415 471.605 -53.5505C474.034 -58.6662 476.228 -62.9041 478.021 -66.3231C479.817 -69.7414 481.234 -72.3218 482.182 -74.0664C482.22 -74.1364 482.253 -74.1959 482.29 -74.2627L482.341 -74.2496C482.301 -74.1752 482.265 -74.1056 482.224 -74.0278C481.302 -72.2564 479.927 -69.6376 478.187 -66.1749C476.45 -62.7115 474.326 -58.4196 471.987 -53.2602C469.654 -48.1004 467.063 -42.0894 464.574 -35.1528C462.102 -28.2286 459.691 -20.327 458.242 -11.6166C457.524 -7.27007 457.061 -2.73407 457.012 1.85428C456.989 6.43156 457.394 11.0459 458.309 15.4848C459.24 19.9277 460.724 24.1321 462.153 28.6492C463.562 33.1519 464.966 38.0545 465.207 43.8525C465.213 44.5959 465.266 45.2652 465.234 46.0785C465.206 46.7949 465.204 47.4797 465.156 48.2293C465.088 49.001 465.021 49.7752 464.952 50.5527C464.845 51.3142 464.737 52.079 464.628 52.846C464.115 55.912 463.293 58.9766 462.262 61.9488C460.194 67.9091 457.361 73.4668 454.397 78.895C451.428 84.3324 448.272 89.6748 445.377 95.3156C442.496 100.938 439.85 106.937 438.345 113.295L438.065 114.484L437.837 115.68L437.724 116.279L437.666 116.579C437.641 116.697 437.662 116.591 437.634 116.788L437.466 118.063L437.299 119.339C437.244 119.763 437.176 120.207 437.169 120.577L437.032 122.905C436.962 126.06 437.116 129.254 437.646 132.263C438.672 138.316 440.761 143.839 443.409 148.807C444.738 151.292 446.18 153.681 447.756 155.929C449.319 158.204 450.97 160.343 452.719 162.459C456.187 166.712 459.836 170.908 463.244 175.687C464.937 178.092 466.606 180.589 468.094 183.381C469.587 186.163 470.933 189.18 472.039 192.473C473.13 195.776 473.9 199.426 474.382 203.206C474.829 207.048 474.918 210.927 475.022 214.716C475.126 218.503 475.237 222.214 475.7 225.654C475.753 226.089 475.815 226.514 475.889 226.93L475.992 227.561C476.022 227.734 476.006 227.68 476.036 227.808L476.105 228.136C476.291 229.004 476.465 229.941 476.681 230.652L476.99 231.798L477.366 232.949C477.599 233.731 477.909 234.451 478.187 235.2C480.569 241.073 484.142 245.862 487.987 250.334C495.896 259.209 503.902 268.191 511.97 277.246C528.12 295.383 544.525 313.809 560.931 332.234C569.091 341.538 577.235 351.282 583.561 363.551C585.121 366.632 586.618 369.791 587.894 373.191L588.389 374.442L588.846 375.767C589.135 376.619 589.432 377.436 589.714 378.309C590.243 380.142 590.833 381.944 591.257 383.809C593.132 391.198 594.137 399.21 594.25 407.527C594.23 411.713 594.061 415.944 593.533 420.214C592.972 424.487 592.258 428.779 591.077 432.987L590.666 434.564L590.172 436.119C589.838 437.155 589.527 438.197 589.169 439.226L588.017 442.259L587.731 443.009C587.665 443.171 587.674 443.173 587.546 443.474L587.393 443.816L586.777 445.209C586.368 446.142 585.975 447.055 585.468 448.034C584.987 448.983 584.518 449.984 584.02 450.894L582.518 453.597C582.007 454.491 581.468 455.33 580.944 456.197C576.678 463.055 571.871 468.9 567.068 474.364C562.259 479.79 557.373 484.922 552.793 490.146C550.424 492.862 548.299 495.523 546.151 498.38C544.043 501.236 542.043 504.216 540.161 507.286C538.319 510.39 536.601 513.598 535.092 516.92C533.621 520.252 532.352 523.684 531.374 527.168C530.455 530.667 529.847 534.199 529.575 537.663L529.499 540.235L529.476 540.886C529.479 541.054 529.464 541.002 529.47 541.135L529.484 541.461L529.527 542.81L529.548 543.484L529.599 544.082L529.698 545.278C529.76 546.071 529.906 546.873 530.003 547.674C530.998 554.023 533.482 559.313 536.54 563.678C539.613 568.047 543.23 571.601 546.908 574.897C550.593 578.195 554.379 581.208 558.016 584.409C559.836 586.005 561.624 587.639 563.345 589.376C563.771 589.821 564.199 590.254 564.622 590.699C565.035 591.164 565.448 591.618 565.858 592.082C566.673 592.951 567.462 593.944 568.247 594.924C571.36 598.825 574.093 603.046 576.629 607.347C581.684 615.968 586.026 624.738 590.587 632.491C591.149 633.473 591.727 634.411 592.304 635.349C592.587 635.817 592.872 636.273 593.156 636.729C593.457 637.177 593.754 637.636 594.053 638.084C595.252 639.864 596.402 641.691 597.638 643.278C598.849 644.918 600.023 646.561 601.288 648.036C602.529 649.54 603.734 651.047 605.014 652.383C610.013 657.908 615.104 662.383 620.035 666.028C623.089 668.242 626.089 670.12 628.978 671.754L628.643 673.04C625.658 671.477 622.555 669.656 619.387 667.484C614.344 663.965 609.117 659.622 603.964 654.188Z" fill="#F9D8DF"/>
<path d="M601.181 663.982C596.286 660.513 591.213 656.234 586.22 650.866C584.941 649.578 583.736 648.107 582.493 646.649C581.229 645.223 580.039 643.612 578.813 642.004C577.556 640.424 576.43 638.674 575.237 636.955C574.942 636.52 574.646 636.085 574.348 635.65C574.055 635.191 573.763 634.722 573.467 634.263C572.886 633.347 572.306 632.42 571.741 631.462C567.163 623.872 562.892 615.263 557.963 606.997C555.502 602.871 552.853 598.828 549.902 595.195C549.166 594.3 548.435 593.393 547.622 592.525C547.23 592.101 546.839 591.665 546.447 591.229C546.04 590.825 545.635 590.409 545.228 589.993C543.582 588.371 541.861 586.826 540.095 585.316C536.565 582.286 532.869 579.356 529.203 576.123C525.542 572.891 521.884 569.35 518.681 564.804C515.499 560.288 512.768 554.587 511.648 547.489C511.534 546.588 511.379 545.735 511.302 544.784L511.183 543.368L511.127 542.661L511.104 541.998L511.06 540.661L511.047 540.335C511.042 540.238 511.047 539.953 511.048 539.906L511.067 539.182L511.15 536.278C511.438 532.364 512.104 528.393 513.106 524.486C514.165 520.605 515.528 516.827 517.09 513.196C518.692 509.6 520.496 506.163 522.414 502.864C524.368 499.598 526.43 496.455 528.59 493.458C530.741 490.517 533.069 487.551 535.315 484.91C539.978 479.446 544.69 474.376 549.307 469.019C553.896 463.666 558.376 458.059 562.236 451.705C562.707 450.908 563.197 450.128 563.658 449.304L565.003 446.835C565.446 446.006 565.823 445.173 566.238 444.349C566.649 443.56 567.048 442.613 567.448 441.69L568.049 440.305L568.201 439.951C568.175 440.016 568.266 439.777 568.293 439.7L568.545 439.025L569.557 436.315C569.87 435.405 570.142 434.46 570.438 433.534L570.874 432.143L571.234 430.731C572.29 426.957 572.933 423.076 573.445 419.22C573.933 415.335 574.095 411.472 574.129 407.635C574.048 400.007 573.167 392.578 571.468 385.736C571.083 383.976 570.573 382.386 570.114 380.727C569.85 379.906 569.558 379.066 569.282 378.23L568.88 377.039L568.424 375.87C567.258 372.689 565.875 369.714 564.431 366.808C558.581 355.21 550.869 345.823 542.994 336.714C527.134 318.476 511.273 300.238 495.661 282.284C487.846 273.292 480.116 264.451 472.481 255.499C468.697 250.934 465.014 245.903 462.477 239.385C462.18 238.554 461.855 237.753 461.602 236.874L461.202 235.579L460.849 234.192C460.591 233.24 460.45 232.394 460.273 231.518L460.208 231.191C460.188 231.103 460.141 230.824 460.136 230.772L460.027 230.057C459.951 229.581 459.886 229.102 459.833 228.62C459.364 224.77 459.294 220.862 459.225 217.092C459.16 213.322 459.1 209.64 458.742 206.248C458.342 202.844 457.71 199.62 456.768 196.614C454.857 190.633 452.029 185.51 448.875 180.904C445.724 176.278 442.267 172.116 438.911 167.816C435.526 163.541 432.345 158.899 429.711 153.672C427.072 148.462 424.952 142.594 423.933 135.985C423.409 132.685 423.272 129.193 423.398 125.627C423.464 124.708 423.531 123.792 423.597 122.877C423.622 122.405 423.693 121.996 423.751 121.572L423.933 120.304L424.114 119.04C424.115 119.024 424.16 118.708 424.182 118.617L424.249 118.284L424.382 117.62L424.649 116.296L424.969 114.987C426.702 107.988 429.56 101.697 432.525 95.9756C435.512 90.2369 438.67 84.9512 441.585 79.6777C444.495 74.4135 447.207 69.135 449.156 63.6463C450.129 60.9086 450.898 58.1289 451.391 55.3671C451.497 54.6779 451.603 53.989 451.708 53.3045C451.778 52.6361 451.848 51.9711 451.918 51.3088C451.974 50.627 451.992 49.9007 452.031 49.2027C452.069 48.6001 452.033 47.9006 452.041 47.2553C451.931 41.9999 450.741 37.295 449.466 32.838C448.184 28.3792 446.781 24.0442 445.926 19.4335C445.086 14.8112 444.767 10.0268 444.876 5.31421C445.012 0.593078 445.56 -4.03887 446.353 -8.44718C447.955 -17.2849 450.474 -25.1882 453.02 -32.0849C455.579 -38.9951 458.222 -44.94 460.615 -50.0149C463.006 -55.0963 465.164 -59.3078 466.927 -62.7059C468.693 -66.1022 470.085 -68.6675 471.017 -70.4007C471.958 -72.128 472.443 -73.0182 472.443 -73.0182C472.443 -73.0182 471.972 -72.1148 471.058 -70.3626C470.152 -68.6023 468.8 -66.0016 467.088 -62.5603C465.379 -59.1182 463.289 -54.8543 460.986 -49.7288C458.688 -44.6029 456.137 -38.6341 453.679 -31.7467C451.237 -24.8718 448.85 -17.0286 447.398 -8.38603C446.677 -4.07591 446.206 0.423182 446.136 4.97036C446.092 9.50758 446.464 14.0801 447.334 18.475C448.221 22.8741 449.647 27.0359 451.017 31.5057C452.369 35.9613 453.715 40.8151 453.921 46.5612C453.924 47.2978 453.972 47.961 453.937 48.7676C453.908 49.4776 453.901 50.1554 453.851 50.8984C453.782 51.6638 453.712 52.4326 453.641 53.2036C453.533 53.9587 453.424 54.7175 453.314 55.4771C452.8 58.5188 451.985 61.5613 450.967 64.5105C448.922 70.4294 446.136 75.9514 443.224 81.3476C440.305 86.748 437.206 92.0597 434.359 97.6639C431.526 103.251 428.919 109.21 427.422 115.519L427.143 116.699L426.916 117.885L426.802 118.479L426.744 118.776C426.72 118.895 426.741 118.789 426.713 118.984L426.544 120.249L426.375 121.515C426.32 121.937 426.25 122.376 426.243 122.742L426.097 125.051C426.015 128.179 426.149 131.343 426.651 134.324C427.623 140.318 429.632 145.782 432.188 150.694C433.47 153.151 434.864 155.513 436.389 157.733C437.9 159.981 439.499 162.092 441.194 164.183C444.551 168.38 448.087 172.523 451.384 177.245C453.023 179.62 454.637 182.089 456.074 184.848C457.516 187.597 458.812 190.583 459.874 193.841C460.922 197.111 461.654 200.725 462.107 204.469C462.524 208.275 462.591 212.12 462.675 215.875C462.758 219.628 462.85 223.305 463.285 226.712C463.334 227.143 463.391 227.565 463.462 227.978L463.56 228.601C463.588 228.772 463.573 228.718 463.601 228.846L463.667 229.171C463.844 230.029 464.01 230.957 464.217 231.662L464.513 232.797L464.872 233.936C465.096 234.71 465.395 235.423 465.662 236.162C467.956 241.974 471.413 246.704 475.138 251.116C482.802 259.876 490.558 268.743 498.377 277.679C514.025 295.581 529.921 313.767 545.817 331.953C553.725 341.136 561.612 350.755 567.717 362.884C569.22 365.938 570.666 369.059 571.892 372.423L572.369 373.658L572.809 374.966C573.086 375.814 573.37 376.628 573.642 377.487C574.151 379.291 574.714 381.085 575.117 382.934C576.911 390.242 577.849 398.188 577.923 406.423C577.885 410.569 577.701 414.761 577.164 419.004C576.598 423.24 575.879 427.507 574.71 431.682L574.3 433.247L573.813 434.793C573.483 435.817 573.177 436.849 572.823 437.867L571.686 440.88L571.402 441.63C571.337 441.792 571.346 441.795 571.222 442.085L571.071 442.428L570.465 443.811C570.062 444.733 569.672 445.647 569.175 446.617C568.7 447.568 568.238 448.559 567.751 449.459L566.275 452.145C565.773 453.03 565.242 453.871 564.729 454.729C560.538 461.558 555.827 467.368 551.124 472.799C546.413 478.203 541.629 483.314 537.142 488.513C534.82 491.218 532.74 493.854 530.631 496.71C528.562 499.553 526.602 502.507 524.753 505.561C522.944 508.65 521.254 511.842 519.77 515.134C518.319 518.448 517.066 521.86 516.099 525.311C515.185 528.787 514.578 532.284 514.296 535.722L514.209 538.278L514.185 538.917C514.186 539.084 514.172 539.033 514.18 539.154L514.188 539.491L514.224 540.826L514.243 541.488L514.289 542.085L514.381 543.267C514.436 544.057 514.573 544.857 514.664 545.645C515.605 551.932 518 557.164 520.96 561.467C523.93 565.797 527.439 569.3 531.007 572.543C534.584 575.789 538.257 578.761 541.783 581.921C543.548 583.502 545.283 585.111 546.952 586.822C547.366 587.252 547.778 587.694 548.191 588.123C548.589 588.585 548.989 589.035 549.389 589.485C550.177 590.347 550.943 591.322 551.701 592.295C554.716 596.147 557.359 600.32 559.807 604.575C564.693 613.092 568.882 621.763 573.288 629.427C573.833 630.393 574.391 631.326 574.947 632.259C575.223 632.712 575.498 633.166 575.771 633.619C576.062 634.065 576.351 634.51 576.639 634.955C577.8 636.713 578.908 638.53 580.105 640.094C581.281 641.701 582.414 643.333 583.643 644.775C584.843 646.269 586.011 647.754 587.252 649.068C592.092 654.54 597.033 658.94 601.819 662.535C606.63 666.078 611.304 668.736 615.62 670.872C616.892 671.465 618.131 672.002 619.338 672.507L619.082 673.491C617.836 673.024 616.563 672.514 615.256 671.936C610.863 669.936 606.102 667.397 601.181 663.982Z" fill="#F9D8DF"/>
<path d="M604.32 675.664C599.927 673.663 595.165 671.125 590.244 667.71C585.345 664.252 580.277 659.962 575.281 654.605C574.002 653.317 572.796 651.846 571.556 650.377C570.29 648.962 569.102 647.34 567.877 645.732C566.62 644.152 565.493 642.402 564.301 640.683C564.005 640.248 563.709 639.813 563.411 639.377C563.118 638.919 562.826 638.449 562.531 637.99C561.949 637.075 561.369 636.148 560.806 635.19C556.226 627.6 551.955 618.991 547.027 610.725C544.566 606.599 541.914 602.567 538.965 598.923C538.23 598.028 537.499 597.121 536.686 596.253C536.293 595.829 535.903 595.393 535.507 594.968C535.104 594.553 534.698 594.137 534.289 593.732C532.646 592.099 530.922 590.565 529.159 589.044C525.629 586.014 521.933 583.084 518.262 579.861C514.605 576.619 510.948 573.078 507.742 568.543C504.56 564.027 501.832 558.315 500.709 551.228C500.597 550.316 500.443 549.463 500.367 548.512L500.246 547.096L500.191 546.389L500.168 545.726L500.124 544.389L500.111 544.063C500.105 543.966 500.11 543.681 500.112 543.633L500.131 542.91L500.213 540.006C500.502 536.092 501.168 532.121 502.171 528.214C503.228 524.333 504.589 520.566 506.151 516.935C507.756 513.328 509.556 509.902 511.476 506.592C513.431 503.326 515.491 500.194 517.651 497.196C519.805 494.245 522.132 491.279 524.379 488.638C529.039 483.185 533.753 478.104 538.368 472.758C542.957 467.405 547.44 461.787 551.297 455.444C551.771 454.636 552.261 453.855 552.718 453.043L554.066 450.563C554.508 449.734 554.887 448.901 555.302 448.077C555.712 447.288 556.112 446.341 556.511 445.418L557.112 444.033L557.264 443.679C557.238 443.744 557.329 443.504 557.357 443.428L557.608 442.753L558.621 440.042C558.933 439.132 559.203 438.199 559.499 437.273L559.934 435.881L560.297 434.459C561.35 430.696 561.993 426.815 562.509 422.948C562.997 419.063 563.158 415.2 563.19 411.374C563.108 403.746 562.23 396.306 560.532 389.464C560.147 387.704 559.636 386.114 559.175 384.466C558.913 383.634 558.621 382.794 558.343 381.969L557.943 380.766L557.488 379.597C556.32 376.416 554.938 373.442 553.495 370.535C547.642 358.948 539.932 349.554 532.057 340.444C516.196 322.207 500.335 303.969 484.724 286.016C476.909 277.023 469.178 268.182 461.543 259.23C457.759 254.665 454.077 249.634 451.541 243.117C451.243 242.284 450.916 241.484 450.665 240.604L450.265 239.311L449.912 237.923C449.653 236.97 449.513 236.125 449.336 235.249L449.271 234.922C449.251 234.832 449.204 234.556 449.198 234.502L449.09 233.787C449.012 233.312 448.949 232.832 448.896 232.351C448.427 228.499 448.357 224.592 448.288 220.822C448.223 217.051 448.162 213.371 447.805 209.978C447.405 206.576 446.774 203.35 445.831 200.345C443.92 194.364 441.092 189.241 437.937 184.635C434.787 180.008 431.33 175.846 427.973 171.547C424.588 167.272 421.406 162.63 418.773 157.404C416.135 152.192 414.015 146.324 412.996 139.715C412.472 136.416 412.335 132.924 412.46 129.357C412.527 128.44 412.594 127.523 412.661 126.608C412.685 126.136 412.755 125.726 412.814 125.302L412.996 124.035L413.177 122.77C413.177 122.756 413.223 122.439 413.244 122.348L413.311 122.015L413.444 121.351L413.712 120.026L414.032 118.718C415.766 111.719 418.622 105.428 421.588 99.7067C424.575 93.967 427.733 88.6824 430.647 83.4087C433.558 78.1436 436.27 72.8648 438.219 67.3763C439.191 64.6398 439.961 61.86 440.454 59.0983C440.559 58.4091 440.665 57.7201 440.771 57.0345C440.841 56.3673 440.91 55.7023 440.98 55.0397C441.037 54.3584 441.055 53.6308 441.093 52.9339C441.131 52.33 441.097 51.6308 441.103 50.9865C440.993 45.7308 439.804 41.0264 438.529 36.5692C437.246 32.1102 435.844 27.7742 434.989 23.1636C434.148 18.5424 433.828 13.7577 433.938 9.0454C434.075 4.32315 434.622 -0.307701 435.416 -4.71713C437.018 -13.5537 439.537 -21.4571 442.084 -28.3546C444.642 -35.2639 447.285 -41.2089 449.678 -46.286C452.069 -51.3663 454.227 -55.5777 455.99 -58.9759C457.756 -62.3722 459.148 -64.9363 460.081 -66.6715C461.021 -68.3966 461.506 -69.2882 461.506 -69.2882C461.506 -69.2882 461.034 -68.3836 460.121 -66.6314C459.215 -64.8722 457.862 -62.2705 456.15 -58.8291C454.442 -55.3882 452.352 -51.1231 450.048 -45.9976C447.751 -40.8728 445.2 -34.9041 442.741 -28.0158C440.3 -21.1407 437.914 -13.2972 436.461 -4.65598C435.741 -0.345621 435.269 4.15321 435.198 8.7015C435.155 13.2387 435.528 17.809 436.398 22.2063C437.285 26.6054 438.71 30.7659 440.08 35.2357C441.432 39.6924 442.777 44.5449 442.984 50.2913C442.987 51.029 443.035 51.691 443.001 52.4978C442.97 53.2087 442.964 53.8866 442.914 54.6296C442.844 55.3947 442.775 56.1626 442.704 56.9336C442.595 57.6899 442.487 58.4476 442.377 59.2083C441.863 62.2489 441.047 65.2913 440.029 68.2417C437.985 74.1606 435.199 79.6815 432.287 85.0776C429.368 90.4791 426.269 95.7897 423.421 101.395C420.589 106.983 417.981 112.941 416.484 119.248L416.206 120.429L415.98 121.616L415.865 122.21L415.808 122.507C415.782 122.626 415.804 122.519 415.775 122.715L415.606 123.98L415.438 125.245C415.382 125.668 415.313 126.105 415.305 126.473L415.16 128.782C415.077 131.909 415.212 135.073 415.714 138.054C416.685 144.048 418.694 149.513 421.251 154.425C422.533 156.881 423.927 159.244 425.452 161.464C426.963 163.712 428.563 165.823 430.257 167.914C433.614 172.11 437.15 176.253 440.448 180.975C442.086 183.352 443.7 185.819 445.137 188.579C446.578 191.329 447.874 194.314 448.938 197.572C449.985 200.84 450.717 204.455 451.169 208.2C451.587 212.005 451.654 215.85 451.738 219.604C451.821 223.358 451.913 227.035 452.347 230.443C452.397 230.873 452.455 231.296 452.524 231.707L452.622 232.332C452.65 232.503 452.636 232.449 452.664 232.576L452.73 232.901C452.907 233.761 453.072 234.688 453.28 235.392L453.575 236.528L453.936 237.666C454.158 238.441 454.457 239.154 454.725 239.893C457.019 245.704 460.476 250.435 464.201 254.847C471.865 263.608 479.621 272.474 487.439 281.41C503.087 299.312 518.984 317.497 534.88 335.684C542.787 344.867 550.676 354.482 556.778 366.623C558.284 369.665 559.726 372.798 560.956 376.151L561.433 377.385L561.873 378.694C562.149 379.542 562.433 380.356 562.706 381.215C563.212 383.03 563.777 384.813 564.18 386.661C565.975 393.97 566.913 401.916 566.987 410.151C566.949 414.297 566.762 418.5 566.228 422.732C565.661 426.967 564.942 431.235 563.774 435.41L563.364 436.975L562.876 438.52C562.545 439.545 562.237 440.587 561.887 441.595L560.75 444.608L560.465 445.358C560.4 445.52 560.41 445.523 560.285 445.813L560.131 446.167L559.524 447.55C559.125 448.461 558.736 449.375 558.239 450.345C557.763 451.296 557.302 452.287 556.815 453.187L555.338 455.873C554.836 456.757 554.307 457.599 553.791 458.468C549.601 465.286 544.891 471.096 540.185 476.538C535.474 481.942 530.693 487.041 526.204 492.241C523.881 494.957 521.8 497.594 519.694 500.438C517.627 503.281 515.666 506.235 513.817 509.289C512.007 512.378 510.317 515.569 508.833 518.862C507.383 522.175 506.13 525.588 505.158 529.049C504.249 532.515 503.643 536.012 503.36 539.449L503.271 542.006L503.248 542.645C503.249 542.812 503.234 542.76 503.241 542.893L503.252 543.219L503.288 544.554L503.304 545.227L503.35 545.824L503.444 546.995C503.5 547.785 503.637 548.585 503.728 549.373C504.668 555.66 507.064 560.892 510.021 565.206C512.995 569.525 516.502 573.027 520.068 576.282C523.645 579.528 527.317 582.5 530.847 585.649C532.611 587.23 534.346 588.839 536.015 590.55C536.428 590.992 536.841 591.421 537.255 591.851C537.653 592.313 538.054 592.763 538.452 593.213C539.239 594.086 540.004 595.061 540.766 596.023C543.781 599.875 546.422 604.048 548.871 608.302C553.757 616.82 557.942 625.502 562.353 633.155C562.896 634.12 563.451 635.065 564.011 635.986C564.286 636.44 564.561 636.894 564.835 637.347C565.125 637.792 565.415 638.238 565.703 638.683C566.863 640.441 567.973 642.258 569.168 643.822C570.342 645.44 571.478 647.061 572.705 648.514C573.907 649.997 575.072 651.493 576.313 652.807C581.156 658.268 586.095 662.679 590.881 666.263C595.693 669.805 600.365 672.475 604.685 674.6C609.428 676.823 613.753 678.364 617.526 679.452L617.36 680.089C613.532 679.155 609.135 677.786 604.32 675.664Z" fill="#F9D8DF"/>
</g>
<g opacity="0.15">
<path d="M-109.795 740.265C-102.363 735.471 -94.317 731.088 -85.7753 726.885C-77.224 722.715 -68.1789 718.547 -58.8089 713.659C-49.4433 708.771 -39.7332 703.148 -29.9751 695.792C-20.2446 688.402 -10.4363 679.149 -1.43343 666.623C-0.296861 665.088 0.784626 663.406 1.899 661.805L3.51907 659.241C4.06381 658.408 4.59968 657.542 5.11957 656.627L6.69879 653.948L8.23175 651.171C9.26707 649.341 10.2349 647.315 11.2356 645.371C15.0528 637.545 18.7673 628.77 21.0389 618.34C21.5988 615.725 22.0543 613.044 22.3895 610.215C22.4642 609.512 22.5657 608.76 22.6107 608.106L22.694 607.108L22.737 606.618C22.7524 606.471 22.7719 606.144 22.7757 606.029L22.879 603.903C22.9197 603.184 22.947 602.481 22.9449 601.761C23.0365 596.086 22.6519 590.492 22.1571 585.045C21.1736 574.201 19.7369 563.535 20.7713 553.152C21.0075 550.699 21.4128 548.116 21.9436 545.729C22.4897 543.326 23.174 541.022 23.9787 538.848C25.5791 534.468 27.676 530.662 30.0219 527.363C34.7353 520.749 40.3487 516.099 46.1312 512.267C49.0354 510.327 51.9838 508.664 55.0026 507.035C58.017 505.389 61.0394 503.743 64.0691 502.081C70.1274 498.773 76.2152 495.433 82.3272 492.076C106.776 478.664 131.614 465.032 156.45 451.404C168.851 444.514 181.308 437.897 193.605 430.343C199.745 426.523 205.832 422.435 211.821 417.948C217.807 413.441 223.662 408.391 229.347 402.82C235.046 397.292 240.483 390.913 245.637 383.934L247.557 381.285L248.516 379.962C248.829 379.503 249.135 379.015 249.444 378.543C250.678 376.64 251.909 374.739 253.139 372.839C254.31 370.887 255.431 368.889 256.577 366.921L257.432 365.441L257.645 365.072C257.687 365.001 257.829 364.755 257.889 364.632L258.301 363.843L259.95 360.69C264.313 352.232 268.18 343.085 271.703 333.668C275.228 324.245 278.406 314.531 281.367 304.74C284.324 294.943 287.062 285.067 289.727 275.265C292.385 265.461 294.995 255.748 297.521 246.052C302.554 226.669 307.203 207.308 310.456 187.59C312.085 177.744 313.373 167.833 314.22 157.935C314.43 155.458 314.654 153 314.774 150.498C314.847 149.252 314.919 148.01 314.991 146.772L315.099 144.914L315.157 143.086C315.196 141.869 315.233 140.654 315.271 139.442L315.325 137.627L315.353 136.719C315.358 136.618 315.365 136.353 315.363 136.212L315.365 135.751C315.37 133.303 315.375 130.866 315.38 128.439C315.265 118.731 314.703 109.236 313.83 100.042C312.961 90.8441 311.782 81.9418 310.374 73.3759C307.591 56.2212 304.075 40.3375 300.45 25.5264C296.798 10.7235 293.096 -3.06891 289.539 -15.9779C282.404 -41.7664 275.687 -63.7648 269.953 -81.6514C268.595 -85.8947 267.292 -89.8976 266.046 -93.6697L265.425 -93.6709C266.682 -89.7189 268.007 -85.5132 269.392 -81.0556C274.978 -63.0368 281.513 -40.8899 288.431 -14.9645C291.875 -1.99686 295.469 11.8951 298.983 26.7141C302.471 41.5511 305.895 57.3643 308.539 74.3617C309.881 82.8457 310.99 91.6367 311.793 100.684C312.597 109.726 313.093 119.031 313.153 128.505C313.134 130.872 313.115 133.248 313.096 135.634L313.093 136.082C313.093 136.242 313.091 136.28 313.084 136.479L313.051 137.385L312.986 139.201C312.943 140.412 312.9 141.626 312.858 142.842L312.793 144.666L312.679 146.455C312.604 147.649 312.53 148.844 312.454 150.041C312.331 152.435 312.101 154.843 311.885 157.26C311.018 166.921 309.718 176.609 308.079 186.26C304.804 205.586 300.135 224.666 295.048 243.883C292.495 253.49 289.843 263.173 287.173 272.936C284.493 282.684 281.747 292.473 278.799 302.136C275.847 311.794 272.694 321.334 269.217 330.538C265.74 339.737 261.946 348.626 257.692 356.796L256.086 359.842L255.684 360.605C255.611 360.745 255.61 360.744 255.508 360.918L255.294 361.288L254.436 362.759C253.288 364.711 252.15 366.721 250.991 368.635C249.809 370.438 248.627 372.247 247.441 374.055C247.144 374.504 246.854 374.968 246.549 375.405L245.613 376.686L243.74 379.246C238.711 386.002 233.412 392.227 227.821 397.622C222.249 403.063 216.493 408.01 210.587 412.437C204.677 416.846 198.655 420.872 192.564 424.644C180.366 432.102 167.91 438.683 155.496 445.542C130.67 459.237 105.844 472.939 81.405 486.415C75.2957 489.772 69.2104 493.146 63.1556 496.47C60.1296 498.148 57.1106 499.827 54.1006 501.505C51.0925 503.151 48.0457 504.895 45.0744 506.901C39.1335 510.912 33.2722 515.774 28.1717 522.993C25.6358 526.586 23.3095 530.817 21.5006 535.801C20.5953 538.269 19.8165 540.917 19.1974 543.679C18.5898 546.475 18.1466 549.287 17.8619 552.312L17.6863 554.372C17.6242 555.043 17.611 555.86 17.5729 556.596C17.5473 557.348 17.494 558.117 17.4961 558.853L17.4882 561.028C17.4711 562.484 17.554 563.923 17.5833 565.362C17.66 566.769 17.725 568.208 17.825 569.598C18.2194 575.209 18.8349 580.623 19.3344 585.939C19.8304 591.239 20.1943 596.49 20.1234 601.625C20.1292 602.279 20.1056 602.917 20.0722 603.538L19.989 605.451C19.9787 605.664 19.9814 605.68 19.9649 605.86L19.9246 606.367L19.844 607.364C19.7971 608.068 19.7165 608.607 19.6546 609.229C19.3764 611.665 18.9696 614.133 18.4718 616.52C17.4699 621.277 16.0729 625.788 14.4986 630.054C13.7074 632.194 12.861 634.254 11.9861 636.28L11.6559 637.031C11.5832 637.211 11.436 637.522 11.3302 637.75L10.6367 639.27C10.1721 640.25 9.71621 641.296 9.24717 642.244C8.29482 644.122 7.39332 646.034 6.38661 647.847L4.91185 650.559L3.38901 653.189C2.88705 654.072 2.36996 654.921 1.84309 655.754L0.278536 658.253C-0.800965 659.837 -1.84487 661.487 -2.94922 662.989C-11.6694 675.336 -21.2687 684.541 -30.8377 692.012C-40.4325 699.467 -50.041 705.237 -59.3417 710.289C-68.645 715.34 -77.6564 719.624 -86.1978 724.039C-94.7378 728.487 -102.781 733.099 -110.215 738.121C-117.646 743.144 -124.476 748.495 -130.583 754.223C-134.701 758.058 -138.475 762.057 -141.921 766.106L-141.925 767.693C-138.364 763.611 -134.45 759.579 -130.171 755.745C-124.058 750.213 -117.226 745.058 -109.795 740.265Z" fill="#F9D8DF"/>
<path d="M-124.41 765.994C-118.297 760.462 -111.466 755.324 -104.035 750.53C-96.6031 745.737 -88.5562 741.337 -80.0146 737.151C-71.4632 732.965 -62.4172 728.812 -53.0489 723.924C-43.6825 719.037 -33.9733 713.414 -24.2143 706.057C-14.4838 698.652 -4.67544 689.398 4.32737 676.888C5.46483 675.353 6.54542 673.671 7.66071 672.054L9.27986 669.506C9.82553 668.657 10.3614 667.791 10.8804 666.893L12.4596 664.214L13.9917 661.42C15.0278 659.607 15.9966 657.581 16.9964 655.62C20.8136 647.81 24.5281 639.036 26.7997 628.59C27.3596 625.974 27.816 623.309 28.1494 620.48C28.2249 619.777 28.3265 619.009 28.3706 618.371L28.4557 617.374L28.4978 616.867C28.5133 616.72 28.5335 616.409 28.5364 616.295L28.6398 614.152C28.6796 613.449 28.7078 612.73 28.7057 612.027C28.7973 606.335 28.4117 600.758 27.9178 595.311C26.9344 584.466 25.4977 573.8 26.5321 563.401C26.7674 560.948 27.1745 558.365 27.7045 555.978C28.2514 553.575 28.9349 551.271 29.7386 549.097C31.3399 544.734 33.4368 540.927 35.7827 537.628C40.4952 531.014 46.1105 526.348 51.8911 522.516C54.7971 520.592 57.7436 518.93 60.7625 517.3C63.7778 515.655 66.8002 513.992 69.8307 512.347C75.8873 509.022 81.976 505.682 88.088 502.325C112.538 488.914 137.374 475.291 162.212 461.661C174.613 454.773 187.069 448.156 199.366 440.6C205.506 436.779 211.592 432.694 217.582 428.205C223.567 423.698 229.424 418.648 235.109 413.076C240.808 407.55 246.245 401.171 251.398 394.193L253.318 391.542L254.277 390.218C254.59 389.762 254.896 389.272 255.205 388.802C256.438 386.897 257.67 384.996 258.9 383.098C260.071 381.144 261.192 379.148 262.338 377.18L263.192 375.7L263.406 375.329C263.448 375.259 263.589 375.012 263.649 374.889L264.062 374.1L265.711 370.946C270.074 362.491 273.94 353.343 277.464 343.925C280.99 334.502 284.166 324.788 287.127 314.997C290.085 305.202 292.823 295.326 295.488 285.522C298.146 275.718 300.757 266.004 303.282 256.309C308.315 236.925 312.964 217.565 316.216 197.849C317.846 188.003 319.134 178.092 319.981 168.191C320.191 165.717 320.414 163.259 320.535 160.754C320.608 159.511 320.68 158.269 320.752 157.029L320.86 155.17L320.918 153.343C320.956 152.126 320.994 150.913 321.032 149.701L321.087 147.883L321.114 146.978C321.119 146.874 321.125 146.61 321.124 146.468L321.125 146.009C321.13 143.562 321.136 141.124 321.142 138.695C321.025 128.988 320.463 119.494 319.591 110.301C318.722 101.103 317.543 92.1975 316.135 83.6349C313.352 66.4802 309.835 50.5965 306.21 35.7838C302.559 20.9792 298.857 7.1868 295.301 -5.72052C288.165 -31.5074 281.447 -53.5058 275.714 -71.394C273.046 -79.7335 270.583 -87.1566 268.379 -93.6651L267.892 -93.666C270.059 -86.9892 272.491 -79.36 275.153 -70.7998C280.739 -52.7794 287.274 -30.6326 294.191 -4.70712C297.636 8.26049 301.23 22.154 304.745 36.9731C308.232 51.8101 311.656 67.6216 314.299 84.6206C315.641 93.103 316.751 101.894 317.553 110.94C318.357 119.983 318.854 129.287 318.914 138.761C318.895 141.127 318.876 143.505 318.857 145.893L318.853 146.339C318.854 146.5 318.851 146.537 318.845 146.737L318.812 147.643L318.746 149.458C318.704 150.668 318.662 151.885 318.619 153.1L318.553 154.925L318.44 156.714C318.365 157.906 318.29 159.101 318.215 160.298C318.091 162.692 317.861 165.101 317.647 167.516C316.779 177.176 315.479 186.865 313.839 196.516C310.565 215.843 305.896 234.925 300.808 254.141C298.256 263.747 295.603 273.428 292.934 283.193C290.254 292.942 287.509 302.731 284.56 312.394C281.607 322.052 278.455 331.59 274.978 340.795C271.501 349.996 267.707 358.882 263.452 367.052L261.847 370.099L261.445 370.86C261.372 371.003 261.37 370.999 261.269 371.176L261.055 371.543L260.196 373.017C259.049 374.97 257.911 376.978 256.752 378.892C255.57 380.697 254.387 382.502 253.202 384.312C252.905 384.761 252.614 385.223 252.311 385.663L251.374 386.941L249.5 389.504C244.473 396.259 239.172 402.486 233.583 407.877C228.009 413.319 222.254 418.269 216.348 422.694C210.439 427.103 204.416 431.129 198.325 434.902C186.127 442.359 173.671 448.94 161.257 455.799C136.43 469.499 111.604 483.188 87.1658 496.664C81.0564 500.038 74.9712 503.395 68.9164 506.735C65.8903 508.414 62.8714 510.092 59.8615 511.755C56.8533 513.417 53.8065 515.16 50.8352 517.166C44.8943 521.161 39.0339 526.023 33.9317 533.242C31.3958 536.835 29.0703 541.082 27.2614 546.05C26.3552 548.534 25.5782 551.182 24.9582 553.945C24.3506 556.74 23.9065 559.536 23.6236 562.561L23.4471 564.621C23.385 565.308 23.3709 566.109 23.3328 566.862C23.3081 567.598 23.2548 568.382 23.256 569.102L23.249 571.294C23.2327 572.749 23.3148 574.172 23.3441 575.611C23.4208 577.034 23.4858 578.457 23.5858 579.864C23.9811 585.474 24.5948 590.872 25.0952 596.188C25.5921 601.504 25.9551 606.755 25.885 611.89C25.89 612.528 25.8673 613.166 25.833 613.803L25.7498 615.7C25.7395 615.913 25.7422 615.929 25.7257 616.126L25.6854 616.616L25.6057 617.613C25.5579 618.317 25.4782 618.856 25.4163 619.478C25.1381 621.914 24.7312 624.399 24.2326 626.769C23.2307 631.543 21.8346 636.037 20.2603 640.319C19.4673 642.444 18.6227 644.519 17.746 646.529L17.4176 647.297C17.3448 647.477 17.1978 647.771 17.0919 648.016L16.3966 649.519C15.9328 650.516 15.4779 651.545 15.008 652.493C14.0565 654.372 13.1532 656.3 12.1483 658.096L10.6726 660.825L9.14893 663.438C8.64872 664.337 8.13168 665.17 7.6039 666.003L6.03931 668.518C4.95984 670.086 3.91591 671.752 2.81245 673.255C-5.90773 685.585 -15.5087 694.79 -25.0769 702.278C-34.6726 709.733 -44.2802 715.503 -53.58 720.538C-62.8843 725.606 -71.8957 729.889 -80.4368 734.304C-88.9761 738.736 -97.0199 743.364 -104.454 748.387C-111.885 753.409 -118.716 758.76 -124.821 764.488C-130.941 770.167 -136.321 776.241 -140.954 782.299C-141.295 782.74 -141.623 783.197 -141.956 783.654L-141.959 785.077C-141.505 784.473 -141.048 783.869 -140.578 783.265C-135.928 777.37 -130.535 771.477 -124.41 765.994Z" fill="#F9D8DF"/>
<path d="M-118.649 776.259C-112.536 770.727 -105.704 765.589 -98.2739 760.779C-90.8414 755.986 -82.7952 751.603 -74.2528 747.4C-65.7025 743.23 -56.6572 739.062 -47.2872 734.174C-37.9208 729.286 -28.2116 723.663 -18.4535 716.306C-8.72387 708.917 1.08536 699.664 10.0882 687.138C11.2248 685.603 12.3062 683.92 13.4215 682.32L15.0407 679.755C15.5863 678.923 16.1213 678.057 16.6412 677.142L18.2204 674.463L19.7525 671.686C20.7878 669.856 21.7565 667.83 22.7581 665.886C26.5753 658.06 30.2889 649.285 32.5614 638.855C33.1213 636.24 33.5768 633.559 33.9102 630.73C33.9858 630.027 34.0873 629.275 34.1323 628.637L34.2165 627.623L34.2595 627.133C34.2732 626.985 34.2943 626.658 34.2973 626.544L34.4006 624.418C34.4405 623.698 34.4686 622.995 34.4656 622.292C34.5581 616.601 34.1726 611.007 33.6787 605.56C32.6952 594.715 31.2594 584.049 32.2929 573.666C32.5282 571.214 32.9344 568.631 33.4653 566.244C34.0122 563.841 34.6957 561.536 35.5003 559.363C37.1008 554.983 39.1976 551.177 41.5436 547.878C46.2569 541.264 51.8704 536.614 57.6528 532.782C60.557 530.841 63.5054 529.179 66.5242 527.55C69.5386 525.904 72.561 524.258 75.5915 522.612C81.649 519.288 87.7369 515.947 93.8498 512.59C118.299 499.179 143.136 485.54 167.972 471.917C180.373 465.028 192.83 458.413 205.127 450.857C211.267 447.036 217.353 442.95 223.343 438.461C229.329 433.957 235.185 428.905 240.869 423.333C246.568 417.807 252.006 411.428 257.159 404.449L259.078 401.8L260.037 400.477C260.352 400.02 260.656 399.531 260.967 399.059C262.199 397.156 263.43 395.255 264.661 393.354C265.831 391.402 266.953 389.404 268.099 387.436L268.953 385.956L269.166 385.586C269.209 385.518 269.35 385.268 269.41 385.147L269.823 384.359L271.472 381.205C275.835 372.747 279.701 363.601 283.225 354.183C286.75 344.76 289.926 335.045 292.888 325.255C295.845 315.458 298.584 305.582 301.249 295.78C303.906 285.976 306.517 276.263 309.043 266.567C314.076 247.182 318.724 227.823 321.977 208.106C323.606 198.259 324.894 188.349 325.741 178.448C325.951 175.973 326.176 173.515 326.295 171.013C326.368 169.767 326.441 168.526 326.513 167.286L326.621 165.429L326.68 163.601C326.717 162.384 326.755 161.17 326.793 159.957L326.848 158.142L326.876 157.234C326.879 157.133 326.886 156.87 326.885 156.726L326.886 156.268C326.891 153.818 326.897 151.381 326.903 148.954C326.786 139.246 326.224 129.753 325.352 120.558C324.483 111.359 323.304 102.457 321.896 93.8923C319.113 76.736 315.596 60.8523 311.971 46.0428C308.319 31.2382 304.618 17.4458 301.062 4.53526C293.926 -21.25 287.208 -43.25 281.475 -61.1366C277.28 -74.2447 273.59 -85.1096 270.625 -93.6606L270.292 -93.6613C273.175 -84.9649 276.771 -73.8712 280.914 -60.5408C286.5 -42.5204 293.034 -20.3735 299.953 5.55193C303.397 18.5163 306.991 32.4114 310.506 47.2289C313.993 62.0675 317.417 77.8791 320.06 94.8764C321.403 103.36 322.512 112.151 323.314 121.197C324.119 130.241 324.615 139.546 324.675 149.018C324.656 151.385 324.637 153.763 324.618 156.149L324.614 156.598C324.615 156.757 324.612 156.796 324.605 156.994L324.572 157.9L324.508 159.715C324.465 160.927 324.423 162.141 324.379 163.357L324.314 165.182L324.201 166.97C324.126 168.163 324.051 169.359 323.976 170.557C323.852 172.951 323.622 175.358 323.408 177.775C322.54 187.435 321.24 197.124 319.599 206.775C316.326 226.099 311.657 245.18 306.569 264.398C304.017 274.004 301.364 283.687 298.696 293.452C296.015 303.199 293.27 312.99 290.321 322.653C287.368 332.309 284.215 341.849 280.739 351.054C277.262 360.253 273.468 369.141 269.214 377.311L267.607 380.357L267.206 381.119C267.133 381.26 267.131 381.258 267.03 381.433L266.816 381.801L265.957 383.274C264.81 385.228 263.672 387.234 262.513 389.15C261.331 390.955 260.148 392.761 258.964 394.569C258.665 395.018 258.375 395.481 258.071 395.922L257.135 397.2L255.261 399.761C250.234 406.517 244.934 412.742 239.343 418.136C233.769 423.578 228.014 428.525 222.109 432.952C216.199 437.361 210.177 441.387 204.085 445.159C191.888 452.617 179.431 459.2 167.018 466.059C142.192 479.749 117.366 493.453 92.9275 506.93C86.8181 510.303 80.7321 513.644 74.6782 516.985C71.6512 518.663 68.6331 520.342 65.6231 522.02C62.6132 523.666 59.5673 525.41 56.596 527.416C50.6551 531.427 44.7938 536.289 39.6925 543.491C37.1574 547.1 34.8302 551.332 33.0231 556.316C32.1169 558.784 31.339 561.432 30.719 564.194C30.1105 566.99 29.6682 569.802 29.3844 572.827L29.2079 574.887C29.1467 575.557 29.1326 576.375 29.0945 577.111C29.0698 577.863 29.0156 578.632 29.0177 579.368L29.0098 581.543C28.9936 582.998 29.0756 584.421 29.1049 585.877C29.1807 587.283 29.2467 588.706 29.3475 590.113C29.7419 595.723 30.3565 601.138 30.8551 606.454C31.3529 611.754 31.7159 617.004 31.645 622.139C31.6508 622.794 31.6281 623.431 31.5939 624.053L31.5106 625.966C31.5003 626.179 31.5039 626.195 31.4865 626.375L31.4462 626.882L31.3657 627.879C31.3196 628.582 31.239 629.122 31.1762 629.743C30.8989 632.179 30.4921 634.648 29.9943 637.035C28.9916 641.792 27.5954 646.303 26.0211 650.568C25.229 652.709 24.3835 654.768 23.5077 656.794L23.1784 657.546C23.1057 657.726 22.9586 658.036 22.8527 658.265L22.1583 659.785C21.6937 660.765 21.2387 661.811 20.7688 662.758C19.8173 664.637 18.9149 666.549 17.9091 668.362L16.4335 671.074L14.9097 673.704C14.4087 674.586 13.8916 675.436 13.3647 676.269L11.8001 678.768C10.7206 680.352 9.67585 682.002 8.57329 683.504C-0.147824 695.851 -9.74704 705.056 -19.3151 712.527C-28.9109 719.982 -38.5194 725.752 -47.8201 730.804C-57.1233 735.855 -66.1351 740.139 -74.676 744.554C-83.2154 749.001 -91.2603 753.614 -98.6929 758.636C-106.124 763.659 -112.954 769.009 -119.062 774.737C-125.181 780.417 -130.56 786.506 -135.192 792.548C-137.683 795.847 -139.943 799.13 -141.993 802.38L-141.996 803.623C-139.839 800.291 -137.454 796.91 -134.817 793.53C-130.166 787.636 -124.775 781.742 -118.649 776.259Z" fill="#F9D8DF"/>
<path d="M198.111 41.3853C102.544 41.1962 24.6413 118.792 24.4521 214.36C24.263 309.933 101.858 387.839 197.425 388.029C292.992 388.218 370.895 310.619 371.085 215.046C371.274 119.478 293.678 41.5744 198.111 41.3853ZM197.422 389.701C100.927 389.51 22.5778 310.847 22.7687 214.357C22.9596 117.861 101.62 39.511 198.115 39.7019C294.61 39.8929 372.959 118.553 372.768 215.049C372.577 311.54 293.917 389.892 197.422 389.701Z" fill="#EAEAEA"/>
<path d="M388.081 530.378C292.514 530.189 214.611 607.785 214.422 703.353C214.233 798.926 291.828 876.832 387.395 877.021C482.962 877.21 560.865 799.612 561.054 704.039C561.243 608.471 483.648 530.567 388.081 530.378ZM387.392 878.694C290.897 878.503 212.547 799.84 212.738 703.349C212.929 606.853 291.589 528.504 388.084 528.695C484.579 528.886 562.929 607.546 562.738 704.042C562.547 800.532 483.887 878.885 387.392 878.694Z" fill="#EAEAEA"/>
<path d="M387.101 555.197C299.726 555.024 228.5 625.969 228.327 713.346C228.154 800.727 299.098 871.955 386.474 872.128C473.85 872.301 545.075 801.354 545.248 713.973C545.421 626.596 474.477 555.37 387.101 555.197ZM386.471 873.658C298.247 873.483 226.613 801.562 226.788 713.343C226.962 625.118 298.88 553.484 387.104 553.658C475.328 553.833 546.962 625.751 546.787 713.976C546.613 802.196 474.695 873.832 386.471 873.658Z" fill="#EAEAEA"/>
<path d="M386.142 583.012C306.958 582.855 242.41 647.149 242.253 726.334C242.097 805.523 306.39 870.074 385.574 870.231C464.758 870.387 529.306 806.091 529.463 726.902C529.62 647.717 465.327 583.169 386.142 583.012ZM385.571 871.617C305.618 871.458 240.7 806.28 240.859 726.331C241.017 646.377 306.192 581.459 386.145 581.617C466.098 581.775 531.016 646.951 530.858 726.905C530.7 806.854 465.524 871.775 385.571 871.617Z" fill="#EAEAEA"/>
</g>
</g>
<defs>
<clipPath id="clip0_3323_11">
<rect width="602" height="675" rx="4" fill="white"/>
</clipPath>
</defs>
</svg>
