<svg width="111" height="142" viewBox="0 0 111 142" fill="none" xmlns="http://www.w3.org/2000/svg">
<g filter="url(#filter0_d_8_59)">
<path d="M95.4965 67.8472C95.0836 66.2894 94.3646 64.8405 93.3367 63.4764C96.8056 61.6782 98.6845 57.5759 97.6263 53.617C97.2133 52.0592 96.4943 50.6103 95.4665 49.2462C98.9354 47.448 100.814 43.3457 99.7561 39.3868C99.0466 36.748 97.4915 34.4276 94.9935 32.3265C95.8058 30.5535 96.0332 28.4927 95.4932 26.4717C92.7986 16.4147 75.9781 11.0669 66.064 9.59026C56.1498 8.1136 38.4974 8.29137 32.9865 17.1276C31.8812 18.91 31.4908 20.9405 31.7508 22.8714C28.7489 24.1499 26.576 25.9208 25.1395 28.2317C22.9688 31.7182 23.5587 36.1846 26.3499 38.9137C24.9708 39.9188 23.8561 41.0894 23.0098 42.4618C20.8391 45.9483 21.4289 50.4148 24.2201 53.1439C22.8411 54.1489 21.7263 55.3196 20.88 56.692C18.7093 60.1785 19.2992 64.645 22.0903 67.374C20.7113 68.3791 19.5965 69.5497 18.7502 70.9222C16.5795 74.4087 17.1694 78.8752 19.9606 81.6042C18.5815 82.6093 17.4668 83.7799 16.6204 85.1524C14.4497 88.6388 15.0396 93.1053 17.8308 95.8344C16.4518 96.8395 15.337 98.0101 14.4907 99.3825C12.0196 103.345 13.1264 108.573 16.9586 111.083C20.4051 113.332 24.8818 112.619 27.5452 109.578C30.0481 108.541 38.756 107.534 51.1403 109.387C63.5125 111.241 71.5533 114.749 73.6395 116.468C74.8114 119.078 77.1963 120.837 79.8897 121.236C80.9997 121.402 82.1691 121.341 83.3185 120.999C87.7188 119.731 90.3144 115.043 89.1072 110.538C88.6943 108.98 87.9753 107.531 86.9474 106.167C90.4163 104.369 92.2952 100.266 91.237 96.3075C90.824 94.7497 90.105 93.3009 89.0772 91.9367C92.546 90.1385 94.4249 86.0362 93.3667 82.0773C92.9538 80.5196 92.2348 79.0707 91.2069 77.7065C94.6758 75.9084 96.5547 71.806 95.4965 67.8472Z" fill="#EA8105"/>
</g>
<path d="M85.6972 25.0547C83.6999 19.1209 72.094 15.7318 65.285 14.7173C58.476 13.7028 46.3856 13.544 42.7457 18.6343C42.0068 19.6634 41.7754 20.8422 41.9929 21.9814L85.4435 28.4789C85.9741 27.4494 86.1045 26.2455 85.6972 25.0547Z" fill="url(#paint0_radial_8_59)"/>
<path d="M44.1425 11.8065L43.3199 17.3064L86.3965 23.7491L87.2257 18.1994C87.7009 14.9947 85.9404 11.8524 82.9221 10.6571C70.0124 5.53128 57.5294 5.36882 50.5751 5.8541C47.2915 6.07437 44.6256 8.5641 44.1439 11.8186L44.1425 11.8065Z" fill="url(#paint1_radial_8_59)"/>
<path d="M96.9798 68.0321C96.5399 66.4529 95.7939 64.9827 94.7149 63.5999C98.3061 61.7998 100.253 57.6529 99.1263 53.6284C98.6864 52.0492 97.9404 50.579 96.8614 49.1962C100.453 47.3962 102.4 43.2492 101.273 39.2247C100.535 36.5524 98.9017 34.192 96.3013 32.0537C97.1364 30.2658 97.3732 28.1795 96.7927 26.1263C93.9589 15.9261 76.4495 10.4496 66.1479 8.90746C55.8462 7.36529 37.4997 7.47622 31.8037 16.4074C30.6514 18.2074 30.2639 20.2622 30.5402 22.228C27.4293 23.519 25.1838 25.2983 23.6883 27.6283C21.4479 31.1473 22.0824 35.6822 24.9894 38.4591C23.562 39.4698 22.4124 40.6567 21.5298 42.0334C19.2772 45.5538 19.9239 50.0873 22.8309 52.8642C21.4035 53.8749 20.2538 55.0618 19.3712 56.4384C17.1307 59.9575 17.7653 64.4924 20.6723 67.2693C19.2449 68.28 18.0952 69.4669 17.2126 70.8435C14.9722 74.3626 15.6067 78.8975 18.5137 81.6744C17.0863 82.6851 15.9367 83.872 15.0541 85.2486C12.8136 88.7677 13.4481 93.3026 16.3551 96.0795C14.9277 97.0902 13.7781 98.2771 12.8955 99.6537C10.3425 103.65 11.5089 108.969 15.516 111.509C19.1026 113.803 23.7514 113.094 26.5101 110.029C29.1112 108.993 38.1526 108.009 51.0225 109.929C63.8925 111.848 72.2497 115.441 74.4383 117.198C75.6748 119.837 78.1499 121.635 80.955 122.046C82.1147 122.218 83.3204 122.152 84.5196 121.817C89.0906 120.541 91.7667 115.808 90.4906 111.237C90.0507 109.657 89.3047 108.187 88.2257 106.804C91.8169 105.004 93.7642 100.857 92.6371 96.833C92.1972 95.2538 91.4512 93.7835 90.3722 92.4008C93.9634 90.6007 95.9106 86.4537 94.7836 82.4293C94.3437 80.8501 93.5977 79.3798 92.5186 77.9971C96.1099 76.197 98.0571 72.05 96.9301 68.0256L96.9798 68.0321Z" fill="url(#paint2_linear_8_59)"/>
<path opacity="0.4" d="M53.2323 94.771C53.0918 94.297 52.4103 94.339 52.3318 94.8261C51.7627 98.3848 50.046 101.77 48.0269 104.871C46.8304 106.713 45.5059 108.508 44.8119 110.562L56.0592 111.909C56.4413 106.202 54.9501 100.406 53.2309 94.7589L53.2323 94.771Z" fill="#FAEFD6"/>
<path d="M83.4877 120.944C82.9391 124.574 67.5787 125.283 49.1711 122.533C30.7635 119.783 16.2792 114.607 16.8278 110.977C17.3763 107.347 32.7368 106.637 51.1444 109.387C69.5519 112.137 84.0363 117.314 83.4877 120.944Z" fill="url(#paint3_linear_8_59)"/>
<mask id="mask0_8_59" style="mask-type:luminance" maskUnits="userSpaceOnUse" x="16" y="107" width="68" height="18">
<path d="M19.9693 109.287C21.7178 108.77 24.2182 108.429 27.3063 108.286C33.4747 108.001 41.8835 108.507 51.0653 109.879C60.2467 111.251 68.4362 113.225 74.2508 115.303C77.162 116.343 79.4536 117.401 80.973 118.407C81.7338 118.911 82.2765 119.386 82.6089 119.819C82.9405 120.252 83.0292 120.595 82.9884 120.866C82.9473 121.137 82.7608 121.44 82.3157 121.757C81.8701 122.073 81.211 122.368 80.3352 122.627C78.5868 123.145 76.0864 123.485 72.9983 123.628C66.8298 123.913 58.421 123.407 49.2393 122.035C40.0578 120.664 31.8683 118.689 26.0538 116.611C23.1427 115.571 20.8519 114.513 19.3325 113.507C18.5716 113.003 18.0291 112.528 17.6966 112.095C17.3648 111.662 17.2762 111.32 17.3171 111.048C17.3582 110.777 17.5439 110.474 17.9888 110.158C18.4344 109.841 19.0936 109.546 19.9693 109.287Z" fill="white" stroke="white"/>
</mask>
<g mask="url(#mask0_8_59)">
<path d="M16.8114 117.303L82.1628 116.269" stroke="#EA8105" stroke-width="0.73" stroke-miterlimit="10"/>
<path d="M80.577 126.843L18.3936 106.725" stroke="#EA8105" stroke-width="0.73" stroke-miterlimit="10"/>
</g>
<path d="M83.4877 120.944C82.9391 124.574 67.5787 125.283 49.1711 122.533C30.7635 119.783 16.2792 114.607 16.8278 110.977C17.3763 107.347 32.7368 106.637 51.1444 109.387C69.5519 112.137 84.0363 117.314 83.4877 120.944Z" stroke="#EA8105" stroke-width="0.73" stroke-miterlimit="10"/>
<path d="M44.8023 110.572C44.1826 112.421 44.1166 114.5 45.138 116.232C46.2664 118.149 48.7674 119.109 51.0984 119.024C53.8811 118.923 55.259 117.06 55.6846 114.805C55.8672 113.84 55.9893 112.882 56.0482 111.907L44.8009 110.56L44.8023 110.572Z" fill="#FAEFD6"/>
<path d="M83.4832 120.942C83.264 122.438 80.488 123.445 76.0075 123.914C78.965 123.523 80.7474 122.827 80.8989 121.804C81.3416 118.848 67.8579 114.377 50.7715 111.818C33.6971 109.257 19.4819 109.589 19.0392 112.545C18.8878 113.567 20.3734 114.756 23.1028 115.997C18.954 114.246 16.5919 112.472 16.8233 110.975C17.3719 107.345 32.7309 106.623 51.1399 109.385C69.5474 112.135 84.0332 117.324 83.4967 120.952L83.4832 120.942Z" fill="url(#paint4_radial_8_59)"/>
<path d="M80.9008 121.805C80.4582 124.761 66.255 125.092 49.1686 122.532C32.0821 119.973 18.5999 115.514 19.0412 112.546C19.4839 109.59 33.687 109.259 50.7735 111.819C67.8599 114.378 81.3421 118.837 80.9008 121.805Z" stroke="#EA8105" stroke-width="0.73" stroke-miterlimit="10"/>
<defs>
<filter id="filter0_d_8_59" x="3.17319" y="8.89258" width="106.877" height="132.432" filterUnits="userSpaceOnUse" color-interpolation-filters="sRGB">
<feFlood flood-opacity="0" result="BackgroundImageFix"/>
<feColorMatrix in="SourceAlpha" type="matrix" values="0 0 0 0 0 0 0 0 0 0 0 0 0 0 0 0 0 0 127 0" result="hardAlpha"/>
<feOffset dy="10"/>
<feGaussianBlur stdDeviation="5"/>
<feColorMatrix type="matrix" values="0 0 0 0 0 0 0 0 0 0 0 0 0 0 0 0 0 0 0.65 0"/>
<feBlend mode="normal" in2="BackgroundImageFix" result="effect1_dropShadow_8_59"/>
<feBlend mode="normal" in="SourceGraphic" in2="effect1_dropShadow_8_59" result="shape"/>
</filter>
<radialGradient id="paint0_radial_8_59" cx="0" cy="0" r="1" gradientUnits="userSpaceOnUse" gradientTransform="translate(63.7203 22.0679) rotate(-6.59426) scale(16.509)">
<stop stop-color="#DD502E"/>
<stop offset="0.23" stop-color="#D94C33"/>
<stop offset="0.53" stop-color="#CF4143"/>
<stop offset="0.86" stop-color="#BE2F5E"/>
<stop offset="0.99" stop-color="#B7276B"/>
</radialGradient>
<radialGradient id="paint1_radial_8_59" cx="0" cy="0" r="1" gradientUnits="userSpaceOnUse" gradientTransform="translate(65.1101 15.1796) rotate(-6.59426) scale(17.3004)">
<stop stop-color="#BE6700"/>
<stop offset="0.99" stop-color="#FF9F05"/>
</radialGradient>
<linearGradient id="paint2_linear_8_59" x1="49.1213" y1="8.49336" x2="62.5283" y2="124.468" gradientUnits="userSpaceOnUse">
<stop stop-color="#FF8A00"/>
<stop offset="1" stop-color="#FF9F05" stop-opacity="0.5"/>
</linearGradient>
<linearGradient id="paint3_linear_8_59" x1="51.1474" y1="109.214" x2="48.8659" y2="124.47" gradientUnits="userSpaceOnUse">
<stop stop-color="#FFBA05"/>
<stop offset="1" stop-color="#F88701"/>
</linearGradient>
<radialGradient id="paint4_radial_8_59" cx="0" cy="0" r="1" gradientUnits="userSpaceOnUse" gradientTransform="translate(50.1472 115.959) rotate(-6.59426) scale(24.2887 24.2887)">
<stop stop-color="#FF9F05"/>
<stop offset="1" stop-color="#FA8700"/>
</radialGradient>
</defs>
</svg>
