<svg width="118" height="125" viewBox="0 0 118 125" fill="none" xmlns="http://www.w3.org/2000/svg">
<g filter="url(#filter0_d_8_31)">
<path d="M107.294 68.2896C108.914 41.5575 88.5619 18.5702 61.8297 16.9498C35.0976 15.3295 12.1103 35.6815 10.4899 62.4137C9.57963 77.4007 15.5788 91.2048 25.7407 100.735L87.527 104.482C98.765 96.2503 106.385 83.2678 107.295 68.2808L107.294 68.2896Z" fill="white"/>
</g>
<path d="M72.0871 17.4696L51.5599 16.2294L51.6712 14.4102C51.8669 11.1949 54.4354 8.63165 57.6524 8.44544C60.7779 8.26178 63.9033 8.45119 66.9827 9.01496C70.1521 9.58502 72.3926 12.444 72.1969 15.6593L72.0855 17.4785L72.0871 17.4696Z" fill="#FF8A00"/>
<path d="M81.2007 29.1888L41.1209 26.7569L41.3372 23.2084C41.7206 16.9312 46.7375 11.9207 53.0151 11.5579C59.1099 11.2002 65.225 11.574 71.2262 12.6654C77.4132 13.7886 81.7916 19.3616 81.4082 25.6388L81.1918 29.1873L81.2007 29.1888Z" fill="url(#paint0_radial_8_31)"/>
<path d="M108.727 68.5463C110.394 41.0122 89.4301 17.3468 61.8975 15.6713C34.3633 14.0046 10.698 34.9685 9.02242 62.5011C8.08945 77.9393 14.2637 92.1556 24.7326 101.966L88.3646 105.828C99.9355 97.3538 107.786 83.983 108.727 68.5463Z" fill="url(#paint1_linear_8_31)"/>
<g opacity="0.1">
<path d="M52.061 16.0157C32.0795 22.6952 17.6026 41.3377 16.5648 62.4365C15.8442 74.8806 19.8406 87.4136 27.4721 97.2656C22.0916 90.9022 18.2758 83.1596 16.6285 74.9239C11.2462 49.4405 26.9798 23.1414 52.0699 16.0173L52.061 16.0157Z" fill="#F4F4F4"/>
</g>
<g opacity="0.1">
<path d="M72.1083 17.2276C96.3133 27.388 108.735 55.715 100.012 80.4483C97.2856 88.4537 92.4534 95.6799 86.2305 101.303C95.1632 92.5038 100.82 80.5138 101.699 67.9967C103.408 46.8036 91.2645 26.3141 72.1099 17.2188L72.1083 17.2276Z" fill="#F4F4F4"/>
</g>
<path opacity="0.3" d="M63.2686 94.2841C62.6362 91.919 61.5431 89.6933 60.5061 87.459C59.8473 86.0449 59.2093 84.6161 58.7233 83.1496C58.508 82.4939 57.4877 82.4466 57.215 83.0824C56.7189 84.226 56.1035 85.3219 55.45 86.3748C54.3197 88.1924 53.0659 89.9342 52.0268 91.8038C51.0932 93.4822 50.3464 95.2927 50.0858 97.1864L63.7946 98.0143C63.7898 96.7668 63.5979 95.4963 63.2686 94.2841Z" fill="white"/>
<path d="M90.5307 104.541C90.2823 108.648 74.9001 111.055 56.1833 109.925C37.4665 108.795 22.4885 104.537 22.7369 100.43C22.9852 96.3225 38.3675 93.9152 57.0843 95.0456C75.8099 96.1776 90.779 100.434 90.5307 104.541Z" fill="url(#paint2_linear_8_31)"/>
<path d="M90.5307 104.541C90.2823 108.648 74.9001 111.055 56.1833 109.925C37.4665 108.795 22.4885 104.537 22.7369 100.43C22.9852 96.3225 38.3675 93.9152 57.0843 95.0456C75.8099 96.1776 90.779 100.434 90.5307 104.541Z" stroke="#FF8A00" stroke-width="1.1" stroke-miterlimit="10"/>
<path d="M88.991 107.571C88.7522 111.516 73.9868 113.829 55.9997 112.742C38.0215 111.656 23.6415 107.573 23.8803 103.628C24.1191 99.6831 38.8845 97.3704 56.8715 98.4578C74.8497 99.5436 89.2298 103.626 88.991 107.571Z" stroke="#FF8A00" stroke-width="1.1" stroke-miterlimit="10"/>
<path d="M89.4195 106.391C89.3392 106.223 89.1878 106.097 89.0067 106.038C88.8241 105.989 88.6293 106.01 88.4667 106.11C83.9687 108.834 70.7179 110.114 56.2351 109.235C41.7523 108.357 28.7501 105.475 24.6091 102.236C24.4562 102.119 24.2648 102.068 24.0774 102.099C23.8899 102.131 23.7258 102.239 23.6248 102.404C23.3886 102.773 23.2571 103.169 23.2332 103.574C22.9274 108.655 39.8717 112.43 55.985 113.406C72.0983 114.382 89.3797 112.682 89.6854 107.602C89.7094 107.196 89.6257 106.781 89.4299 106.384L89.4195 106.391Z" fill="url(#paint3_radial_8_31)"/>
<path d="M50.0965 97.1888C50.0586 97.4099 50.0399 97.6251 50.0198 97.8491C49.8539 99.9866 50.4027 102.256 51.8375 103.921C52.5593 104.754 53.5061 105.39 54.5441 105.759C58.2352 107.055 61.955 104.889 63.2237 101.466C63.6312 100.362 63.803 99.1994 63.8053 98.0168L50.0965 97.1888Z" fill="white"/>
<g opacity="0.1">
<path d="M58.2267 80.233C58.8636 58.7653 60.1739 37.0853 62.1435 15.7002C61.5066 37.1679 60.1875 58.8464 58.2267 80.233Z" fill="#F4F4F4"/>
</g>
<g opacity="0.1">
<path d="M56.3675 15.5213C37.9744 26.7954 32.831 54.5441 35.9198 74.5022C37.0512 81.7122 39.3096 88.8241 43.176 95.1011C38.9459 89.0348 36.4768 81.8778 35.1702 74.6286C31.6095 54.6625 37.1657 25.938 56.3675 15.5213Z" fill="#F4F4F4"/>
</g>
<g opacity="0.1">
<path d="M67.8968 16.2266C85.6762 28.8358 87.7532 58.1031 81.7905 77.4575C79.6209 84.4936 76.2992 91.296 71.3686 96.8127C75.9597 91.0467 79.0675 84.2714 81.063 77.2419C86.5394 57.8042 84.7922 29.6399 67.8983 16.2178L67.8968 16.2266Z" fill="#F4F4F4"/>
</g>
<path d="M57.1156 94.3708C40.3537 93.3568 22.3701 95.1184 22.0517 100.378C22.0454 100.468 22.0568 100.561 22.0874 100.648L23.2514 103.842C23.3446 104.094 23.5783 104.271 23.8481 104.29C23.8923 104.297 23.9395 104.287 23.9852 104.286C24.3025 104.24 24.547 103.982 24.5661 103.657C24.5772 103.486 24.6355 103.305 24.7484 103.124C26.5231 100.307 39.0056 98.04 56.8305 99.1178C74.6554 100.196 86.7792 103.955 88.1991 106.983C88.2941 107.172 88.3272 107.351 88.3249 107.524C88.3058 107.848 88.5125 108.129 88.8247 108.219C89.1384 108.3 89.4635 108.155 89.6034 107.87L91.1328 104.838C91.1745 104.754 91.1985 104.667 91.2048 104.577C91.5246 99.3079 73.8849 95.3953 57.1245 94.3723L57.1156 94.3708Z" fill="url(#paint4_radial_8_31)"/>
<defs>
<filter id="filter0_d_8_31" x="0.39917" y="16.8594" width="116.985" height="107.623" filterUnits="userSpaceOnUse" color-interpolation-filters="sRGB">
<feFlood flood-opacity="0" result="BackgroundImageFix"/>
<feColorMatrix in="SourceAlpha" type="matrix" values="0 0 0 0 0 0 0 0 0 0 0 0 0 0 0 0 0 0 127 0" result="hardAlpha"/>
<feOffset dy="10"/>
<feGaussianBlur stdDeviation="5"/>
<feColorMatrix type="matrix" values="0 0 0 0 0 0 0 0 0 0 0 0 0 0 0 0 0 0 0.65 0"/>
<feBlend mode="normal" in2="BackgroundImageFix" result="effect1_dropShadow_8_31"/>
<feBlend mode="normal" in="SourceGraphic" in2="effect1_dropShadow_8_31" result="shape"/>
</filter>
<radialGradient id="paint0_radial_8_31" cx="0" cy="0" r="1" gradientUnits="userSpaceOnUse" gradientTransform="translate(62.167 20.7355) rotate(99.7178) scale(9.4875 20.1874)">
<stop stop-color="#FF8A00"/>
<stop offset="1" stop-color="#FF9F05" stop-opacity="0.59"/>
</radialGradient>
<linearGradient id="paint1_linear_8_31" x1="67.3054" y1="16.2931" x2="46.499" y2="168.501" gradientUnits="userSpaceOnUse">
<stop stop-color="#FF8A00"/>
<stop offset="1" stop-color="#FF9F05" stop-opacity="0.91"/>
</linearGradient>
<linearGradient id="paint2_linear_8_31" x1="58.0319" y1="94.3214" x2="55.2357" y2="110.649" gradientUnits="userSpaceOnUse">
<stop stop-color="#FF8A00"/>
<stop offset="1" stop-color="#FF9F05" stop-opacity="0.88"/>
</linearGradient>
<radialGradient id="paint3_radial_8_31" cx="0" cy="0" r="1" gradientUnits="userSpaceOnUse" gradientTransform="translate(56.1581 107.345) rotate(99.7178) scale(6.83597 33.103)">
<stop stop-color="#FF8A00"/>
<stop offset="1" stop-color="#FF9F05" stop-opacity="0.59"/>
</radialGradient>
<radialGradient id="paint4_radial_8_31" cx="0" cy="0" r="1" gradientUnits="userSpaceOnUse" gradientTransform="translate(56.7594 101.681) rotate(99.7178) scale(8.13039 34.4433)">
<stop stop-color="#FF8A00"/>
<stop offset="1" stop-color="#FF9F05" stop-opacity="0.59"/>
</radialGradient>
</defs>
</svg>
