<svg width="102" height="102" viewBox="0 0 102 102" fill="none" xmlns="http://www.w3.org/2000/svg">
<g clip-path="url(#clip0_3005_1058)">
<path d="M50.6286 91.9365C26.8452 91.9365 7.49609 72.5872 7.49609 48.804C7.49609 25.0206 26.8452 5.67148 50.6286 5.67148C74.4118 5.67148 93.7611 25.0206 93.7611 48.804C93.7611 72.5872 74.4118 91.9365 50.6286 91.9365ZM50.6286 8.10148C28.1851 8.10148 9.92609 26.3605 9.92609 48.804C9.92609 71.2475 28.1851 89.5065 50.6286 89.5065C73.0721 89.5065 91.3311 71.2475 91.3311 48.804C91.3311 26.3605 73.0721 8.10148 50.6286 8.10148Z" fill="url(#paint0_linear_3005_1058)"/>
<path d="M21.1156 88.9142L21.6062 88.4236C21.7958 88.234 21.8905 87.9852 21.8905 87.7361C21.8905 87.487 21.7958 87.2381 21.6062 87.0486L21.2842 86.7266C20.9052 86.3475 20.2883 86.3475 19.9093 86.7266L19.42 87.2159L18.1688 85.9648L18.7504 85.3832C18.9146 85.2192 18.9964 85.0037 18.9964 84.7883C18.9964 84.5726 18.9142 84.3572 18.7504 84.1929L18.5308 83.9736C18.4482 83.8908 18.3508 83.8286 18.2451 83.7869C18.3063 83.7278 18.3447 83.6452 18.3447 83.5538C18.3447 83.4805 18.3192 83.4133 18.2777 83.3588H18.3909C18.5697 83.3588 18.7161 83.2124 18.7161 83.0336C18.7161 82.8548 18.5697 82.7084 18.3909 82.7084H18.044V81.9829C18.2113 81.9701 18.3447 81.8306 18.3447 81.6603C18.3447 81.4898 18.2115 81.3504 18.044 81.3377V77.3543H17.8272V81.3385C17.6639 81.3553 17.535 81.4928 17.535 81.6603C17.535 81.8277 17.6639 81.9652 17.8272 81.982V82.7086H17.4803C17.3015 82.7086 17.1551 82.855 17.1551 83.0338C17.1551 83.2126 17.3015 83.359 17.4803 83.359H17.602C17.5607 83.4137 17.535 83.4807 17.535 83.5541C17.535 83.6444 17.5724 83.7262 17.6322 83.7851C17.5242 83.8268 17.4246 83.8894 17.3401 83.9738L17.1206 84.1931C16.7922 84.5216 16.7924 85.0556 17.1206 85.3834L17.7022 85.965L16.451 87.2161L15.9617 86.7268C15.5826 86.3477 14.9658 86.3477 14.5868 86.7268L14.2648 87.0488C13.8857 87.4279 13.8857 88.0449 14.2648 88.4238L14.7554 88.9144L14.295 89.3749C13.8987 89.7712 13.8987 90.4137 14.295 90.81L14.5868 91.1018C14.7969 91.312 15.0863 91.4143 15.3876 91.3803C15.6209 91.3539 15.8325 91.231 15.9986 91.065L16.451 90.6126L17.6631 91.8248L17.0903 92.3978C16.7723 92.7156 16.7723 93.2704 17.0903 93.5881L17.3096 93.8076C17.6378 94.1357 18.1718 94.1357 18.4999 93.8076L18.7194 93.5881C18.8836 93.4239 18.9654 93.2084 18.9654 92.993C18.9654 92.7775 18.8834 92.5619 18.7194 92.3978L18.1769 91.8551L19.4196 90.6124L19.9089 91.1016C20.0925 91.2853 20.3367 91.3865 20.5963 91.3865C20.856 91.3865 21.1002 91.2853 21.2838 91.1016L21.6058 90.7797C21.7953 90.5901 21.8901 90.3412 21.8901 90.0922C21.8901 89.8431 21.7953 89.5942 21.6058 89.4047L21.1156 88.9142ZM17.6866 88.9142L16.4528 90.1481L15.2206 88.9156L16.4544 87.6818L17.6866 88.9142ZM17.9357 89.1631L19.1695 90.3969L17.9357 91.6308L16.7019 90.3969L17.9357 89.1631ZM19.4184 90.1479L18.1846 88.914L19.4184 87.6802L20.6522 88.914L19.4184 90.1479ZM17.9357 88.6651L16.7033 87.4327L17.9369 86.1989L19.1693 87.4313L17.9357 88.6651ZM20.1407 86.9581C20.392 86.7068 20.8011 86.7068 21.0526 86.9581L21.3746 87.28C21.6259 87.5316 21.6259 87.9404 21.3746 88.1919L20.8839 88.6826L19.6501 87.4487L20.1407 86.9581ZM17.3527 84.4242L17.5722 84.2049C17.6694 84.1077 17.7986 84.0542 17.9357 84.0542C18.073 84.0542 18.2022 84.1077 18.2992 84.2049L18.5187 84.4242C18.7192 84.6247 18.719 84.9507 18.5187 85.1512L17.9357 85.7342L17.3527 85.1512C17.1522 84.9509 17.1518 84.6249 17.3527 84.4242ZM14.4966 88.1919C14.2453 87.9404 14.2453 87.5316 14.4966 87.28L14.8186 86.9581C15.0699 86.7068 15.479 86.7068 15.7303 86.9581L16.2209 87.4487L14.9871 88.6826L14.4966 88.1919ZM15.7305 90.8702C15.6088 90.9919 15.4468 91.0591 15.2746 91.0591C15.1025 91.0591 14.9405 90.9921 14.8188 90.8702L14.4968 90.5482C14.3713 90.4224 14.3083 90.2574 14.3083 90.0924C14.3083 89.9273 14.3713 89.7623 14.4968 89.6365L14.9875 89.1459L16.2213 90.3797L15.7305 90.8702ZM18.4881 93.3565L18.2686 93.576C18.0681 93.7763 17.7421 93.7763 17.5416 93.576L17.3223 93.3565C17.2251 93.2593 17.1719 93.1303 17.1719 92.993C17.1719 92.8557 17.2253 92.7267 17.3223 92.6295L17.9053 92.0465L18.4883 92.6295C18.6886 92.83 18.6886 93.156 18.4881 93.3565ZM21.3746 90.5482L21.0526 90.8702C20.9309 90.9919 20.7689 91.0591 20.5968 91.0591C20.4244 91.0591 20.2626 90.9921 20.1409 90.8702L19.6515 90.3809L20.8853 89.1471L21.3746 89.6363C21.6257 89.8876 21.6259 90.2965 21.3746 90.5482Z" fill="url(#paint1_linear_3005_1058)"/>
<path d="M18.0367 95.4345V95.1504H18.3835C18.5623 95.1504 18.7088 95.004 18.7088 94.8252C18.7088 94.6464 18.5623 94.5 18.3835 94.5H17.4731C17.2943 94.5 17.1479 94.6464 17.1479 94.8252C17.1479 95.004 17.2943 95.1504 17.4731 95.1504H17.82V95.4345H17.4761L17.0039 98.3987C17.0039 98.3987 17.4808 98.7023 18.0879 98.6589C18.6948 98.6156 18.9117 98.3121 18.9117 98.3121L18.3607 95.4347H18.0367V95.4345Z" fill="url(#paint2_linear_3005_1058)"/>
<path d="M85.3087 88.9142L85.7994 88.4236C85.9889 88.234 86.0837 87.9852 86.0837 87.7361C86.0837 87.487 85.9889 87.2381 85.7994 87.0486L85.4772 86.7266C85.0981 86.3475 84.4813 86.3475 84.1022 86.7266L83.613 87.2159L82.3617 85.9648L82.9433 85.3832C83.1073 85.2192 83.1894 85.0037 83.1894 84.7883C83.1894 84.5726 83.1071 84.3572 82.9433 84.1929L82.7238 83.9736C82.6412 83.8908 82.5438 83.8286 82.4381 83.7869C82.4992 83.7278 82.5377 83.6452 82.5377 83.5538C82.5377 83.4805 82.5122 83.4133 82.4707 83.3588H82.5839C82.7627 83.3588 82.9091 83.2124 82.9091 83.0336C82.9091 82.8548 82.7627 82.7084 82.5839 82.7084H82.237V81.9829C82.4043 81.9701 82.5377 81.8306 82.5377 81.6603C82.5377 81.4898 82.4045 81.3504 82.237 81.3377V77.3543H82.0203V81.3385C81.8571 81.3553 81.7281 81.4928 81.7281 81.6603C81.7281 81.8277 81.8571 81.9652 82.0203 81.982V82.7086H81.6734C81.4946 82.7086 81.3482 82.855 81.3482 83.0338C81.3482 83.2126 81.4946 83.359 81.6734 83.359H81.7951C81.7538 83.4137 81.7281 83.4807 81.7281 83.5541C81.7281 83.6444 81.7656 83.7262 81.8253 83.7851C81.7174 83.8268 81.6177 83.8894 81.5335 83.9738L81.314 84.1931C80.9855 84.5216 80.9857 85.0556 81.314 85.3834L81.8956 85.965L80.6443 87.2161L80.1551 86.7268C79.776 86.3477 79.1592 86.3477 78.7801 86.7268L78.4581 87.0488C78.0791 87.4279 78.0791 88.0449 78.4581 88.4238L78.9488 88.9144L78.4883 89.3749C78.092 89.7712 78.092 90.4137 78.4883 90.81L78.7801 91.1018C78.9903 91.312 79.2799 91.4143 79.581 91.3803C79.8143 91.3539 80.0261 91.231 80.1919 91.065L80.6443 90.6126L81.8565 91.8248L81.2836 92.3978C80.9657 92.7156 80.9657 93.2704 81.2836 93.5881L81.5029 93.8076C81.8312 94.1357 82.3652 94.1357 82.6932 93.8076L82.9127 93.5881C83.077 93.4239 83.159 93.2084 83.159 92.993C83.159 92.7775 83.077 92.5619 82.9127 92.3978L82.3702 91.8551L83.613 90.6124L84.1022 91.1016C84.2859 91.2853 84.5301 91.3865 84.7897 91.3865C85.0493 91.3865 85.2935 91.2853 85.4772 91.1016L85.7994 90.7797C85.9889 90.5901 86.0837 90.3412 86.0837 90.0922C86.0837 89.8431 85.9889 89.5942 85.7994 89.4047L85.3087 88.9142ZM81.8798 88.9142L80.646 90.1481L79.4137 88.9156L80.6476 87.6818L81.8798 88.9142ZM82.1289 89.1631L83.3627 90.3969L82.1289 91.6308L80.895 90.3969L82.1289 89.1631ZM83.6118 90.1479L82.3779 88.914L83.6118 87.6802L84.8456 88.914L83.6118 90.1479ZM82.1289 88.6651L80.8964 87.4327L82.1301 86.1989L83.3625 87.4313L82.1289 88.6651ZM84.3339 86.9581C84.5852 86.7068 84.9942 86.7068 85.2457 86.9581L85.5679 87.28C85.8192 87.5316 85.8192 87.9404 85.5679 88.1919L85.0773 88.6826L83.8434 87.4487L84.3339 86.9581ZM81.5459 84.4242L81.7654 84.2049C81.8626 84.1077 81.9918 84.0542 82.1289 84.0542C82.2662 84.0542 82.3951 84.1077 82.4923 84.2049L82.7119 84.4242C82.9123 84.6247 82.9119 84.9507 82.7119 85.1512L82.1289 85.7342L81.5459 85.1512C81.3454 84.9509 81.3452 84.6249 81.5459 84.4242ZM78.69 88.1919C78.4387 87.9404 78.4387 87.5316 78.69 87.28L79.012 86.9581C79.2633 86.7068 79.6723 86.7068 79.9238 86.9581L80.4145 87.4487L79.1807 88.6826L78.69 88.1919ZM79.9238 90.8702C79.8019 90.9919 79.6401 91.0591 79.468 91.0591C79.2959 91.0591 79.1339 90.9921 79.0122 90.8702L78.6902 90.5482C78.5647 90.4224 78.5017 90.2574 78.5017 90.0924C78.5017 89.9273 78.5647 89.7623 78.6902 89.6365L79.1809 89.1459L80.4147 90.3797L79.9238 90.8702ZM82.6813 93.3565L82.4618 93.576C82.2613 93.7763 81.9353 93.7763 81.7348 93.576L81.5155 93.3565C81.4183 93.2593 81.3648 93.1303 81.3648 92.993C81.3648 92.8557 81.4183 92.7267 81.5155 92.6295L82.0983 92.0465L82.6813 92.6295C82.8818 92.83 82.8818 93.156 82.6813 93.3565ZM85.5677 90.5482L85.2455 90.8702C85.1238 90.9919 84.9618 91.0591 84.7897 91.0591C84.6176 91.0591 84.4556 90.9921 84.3339 90.8702L83.8448 90.3809L85.0787 89.1471L85.5679 89.6363C85.819 89.8876 85.8192 90.2965 85.5677 90.5482Z" fill="url(#paint3_linear_3005_1058)"/>
<path d="M82.2437 95.4345V95.1504H82.5906C82.7694 95.1504 82.9158 95.004 82.9158 94.8252C82.9158 94.6464 82.7694 94.5 82.5906 94.5H81.6801C81.5013 94.5 81.3549 94.6464 81.3549 94.8252C81.3549 95.004 81.5013 95.1504 81.6801 95.1504H82.027V95.4345H81.6832L81.2109 98.3987C81.2109 98.3987 81.6878 98.7023 82.2947 98.6589C82.9016 98.6156 83.1185 98.3121 83.1185 98.3121L82.5675 95.4347H82.2437V95.4345Z" fill="url(#paint4_linear_3005_1058)"/>
<path d="M43.8995 10.0288C44.2069 9.97817 44.5115 9.90973 44.8211 9.87409L44.6818 8.93267C44.0874 9.01853 43.4982 9.138 42.9062 9.24006L43.2416 10.9646L44.6149 10.7187C45.0742 10.6464 45.5369 10.5972 45.9978 10.5355L45.7886 8.79112C46.0938 8.7569 46.3971 8.70404 46.7037 8.68541L47.6221 8.61494L47.7513 10.367C48.6516 10.2779 49.5563 10.2823 50.4597 10.2536L50.4528 8.49689L48.7654 8.53961L48.8085 9.49015L49.6325 9.46909" stroke="url(#paint5_linear_3005_1058)" stroke-width="0.30375" stroke-miterlimit="10"/>
<path d="M49.6856 11.8603L48.8079 11.8822L48.8537 12.8327L50.4638 12.792L50.4569 11.0352C49.546 11.0623 48.634 11.0627 47.7264 11.1524L47.8592 12.9042L47.0383 12.9664C46.7649 12.9897 46.4937 13.0332 46.2214 13.0652L46.0088 11.3213C45.5701 11.3812 45.1289 11.4246 44.6923 11.4977L43.3848 11.7318L43.7201 13.4562C44.2154 13.37 44.7093 13.275 45.2054 13.194L45.0633 12.253C44.8079 12.2905 44.555 12.3421 44.3007 12.3856" stroke="url(#paint6_linear_3005_1058)" stroke-width="0.30375" stroke-miterlimit="10"/>
<path d="M36.4725 12.0847C36.7637 11.9739 37.0488 11.847 37.3463 11.7534L37.0245 10.858C36.7378 10.9485 36.4622 11.069 36.1817 11.1765L35.3438 11.5076L36.0116 13.1324L37.3092 12.6199C37.747 12.4638 38.1893 12.3192 38.6291 12.1685L38.0816 10.4993C38.6597 10.2899 39.2558 10.1383 39.8457 9.96655L40.3159 11.6592L40.968 11.4738L41.6281 11.3195C42.069 11.2194 42.508 11.1113 42.9503 11.0183L42.6013 9.29648C42.0508 9.41373 41.5032 9.54697 40.9542 9.67232L41.1824 10.5961L41.986 10.41" stroke="url(#paint7_linear_3005_1058)" stroke-width="0.30375" stroke-miterlimit="10"/>
<path d="M42.5019 12.7434L41.647 12.9411L41.8778 13.8643C42.4009 13.746 42.9219 13.6184 43.446 13.5056L43.0971 11.7838C42.6514 11.8777 42.2089 11.9869 41.7648 12.0875C41.5433 12.1408 41.3199 12.1859 41.1002 12.2457L40.4431 12.4328L40.9168 14.1245C40.3895 14.2753 39.8589 14.4155 39.3433 14.6034L38.7923 12.9352C38.374 13.0798 37.9518 13.2144 37.5362 13.3667L36.3008 13.8548L36.9686 15.4796C37.4374 15.2984 37.9013 15.1036 38.3738 14.9316L38.0494 14.037C37.8045 14.1186 37.568 14.2233 37.3271 14.315" stroke="url(#paint8_linear_3005_1058)" stroke-width="0.30375" stroke-miterlimit="10"/>
<path d="M29.5896 15.5594C29.8537 15.3944 30.1096 15.2162 30.3806 15.0623L29.8897 14.247C29.3754 14.5564 28.876 14.8908 28.3691 15.2123L29.3415 16.6754L30.5156 15.9221C30.9109 15.6775 31.3194 15.4545 31.7207 15.2196L30.8564 13.6902C31.3829 13.3734 31.935 13.1031 32.4809 12.8216L33.2743 14.389L33.8775 14.0798C34.0813 13.9822 34.2886 13.892 34.494 13.7977C34.9067 13.6134 35.3153 13.42 35.7312 13.2434L35.0504 11.6238C34.533 11.8456 34.0229 12.0847 33.5092 12.3154L33.9146 13.1764L34.6659 12.8362" stroke="url(#paint9_linear_3005_1058)" stroke-width="0.30375" stroke-miterlimit="10"/>
<path d="M35.6265 15.0225L34.8271 15.3844L35.2349 16.2442C35.7247 16.0257 36.2101 15.7973 36.7026 15.5848L36.0218 13.9652C35.6026 14.1436 35.1907 14.3384 34.7748 14.5241C34.5683 14.6201 34.3575 14.7072 34.1545 14.8107L33.5464 15.1225L34.3431 16.6885L33.6106 17.0637C33.3648 17.1858 33.1331 17.3338 32.8936 17.4675L32.0263 15.9396C31.6448 16.1642 31.2539 16.3736 30.8797 16.6101L29.7617 17.3275L30.7341 18.7906L32.0056 17.9778L31.5125 17.1639C31.2922 17.2982 31.0774 17.4416 30.8593 17.5799" stroke="url(#paint10_linear_3005_1058)" stroke-width="0.30375" stroke-miterlimit="10"/>
<path d="M23.4971 20.3091L24.1743 19.6656L23.5346 18.9611L22.2305 20.2026L23.4677 21.4496L24.4772 20.4869C24.6426 20.3235 24.8176 20.1704 24.9946 20.0196L25.5217 19.5627L24.377 18.2301C24.6107 18.031 24.8375 17.8239 25.077 17.6321L25.8007 17.0625L26.8839 18.4455C27.5827 17.8712 28.3365 17.3701 29.0689 16.8409L28.0849 15.3856L26.709 16.364L27.2743 17.1295L27.9458 16.6514" stroke="url(#paint11_linear_3005_1058)" stroke-width="0.30375" stroke-miterlimit="10"/>
<path d="M29.3257 18.6043L28.6103 19.1129L29.1777 19.8768L30.4895 18.9433L29.5055 17.4879C28.766 18.0201 28.0091 18.5289 27.3044 19.1077L28.3904 20.4887L27.7428 20.9972L27.1197 21.5355L25.9723 20.2052L25.4703 20.6402L25.2194 20.8579L24.979 21.0871L24.0176 22.0038L25.2549 23.251L26.3475 22.2092L25.7058 21.5065L25.1453 22.0413" stroke="url(#paint12_linear_3005_1058)" stroke-width="0.30375" stroke-miterlimit="10"/>
<path d="M18.465 26.1425L19.0069 25.3813L18.2431 24.8139L17.1992 26.2814L18.6546 27.2654C19.1971 26.5102 19.7171 25.7381 20.3076 25.0188L18.9265 23.9328L19.4962 23.2093L20.0972 22.5117L21.4274 23.659L21.8713 23.1467L22.0934 22.8908L22.3273 22.6453L23.2629 21.6642L22.0157 20.4269L20.8509 21.6488L21.5536 22.2903L22.1222 21.6936" stroke="url(#paint13_linear_3005_1058)" stroke-width="0.30375" stroke-miterlimit="10"/>
<path d="M23.8479 23.3426L23.2427 23.9784L23.9472 24.6181L25.0579 23.4519L23.8107 22.2147L22.8674 23.2039C22.707 23.3659 22.5572 23.5374 22.4094 23.7109L21.9618 24.2275L23.2945 25.3722C23.1167 25.5812 22.9304 25.7833 22.7591 25.9978L22.2504 26.6454L20.8673 25.5622C20.3044 26.2466 19.8139 26.9856 19.2949 27.703L20.7503 28.687L21.6255 27.4572L20.86 26.8918L20.4111 27.523" stroke="url(#paint14_linear_3005_1058)" stroke-width="0.30375" stroke-miterlimit="10"/>
<path d="M14.6438 32.846L15.0296 31.9947L14.1698 31.5868C13.9237 32.1346 13.669 32.6789 13.4316 33.2305L15.0512 33.9113C15.2333 33.4834 15.4319 33.0628 15.6217 32.6384C15.7197 32.4276 15.8088 32.2125 15.9143 32.0054L16.2326 31.3847L14.6667 30.5881L15.0875 29.7686C15.2252 29.494 15.389 29.2338 15.5389 28.9657L17.0667 29.833C17.2957 29.4434 17.5098 29.0448 17.7512 28.6627L18.4834 27.5216L17.0203 26.5492C16.7172 27.0235 16.4094 27.4949 16.1113 27.9722L16.9252 28.4653C17.0681 28.2306 17.2202 28.0016 17.3674 27.7695" stroke="url(#paint15_linear_3005_1058)" stroke-width="0.30375" stroke-miterlimit="10"/>
<path d="M19.3802 29.0513C19.2253 29.2993 19.0571 29.5393 18.9129 29.794L19.7281 30.2849C20.0046 29.8252 20.3049 29.3799 20.591 28.9261L19.1279 27.9537L18.3898 29.1039C18.1501 29.4911 17.932 29.8916 17.7017 30.2847L19.2312 31.149C18.9465 31.6186 18.7073 32.1129 18.4554 32.6001L16.8879 31.8067L16.5847 32.3978C16.4892 32.5974 16.4009 32.8005 16.3087 33.0018C16.1283 33.406 15.9386 33.8064 15.7656 34.214L17.3852 34.8948C17.5837 34.4329 17.7983 33.9779 18.003 33.5188L17.142 33.1134L16.8227 33.8187" stroke="url(#paint16_linear_3005_1058)" stroke-width="0.30375" stroke-miterlimit="10"/>
<path d="M12.2075 40.1684L12.4183 39.2577L11.4951 39.0269C11.3611 39.6125 11.2195 40.1965 11.0938 40.7838L12.8156 41.1327C12.9114 40.6777 13.0226 40.2259 13.1254 39.7725C13.1797 39.5465 13.2261 39.3183 13.287 39.0939L13.478 38.423L11.7863 37.9494C11.955 37.3585 12.1144 36.7648 12.3229 36.1864L13.9911 36.7374C14.1385 36.3102 14.2762 35.8794 14.4318 35.4552L14.9299 34.194L13.3051 33.5262C13.1007 34.0509 12.8843 34.5713 12.6917 35.1002L13.5863 35.4246C13.6736 35.164 13.7842 34.9117 13.8822 34.6549" stroke="url(#paint17_linear_3005_1058)" stroke-width="0.30375" stroke-miterlimit="10"/>
<path d="M16.1293 35.5193C16.0254 35.7926 15.9051 36.0599 15.8181 36.3394L16.7135 36.6611C16.7931 36.405 16.9025 36.1594 16.9982 35.9091L17.2937 35.1608L15.6688 34.493L15.1666 35.7641C15.0137 36.1932 14.8724 36.6263 14.7246 37.057L16.3938 37.6048C16.2048 38.1202 16.0724 38.6531 15.9183 39.1794L14.2256 38.7092L14.0438 39.3479L13.8927 39.9947C13.7949 40.4264 13.6886 40.8565 13.5977 41.2897L15.3195 41.6386C15.4248 41.1471 15.5447 40.6587 15.6557 40.1685L14.7319 39.9402L14.5575 40.6945" stroke="url(#paint18_linear_3005_1058)" stroke-width="0.30375" stroke-miterlimit="10"/>
<path d="M11.279 47.8249L11.3029 46.8911L10.3524 46.8454L10.3066 48.6452L12.0633 48.6521C12.0905 47.7226 12.0915 46.7919 12.1828 45.8657L10.431 45.7328L10.5014 44.8145C10.528 44.5087 10.5752 44.2048 10.6112 43.8998L12.3551 44.1124C12.4161 43.6647 12.4608 43.2143 12.5354 42.7688L12.7743 41.4342L11.0498 41.0988C10.952 41.6533 10.8469 42.2069 10.7568 42.7626L11.6978 42.9047C11.7377 42.6328 11.792 42.3632 11.8386 42.0923" stroke="url(#paint19_linear_3005_1058)" stroke-width="0.30375" stroke-miterlimit="10"/>
<path d="M14.1888 42.4981C14.1414 42.7867 14.076 43.0724 14.043 43.3632L14.9844 43.5027C15.0609 42.972 15.1695 42.4463 15.2592 41.9176L13.5347 41.5822L13.2937 42.9274C13.2228 43.3774 13.1751 43.8308 13.1143 44.2821L14.8586 44.4913C14.8283 44.7639 14.7791 45.0344 14.7635 45.3086L14.7013 46.1296L12.9493 46.0004C12.8614 46.8822 12.8666 47.7692 12.8379 48.6543L14.5948 48.6612L14.6331 47.1518L13.6823 47.1086L13.6629 47.883" stroke="url(#paint20_linear_3005_1058)" stroke-width="0.30375" stroke-miterlimit="10"/>
<path d="M11.8386 55.5162C11.7879 55.2088 11.7195 54.9043 11.6838 54.5946L10.7424 54.7342C10.8283 55.3285 10.9478 55.9178 11.0498 56.5097L12.7743 56.1744L12.5285 54.801C12.4562 54.3417 12.407 53.879 12.3452 53.4181L10.6009 53.6273C10.5667 53.3221 10.5138 53.0188 10.4952 52.7122L10.4247 51.7939L12.1767 51.6647C12.0876 50.7644 12.0921 49.8596 12.0633 48.9562L10.3066 48.9631L10.3494 50.6506L11.2999 50.6074L11.2788 49.7835" stroke="url(#paint21_linear_3005_1058)" stroke-width="0.30375" stroke-miterlimit="10"/>
<path d="M13.6631 49.7237L13.6849 50.6016L14.6355 50.5558L14.5948 48.9457L12.8379 48.9526C12.865 49.8634 12.8654 50.7755 12.9551 51.6831L14.707 51.5503L14.7691 52.3712C14.7924 52.6446 14.836 52.9157 14.8682 53.1881L13.1242 53.4007C13.1842 53.8393 13.2275 54.2806 13.3006 54.7172L13.5347 56.0247L15.2592 55.6894C15.1729 55.1941 15.0779 54.7002 14.9969 54.204L14.0559 54.3462C14.0934 54.6015 14.145 54.8545 14.1886 55.1088" stroke="url(#paint22_linear_3005_1058)" stroke-width="0.30375" stroke-miterlimit="10"/>
<path d="M13.8974 62.9522C13.7866 62.661 13.6597 62.3759 13.5663 62.0784L12.6709 62.4002C12.7614 62.6869 12.8819 62.9625 12.9894 63.243L13.3205 64.0809L14.9453 63.4131L14.4328 62.1155C14.2767 61.6777 14.1321 61.2354 13.9814 60.7956L12.3122 61.3431C12.1028 60.765 11.9512 60.1688 11.7794 59.579L13.4721 59.1087L13.2867 58.4567L13.1323 57.7965C13.0323 57.3557 12.9242 56.9167 12.8312 56.4744L11.1094 56.8233C11.2266 57.3741 11.3599 57.9215 11.4852 58.4705L12.409 58.2422L12.2229 57.4387" stroke="url(#paint23_linear_3005_1058)" stroke-width="0.30375" stroke-miterlimit="10"/>
<path d="M14.5573 56.914L14.7549 57.7689L15.6781 57.5381C15.5599 57.015 15.4323 56.494 15.3195 55.9699L13.5977 56.3188C13.6916 56.7645 13.8008 57.207 13.9014 57.6511C13.9547 57.8726 13.9998 58.096 14.0596 58.3157L14.2467 58.9728L15.9384 58.4991C16.0892 59.0264 16.2293 59.557 16.4173 60.0726L14.7491 60.6236C14.8937 61.0419 15.0283 61.4641 15.1806 61.8797L15.6686 63.1151L17.2935 62.4473C17.1122 61.9785 16.9174 61.5146 16.7455 61.0421L15.8509 61.3665C15.9325 61.6114 16.0372 61.8479 16.1289 62.0889" stroke="url(#paint24_linear_3005_1058)" stroke-width="0.30375" stroke-miterlimit="10"/>
<path d="M17.3672 69.8371C17.2022 69.5731 17.024 69.3171 16.8701 69.0462L16.0548 69.537C16.3642 70.0514 16.6986 70.5505 17.0201 71.0576L18.4832 70.0852L17.7299 68.9111C17.4853 68.5158 17.2623 68.1074 17.0274 67.706L15.4979 68.5703C15.1812 68.0438 14.9109 67.4918 14.6294 66.9458L16.1968 66.1524L15.8876 65.5492C15.79 65.3455 15.6998 65.1381 15.6055 64.9328C15.4212 64.5201 15.2278 64.1114 15.0512 63.6955L13.4316 64.3763C13.6534 64.8937 13.8925 65.4038 14.1232 65.9175L14.9842 65.5121L14.644 64.761" stroke="url(#paint25_linear_3005_1058)" stroke-width="0.30375" stroke-miterlimit="10"/>
<path d="M16.8229 63.789L17.1847 64.5884L18.0446 64.1806C17.8261 63.6908 17.5976 63.2054 17.3852 62.7129L15.7656 63.3937C15.944 63.8129 16.1388 64.2248 16.3245 64.6407C16.4205 64.8472 16.5076 65.058 16.6111 65.2609L16.9229 65.8691L18.4888 65.0724L18.8641 65.8049C18.9862 66.0507 19.1342 66.2824 19.2679 66.5219L17.7402 67.3892C17.9646 67.7707 18.1742 68.1616 18.4107 68.5358L19.1281 69.6538L20.5912 68.6814L19.7784 67.4099L18.9645 67.903C19.0988 68.1233 19.2421 68.3381 19.3805 68.5562" stroke="url(#paint26_linear_3005_1058)" stroke-width="0.30375" stroke-miterlimit="10"/>
<path d="M22.1226 75.9134L21.4791 75.2362L20.7746 75.8759L22.0161 77.18L23.2633 75.9427L22.3006 74.9333C22.1372 74.7678 21.9841 74.5929 21.8332 74.4159L21.3764 73.8888L20.0437 75.0335C19.8447 74.7998 19.6375 74.573 19.4458 74.3335L18.8761 73.6099L20.2592 72.5268C19.6849 71.8279 19.1837 71.0742 18.6546 70.3418L17.1992 71.3257L18.1777 72.7017L18.9431 72.1364L18.465 71.4649" stroke="url(#paint27_linear_3005_1058)" stroke-width="0.30375" stroke-miterlimit="10"/>
<path d="M20.4113 70.0852L20.92 70.8007L21.6838 70.2333L20.7503 68.9215L19.2949 69.9054C19.8271 70.645 20.336 71.4019 20.9147 72.1066L22.2958 71.0206L22.8042 71.6682L23.3425 72.2913L22.0123 73.4389L22.4472 73.9408L22.6649 74.1917L22.8942 74.4321L23.8109 75.3936L25.0581 74.1563L24.0162 73.0636L23.3135 73.7051L23.8483 74.2657" stroke="url(#paint28_linear_3005_1058)" stroke-width="0.30375" stroke-miterlimit="10"/>
<path d="M27.9458 80.9562L27.1848 80.4143L26.6174 81.1782L28.0849 82.222L29.0689 80.7667C28.3138 80.224 27.5416 79.7042 26.8224 79.1137L25.7364 80.4947L25.0128 79.9251L24.3152 79.3241L25.4626 77.9938L24.9502 77.55L24.6943 77.3278L24.4489 77.0939L23.4677 76.1584L22.2305 77.4054L23.4524 78.5704L24.0939 77.8677L23.4971 77.2991" stroke="url(#paint29_linear_3005_1058)" stroke-width="0.30375" stroke-miterlimit="10"/>
<path d="M25.1455 75.5664L25.7814 76.1716L26.421 75.4671L25.2549 74.3566L24.0176 75.6036L25.0068 76.5469C25.1688 76.7073 25.3403 76.8571 25.5139 77.0049L26.0304 77.4525L27.1752 76.1198C27.3841 76.2976 27.5862 76.4839 27.8007 76.6552L28.4483 77.1639L27.3651 78.547C28.0498 79.1099 28.7885 79.6004 29.5059 80.1194L30.4899 78.664L29.2601 77.7888L28.6947 78.5543L29.3259 79.0032" stroke="url(#paint30_linear_3005_1058)" stroke-width="0.30375" stroke-miterlimit="10"/>
<path d="M34.6659 84.7701L33.8146 84.3845L33.4067 85.2443C33.9547 85.4904 34.4988 85.7451 35.0504 85.9825L35.7312 84.3629C35.3033 84.1808 34.8828 83.982 34.4583 83.7924C34.2475 83.6944 34.0325 83.6053 33.8253 83.4998L33.2046 83.1815L32.408 84.7472L31.5885 84.3264C31.3139 84.1887 31.0537 84.0249 30.7856 83.875L31.6529 82.3472C31.2633 82.1181 30.8648 81.9041 30.4826 81.6627L29.3415 80.9305L28.3691 82.3935C28.8434 82.6967 29.3148 83.0045 29.7921 83.3026L30.2852 82.4887C30.0505 82.3458 29.8215 82.1937 29.5894 82.0465" stroke="url(#paint31_linear_3005_1058)" stroke-width="0.30375" stroke-miterlimit="10"/>
<path d="M30.8593 80.0283C31.1073 80.1832 31.3473 80.3515 31.602 80.4957L32.0929 79.6804C31.6332 79.404 31.1879 79.1037 30.7341 78.8176L29.7617 80.2806L30.9119 81.0187C31.2991 81.2585 31.6996 81.4766 32.0927 81.7068L32.957 80.1774C33.4266 80.4621 33.9209 80.7012 34.4081 80.9531L33.6147 82.5207L34.2056 82.8238C34.4052 82.9194 34.6084 83.0077 34.8096 83.0998C35.214 83.2803 35.6144 83.47 36.0218 83.6431L36.7026 82.0235C36.2407 81.8251 35.7857 81.6104 35.3266 81.4057L34.9212 82.2667L35.6265 82.5861" stroke="url(#paint32_linear_3005_1058)" stroke-width="0.30375" stroke-miterlimit="10"/>
<path d="M41.9858 87.1972L41.0751 86.9864L40.8443 87.9096C41.4299 88.0436 42.0139 88.1854 42.6011 88.311L42.9501 86.5891C42.495 86.4933 42.0433 86.3821 41.5899 86.2793C41.3639 86.225 41.1357 86.1786 40.9113 86.1177L40.2404 85.9267L39.7668 87.6184C39.1759 87.4497 38.5821 87.2904 38.0038 87.0818L38.555 85.4136C38.1277 85.2662 37.697 85.1285 37.2728 84.9729L36.0116 84.4748L35.3438 86.0996C35.8684 86.304 36.3889 86.5204 36.9178 86.713L37.2422 85.8184C36.9816 85.7311 36.7293 85.6205 36.4725 85.5225" stroke="url(#paint33_linear_3005_1058)" stroke-width="0.30375" stroke-miterlimit="10"/>
<path d="M37.3271 83.2925C37.6004 83.3964 37.8677 83.5167 38.1472 83.6037L38.4689 82.7083C38.2126 82.6287 37.9672 82.5193 37.7169 82.4236L36.9686 82.1281L36.3008 83.753L37.5719 84.2552C38.001 84.4081 38.4341 84.5494 38.8648 84.6972L39.4126 83.028C39.928 83.217 40.4609 83.3494 40.9872 83.5035L40.517 85.1962L41.1557 85.378L41.8025 85.5291C42.2342 85.6269 42.6643 85.7332 43.0975 85.8241L43.4464 84.1023C42.9549 83.997 42.4665 83.8771 41.9763 83.7661L41.748 84.6899L42.5023 84.8643" stroke="url(#paint34_linear_3005_1058)" stroke-width="0.30375" stroke-miterlimit="10"/>
<path d="M49.6323 88.1392L48.6986 88.1153L48.6528 89.0658L50.4526 89.1116L50.4595 87.3549C49.53 87.3278 48.5993 87.3266 47.6731 87.2354L47.5403 88.9873L46.6219 88.9166C46.3161 88.8901 46.0122 88.8429 45.7072 88.8068L45.9199 87.0629C45.4721 87.002 45.0218 86.9572 44.5763 86.8827L43.2416 86.6437L42.9062 88.3682C43.4607 88.466 44.0143 88.5711 44.57 88.6612L44.7121 87.7202C44.4402 87.6803 44.1707 87.6261 43.8997 87.5795" stroke="url(#paint35_linear_3005_1058)" stroke-width="0.30375" stroke-miterlimit="10"/>
<path d="M44.3009 85.2214C44.5894 85.2688 44.8752 85.3342 45.166 85.3672L45.3053 84.426C44.7745 84.3494 44.2488 84.2409 43.7201 84.1512L43.3848 85.8757L44.73 86.1166C45.1799 86.1875 45.6333 86.2353 46.0847 86.2961L46.2939 84.5517C46.5664 84.5821 46.837 84.6313 47.1112 84.6469L47.9321 84.7091L47.8029 86.4611C48.6848 86.5488 49.5717 86.5437 50.4569 86.5725L50.4638 84.8158L48.9543 84.7773L48.9112 85.728L49.6856 85.7475" stroke="url(#paint36_linear_3005_1058)" stroke-width="0.30375" stroke-miterlimit="10"/>
<path d="M57.3295 87.5797C57.0221 87.6303 56.7176 87.6988 56.4079 87.7344L56.5475 88.6756C57.1418 88.5898 57.7311 88.4703 58.323 88.3682L57.9876 86.6437L56.6143 86.8896C56.155 86.9619 55.6923 87.0111 55.2314 87.0728L55.4404 88.8172C55.1352 88.8514 54.8321 88.9042 54.5255 88.9229L53.6072 88.9933L53.478 87.2413C52.5777 87.3304 51.6729 87.326 50.7695 87.3547L50.7764 89.1114L52.4636 89.0687L52.4205 88.1181L51.5965 88.1392" stroke="url(#paint37_linear_3005_1058)" stroke-width="0.30375" stroke-miterlimit="10"/>
<path d="M51.5339 85.7471L52.4117 85.7252L52.3659 84.7747L50.7559 84.8154L50.7627 86.5721C51.6736 86.5449 52.5856 86.5447 53.4933 86.455L53.3604 84.7032L54.1813 84.641C54.4547 84.6177 54.7259 84.5742 54.9982 84.5422L55.2109 86.2861C55.6495 86.2262 56.0907 86.1829 56.5273 86.1098L57.8349 85.8757L57.4995 84.1512C57.0042 84.2374 56.5103 84.3324 56.0142 84.4134L56.1563 85.3544C56.4117 85.317 56.6646 85.2653 56.9189 85.2218" stroke="url(#paint38_linear_3005_1058)" stroke-width="0.30375" stroke-miterlimit="10"/>
<path d="M64.7647 85.5227C64.4735 85.6335 64.1884 85.7605 63.8909 85.8538L64.2127 86.7493C64.4994 86.6588 64.775 86.5383 65.0555 86.4307L65.8934 86.0996L65.2256 84.4748L63.928 84.9873C63.4899 85.1434 63.0479 85.288 62.6081 85.4387L63.1558 87.1079C62.5777 87.3173 61.9815 87.469 61.3916 87.6407L60.9214 85.948L60.2694 86.1335L59.6092 86.2878C59.1684 86.3876 58.7294 86.4959 58.2871 86.5889L58.636 88.3107C59.1866 88.1935 59.7342 88.0603 60.2832 87.9349L60.0549 87.0111L59.2514 87.1972" stroke="url(#paint39_linear_3005_1058)" stroke-width="0.30375" stroke-miterlimit="10"/>
<path d="M58.7253 84.8643L59.5803 84.6667L59.3494 83.7435C58.8264 83.8617 58.3053 83.9893 57.7812 84.1021L58.1302 85.8239C58.5759 85.73 59.0183 85.6208 59.4624 85.5202C59.6839 85.4669 59.9073 85.4218 60.127 85.362L60.7841 85.1749L60.3105 83.4832C60.8378 83.3324 61.3683 83.1922 61.8839 83.0043L62.4351 84.6725C62.8535 84.5279 63.2757 84.3933 63.6912 84.241L64.9267 83.753L64.2588 82.1281C63.79 82.3094 63.3259 82.5042 62.8537 82.6761L63.1781 83.5707C63.4229 83.4891 63.6594 83.3844 63.9004 83.2927" stroke="url(#paint40_linear_3005_1058)" stroke-width="0.30375" stroke-miterlimit="10"/>
<path d="M71.6475 82.0465C71.3834 82.2115 71.1275 82.3897 70.8565 82.5436L71.3474 83.3589C71.8617 83.0494 72.3609 82.7151 72.868 82.3935L71.8955 80.9305L70.7215 81.6838C70.3262 81.9284 69.9177 82.1514 69.5164 82.3863L70.3806 83.9157C69.8541 84.2324 69.3021 84.5028 68.7562 84.7843L67.9628 83.2167L67.3595 83.5259C67.1558 83.6235 66.9485 83.7136 66.7431 83.8078C66.3304 83.9921 65.9218 84.1855 65.5059 84.362L66.1867 85.9816C66.7041 85.7599 67.2142 85.5207 67.7279 85.2901L67.3225 84.4291L66.5712 84.7693" stroke="url(#paint41_linear_3005_1058)" stroke-width="0.30375" stroke-miterlimit="10"/>
<path d="M65.5976 82.5861L66.397 82.2242L65.9892 81.3644C65.4994 81.5829 65.014 81.8113 64.5215 82.0238L65.2023 83.6433C65.6213 83.4649 66.0333 83.2699 66.4493 83.0842C66.6558 82.9883 66.8666 82.9012 67.0695 82.7977L67.6776 82.4859L66.881 80.9199L67.6135 80.5447C67.8593 80.4226 68.091 80.2746 68.3305 80.1409L69.1978 81.6686C69.5793 81.4442 69.9701 81.2346 70.3444 80.9981L71.4624 80.2806L70.49 78.8176L69.2185 79.6304L69.7116 80.4442C69.9319 80.31 70.1467 80.1666 70.3648 80.0283" stroke="url(#paint42_linear_3005_1058)" stroke-width="0.30375" stroke-miterlimit="10"/>
<path d="M77.7243 77.2989L77.0472 77.9424L77.6869 78.6469L78.991 77.4054L77.7535 76.1584L76.744 77.1211C76.5786 77.2845 76.4036 77.4376 76.2266 77.5884L75.6995 78.0453L76.8443 79.3779C76.6106 79.577 76.3838 79.7841 76.1442 79.9759L75.4205 80.5456L74.3373 79.1625C73.6385 79.7368 72.8848 80.238 72.1523 80.7671L73.1363 82.2225L74.5123 81.244L73.9469 80.4785L73.2754 80.9566" stroke="url(#paint43_linear_3005_1058)" stroke-width="0.30375" stroke-miterlimit="10"/>
<path d="M71.8825 79.003L72.5979 78.4941L72.0305 77.7303L70.7188 78.6638L71.7027 80.1192C72.4422 79.587 73.1992 79.0781 73.9039 78.4994L72.8179 77.1185L73.4655 76.6101L74.0886 76.0718L75.2359 77.402L75.7379 76.9671L75.9888 76.7496L76.2292 76.5203L77.1906 75.6036L75.9534 74.3566L74.8607 75.3985L75.5024 76.1012L76.0627 75.5664" stroke="url(#paint44_linear_3005_1058)" stroke-width="0.30375" stroke-miterlimit="10"/>
<path d="M82.7629 71.4645L82.221 72.2257L82.9848 72.7931L84.0287 71.3256L82.5733 70.3416C82.0306 71.0967 81.5108 71.8689 80.9203 72.5881L82.3012 73.6742L81.7315 74.3977L81.1305 75.0953L79.8003 73.9477L79.3564 74.4601L79.1343 74.716L78.9004 74.9614L77.9648 75.9426L79.2118 77.1798L80.3768 75.9582L79.6741 75.3166L79.1055 75.9134" stroke="url(#paint45_linear_3005_1058)" stroke-width="0.30375" stroke-miterlimit="10"/>
<path d="M77.3758 74.2639L77.981 73.6281L77.2765 72.9884L76.166 74.1546L77.413 75.3918L78.3563 74.4026C78.5166 74.2406 78.6665 74.0691 78.8143 73.8956L79.2618 73.379L77.9292 72.2342C78.107 72.0253 78.2933 71.8232 78.4646 71.6087L78.9733 70.9611L80.3564 72.0443C80.9193 71.3599 81.4098 70.6209 81.9288 69.9035L80.4734 68.9195L79.5982 70.1493L80.3636 70.7147L80.8126 70.0835" stroke="url(#paint46_linear_3005_1058)" stroke-width="0.30375" stroke-miterlimit="10"/>
<path d="M86.5816 64.7609L86.1958 65.6122L87.0556 66.02C87.3017 65.472 87.5564 64.9279 87.7937 64.3763L86.1742 63.6955C85.9921 64.1234 85.7935 64.544 85.6037 64.9684C85.5057 65.1792 85.4166 65.3943 85.3111 65.6014L84.9928 66.2221L86.5587 67.0187L86.1379 67.8382C86.0002 68.1128 85.8364 68.3732 85.6867 68.6412L84.1589 67.7738C83.9299 68.1635 83.7158 68.562 83.4744 68.9441L82.7422 70.0852L84.2053 71.0576C84.5084 70.5833 84.8162 70.1119 85.1143 69.6346L84.3004 69.1415C84.1575 69.3762 84.0054 69.6053 83.8582 69.8373" stroke="url(#paint47_linear_3005_1058)" stroke-width="0.30375" stroke-miterlimit="10"/>
<path d="M81.8299 68.5562C81.9848 68.3082 82.1531 68.0682 82.2973 67.8135L81.482 67.3226C81.2056 67.7823 80.9053 68.2276 80.6191 68.6814L82.0822 69.6538L82.8203 68.5036C83.0601 68.1164 83.2782 67.7159 83.5084 67.3228L81.9789 66.4585C82.2636 65.9889 82.5028 65.4946 82.7547 65.0074L84.3223 65.8008L84.6254 65.2099C84.721 65.0103 84.8093 64.8072 84.9014 64.6059C85.0818 64.2017 85.2716 63.8011 85.4445 63.3937L83.8249 62.7129C83.6265 63.1748 83.4118 63.6298 83.2071 64.0889L84.0681 64.4943L84.3875 63.789" stroke="url(#paint48_linear_3005_1058)" stroke-width="0.30375" stroke-miterlimit="10"/>
<path d="M89.0156 57.4387L88.8048 58.3494L89.728 58.5802C89.862 57.9946 90.0036 57.4106 90.1293 56.8233L88.4075 56.4744C88.3117 56.9294 88.2005 57.3812 88.0974 57.8346C88.0432 58.0606 87.9968 58.2888 87.9359 58.5132L87.7449 59.1841L89.4366 59.6577C89.2679 60.2486 89.1085 60.8424 88.9 61.4207L87.2318 60.8697C87.0843 61.297 86.9466 61.7277 86.7911 62.1519L86.293 63.4131L87.9178 64.0809C88.1221 63.5563 88.3386 63.0358 88.5312 62.5069L87.6366 62.1825C87.5493 62.4431 87.4387 62.6954 87.3407 62.9522" stroke="url(#paint49_linear_3005_1058)" stroke-width="0.30375" stroke-miterlimit="10"/>
<path d="M85.1077 62.0893C85.2116 61.8159 85.3319 61.5486 85.419 61.2691L84.5235 60.9474C84.4439 61.2037 84.3346 61.4492 84.2388 61.6994L83.9434 62.4477L85.5682 63.1155L86.0704 61.8444C86.2233 61.4153 86.3647 60.9822 86.5125 60.5515L84.8433 60.0037C85.0322 59.4884 85.1646 58.9554 85.3187 58.4291L87.0114 58.8993L87.1933 58.2606L87.3443 57.6138C87.4422 57.1821 87.5485 56.752 87.6394 56.3188L85.9175 55.9699C85.8122 56.4614 85.6924 56.9498 85.5814 57.4401L86.5052 57.6683L86.6795 56.914" stroke="url(#paint50_linear_3005_1058)" stroke-width="0.30375" stroke-miterlimit="10"/>
<path d="M89.9525 49.7835L89.9286 50.7172L90.8791 50.7629L90.9249 48.9631L89.1682 48.9562C89.1411 49.8857 89.1401 50.8164 89.0487 51.7426L90.8006 51.8755L90.7299 52.7938C90.7034 53.0996 90.6562 53.4035 90.6201 53.7085L88.8762 53.4959C88.8153 53.9436 88.7705 54.394 88.696 54.8397L88.457 56.1744L90.1815 56.5097C90.2793 55.9552 90.3844 55.4016 90.4745 54.846L89.5335 54.7038C89.4936 54.9758 89.4394 55.2453 89.3928 55.5162" stroke="url(#paint51_linear_3005_1058)" stroke-width="0.30375" stroke-miterlimit="10"/>
<path d="M87.0392 55.1088C87.0866 54.8202 87.152 54.5345 87.185 54.2437L86.2435 54.1042C86.167 54.6349 86.0585 55.1606 85.9688 55.6894L87.6932 56.0247L87.9342 54.6795C88.0051 54.2295 88.0529 53.7761 88.1136 53.3248L86.3693 53.1156C86.3997 52.843 86.4489 52.5725 86.4645 52.2983L86.5266 51.4774L88.2787 51.6066C88.3664 50.7247 88.3613 49.8377 88.39 48.9526L86.6334 48.9457L86.5951 50.4551L87.5456 50.4983L87.5651 49.7239" stroke="url(#paint52_linear_3005_1058)" stroke-width="0.30375" stroke-miterlimit="10"/>
<path d="M89.393 42.0921C89.4436 42.3995 89.5121 42.704 89.5477 43.0137L90.4889 42.8743C90.4031 42.28 90.2836 41.6907 90.1815 41.0988L88.457 41.4342L88.7029 42.8075C88.7752 43.2668 88.8244 43.7295 88.8861 44.1904L90.6305 43.9812C90.6647 44.2864 90.7175 44.5897 90.7362 44.8961L90.8066 45.8144L89.0546 45.9436C89.1437 46.8439 89.1393 47.7487 89.168 48.6521L90.9247 48.6452L90.882 46.9577L89.9314 47.0009L89.9525 47.8249" stroke="url(#paint53_linear_3005_1058)" stroke-width="0.30375" stroke-miterlimit="10"/>
<path d="M87.5649 47.8832L87.5428 47.0054L86.5922 47.0511L86.6329 48.6612L88.3896 48.6543C88.3625 47.7435 88.3623 46.8314 88.2726 45.9238L86.5208 46.0567L86.4586 45.2357C86.4353 44.9623 86.3918 44.6912 86.3598 44.4188L88.1037 44.2062C88.0438 43.7676 88.0004 43.3263 87.9273 42.8898L87.6932 41.5822L85.9688 41.9176C86.055 42.4129 86.15 42.9068 86.231 43.4029L87.172 43.2607C87.1345 43.0054 87.0829 42.7523 87.0394 42.4981" stroke="url(#paint54_linear_3005_1058)" stroke-width="0.30375" stroke-miterlimit="10"/>
<path d="M87.3409 34.6549C87.4517 34.9461 87.5786 35.2312 87.672 35.5287L88.5674 35.2069C88.4769 34.9202 88.3564 34.6446 88.2489 34.3641L87.9178 33.5262L86.293 34.194L86.8055 35.4917C86.9616 35.9297 87.1062 36.3717 87.2569 36.8115L88.9261 36.264C89.1355 36.8421 89.2871 37.4383 89.4589 38.0282L87.7662 38.4984L87.9516 39.1504L88.106 39.8106C88.2058 40.2514 88.3141 40.6904 88.4071 41.1327L90.1289 40.7838C90.0117 40.2332 89.8784 39.6856 89.7531 39.1367L88.8293 39.3649L89.0154 40.1684" stroke="url(#paint55_linear_3005_1058)" stroke-width="0.30375" stroke-miterlimit="10"/>
<path d="M86.6795 40.6941L86.4819 39.8392L85.5587 40.07C85.677 40.5931 85.8045 41.1141 85.9173 41.6382L87.6392 41.2893C87.5452 40.8436 87.4361 40.4011 87.3354 39.957C87.2822 39.7357 87.237 39.5121 87.1773 39.2924L86.9902 38.6353L85.2985 39.109C85.1476 38.5817 85.0075 38.0511 84.8196 37.5355L86.4878 36.9845C86.3432 36.5662 86.2085 36.144 86.0562 35.7284L85.5682 34.493L83.9434 35.1608C84.1246 35.6296 84.3194 36.0937 84.4913 36.566L85.386 36.2416C85.3044 35.9967 85.1997 35.7602 85.1079 35.5193" stroke="url(#paint56_linear_3005_1058)" stroke-width="0.30375" stroke-miterlimit="10"/>
<path d="M83.8582 27.7697C84.0232 28.0338 84.2014 28.2897 84.3553 28.5607L85.1706 28.0698C84.8611 27.5554 84.5268 27.0563 84.2053 26.5492L82.7422 27.5216L83.4955 28.6957C83.7401 29.091 83.9631 29.4994 84.198 29.9008L85.7274 29.0365C86.0444 29.563 86.3145 30.115 86.596 30.661L85.0286 31.4544L85.3378 32.0576C85.4354 32.2613 85.5255 32.4687 85.6197 32.674C85.804 33.0867 85.9974 33.4954 86.174 33.9113L87.7936 33.2305C87.5718 32.7131 87.3327 32.203 87.102 31.6893L86.241 32.0947L86.5812 32.846" stroke="url(#paint57_linear_3005_1058)" stroke-width="0.30375" stroke-miterlimit="10"/>
<path d="M84.3877 33.8185L84.0258 33.019L83.166 33.4269C83.3845 33.9167 83.6129 34.4021 83.8253 34.8946L85.4449 34.2138C85.2665 33.7946 85.0715 33.3827 84.8858 32.9668C84.7898 32.7602 84.7028 32.5494 84.5993 32.3465L84.2874 31.7384L82.7215 32.5351L82.3463 31.8026C82.2242 31.5568 82.0761 31.3251 81.9425 31.0856L83.4701 30.2183C83.2458 29.8368 83.0362 29.4459 82.7997 29.0717L82.0822 27.9537L80.6191 28.9261L81.432 30.1976L82.2458 29.7045C82.1116 29.4842 81.9682 29.2693 81.8299 29.0513" stroke="url(#paint58_linear_3005_1058)" stroke-width="0.30375" stroke-miterlimit="10"/>
<path d="M79.1053 21.6936L79.7489 22.3707L80.4534 21.731L79.2118 20.4269L77.9648 21.6642L78.9275 22.6737C79.0909 22.8391 79.244 23.0141 79.3949 23.1911L79.8517 23.7182L81.1844 22.5734C81.3834 22.8071 81.5906 23.0339 81.7824 23.2735L82.352 23.997L80.9689 25.0802C81.5432 25.779 82.0444 26.5327 82.5735 27.2654L84.0289 26.2814L83.0502 24.9054L82.2848 25.4708L82.7629 26.1423" stroke="url(#paint59_linear_3005_1058)" stroke-width="0.30375" stroke-miterlimit="10"/>
<path d="M80.8122 27.523L80.3035 26.8076L79.5397 27.375L80.4732 28.6868L81.9286 27.7028C81.3964 26.9633 80.8875 26.2063 80.3088 25.5016L78.9279 26.5877L78.4194 25.9401L77.8812 25.317L79.2114 24.1694L78.7764 23.6674L78.559 23.4165L78.3297 23.1761L77.413 22.2147L76.166 23.4519L77.2079 24.5446L77.9106 23.9031L77.3758 23.3426" stroke="url(#paint60_linear_3005_1058)" stroke-width="0.30375" stroke-miterlimit="10"/>
<path d="M73.2754 16.6514L74.0364 17.1933L74.6038 16.4294L73.1363 15.3856L72.1523 16.8409C72.9075 17.3834 73.6796 17.9034 74.3989 18.4939L75.4849 17.1131L76.2084 17.6827L76.906 18.2837L75.7585 19.614L76.2708 20.0578L76.5268 20.28L76.772 20.5139L77.7531 21.4494L78.9906 20.2024L77.7687 19.0374L77.1272 19.7401L77.7239 20.3087" stroke="url(#paint61_linear_3005_1058)" stroke-width="0.30375" stroke-miterlimit="10"/>
<path d="M76.0631 22.0407L75.4273 21.4354L74.7876 22.1399L75.9538 23.2506L77.1911 22.0034L76.2018 21.0602C76.0398 20.8998 75.8683 20.75 75.6948 20.6021L75.1782 20.1546L74.0335 21.4873C73.8245 21.3095 73.6224 21.1232 73.4079 20.9518L72.7604 20.4434L73.8435 19.0603C73.1589 18.4973 72.4202 18.0069 71.7027 17.4879L70.7188 18.9433L71.9485 19.8185L72.5139 19.053L71.8827 18.6041" stroke="url(#paint62_linear_3005_1058)" stroke-width="0.30375" stroke-miterlimit="10"/>
<path d="M66.5712 12.836L67.4225 13.2218L67.8304 12.362C67.2824 12.1159 66.7383 11.8612 66.1867 11.6238L65.5059 13.2434C65.9337 13.4255 66.3543 13.6241 66.7788 13.8139C66.9896 13.9119 67.2046 14.001 67.4118 14.1065L68.0325 14.4248L68.8291 12.8591L69.6486 13.2797C69.9232 13.4174 70.1836 13.5812 70.4515 13.7311L69.5842 15.2589C69.9738 15.4879 70.3723 15.702 70.7545 15.9434L71.8955 16.6756L72.868 15.2125C72.3937 14.9094 71.9223 14.6016 71.445 14.3035L70.9519 15.1174C71.1866 15.2603 71.4156 15.4124 71.6477 15.5596" stroke="url(#paint63_linear_3005_1058)" stroke-width="0.30375" stroke-miterlimit="10"/>
<path d="M70.365 17.5799C70.117 17.425 69.877 17.2567 69.6223 17.1125L69.1314 17.9278C69.5911 18.2042 70.0364 18.5045 70.4902 18.7906L71.4626 17.3275L70.3122 16.5894C69.925 16.3497 69.5244 16.1316 69.1314 15.9013L68.2671 17.4308C67.7975 17.1461 67.3032 16.907 66.816 16.655L67.6094 15.0877L67.0185 14.7844C66.8188 14.6888 66.6157 14.6005 66.4145 14.5083C66.0101 14.3279 65.6097 14.1382 65.2023 13.9652L64.5215 15.5848C64.9834 15.7833 65.4384 15.9979 65.8975 16.2027L66.3029 15.3416L65.5976 15.0223" stroke="url(#paint64_linear_3005_1058)" stroke-width="0.30375" stroke-miterlimit="10"/>
<path d="M59.2514 10.4102L60.1621 10.621L60.3929 9.69783C59.8073 9.56378 59.2233 9.42223 58.636 9.29648L58.2871 11.0183C58.7421 11.1141 59.1939 11.2253 59.6473 11.3282C59.8733 11.3824 60.1015 11.4288 60.3259 11.4898L60.9968 11.6807L61.4704 9.98903C62.0613 10.1577 62.655 10.3171 63.2334 10.5257L62.6822 12.1938C63.1094 12.3413 63.5402 12.479 63.9644 12.6345L65.2256 13.1326L65.8934 11.5078C65.3687 11.3035 64.8483 11.087 64.3194 10.8944L63.9952 11.7891C64.2558 11.8763 64.5081 11.9869 64.7649 12.0849" stroke="url(#paint65_linear_3005_1058)" stroke-width="0.30375" stroke-miterlimit="10"/>
<path d="M63.9006 14.3154C63.6272 14.2116 63.3599 14.0913 63.0805 14.0042L62.7587 14.8997C63.0151 14.9792 63.2605 15.0886 63.5108 15.1844L64.259 15.4798L64.9269 13.855L63.6558 13.3528C63.2267 13.1999 62.7935 13.0585 62.3628 12.9107L61.8151 14.5799C61.2997 14.391 60.7667 14.2585 60.2404 14.1044L60.7106 12.4117L60.0719 12.2299L59.4251 12.0788C58.9934 11.981 58.5633 11.8747 58.1302 11.7838L57.7812 13.5056C58.2727 13.6109 58.7611 13.7308 59.2514 13.8418L59.4796 12.918L58.7253 12.7436" stroke="url(#paint66_linear_3005_1058)" stroke-width="0.30375" stroke-miterlimit="10"/>
<path d="M51.5965 9.46929L52.5305 9.49319L52.5762 8.54265L50.7764 8.49689L50.7695 10.2536C51.699 10.2807 52.6297 10.2817 53.5559 10.373L53.6888 8.62122L54.6071 8.69169C54.9129 8.71822 55.2168 8.7654 55.5218 8.80145L55.3092 10.5454C55.7569 10.6063 56.2073 10.6511 56.6528 10.7256L57.9874 10.9646L58.3228 9.24006C57.7683 9.14225 57.2147 9.03716 56.659 8.94704L56.5169 9.88806C56.7888 9.92795 57.0584 9.98222 57.3293 10.0288" stroke="url(#paint67_linear_3005_1058)" stroke-width="0.30375" stroke-miterlimit="10"/>
<path d="M56.9189 12.3845C56.6304 12.3371 56.3447 12.2717 56.0539 12.2387L55.9143 13.1799C56.4451 13.2564 56.9708 13.365 57.4995 13.4547L57.8349 11.7302L56.4896 11.4892C56.0397 11.4183 55.5863 11.3705 55.1349 11.3098L54.9257 13.0541C54.6532 13.0238 54.3826 12.9746 54.1084 12.959L53.2875 12.8968L53.4167 11.1448C52.5348 11.0571 51.6479 11.0621 50.7627 11.0334L50.7559 12.7903L52.2653 12.8285L52.3084 11.878L51.5341 11.8586" stroke="url(#paint68_linear_3005_1058)" stroke-width="0.30375" stroke-miterlimit="10"/>
<path d="M54.6707 21.2728C53.9636 22.8926 52.3654 23.9391 50.5994 23.9391C48.833 23.9391 47.2349 22.8926 46.528 21.2728L46.3945 21.3312C47.1247 23.004 48.7753 24.0847 50.5994 24.0847C52.4236 24.0847 54.0739 23.0038 54.8042 21.3312L54.6707 21.2728Z" fill="url(#paint69_linear_3005_1058)"/>
<path d="M53.8585 20.8734C53.293 22.1688 52.015 23.0058 50.6025 23.0058C49.1899 23.0058 47.9117 22.1688 47.3463 20.8734L47.2129 20.9317C47.8016 22.2802 49.132 23.1516 50.6025 23.1516C52.0729 23.1516 53.4033 22.2802 53.992 20.9317L53.8585 20.8734Z" fill="url(#paint70_linear_3005_1058)"/>
<path d="M48.1588 20.4722L48.0254 20.5306C48.4725 21.5546 49.483 22.2164 50.5998 22.2164C51.7166 22.2164 52.7268 21.5546 53.174 20.5306L53.0405 20.4722C52.6167 21.4432 51.6584 22.0708 50.5998 22.0708C49.5409 22.0708 48.5827 21.4432 48.1588 20.4722Z" fill="url(#paint71_linear_3005_1058)"/>
<path d="M52.2285 20.073C51.9463 20.7198 51.3082 21.1376 50.6029 21.1376C49.8976 21.1376 49.2595 20.7198 48.9772 20.073L48.8438 20.1314C49.1491 20.8312 49.8396 21.2832 50.6029 21.2832C51.3659 21.2832 52.0564 20.831 52.3618 20.1314L52.2285 20.073Z" fill="url(#paint72_linear_3005_1058)"/>
<path d="M51.4105 19.6717C51.2698 19.9941 50.9516 20.2024 50.6001 20.2024C50.2486 20.2024 49.9304 19.9941 49.7897 19.6717L49.6562 19.73C49.8201 20.1054 50.1906 20.348 50.6001 20.348C51.0096 20.348 51.3799 20.1054 51.5438 19.73L51.4105 19.6717Z" fill="url(#paint73_linear_3005_1058)"/>
<path d="M54.6707 14.8414C53.9636 16.4612 52.3654 17.5077 50.5994 17.5077C48.833 17.5077 47.2349 16.4612 46.528 14.8414L46.3945 14.8997C47.1247 16.5725 48.7753 17.6533 50.5994 17.6533C52.4236 17.6533 54.0739 16.5723 54.8042 14.8997L54.6707 14.8414Z" fill="url(#paint74_linear_3005_1058)"/>
<path d="M53.8585 14.442C53.293 15.7374 52.015 16.5743 50.6025 16.5743C49.1899 16.5743 47.9117 15.7374 47.3463 14.442L47.2129 14.5003C47.8016 15.8487 49.132 16.7201 50.6025 16.7201C52.0729 16.7201 53.4033 15.8487 53.992 14.5003L53.8585 14.442Z" fill="url(#paint75_linear_3005_1058)"/>
<path d="M48.1588 14.0408L48.0254 14.0991C48.4725 15.1232 49.483 15.7849 50.5998 15.7849C51.7166 15.7849 52.7268 15.1232 53.174 14.0991L53.0405 14.0408C52.6167 15.0118 51.6584 15.6393 50.5998 15.6393C49.5409 15.6393 48.5827 15.012 48.1588 14.0408Z" fill="url(#paint76_linear_3005_1058)"/>
<path d="M52.2285 13.6416C51.9463 14.2884 51.3082 14.7061 50.6029 14.7061C49.8976 14.7061 49.2595 14.2884 48.9772 13.6416L48.8438 13.6999C49.1491 14.3998 49.8396 14.8517 50.6029 14.8517C51.3659 14.8517 52.0564 14.3996 52.3618 13.6999L52.2285 13.6416Z" fill="url(#paint77_linear_3005_1058)"/>
<path d="M51.4105 13.2402C51.2698 13.5626 50.9516 13.771 50.6001 13.771C50.2486 13.771 49.9304 13.5626 49.7897 13.2402L49.6562 13.2985C49.8201 13.674 50.1906 13.9166 50.6001 13.9166C51.0096 13.9166 51.3799 13.674 51.5438 13.2985L51.4105 13.2402Z" fill="url(#paint78_linear_3005_1058)"/>
<path d="M50.5457 18.0216C49.8386 19.6414 48.2404 20.688 46.4744 20.688C44.7082 20.688 43.1099 19.6414 42.403 18.0216L42.2695 18.08C42.9997 19.7528 44.6503 20.8336 46.4744 20.8336C48.2984 20.8336 49.9489 19.7526 50.6792 18.08L50.5457 18.0216Z" fill="url(#paint79_linear_3005_1058)"/>
<path d="M49.7355 17.6222C49.1701 18.9176 47.8919 19.7548 46.4795 19.7548C45.0669 19.7548 43.7887 18.9178 43.2233 17.6222L43.0898 17.6806C43.6785 19.029 45.0089 19.9004 46.4795 19.9004C47.9498 19.9004 49.2803 19.029 49.8689 17.6806L49.7355 17.6222Z" fill="url(#paint80_linear_3005_1058)"/>
<path d="M48.9233 17.2211C48.4993 18.1921 47.5413 18.8196 46.4824 18.8196C45.4235 18.8196 44.4653 18.1921 44.0414 17.2211L43.9082 17.2794C44.3553 18.3036 45.3658 18.9652 46.4826 18.9652C47.5994 18.9652 48.6098 18.3034 49.0568 17.2794L48.9233 17.2211Z" fill="url(#paint81_linear_3005_1058)"/>
<path d="M48.1055 16.8217C47.8232 17.4685 47.1851 17.8862 46.4798 17.8862C45.7745 17.8862 45.1364 17.4683 44.8541 16.8217L44.7207 16.88C45.0263 17.5798 45.7166 18.032 46.4798 18.032C47.2428 18.032 47.9334 17.5798 48.2387 16.88L48.1055 16.8217Z" fill="url(#paint82_linear_3005_1058)"/>
<path d="M47.2875 16.4197C47.1467 16.7421 46.8286 16.9505 46.4771 16.9505C46.1255 16.9505 45.8074 16.7421 45.6667 16.4197L45.5332 16.478C45.697 16.8535 46.0676 17.0961 46.4771 17.0961C46.8865 17.0961 47.2569 16.8535 47.4209 16.478L47.2875 16.4197Z" fill="url(#paint83_linear_3005_1058)"/>
<path d="M58.8504 18.0216C58.1433 19.6414 56.5451 20.688 54.7791 20.688C53.0129 20.688 51.4146 19.6414 50.7077 18.0216L50.5742 18.08C51.3044 19.7528 52.955 20.8336 54.7791 20.8336C56.6033 20.8336 58.2536 19.7526 58.9838 18.08L58.8504 18.0216Z" fill="url(#paint84_linear_3005_1058)"/>
<path d="M58.0324 17.6222C57.4668 18.9176 56.1888 19.7548 54.7764 19.7548C53.3637 19.7548 52.0855 18.9178 51.5202 17.6222L51.3867 17.6806C51.9754 19.029 53.3058 19.9004 54.7764 19.9004C56.2467 19.9004 57.5771 19.029 58.1658 17.6806L58.0324 17.6222Z" fill="url(#paint85_linear_3005_1058)"/>
<path d="M57.2204 17.2211C56.7964 18.1921 55.8383 18.8196 54.7797 18.8196C53.7208 18.8196 52.7626 18.1921 52.3387 17.2211L52.2051 17.2794C52.6522 18.3036 53.6627 18.9652 54.7795 18.9652C55.8963 18.9652 56.9065 18.3034 57.3536 17.2794L57.2204 17.2211Z" fill="url(#paint86_linear_3005_1058)"/>
<path d="M56.408 16.8217C56.1257 17.4685 55.4877 17.8862 54.7826 17.8862C54.0772 17.8862 53.4392 17.4683 53.1569 16.8217L53.0234 16.88C53.329 17.5798 54.0193 18.032 54.7826 18.032C55.5456 18.032 56.2361 17.5798 56.5415 16.88L56.408 16.8217Z" fill="url(#paint87_linear_3005_1058)"/>
<path d="M55.5902 16.4197C55.4495 16.7421 55.1313 16.9505 54.7798 16.9505C54.4283 16.9505 54.1101 16.7421 53.9694 16.4197L53.8359 16.478C53.9998 16.8535 54.3703 17.0961 54.7798 17.0961C55.1892 17.0961 55.5596 16.8535 55.7236 16.478L55.5902 16.4197Z" fill="url(#paint88_linear_3005_1058)"/>
<path d="M54.6707 76.3982C53.9636 74.7785 52.3654 73.7319 50.5994 73.7319C48.833 73.7319 47.2349 74.7785 46.528 76.3982L46.3945 76.3399C47.1247 74.6671 48.7753 73.5863 50.5994 73.5863C52.4236 73.5863 54.0739 74.6673 54.8042 76.3399L54.6707 76.3982Z" fill="url(#paint89_linear_3005_1058)"/>
<path d="M53.8585 76.8004C53.293 75.505 52.015 74.6681 50.6025 74.6681C49.1899 74.6681 47.9117 75.505 47.3463 76.8004L47.2129 76.7421C47.8016 75.3936 49.132 74.5223 50.6025 74.5223C52.0729 74.5223 53.4033 75.3936 53.992 76.7421L53.8585 76.8004Z" fill="url(#paint90_linear_3005_1058)"/>
<path d="M48.1588 77.1996L48.0254 77.1413C48.4725 76.1172 49.483 75.4555 50.5998 75.4555C51.7166 75.4555 52.7268 76.1172 53.174 77.1413L53.0405 77.1996C52.6167 76.2286 51.6584 75.6011 50.5998 75.6011C49.5409 75.6011 48.5827 76.2286 48.1588 77.1996Z" fill="url(#paint91_linear_3005_1058)"/>
<path d="M52.2285 77.6008C51.9463 76.954 51.3082 76.5362 50.6029 76.5362C49.8976 76.5362 49.2595 76.954 48.9772 77.6008L48.8438 77.5424C49.1491 76.8426 49.8396 76.3906 50.6029 76.3906C51.3659 76.3906 52.0564 76.8428 52.3618 77.5424L52.2285 77.6008Z" fill="url(#paint92_linear_3005_1058)"/>
<path d="M51.4105 78.0002C51.2698 77.6778 50.9516 77.4694 50.6001 77.4694C50.2486 77.4694 49.9304 77.6778 49.7897 78.0002L49.6562 77.9419C49.8201 77.5664 50.1906 77.3238 50.6001 77.3238C51.0096 77.3238 51.3799 77.5664 51.5438 77.9419L51.4105 78.0002Z" fill="url(#paint93_linear_3005_1058)"/>
<path d="M54.6707 82.8313C53.9636 81.2115 52.3654 80.1649 50.5994 80.1649C48.833 80.1649 47.2349 81.2115 46.528 82.8313L46.3945 82.7729C47.1247 81.1001 48.7753 80.0193 50.5994 80.0193C52.4236 80.0193 54.0739 81.1003 54.8042 82.7729L54.6707 82.8313Z" fill="url(#paint94_linear_3005_1058)"/>
<path d="M53.8585 83.2307C53.293 81.9353 52.015 81.0983 50.6025 81.0983C49.1899 81.0983 47.9117 81.9353 47.3463 83.2307L47.2129 83.1723C47.8016 81.8239 49.132 80.9525 50.6025 80.9525C52.0729 80.9525 53.4033 81.8239 53.992 83.1723L53.8585 83.2307Z" fill="url(#paint95_linear_3005_1058)"/>
<path d="M48.1588 83.6318L48.0254 83.5735C48.4725 82.5495 49.483 81.8877 50.5998 81.8877C51.7166 81.8877 52.7268 82.5495 53.174 83.5735L53.0405 83.6318C52.6167 82.6608 51.6584 82.0333 50.5998 82.0333C49.5409 82.0333 48.5827 82.6606 48.1588 83.6318Z" fill="url(#paint96_linear_3005_1058)"/>
<path d="M52.2285 84.033C51.9463 83.3862 51.3082 82.9684 50.6029 82.9684C49.8976 82.9684 49.2595 83.3862 48.9772 84.033L48.8438 83.9747C49.1491 83.2748 49.8396 82.8228 50.6029 82.8228C51.3659 82.8228 52.0564 83.275 52.3618 83.9747L52.2285 84.033Z" fill="url(#paint97_linear_3005_1058)"/>
<path d="M51.4105 84.4324C51.2698 84.11 50.9516 83.9016 50.6001 83.9016C50.2486 83.9016 49.9304 84.11 49.7897 84.4324L49.6562 84.3741C49.8201 83.9986 50.1906 83.756 50.6001 83.756C51.0096 83.756 51.3799 83.9986 51.5438 84.3741L51.4105 84.4324Z" fill="url(#paint98_linear_3005_1058)"/>
<path d="M50.5457 79.651C49.8386 78.0312 48.2404 76.9846 46.4744 76.9846C44.7082 76.9846 43.1099 78.0312 42.403 79.651L42.2695 79.5926C42.9997 77.9198 44.6503 76.8391 46.4744 76.8391C48.2984 76.8391 49.9489 77.92 50.6792 79.5926L50.5457 79.651Z" fill="url(#paint99_linear_3005_1058)"/>
<path d="M49.7355 80.0524C49.1701 78.757 47.8919 77.9198 46.4795 77.9198C45.0669 77.9198 43.7887 78.7568 43.2233 80.0524L43.0898 79.994C43.6785 78.6456 45.0089 77.7742 46.4795 77.7742C47.9498 77.7742 49.2803 78.6456 49.8689 79.994L49.7355 80.0524Z" fill="url(#paint100_linear_3005_1058)"/>
<path d="M48.9233 80.4516C48.4993 79.4806 47.5413 78.853 46.4824 78.853C45.4235 78.853 44.4653 79.4806 44.0414 80.4516L43.9082 80.3932C44.3553 79.369 45.3658 78.7074 46.4826 78.7074C47.5994 78.7074 48.6098 79.3692 49.0568 80.3932L48.9233 80.4516Z" fill="url(#paint101_linear_3005_1058)"/>
<path d="M48.1055 80.8529C47.8232 80.2061 47.1851 79.7884 46.4798 79.7884C45.7745 79.7884 45.1364 80.2063 44.8541 80.8529L44.7207 80.7946C45.0263 80.0948 45.7166 79.6426 46.4798 79.6426C47.2428 79.6426 47.9334 80.0948 48.2387 80.7946L48.1055 80.8529Z" fill="url(#paint102_linear_3005_1058)"/>
<path d="M47.2875 81.2521C47.1467 80.9297 46.8286 80.7214 46.4771 80.7214C46.1255 80.7214 45.8074 80.9297 45.6667 81.2521L45.5332 81.1938C45.697 80.8184 46.0676 80.5758 46.4771 80.5758C46.8865 80.5758 47.2569 80.8184 47.4209 81.1938L47.2875 81.2521Z" fill="url(#paint103_linear_3005_1058)"/>
<path d="M58.8504 79.651C58.1433 78.0312 56.5451 76.9846 54.7791 76.9846C53.0129 76.9846 51.4146 78.0312 50.7077 79.651L50.5742 79.5926C51.3044 77.9198 52.955 76.8391 54.7791 76.8391C56.6033 76.8391 58.2536 77.92 58.9838 79.5926L58.8504 79.651Z" fill="url(#paint104_linear_3005_1058)"/>
<path d="M58.0324 80.0524C57.4668 78.757 56.1888 77.9198 54.7764 77.9198C53.3637 77.9198 52.0855 78.7568 51.5202 80.0524L51.3867 79.994C51.9754 78.6456 53.3058 77.7742 54.7764 77.7742C56.2467 77.7742 57.5771 78.6456 58.1658 79.994L58.0324 80.0524Z" fill="url(#paint105_linear_3005_1058)"/>
<path d="M57.2204 80.4516C56.7964 79.4806 55.8383 78.853 54.7797 78.853C53.7208 78.853 52.7626 79.4806 52.3387 80.4516L52.2051 80.3932C52.6522 79.369 53.6627 78.7074 54.7795 78.7074C55.8963 78.7074 56.9065 79.3692 57.3536 80.3932L57.2204 80.4516Z" fill="url(#paint106_linear_3005_1058)"/>
<path d="M56.408 80.8529C56.1257 80.2061 55.4877 79.7884 54.7826 79.7884C54.0772 79.7884 53.4392 80.2063 53.1569 80.8529L53.0234 80.7946C53.329 80.0948 54.0193 79.6426 54.7826 79.6426C55.5456 79.6426 56.2361 80.0948 56.5415 80.7946L56.408 80.8529Z" fill="url(#paint107_linear_3005_1058)"/>
<path d="M55.5902 81.2521C55.4495 80.9297 55.1313 80.7214 54.7798 80.7214C54.4283 80.7214 54.1101 80.9297 53.9694 81.2521L53.8359 81.1938C53.9998 80.8184 54.3703 80.5758 54.7798 80.5758C55.1892 80.5758 55.5596 80.8184 55.7236 81.1938L55.5902 81.2521Z" fill="url(#paint108_linear_3005_1058)"/>
<path d="M48.446 4.83031C49.5972 5.98152 51.4637 5.98152 52.6151 4.83031C53.7663 3.6791 53.7663 1.81266 52.6151 0.661444C51.4639 -0.489768 49.5972 -0.489768 48.446 0.661444C47.2948 1.81266 47.2948 3.6791 48.446 4.83031ZM50.5306 1.02615L52.2502 2.74578L50.5306 4.46541L48.8109 2.74578L50.5306 1.02615Z" fill="url(#paint109_linear_3005_1058)"/>
<path d="M48.446 97.1703C49.5972 98.3215 51.4637 98.3215 52.6151 97.1703C53.7663 96.0191 53.7663 94.1527 52.6151 93.0014C51.4639 91.8502 49.5972 91.8502 48.446 93.0014C47.2948 94.1527 47.2948 96.0191 48.446 97.1703ZM50.5306 93.3661L52.2502 95.0858L50.5306 96.8054L48.8109 95.0858L50.5306 93.3661Z" fill="url(#paint110_linear_3005_1058)"/>
<path d="M7.66118 45.8177C8.81239 46.9689 8.81239 48.8353 7.66118 49.9867C6.50997 51.138 4.64353 51.138 3.49232 49.9867C2.3411 48.8355 2.3411 46.9689 3.49232 45.8177C4.64353 44.6665 6.50997 44.6665 7.66118 45.8177ZM3.85702 47.9022L5.57665 49.6218L7.29628 47.9022L5.57665 46.1826L3.85702 47.9022Z" fill="url(#paint111_linear_3005_1058)"/>
<path d="M98.7862 45.8177C99.9374 46.9689 99.9374 48.8353 98.7862 49.9867C97.635 51.138 95.7685 51.138 94.6173 49.9867C93.4661 48.8355 93.4661 46.9689 94.6173 45.8177C95.7685 44.6665 97.635 44.6665 98.7862 45.8177ZM94.982 47.9022L96.7016 49.6218L98.4213 47.9022L96.7016 46.1826L94.982 47.9022Z" fill="url(#paint112_linear_3005_1058)"/>
</g>
<path d="M47.9081 59.9083C47.5081 60.3082 46.9656 60.5329 46.3999 60.5329C45.8342 60.5329 45.2917 60.3082 44.8916 59.9083L35.2916 50.3083C34.8917 49.9082 34.667 49.3657 34.667 48.8C34.667 48.2343 34.8917 47.6918 35.2916 47.2918L44.8916 37.6918C45.294 37.3031 45.8328 37.0881 46.3922 37.093C46.9515 37.0978 47.4866 37.3222 47.8821 37.7177C48.2777 38.1133 48.502 38.6483 48.5069 39.2077C48.5118 39.767 48.2967 40.3059 47.9081 40.7083L42.1332 46.6667H62.3999C62.9657 46.6667 63.5083 46.8914 63.9084 47.2915C64.3084 47.6916 64.5332 48.2342 64.5332 48.8C64.5332 49.3658 64.3084 49.9084 63.9084 50.3085C63.5083 50.7086 62.9657 50.9334 62.3999 50.9334H42.1332L47.9081 56.8918C48.3081 57.2918 48.5327 57.8343 48.5327 58.4C48.5327 58.9657 48.3081 59.5082 47.9081 59.9083Z" fill="url(#paint113_linear_3005_1058)"/>
<defs>
<linearGradient id="paint0_linear_3005_1058" x1="50.6286" y1="5.67148" x2="50.6286" y2="91.9365" gradientUnits="userSpaceOnUse">
<stop stop-color="#EB7A61"/>
<stop offset="1" stop-color="#E6C26A"/>
</linearGradient>
<linearGradient id="paint1_linear_3005_1058" x1="17.9355" y1="77.3543" x2="17.9355" y2="94.0537" gradientUnits="userSpaceOnUse">
<stop stop-color="#EB7A61"/>
<stop offset="1" stop-color="#E6C26A"/>
</linearGradient>
<linearGradient id="paint2_linear_3005_1058" x1="17.9578" y1="94.5" x2="17.9578" y2="98.6632" gradientUnits="userSpaceOnUse">
<stop stop-color="#EB7A61"/>
<stop offset="1" stop-color="#E6C26A"/>
</linearGradient>
<linearGradient id="paint3_linear_3005_1058" x1="82.1288" y1="77.3543" x2="82.1288" y2="94.0537" gradientUnits="userSpaceOnUse">
<stop stop-color="#EB7A61"/>
<stop offset="1" stop-color="#E6C26A"/>
</linearGradient>
<linearGradient id="paint4_linear_3005_1058" x1="82.1647" y1="94.5" x2="82.1647" y2="98.6632" gradientUnits="userSpaceOnUse">
<stop stop-color="#EB7A61"/>
<stop offset="1" stop-color="#E6C26A"/>
</linearGradient>
<linearGradient id="paint5_linear_3005_1058" x1="46.683" y1="8.49689" x2="46.683" y2="10.9646" gradientUnits="userSpaceOnUse">
<stop stop-color="#EB7A61"/>
<stop offset="1" stop-color="#E6C26A"/>
</linearGradient>
<linearGradient id="paint6_linear_3005_1058" x1="46.9243" y1="11.0352" x2="46.9243" y2="13.4562" gradientUnits="userSpaceOnUse">
<stop stop-color="#EB7A61"/>
<stop offset="1" stop-color="#E6C26A"/>
</linearGradient>
<linearGradient id="paint7_linear_3005_1058" x1="39.147" y1="9.29648" x2="39.147" y2="13.1324" gradientUnits="userSpaceOnUse">
<stop stop-color="#EB7A61"/>
<stop offset="1" stop-color="#E6C26A"/>
</linearGradient>
<linearGradient id="paint8_linear_3005_1058" x1="39.8734" y1="11.7838" x2="39.8734" y2="15.4796" gradientUnits="userSpaceOnUse">
<stop stop-color="#EB7A61"/>
<stop offset="1" stop-color="#E6C26A"/>
</linearGradient>
<linearGradient id="paint9_linear_3005_1058" x1="32.0502" y1="11.6238" x2="32.0502" y2="16.6754" gradientUnits="userSpaceOnUse">
<stop stop-color="#EB7A61"/>
<stop offset="1" stop-color="#E6C26A"/>
</linearGradient>
<linearGradient id="paint10_linear_3005_1058" x1="33.2322" y1="13.9652" x2="33.2322" y2="18.7906" gradientUnits="userSpaceOnUse">
<stop stop-color="#EB7A61"/>
<stop offset="1" stop-color="#E6C26A"/>
</linearGradient>
<linearGradient id="paint11_linear_3005_1058" x1="25.6497" y1="15.3856" x2="25.6497" y2="21.4496" gradientUnits="userSpaceOnUse">
<stop stop-color="#EB7A61"/>
<stop offset="1" stop-color="#E6C26A"/>
</linearGradient>
<linearGradient id="paint12_linear_3005_1058" x1="27.2535" y1="17.4879" x2="27.2535" y2="23.251" gradientUnits="userSpaceOnUse">
<stop stop-color="#EB7A61"/>
<stop offset="1" stop-color="#E6C26A"/>
</linearGradient>
<linearGradient id="paint13_linear_3005_1058" x1="20.231" y1="20.4269" x2="20.231" y2="27.2654" gradientUnits="userSpaceOnUse">
<stop stop-color="#EB7A61"/>
<stop offset="1" stop-color="#E6C26A"/>
</linearGradient>
<linearGradient id="paint14_linear_3005_1058" x1="22.1764" y1="22.2147" x2="22.1764" y2="28.687" gradientUnits="userSpaceOnUse">
<stop stop-color="#EB7A61"/>
<stop offset="1" stop-color="#E6C26A"/>
</linearGradient>
<linearGradient id="paint15_linear_3005_1058" x1="15.9575" y1="26.5492" x2="15.9575" y2="33.9113" gradientUnits="userSpaceOnUse">
<stop stop-color="#EB7A61"/>
<stop offset="1" stop-color="#E6C26A"/>
</linearGradient>
<linearGradient id="paint16_linear_3005_1058" x1="18.1783" y1="27.9537" x2="18.1783" y2="34.8948" gradientUnits="userSpaceOnUse">
<stop stop-color="#EB7A61"/>
<stop offset="1" stop-color="#E6C26A"/>
</linearGradient>
<linearGradient id="paint17_linear_3005_1058" x1="13.0118" y1="33.5262" x2="13.0118" y2="41.1327" gradientUnits="userSpaceOnUse">
<stop stop-color="#EB7A61"/>
<stop offset="1" stop-color="#E6C26A"/>
</linearGradient>
<linearGradient id="paint18_linear_3005_1058" x1="15.4457" y1="34.493" x2="15.4457" y2="41.6386" gradientUnits="userSpaceOnUse">
<stop stop-color="#EB7A61"/>
<stop offset="1" stop-color="#E6C26A"/>
</linearGradient>
<linearGradient id="paint19_linear_3005_1058" x1="11.5405" y1="41.0988" x2="11.5405" y2="48.6521" gradientUnits="userSpaceOnUse">
<stop stop-color="#EB7A61"/>
<stop offset="1" stop-color="#E6C26A"/>
</linearGradient>
<linearGradient id="paint20_linear_3005_1058" x1="14.0485" y1="41.5822" x2="14.0485" y2="48.6612" gradientUnits="userSpaceOnUse">
<stop stop-color="#EB7A61"/>
<stop offset="1" stop-color="#E6C26A"/>
</linearGradient>
<linearGradient id="paint21_linear_3005_1058" x1="11.5405" y1="48.9562" x2="11.5405" y2="56.5097" gradientUnits="userSpaceOnUse">
<stop stop-color="#EB7A61"/>
<stop offset="1" stop-color="#E6C26A"/>
</linearGradient>
<linearGradient id="paint22_linear_3005_1058" x1="14.0485" y1="48.9457" x2="14.0485" y2="56.0247" gradientUnits="userSpaceOnUse">
<stop stop-color="#EB7A61"/>
<stop offset="1" stop-color="#E6C26A"/>
</linearGradient>
<linearGradient id="paint23_linear_3005_1058" x1="13.0274" y1="56.4744" x2="13.0274" y2="64.0809" gradientUnits="userSpaceOnUse">
<stop stop-color="#EB7A61"/>
<stop offset="1" stop-color="#E6C26A"/>
</linearGradient>
<linearGradient id="paint24_linear_3005_1058" x1="15.4456" y1="55.9699" x2="15.4456" y2="63.1151" gradientUnits="userSpaceOnUse">
<stop stop-color="#EB7A61"/>
<stop offset="1" stop-color="#E6C26A"/>
</linearGradient>
<linearGradient id="paint25_linear_3005_1058" x1="15.9574" y1="63.6955" x2="15.9574" y2="71.0576" gradientUnits="userSpaceOnUse">
<stop stop-color="#EB7A61"/>
<stop offset="1" stop-color="#E6C26A"/>
</linearGradient>
<linearGradient id="paint26_linear_3005_1058" x1="18.1784" y1="62.7129" x2="18.1784" y2="69.6538" gradientUnits="userSpaceOnUse">
<stop stop-color="#EB7A61"/>
<stop offset="1" stop-color="#E6C26A"/>
</linearGradient>
<linearGradient id="paint27_linear_3005_1058" x1="20.2313" y1="70.3418" x2="20.2313" y2="77.18" gradientUnits="userSpaceOnUse">
<stop stop-color="#EB7A61"/>
<stop offset="1" stop-color="#E6C26A"/>
</linearGradient>
<linearGradient id="paint28_linear_3005_1058" x1="22.1765" y1="68.9215" x2="22.1765" y2="75.3936" gradientUnits="userSpaceOnUse">
<stop stop-color="#EB7A61"/>
<stop offset="1" stop-color="#E6C26A"/>
</linearGradient>
<linearGradient id="paint29_linear_3005_1058" x1="25.6497" y1="76.1584" x2="25.6497" y2="82.222" gradientUnits="userSpaceOnUse">
<stop stop-color="#EB7A61"/>
<stop offset="1" stop-color="#E6C26A"/>
</linearGradient>
<linearGradient id="paint30_linear_3005_1058" x1="27.2537" y1="74.3566" x2="27.2537" y2="80.1194" gradientUnits="userSpaceOnUse">
<stop stop-color="#EB7A61"/>
<stop offset="1" stop-color="#E6C26A"/>
</linearGradient>
<linearGradient id="paint31_linear_3005_1058" x1="32.0502" y1="80.9305" x2="32.0502" y2="85.9825" gradientUnits="userSpaceOnUse">
<stop stop-color="#EB7A61"/>
<stop offset="1" stop-color="#E6C26A"/>
</linearGradient>
<linearGradient id="paint32_linear_3005_1058" x1="33.2322" y1="78.8176" x2="33.2322" y2="83.6431" gradientUnits="userSpaceOnUse">
<stop stop-color="#EB7A61"/>
<stop offset="1" stop-color="#E6C26A"/>
</linearGradient>
<linearGradient id="paint33_linear_3005_1058" x1="39.1469" y1="84.4748" x2="39.1469" y2="88.311" gradientUnits="userSpaceOnUse">
<stop stop-color="#EB7A61"/>
<stop offset="1" stop-color="#E6C26A"/>
</linearGradient>
<linearGradient id="paint34_linear_3005_1058" x1="39.8736" y1="82.1281" x2="39.8736" y2="85.8241" gradientUnits="userSpaceOnUse">
<stop stop-color="#EB7A61"/>
<stop offset="1" stop-color="#E6C26A"/>
</linearGradient>
<linearGradient id="paint35_linear_3005_1058" x1="46.6829" y1="86.6437" x2="46.6829" y2="89.1116" gradientUnits="userSpaceOnUse">
<stop stop-color="#EB7A61"/>
<stop offset="1" stop-color="#E6C26A"/>
</linearGradient>
<linearGradient id="paint36_linear_3005_1058" x1="46.9243" y1="84.1512" x2="46.9243" y2="86.5725" gradientUnits="userSpaceOnUse">
<stop stop-color="#EB7A61"/>
<stop offset="1" stop-color="#E6C26A"/>
</linearGradient>
<linearGradient id="paint37_linear_3005_1058" x1="54.5463" y1="86.6437" x2="54.5463" y2="89.1114" gradientUnits="userSpaceOnUse">
<stop stop-color="#EB7A61"/>
<stop offset="1" stop-color="#E6C26A"/>
</linearGradient>
<linearGradient id="paint38_linear_3005_1058" x1="54.2954" y1="84.1512" x2="54.2954" y2="86.5721" gradientUnits="userSpaceOnUse">
<stop stop-color="#EB7A61"/>
<stop offset="1" stop-color="#E6C26A"/>
</linearGradient>
<linearGradient id="paint39_linear_3005_1058" x1="62.0903" y1="84.4748" x2="62.0903" y2="88.3107" gradientUnits="userSpaceOnUse">
<stop stop-color="#EB7A61"/>
<stop offset="1" stop-color="#E6C26A"/>
</linearGradient>
<linearGradient id="paint40_linear_3005_1058" x1="61.354" y1="82.1281" x2="61.354" y2="85.8239" gradientUnits="userSpaceOnUse">
<stop stop-color="#EB7A61"/>
<stop offset="1" stop-color="#E6C26A"/>
</linearGradient>
<linearGradient id="paint41_linear_3005_1058" x1="69.1869" y1="80.9305" x2="69.1869" y2="85.9816" gradientUnits="userSpaceOnUse">
<stop stop-color="#EB7A61"/>
<stop offset="1" stop-color="#E6C26A"/>
</linearGradient>
<linearGradient id="paint42_linear_3005_1058" x1="67.9919" y1="78.8176" x2="67.9919" y2="83.6433" gradientUnits="userSpaceOnUse">
<stop stop-color="#EB7A61"/>
<stop offset="1" stop-color="#E6C26A"/>
</linearGradient>
<linearGradient id="paint43_linear_3005_1058" x1="75.5717" y1="76.1584" x2="75.5717" y2="82.2225" gradientUnits="userSpaceOnUse">
<stop stop-color="#EB7A61"/>
<stop offset="1" stop-color="#E6C26A"/>
</linearGradient>
<linearGradient id="paint44_linear_3005_1058" x1="73.9547" y1="74.3566" x2="73.9547" y2="80.1192" gradientUnits="userSpaceOnUse">
<stop stop-color="#EB7A61"/>
<stop offset="1" stop-color="#E6C26A"/>
</linearGradient>
<linearGradient id="paint45_linear_3005_1058" x1="80.9968" y1="70.3416" x2="80.9968" y2="77.1798" gradientUnits="userSpaceOnUse">
<stop stop-color="#EB7A61"/>
<stop offset="1" stop-color="#E6C26A"/>
</linearGradient>
<linearGradient id="paint46_linear_3005_1058" x1="79.0474" y1="68.9195" x2="79.0474" y2="75.3918" gradientUnits="userSpaceOnUse">
<stop stop-color="#EB7A61"/>
<stop offset="1" stop-color="#E6C26A"/>
</linearGradient>
<linearGradient id="paint47_linear_3005_1058" x1="85.268" y1="63.6955" x2="85.268" y2="71.0576" gradientUnits="userSpaceOnUse">
<stop stop-color="#EB7A61"/>
<stop offset="1" stop-color="#E6C26A"/>
</linearGradient>
<linearGradient id="paint48_linear_3005_1058" x1="83.0318" y1="62.7129" x2="83.0318" y2="69.6538" gradientUnits="userSpaceOnUse">
<stop stop-color="#EB7A61"/>
<stop offset="1" stop-color="#E6C26A"/>
</linearGradient>
<linearGradient id="paint49_linear_3005_1058" x1="88.2112" y1="56.4744" x2="88.2112" y2="64.0809" gradientUnits="userSpaceOnUse">
<stop stop-color="#EB7A61"/>
<stop offset="1" stop-color="#E6C26A"/>
</linearGradient>
<linearGradient id="paint50_linear_3005_1058" x1="85.7914" y1="55.9699" x2="85.7914" y2="63.1155" gradientUnits="userSpaceOnUse">
<stop stop-color="#EB7A61"/>
<stop offset="1" stop-color="#E6C26A"/>
</linearGradient>
<linearGradient id="paint51_linear_3005_1058" x1="89.691" y1="48.9562" x2="89.691" y2="56.5097" gradientUnits="userSpaceOnUse">
<stop stop-color="#EB7A61"/>
<stop offset="1" stop-color="#E6C26A"/>
</linearGradient>
<linearGradient id="paint52_linear_3005_1058" x1="87.1794" y1="48.9457" x2="87.1794" y2="56.0247" gradientUnits="userSpaceOnUse">
<stop stop-color="#EB7A61"/>
<stop offset="1" stop-color="#E6C26A"/>
</linearGradient>
<linearGradient id="paint53_linear_3005_1058" x1="89.6909" y1="41.0988" x2="89.6909" y2="48.6521" gradientUnits="userSpaceOnUse">
<stop stop-color="#EB7A61"/>
<stop offset="1" stop-color="#E6C26A"/>
</linearGradient>
<linearGradient id="paint54_linear_3005_1058" x1="87.1792" y1="41.5822" x2="87.1792" y2="48.6612" gradientUnits="userSpaceOnUse">
<stop stop-color="#EB7A61"/>
<stop offset="1" stop-color="#E6C26A"/>
</linearGradient>
<linearGradient id="paint55_linear_3005_1058" x1="88.2109" y1="33.5262" x2="88.2109" y2="41.1327" gradientUnits="userSpaceOnUse">
<stop stop-color="#EB7A61"/>
<stop offset="1" stop-color="#E6C26A"/>
</linearGradient>
<linearGradient id="paint56_linear_3005_1058" x1="85.7913" y1="34.493" x2="85.7913" y2="41.6382" gradientUnits="userSpaceOnUse">
<stop stop-color="#EB7A61"/>
<stop offset="1" stop-color="#E6C26A"/>
</linearGradient>
<linearGradient id="paint57_linear_3005_1058" x1="85.2679" y1="26.5492" x2="85.2679" y2="33.9113" gradientUnits="userSpaceOnUse">
<stop stop-color="#EB7A61"/>
<stop offset="1" stop-color="#E6C26A"/>
</linearGradient>
<linearGradient id="paint58_linear_3005_1058" x1="83.032" y1="27.9537" x2="83.032" y2="34.8946" gradientUnits="userSpaceOnUse">
<stop stop-color="#EB7A61"/>
<stop offset="1" stop-color="#E6C26A"/>
</linearGradient>
<linearGradient id="paint59_linear_3005_1058" x1="80.9969" y1="20.4269" x2="80.9969" y2="27.2654" gradientUnits="userSpaceOnUse">
<stop stop-color="#EB7A61"/>
<stop offset="1" stop-color="#E6C26A"/>
</linearGradient>
<linearGradient id="paint60_linear_3005_1058" x1="79.0473" y1="22.2147" x2="79.0473" y2="28.6868" gradientUnits="userSpaceOnUse">
<stop stop-color="#EB7A61"/>
<stop offset="1" stop-color="#E6C26A"/>
</linearGradient>
<linearGradient id="paint61_linear_3005_1058" x1="75.5715" y1="15.3856" x2="75.5715" y2="21.4494" gradientUnits="userSpaceOnUse">
<stop stop-color="#EB7A61"/>
<stop offset="1" stop-color="#E6C26A"/>
</linearGradient>
<linearGradient id="paint62_linear_3005_1058" x1="73.9549" y1="17.4879" x2="73.9549" y2="23.2506" gradientUnits="userSpaceOnUse">
<stop stop-color="#EB7A61"/>
<stop offset="1" stop-color="#E6C26A"/>
</linearGradient>
<linearGradient id="paint63_linear_3005_1058" x1="69.1869" y1="11.6238" x2="69.1869" y2="16.6756" gradientUnits="userSpaceOnUse">
<stop stop-color="#EB7A61"/>
<stop offset="1" stop-color="#E6C26A"/>
</linearGradient>
<linearGradient id="paint64_linear_3005_1058" x1="67.992" y1="13.9652" x2="67.992" y2="18.7906" gradientUnits="userSpaceOnUse">
<stop stop-color="#EB7A61"/>
<stop offset="1" stop-color="#E6C26A"/>
</linearGradient>
<linearGradient id="paint65_linear_3005_1058" x1="62.0903" y1="9.29648" x2="62.0903" y2="13.1326" gradientUnits="userSpaceOnUse">
<stop stop-color="#EB7A61"/>
<stop offset="1" stop-color="#E6C26A"/>
</linearGradient>
<linearGradient id="paint66_linear_3005_1058" x1="61.3541" y1="11.7838" x2="61.3541" y2="15.4798" gradientUnits="userSpaceOnUse">
<stop stop-color="#EB7A61"/>
<stop offset="1" stop-color="#E6C26A"/>
</linearGradient>
<linearGradient id="paint67_linear_3005_1058" x1="54.5462" y1="8.49689" x2="54.5462" y2="10.9646" gradientUnits="userSpaceOnUse">
<stop stop-color="#EB7A61"/>
<stop offset="1" stop-color="#E6C26A"/>
</linearGradient>
<linearGradient id="paint68_linear_3005_1058" x1="54.2954" y1="11.0334" x2="54.2954" y2="13.4547" gradientUnits="userSpaceOnUse">
<stop stop-color="#EB7A61"/>
<stop offset="1" stop-color="#E6C26A"/>
</linearGradient>
<linearGradient id="paint69_linear_3005_1058" x1="50.5993" y1="24.0847" x2="50.5993" y2="21.2728" gradientUnits="userSpaceOnUse">
<stop stop-color="#EB7A61"/>
<stop offset="1" stop-color="#E6C26A"/>
</linearGradient>
<linearGradient id="paint70_linear_3005_1058" x1="50.6024" y1="23.1516" x2="50.6024" y2="20.8734" gradientUnits="userSpaceOnUse">
<stop stop-color="#EB7A61"/>
<stop offset="1" stop-color="#E6C26A"/>
</linearGradient>
<linearGradient id="paint71_linear_3005_1058" x1="50.5997" y1="22.2164" x2="50.5997" y2="20.4722" gradientUnits="userSpaceOnUse">
<stop stop-color="#EB7A61"/>
<stop offset="1" stop-color="#E6C26A"/>
</linearGradient>
<linearGradient id="paint72_linear_3005_1058" x1="50.6028" y1="21.2832" x2="50.6028" y2="20.073" gradientUnits="userSpaceOnUse">
<stop stop-color="#EB7A61"/>
<stop offset="1" stop-color="#E6C26A"/>
</linearGradient>
<linearGradient id="paint73_linear_3005_1058" x1="50.6" y1="20.348" x2="50.6" y2="19.6717" gradientUnits="userSpaceOnUse">
<stop stop-color="#EB7A61"/>
<stop offset="1" stop-color="#E6C26A"/>
</linearGradient>
<linearGradient id="paint74_linear_3005_1058" x1="50.5993" y1="17.6533" x2="50.5993" y2="14.8414" gradientUnits="userSpaceOnUse">
<stop stop-color="#EB7A61"/>
<stop offset="1" stop-color="#E6C26A"/>
</linearGradient>
<linearGradient id="paint75_linear_3005_1058" x1="50.6024" y1="16.7201" x2="50.6024" y2="14.442" gradientUnits="userSpaceOnUse">
<stop stop-color="#EB7A61"/>
<stop offset="1" stop-color="#E6C26A"/>
</linearGradient>
<linearGradient id="paint76_linear_3005_1058" x1="50.5997" y1="15.7849" x2="50.5997" y2="14.0408" gradientUnits="userSpaceOnUse">
<stop stop-color="#EB7A61"/>
<stop offset="1" stop-color="#E6C26A"/>
</linearGradient>
<linearGradient id="paint77_linear_3005_1058" x1="50.6028" y1="14.8517" x2="50.6028" y2="13.6416" gradientUnits="userSpaceOnUse">
<stop stop-color="#EB7A61"/>
<stop offset="1" stop-color="#E6C26A"/>
</linearGradient>
<linearGradient id="paint78_linear_3005_1058" x1="50.6" y1="13.9166" x2="50.6" y2="13.2402" gradientUnits="userSpaceOnUse">
<stop stop-color="#EB7A61"/>
<stop offset="1" stop-color="#E6C26A"/>
</linearGradient>
<linearGradient id="paint79_linear_3005_1058" x1="46.4743" y1="20.8336" x2="46.4743" y2="18.0216" gradientUnits="userSpaceOnUse">
<stop stop-color="#EB7A61"/>
<stop offset="1" stop-color="#E6C26A"/>
</linearGradient>
<linearGradient id="paint80_linear_3005_1058" x1="46.4794" y1="19.9004" x2="46.4794" y2="17.6222" gradientUnits="userSpaceOnUse">
<stop stop-color="#EB7A61"/>
<stop offset="1" stop-color="#E6C26A"/>
</linearGradient>
<linearGradient id="paint81_linear_3005_1058" x1="46.4825" y1="18.9652" x2="46.4825" y2="17.2211" gradientUnits="userSpaceOnUse">
<stop stop-color="#EB7A61"/>
<stop offset="1" stop-color="#E6C26A"/>
</linearGradient>
<linearGradient id="paint82_linear_3005_1058" x1="46.4797" y1="18.032" x2="46.4797" y2="16.8217" gradientUnits="userSpaceOnUse">
<stop stop-color="#EB7A61"/>
<stop offset="1" stop-color="#E6C26A"/>
</linearGradient>
<linearGradient id="paint83_linear_3005_1058" x1="46.4771" y1="17.0961" x2="46.4771" y2="16.4197" gradientUnits="userSpaceOnUse">
<stop stop-color="#EB7A61"/>
<stop offset="1" stop-color="#E6C26A"/>
</linearGradient>
<linearGradient id="paint84_linear_3005_1058" x1="54.779" y1="20.8336" x2="54.779" y2="18.0216" gradientUnits="userSpaceOnUse">
<stop stop-color="#EB7A61"/>
<stop offset="1" stop-color="#E6C26A"/>
</linearGradient>
<linearGradient id="paint85_linear_3005_1058" x1="54.7763" y1="19.9004" x2="54.7763" y2="17.6222" gradientUnits="userSpaceOnUse">
<stop stop-color="#EB7A61"/>
<stop offset="1" stop-color="#E6C26A"/>
</linearGradient>
<linearGradient id="paint86_linear_3005_1058" x1="54.7794" y1="18.9652" x2="54.7794" y2="17.2211" gradientUnits="userSpaceOnUse">
<stop stop-color="#EB7A61"/>
<stop offset="1" stop-color="#E6C26A"/>
</linearGradient>
<linearGradient id="paint87_linear_3005_1058" x1="54.7825" y1="18.032" x2="54.7825" y2="16.8217" gradientUnits="userSpaceOnUse">
<stop stop-color="#EB7A61"/>
<stop offset="1" stop-color="#E6C26A"/>
</linearGradient>
<linearGradient id="paint88_linear_3005_1058" x1="54.7798" y1="17.0961" x2="54.7798" y2="16.4197" gradientUnits="userSpaceOnUse">
<stop stop-color="#EB7A61"/>
<stop offset="1" stop-color="#E6C26A"/>
</linearGradient>
<linearGradient id="paint89_linear_3005_1058" x1="50.5993" y1="73.5863" x2="50.5993" y2="76.3982" gradientUnits="userSpaceOnUse">
<stop stop-color="#EB7A61"/>
<stop offset="1" stop-color="#E6C26A"/>
</linearGradient>
<linearGradient id="paint90_linear_3005_1058" x1="50.6024" y1="74.5223" x2="50.6024" y2="76.8004" gradientUnits="userSpaceOnUse">
<stop stop-color="#EB7A61"/>
<stop offset="1" stop-color="#E6C26A"/>
</linearGradient>
<linearGradient id="paint91_linear_3005_1058" x1="50.5997" y1="75.4555" x2="50.5997" y2="77.1996" gradientUnits="userSpaceOnUse">
<stop stop-color="#EB7A61"/>
<stop offset="1" stop-color="#E6C26A"/>
</linearGradient>
<linearGradient id="paint92_linear_3005_1058" x1="50.6028" y1="76.3906" x2="50.6028" y2="77.6008" gradientUnits="userSpaceOnUse">
<stop stop-color="#EB7A61"/>
<stop offset="1" stop-color="#E6C26A"/>
</linearGradient>
<linearGradient id="paint93_linear_3005_1058" x1="50.6" y1="77.3238" x2="50.6" y2="78.0002" gradientUnits="userSpaceOnUse">
<stop stop-color="#EB7A61"/>
<stop offset="1" stop-color="#E6C26A"/>
</linearGradient>
<linearGradient id="paint94_linear_3005_1058" x1="50.5993" y1="80.0193" x2="50.5993" y2="82.8313" gradientUnits="userSpaceOnUse">
<stop stop-color="#EB7A61"/>
<stop offset="1" stop-color="#E6C26A"/>
</linearGradient>
<linearGradient id="paint95_linear_3005_1058" x1="50.6024" y1="80.9525" x2="50.6024" y2="83.2307" gradientUnits="userSpaceOnUse">
<stop stop-color="#EB7A61"/>
<stop offset="1" stop-color="#E6C26A"/>
</linearGradient>
<linearGradient id="paint96_linear_3005_1058" x1="50.5997" y1="81.8877" x2="50.5997" y2="83.6318" gradientUnits="userSpaceOnUse">
<stop stop-color="#EB7A61"/>
<stop offset="1" stop-color="#E6C26A"/>
</linearGradient>
<linearGradient id="paint97_linear_3005_1058" x1="50.6028" y1="82.8228" x2="50.6028" y2="84.033" gradientUnits="userSpaceOnUse">
<stop stop-color="#EB7A61"/>
<stop offset="1" stop-color="#E6C26A"/>
</linearGradient>
<linearGradient id="paint98_linear_3005_1058" x1="50.6" y1="83.756" x2="50.6" y2="84.4324" gradientUnits="userSpaceOnUse">
<stop stop-color="#EB7A61"/>
<stop offset="1" stop-color="#E6C26A"/>
</linearGradient>
<linearGradient id="paint99_linear_3005_1058" x1="46.4743" y1="76.8391" x2="46.4743" y2="79.651" gradientUnits="userSpaceOnUse">
<stop stop-color="#EB7A61"/>
<stop offset="1" stop-color="#E6C26A"/>
</linearGradient>
<linearGradient id="paint100_linear_3005_1058" x1="46.4794" y1="77.7742" x2="46.4794" y2="80.0524" gradientUnits="userSpaceOnUse">
<stop stop-color="#EB7A61"/>
<stop offset="1" stop-color="#E6C26A"/>
</linearGradient>
<linearGradient id="paint101_linear_3005_1058" x1="46.4825" y1="78.7074" x2="46.4825" y2="80.4516" gradientUnits="userSpaceOnUse">
<stop stop-color="#EB7A61"/>
<stop offset="1" stop-color="#E6C26A"/>
</linearGradient>
<linearGradient id="paint102_linear_3005_1058" x1="46.4797" y1="79.6426" x2="46.4797" y2="80.8529" gradientUnits="userSpaceOnUse">
<stop stop-color="#EB7A61"/>
<stop offset="1" stop-color="#E6C26A"/>
</linearGradient>
<linearGradient id="paint103_linear_3005_1058" x1="46.4771" y1="80.5758" x2="46.4771" y2="81.2521" gradientUnits="userSpaceOnUse">
<stop stop-color="#EB7A61"/>
<stop offset="1" stop-color="#E6C26A"/>
</linearGradient>
<linearGradient id="paint104_linear_3005_1058" x1="54.779" y1="76.8391" x2="54.779" y2="79.651" gradientUnits="userSpaceOnUse">
<stop stop-color="#EB7A61"/>
<stop offset="1" stop-color="#E6C26A"/>
</linearGradient>
<linearGradient id="paint105_linear_3005_1058" x1="54.7763" y1="77.7742" x2="54.7763" y2="80.0524" gradientUnits="userSpaceOnUse">
<stop stop-color="#EB7A61"/>
<stop offset="1" stop-color="#E6C26A"/>
</linearGradient>
<linearGradient id="paint106_linear_3005_1058" x1="54.7794" y1="78.7074" x2="54.7794" y2="80.4516" gradientUnits="userSpaceOnUse">
<stop stop-color="#EB7A61"/>
<stop offset="1" stop-color="#E6C26A"/>
</linearGradient>
<linearGradient id="paint107_linear_3005_1058" x1="54.7825" y1="79.6426" x2="54.7825" y2="80.8529" gradientUnits="userSpaceOnUse">
<stop stop-color="#EB7A61"/>
<stop offset="1" stop-color="#E6C26A"/>
</linearGradient>
<linearGradient id="paint108_linear_3005_1058" x1="54.7798" y1="80.5758" x2="54.7798" y2="81.2521" gradientUnits="userSpaceOnUse">
<stop stop-color="#EB7A61"/>
<stop offset="1" stop-color="#E6C26A"/>
</linearGradient>
<linearGradient id="paint109_linear_3005_1058" x1="53.4785" y1="2.74588" x2="47.5826" y2="2.74588" gradientUnits="userSpaceOnUse">
<stop stop-color="#EB7A61"/>
<stop offset="1" stop-color="#E6C26A"/>
</linearGradient>
<linearGradient id="paint110_linear_3005_1058" x1="53.4785" y1="95.0859" x2="47.5826" y2="95.0859" gradientUnits="userSpaceOnUse">
<stop stop-color="#EB7A61"/>
<stop offset="1" stop-color="#E6C26A"/>
</linearGradient>
<linearGradient id="paint111_linear_3005_1058" x1="5.57675" y1="50.8502" x2="5.57675" y2="44.9543" gradientUnits="userSpaceOnUse">
<stop stop-color="#EB7A61"/>
<stop offset="1" stop-color="#E6C26A"/>
</linearGradient>
<linearGradient id="paint112_linear_3005_1058" x1="96.7017" y1="50.8502" x2="96.7017" y2="44.9543" gradientUnits="userSpaceOnUse">
<stop stop-color="#EB7A61"/>
<stop offset="1" stop-color="#E6C26A"/>
</linearGradient>
<linearGradient id="paint113_linear_3005_1058" x1="49.6001" y1="60.5329" x2="49.6001" y2="37.0929" gradientUnits="userSpaceOnUse">
<stop stop-color="#EB7A61"/>
<stop offset="1" stop-color="#E6C26A"/>
</linearGradient>
<clipPath id="clip0_3005_1058">
<rect width="101.25" height="101.25" fill="white"/>
</clipPath>
</defs>
</svg>
