<svg width="830" height="77" viewBox="0 0 830 77" fill="none" xmlns="http://www.w3.org/2000/svg">
<path d="M14.0576 1.55307C14.6463 5.78405 16.6665 9.44181 18.9009 13.0554C18.159 13.6569 17.7342 13.1623 17.3902 12.749C16.3519 11.5028 15.2882 10.268 14.3682 8.93389C12.5236 6.25701 10.7708 3.51536 8.97589 0.80404C8.77443 0.501754 8.54049 0.220031 7.93254 0C7.92088 0.447774 7.8001 0.927936 7.91834 1.33613C8.27407 2.56892 8.62879 3.81919 9.16264 4.97744C9.73455 6.21486 10.4607 7.3875 11.2087 8.52724C12.0582 9.8207 13.0082 11.0458 14.0059 12.4292C12.89 12.7464 12.2739 12.1752 11.7208 11.5856C9.54578 9.26805 7.39869 6.92276 5.23943 4.59084C4.77967 4.09423 4.30772 3.60995 3.65715 3.27065C4.17426 7.62656 7.40783 10.3368 9.8264 13.5042C8.82112 14.3205 8.18831 13.7741 7.56362 13.3294C5.87579 12.1305 4.20927 10.9023 2.51637 9.71017C1.89574 9.27319 1.2264 8.90716 0.525082 8.47584C-0.377697 9.93894 1.60598 10.0536 1.46034 10.7183C1.13303 12.1999 2.48542 12.3634 3.00608 13.1412C3.52978 13.9216 4.27271 14.5509 4.98468 15.3169C3.55211 16.6417 2.14998 14.6455 0.839203 15.614C1.01225 17.0576 2.16064 17.7896 3.00608 18.7186C3.81802 19.6095 4.67056 20.4614 5.59262 21.4217C4.37268 22.3275 3.13853 20.4912 2.02667 21.8232C2.02565 23.0128 3.01014 23.8883 3.61554 25.0702C3.13497 25.5766 2.66201 26.0742 2.07488 26.6927C2.593 27.6484 3.13599 28.6483 3.76118 29.7999C2.46055 31.3097 3.443 32.5991 4.5848 33.7877C3.90632 36.0687 3.74951 36.0779 5.94075 37.6989C5.71898 38.1389 5.4891 38.5913 5.25364 39.0587C5.30844 39.2535 5.3328 39.4483 5.41349 39.6154C5.87325 40.5824 6.66998 41.4261 6.19803 42.6912C6.08537 42.9909 6.45531 43.5426 6.70854 43.9029C7.66105 45.2545 8.82873 46.4837 9.58485 47.937C10.207 49.1318 11.2854 50.0479 11.7598 51.1203C12.5312 52.8667 14.4164 53.2039 15.2243 54.7215C15.3542 54.9662 15.7571 55.0675 16.0413 55.2212C17.7626 56.1507 17.924 56.7522 16.6731 58.1402C14.181 60.9071 11.361 63.276 8.17816 65.1997C6.29546 66.3395 4.39501 67.4633 2.61634 68.7572C1.06553 69.8852 0.038929 71.3827 0.00137711 73.4977C-0.0478477 76.2352 1.22234 77.1986 3.8505 76.9668C5.79815 76.7946 7.37535 75.806 9.1601 75.3284C10.0477 75.0914 10.8738 74.4164 11.5934 73.7845C14.1383 71.5472 16.3301 68.9783 18.1849 66.1292C18.741 65.2748 19.3881 64.6008 20.3725 64.3129C21.46 63.9942 22.3618 63.9351 23.2686 65.0064C24.1648 66.067 25.3406 67.0119 26.5814 67.6082C27.4867 68.0426 28.7117 67.9861 29.7652 67.874C32.2959 67.6031 34.7891 67.1594 37.1843 66.1513C38.2292 65.7118 39.4309 65.6855 40.3296 64.8208C40.5194 64.6378 41 64.5643 41.2471 64.6723C42.4214 65.1894 43.1866 64.5381 44.0245 63.8708C44.4517 63.531 45.048 63.1901 45.5545 63.2086C46.9784 63.2611 47.8604 62.6257 48.4607 61.3949C48.5972 61.1147 48.8322 60.758 49.0895 60.6855C50.8341 60.192 52.1764 58.9576 53.7521 58.1705C55.0121 57.5418 56.3762 57.1336 57.6661 56.5599C58.1208 56.3584 58.5679 56.0191 58.8668 55.6253C59.0419 55.395 59.0343 54.8778 58.9028 54.5858C58.6511 54.0306 58.2523 53.5432 57.8016 52.8564C57.5154 53.3432 57.2789 53.6892 57.0988 54.0645C56.5583 55.1739 55.9007 55.5528 54.8056 55.0988C53.9261 54.7344 53.031 54.2609 52.3337 53.6234C50.8149 52.2364 49.195 51.1666 47.1423 50.7717C46.3563 50.619 45.6316 50.1358 44.7166 49.7322C45.864 48.2635 46.9135 46.9746 47.8995 45.6365C48.5155 44.8021 49.1209 43.9374 49.5782 43.0084C50.2678 41.6106 51.2969 40.5824 52.5387 39.7141C53.0949 39.326 53.6079 38.8715 54.2225 38.3821C53.1664 37.3832 52.2205 37.94 51.3294 38.0505C50.1902 38.1914 49.0595 38.5507 47.9253 38.5466C46.2654 38.5415 44.7872 38.9229 43.3125 39.6982C42.0641 40.3552 40.696 40.8143 39.336 41.2014C37.7263 41.6579 36.9585 41.3237 36.0608 39.8997C34.0396 36.6974 32.2416 33.3954 31.2592 29.6724C30.9009 28.3141 30.363 26.885 29.516 25.8018C27.9465 23.7963 27.2528 21.4207 26.2784 19.1623C25.2472 16.7697 24.3232 14.3308 23.3229 11.9249C23.1712 11.5594 22.8647 11.2591 22.3212 11.071C22.784 12.6225 23.2463 14.174 23.7325 15.8022C22.3527 15.8561 22.0056 14.9087 21.5849 14.1494C19.7245 10.7851 17.9073 7.39624 16.0753 4.0166C15.5866 3.11643 15.0985 2.21779 14.6098 1.31762C14.4256 1.39627 14.2424 1.4739 14.0576 1.55307Z" fill="white"/>
<path d="M829.649 56.7599C828.759 56.8023 828.142 56.8312 827.019 56.8842C828.177 58.3479 829.089 59.5007 830 60.6527C827.727 60.068 825.585 59.5553 823.699 58.2023C821.184 56.3989 818.563 54.7092 815.408 54.2147C814.098 54.0084 812.792 53.762 811.502 53.4533C808.02 52.6183 805.333 54.2959 802.823 56.3443C801.937 57.0685 801.207 57.7359 799.958 57.7382C799.258 57.7382 798.556 58.2873 797.58 58.7089C799.941 62.4152 803.204 64.5296 806.647 66.7638C806.179 67.1483 805.847 67.4918 805.452 67.7307C804.569 68.2669 803.69 68.8433 802.741 69.2301C801.885 69.5774 800.95 69.7814 800.031 69.8936C798.724 70.0552 797.403 70.109 796.087 70.1439C795.057 70.1735 794.022 70.156 792.996 70.0726C791.201 69.9247 790.932 69.8474 790.854 67.9385C790.708 64.3665 788.809 62.064 786.157 60.0831C783.552 58.1379 781.569 58.3093 779.05 60.3243C775.813 62.9119 774.212 66.4149 772.936 70.3206C771.92 70.4685 770.824 70.5496 770.462 71.9656C770.354 72.394 769.555 72.6413 769.03 73C767.745 71.0259 768.611 68.7075 766.988 66.7683C766.524 67.849 766.15 68.731 765.617 69.9771C765.391 69.2862 765.189 68.9366 765.179 68.5816C765.138 67.2317 765.166 65.881 765.155 64.5296C765.147 63.4284 765.364 62.2931 764.224 61.4831C763.957 61.295 763.976 60.526 764.041 60.0482C764.583 56.0819 765.898 52.3218 767.563 48.7475C768.241 47.2929 769.739 46.1068 771.106 45.1671C771.82 44.6757 773.116 44.7576 774.057 44.9768C775.48 45.309 776.819 45.9983 778.2 46.5148C778.819 46.7454 779.443 47.0176 780.085 47.1086C780.977 47.233 781.681 46.9243 781.863 45.8778C782.069 44.6916 782.209 43.4122 783.657 43.0778C785.303 42.6994 786.892 42.76 788.208 44.0569C788.955 44.7925 789.73 45.6601 790.872 45.2968C791.891 44.973 792.956 44.5202 793.754 43.8316C794.752 42.9693 795.602 41.878 796.323 40.7602C797.435 39.0401 798.925 38.8399 800.753 39.0864C804.701 39.6203 808.27 41.1287 811.691 43.1172C814.505 44.7516 817.385 46.2736 820.177 47.9474C821.155 48.5314 822.599 48.8673 822.324 50.6268C822.288 50.8596 822.92 51.2206 823.266 51.4944C825.13 52.9619 827.005 54.4142 828.867 55.8862C829.091 56.0644 829.259 56.3192 829.649 56.7599Z" fill="white"/>
</svg>
