<svg width="474" height="53" viewBox="0 0 474 53" fill="none" xmlns="http://www.w3.org/2000/svg">
<path d="M3 3H471V50H3V3Z" fill="url(#paint0_linear_3312_5)"/>
<path d="M41.5293 47.58C39.2023 47.3095 46.9707 47.4868 41.8122 47.0828C42.8879 47.0555 43.9703 47.0273 45.0459 47C45.3188 47.1497 45.5982 47.2989 45.871 47.4486C44.4266 47.4927 42.9812 47.5367 41.5293 47.5808C41.5293 47.5805 41.5293 47.5803 41.5293 47.58ZM39.5569 49.4542C40.8808 49.0274 45.0869 48.9136 40.5431 48.5197C40.1819 48.6662 39.812 48.8126 39.4508 48.9591C37.8732 48.8455 36.2859 48.7319 34.7084 48.6189C34.141 48.6748 33.5744 48.7307 33.007 48.7859C32.2846 48.5314 31.5685 48.2761 30.846 48.0209C31.4875 48.0582 32.1377 48.0961 32.7792 48.1334C35.3152 47.9267 37.5717 47.8701 41.0146 47.8316C40.7123 47.7714 40.4093 47.7117 40.107 47.6515C41.8543 47.7539 43.6006 47.8566 45.3406 47.9591C43.8295 48.0596 42.14 48.1715 40.7396 48.2652C42.9806 48.6643 46.9333 48.4422 48.9908 48.3589C51.7924 48.2453 51.1593 48.4351 53.2382 48.3556C53.5699 48.3432 53.6076 48.1945 54.2637 48.192C57.5742 48.1802 64.0042 48.259 60.2438 48.6061C54.7949 48.5614 50.1479 48.8402 44.8023 48.7383C46.2164 49.1397 43.4001 49.2763 39.5569 49.4542ZM139.655 48.1762C138.004 48.3711 134.641 48.2925 132.363 48.1572C132.36 48.1572 132.358 48.1572 132.355 48.1572C131.854 48.1274 130.718 47.8683 132.355 47.8789C135.024 47.897 136.314 48.3047 137.714 48.0279C138.341 48.0794 138.999 48.1253 139.655 48.1762ZM145.455 48.152C147.092 48.252 146.349 48.5593 144.3 48.4761C144.3 48.4764 144.3 48.4766 144.3 48.4769C143.444 48.4421 145.123 48.1992 142.056 48.4457C141.43 48.2539 140.813 48.0795 140.194 47.8939C140.945 47.8908 141.63 47.8857 142.418 47.8833C141.887 48.1985 143.818 48.0529 145.455 48.152ZM63.0099 48.4325C63.2674 48.1489 62.1894 48.1507 60.3538 47.9539C62.0863 47.9632 63.8191 47.9732 65.5442 47.9825C64.6966 48.1327 63.8575 48.2823 63.0099 48.4325ZM22.308 48.3886C22.3054 48.3886 22.3028 48.3886 22.3002 48.3886C21.7324 48.4333 21.1631 48.4782 20.6028 48.5223C20.2636 48.421 19.9283 48.3203 19.5891 48.2191C17.5835 48.3141 15.5673 48.4091 13.5618 48.5047C13.8055 48.1955 17.4053 48.2458 19.3887 48.0297C22.3377 48.1229 23.7587 48.3023 23.9504 48.5644C23.405 48.506 22.8609 48.4469 22.308 48.3886ZM470.621 16.3753C470.536 15.7046 470.45 15.0422 470.364 14.3715C470.325 15.2633 470.295 16.148 470.25 17.0472C470.622 19.399 470.293 19.62 470.316 22.7012C470.387 32.1461 470.965 29.6403 470.118 38.1702C470.158 31.3217 469.76 33.9536 469.453 29.8247C469.687 28.9694 470.213 33.0607 470.322 30.2884C470.075 25.5113 469.845 20.9175 469.686 15.617C469.645 15.7718 469.605 15.9258 469.564 16.0806C469.59 16.9212 469.615 17.7547 469.641 18.5953C469.533 17.6884 469.426 16.8019 469.316 15.8803C469.562 17.0451 469.425 14.0763 469.706 14.4736C469.832 14.6506 470.006 15.9626 470.126 16.7368C470.191 14.739 470.251 12.6901 470.314 10.6702C470.414 11.7168 470.514 12.7625 470.614 13.8017C470.617 14.6565 470.619 15.5048 470.622 16.3596C470.622 16.3648 470.622 16.3701 470.621 16.3753ZM54.3869 4.6828C56.9233 4.39096 61.5324 4.34266 63.9582 4.66742C60.7657 4.67239 57.5795 4.67784 54.3869 4.6828ZM24.1429 48.7804C23.8557 48.7308 23.5775 48.6817 23.2903 48.6321C24.5583 48.5402 25.8336 48.449 27.1016 48.3571C27.3448 48.5005 27.5935 48.6439 27.8442 48.7867C26.6133 48.7848 25.3738 48.7823 24.1429 48.7804ZM105.264 48.6208C104.336 48.6294 104.254 48.6247 103.099 48.6043C103.1 48.6044 103.101 48.6045 103.103 48.6047C102.645 48.597 98.8134 48.5133 99.2404 48.4029C101.143 48.401 103.172 48.4029 105.118 48.4029C105.177 48.4755 105.19 48.5475 105.264 48.6208ZM82.8717 48.5563C82.869 48.5561 82.8664 48.5558 82.8638 48.5556C82.1714 48.5388 81.5155 48.5047 80.801 48.4985C83.3735 48.3247 83.78 48.6364 86.1171 48.5483C88.454 48.4595 89.8981 48.2875 91.8812 48.7145C91.1438 48.7785 90.3499 48.87 89.5905 48.9445C86.2728 48.7737 85.3795 48.9344 82.7184 49.1027C82.77 48.9201 82.82 48.7389 82.8717 48.5563ZM462.575 48.7574C461.941 48.9685 461.234 48.7613 461.161 48.7588C461.162 48.7586 461.163 48.7583 461.165 48.7581C455.548 48.9536 461.895 48.6412 456.595 48.6083C457.384 48.5556 458.159 48.4998 458.941 48.4465C460.149 48.5483 461.396 48.6636 462.575 48.7574ZM280.094 48.7376C280.043 48.6761 279.981 48.6145 279.929 48.553C283.115 48.5673 283.927 48.3253 286.574 48.5457C284.414 48.6103 282.254 48.6744 280.094 48.7383C280.094 48.7381 280.094 48.7378 280.094 48.7376ZM121.318 49.0679C117.786 49.1853 115.174 49.237 111.782 49.0507C111.78 49.0504 111.777 49.0502 111.774 49.0499C111.579 49.0385 112.525 48.9099 112.269 48.8775C111.57 48.8967 110.847 48.9263 110.14 48.9492C110.044 48.8463 109.953 48.7433 109.857 48.6409C111.847 48.6701 113.839 48.6992 115.837 48.7284C115.542 48.6682 115.24 48.6085 114.945 48.5483C116.641 48.5172 118.33 48.4863 120.026 48.4553C119.436 48.6241 118.847 48.793 118.265 48.9624C119.282 48.9978 120.301 49.0319 121.318 49.0679ZM333.122 49.4103C332.562 49.3432 333.599 49.2307 332.729 49.173C331.859 49.116 330.255 49.2411 330.631 49.0518C331.802 49.0263 333.033 48.9972 334.226 48.9705C330.385 48.6291 326.553 48.938 326.494 48.5164C330.18 48.6257 333.211 48.5749 336.78 48.4582C336.633 48.7928 333.063 49.0822 335.311 49.3964C334.588 49.4007 333.83 49.4071 333.13 49.4095C333.127 49.4098 333.125 49.41 333.122 49.4103ZM0.0230016 19.5456C0.0484608 17.3631 -0.0881202 12.3625 0.10686 9.60487C0.15491 8.9264 0.77734 6.66622 0.859386 6.67767C1.1357 6.74403 1.17331 9.50434 1.35338 6.548C1.35525 7.54253 1.36562 8.50768 1.37059 9.49485C1.55626 9.3179 1.74143 9.14186 1.92647 8.97228C1.89853 7.77043 1.87045 6.56718 1.84188 5.36534C1.90336 5.30635 1.96497 5.24751 2.02644 5.18853C2.02768 9.50927 2.26495 6.95869 2.48601 9.20017C2.59776 7.1361 2.70897 5.05669 2.82071 3C2.80706 4.18688 2.79694 5.5875 2.7808 6.63445C3.09559 6.77452 3.02054 4.27669 3.07888 3.84869C3.40858 1.43781 3.24218 13.7122 3.70031 14.7167C3.75122 12.7558 3.8009 10.6984 3.85118 8.69331C3.90768 9.2684 3.96422 9.85097 4.02073 10.4261C3.70475 14.9748 3.59281 20.0758 3.396 25.3764C3.40903 25.8553 3.42241 26.3351 3.43482 26.8066C3.57696 26.6666 3.71856 26.5341 3.8607 26.3941C3.87747 27.1166 3.8941 27.8482 3.91087 28.5708C3.44272 26.4403 3.4491 29.3906 3.16347 32.9518C2.99895 31.0572 3.09869 28.72 2.79215 28.8812C3.028 35.3837 2.69469 42.9989 2.96097 49.3245C2.97188 49.585 2.99188 49.8021 3.01746 50L3 49.9825C3.99478 49.8539 4.5022 49.5838 7.58164 49.6143C7.45624 49.6577 7.43488 49.7362 7.35376 49.7933C13.739 49.6039 17.6131 49.4907 24.249 49.6838C23.8658 49.5417 23.4888 49.399 23.1057 49.2568C21.6973 49.3276 20.2867 49.3995 18.8857 49.4703C17.9274 49.2356 19.3438 49.1321 15.1413 49.1345C11.698 49.1364 13.7477 49.24 12.8113 49.3096C11.5434 49.4045 10.4306 49.2177 9.06688 49.3239C8.01248 49.4052 9.1531 49.5989 6.40288 49.5498C7.50894 49.2989 8.63708 49.0399 9.75053 48.7859C10.4215 48.8424 11.0873 48.8998 11.7583 48.9569C11.0799 49.024 10.4132 49.0902 9.7348 49.1572C12.1235 49.0368 14.3806 48.9232 16.8505 48.7984C16.0468 49.161 18.5997 49.025 19.9859 48.9822C22.1452 48.9152 20.2953 49.1648 21.7108 49.1232C23.1265 49.0809 24.6532 48.8021 27.2116 48.8617C25.8404 49.0231 27.7057 49.1679 27.3452 49.3169C26.984 49.4659 24.2778 49.4989 26.8776 49.6615C31.8766 49.5379 26.452 48.9705 29.8284 48.8786C33.8833 48.768 34.8483 49.693 33.6396 49.8918C32.6884 50.0483 29.4156 50.0168 28.4571 50.1727C34.3187 50.454 34.3696 49.8987 35.3724 49.79C39.0146 49.3945 36.568 50.4502 40.881 50.0683C40.8 50.2657 40.7342 50.4433 40.6531 50.6326C41.3974 50.5966 41.8914 50.5488 42.7906 50.5202C40.1391 50.1356 42.3093 50.1521 43.4232 50.1515C45.1781 50.1502 42.4675 49.9626 42.932 49.9142C44.1855 49.7846 46.1678 49.8434 44.9516 49.6739C45.4973 49.7528 46.0886 49.8319 46.649 49.9101C48.6992 49.8119 53.5175 48.9879 48.9318 49.1543C49.3594 48.8482 50.8429 48.9953 52.0005 49.0419C53.1578 49.0884 53.1362 48.8935 54.1536 48.9295C58.201 49.0735 55.5534 49.407 54.912 49.6684C60.2572 49.4884 55.0242 49.3692 62.727 49.2488C63.4717 49.0358 59.9126 48.8085 62.8763 48.6856C63.4223 49.0556 65.6046 49.3214 69.8584 49.4443C70.2714 49.3593 70.6831 49.2734 71.096 49.1884C73.4187 49.5299 72.2314 49.885 76.53 49.4615C74.2223 50.2408 75.809 49.7423 79.6576 50.0595C80.4392 50.1235 78.6332 50.2852 79.7244 50.3671C80.2191 50.4041 81.4201 50.2821 82.628 50.3763C83.2179 50.4229 85.9755 50.7233 87.8852 50.5806C86.4843 50.2031 90.1126 49.8819 87.0012 49.5696C92.7523 49.6466 96.7774 49.4653 90.3331 49.9801C91.793 50.0943 93.2541 50.2081 94.714 50.3217C95.7316 50.2317 96.7578 50.1424 97.7827 50.0529C97.9374 50.3632 97.7819 50.4503 101.79 50.3957C100.051 50.4689 98.3191 50.5434 96.5725 50.6173C96.5136 50.6799 96.2705 50.745 96.3289 50.8058C98.4682 50.6867 104.492 50.6354 105.951 50.5528C107.411 50.4702 104.592 50.4476 105.012 50.3675C108.514 49.707 108.236 50.1941 110.749 50.0808C112.224 50.0137 108.703 49.9409 109.492 49.9123C112.417 49.8076 113.774 50.1587 116.367 50.1632C115.446 49.9639 114.532 49.7615 113.633 49.5604C116.354 49.571 119.386 49.5727 121.915 49.5088C122.908 49.4838 122.158 49.3356 122.32 49.3257C123.125 49.2748 126.398 49.1941 126.744 49.1935C129.353 49.1923 129.427 49.3976 131.962 49.4088C130.967 49.4262 130.031 49.4419 129.059 49.4586C128.616 49.7914 128.165 50.1242 127.723 50.4576C130.207 50.4818 132.692 50.5055 135.184 50.5297C133.363 50.4186 131.536 50.308 129.715 50.1969C132.561 49.928 135.407 49.6585 138.253 49.389C139.735 49.5542 141.211 49.7193 142.693 49.8845C146.717 49.8409 145.907 49.1705 147.816 49.7578C149.003 49.7081 150.19 49.6585 151.376 49.6095C151.207 49.6933 151.039 49.7773 150.869 49.8611C152.3 49.8095 153.729 49.7583 155.16 49.7062C153.656 49.4094 152.182 49.0971 150.692 48.809C153.507 48.7445 153.561 48.9963 153.981 49.0591C155.095 49.2255 157.304 49.001 158.189 49.155C158.488 49.2079 155.73 49.3737 156.68 49.5648C156.866 49.6019 160.559 50.3045 162.916 50.1423C162.872 50.015 162.69 49.8589 162.594 49.7204C165.763 49.6431 167.379 50.3076 166.959 50.4938C168.647 50.3635 171.115 50.3526 171.462 50.1489C172.324 50.1439 173.181 50.1392 174.043 50.1342C173.144 50.6303 176.742 50.5396 176.978 50.113C175.496 50.1024 174.013 50.0913 172.531 50.0808C173.651 49.5579 169.148 49.2424 178.519 49.7267C180.31 49.9986 175.334 49.6896 176.794 49.8933C179.33 50.0118 181.711 49.9126 184.121 50.102C187.121 50.3386 183.43 50.5661 190.42 50.265C175.003 49.5105 192.534 49.7553 199.775 49.5212C201.766 50.2664 207.881 50.5024 216.301 50.2807C215.424 50.0733 212.775 50.1802 211.248 50.1119C209.722 50.0436 211.373 49.9206 209.472 49.8237C207.571 49.7269 203.531 49.5952 201.606 49.4487C203.237 49.3314 211.285 49.0539 205.963 49.3872C209.936 49.5927 211.802 49.8039 216.725 49.8424C218.2 49.5189 218.091 49.3174 222.89 49.3081C220.052 49.7576 225.505 50.0701 224.305 50.5345C220.901 50.4263 222.804 49.9749 220.835 49.7589C220.633 49.7373 217.462 49.8505 216.725 49.8424C219.925 50.2479 221.032 50.3988 219.063 50.8813C221.327 50.8391 222.735 50.8996 222.941 50.6693C223.413 50.7692 223.887 50.8692 224.352 50.9692C225.088 50.9667 225.752 50.9574 226.532 50.9593C225.457 50.6118 227.542 50.8257 229.024 50.6682C230.506 50.5104 228.517 50.2361 232.587 50.2324C231.231 50.151 229.99 50.0812 228.678 50.0042C231.302 49.9148 233.935 49.8249 236.56 49.7355C234.716 49.5231 230.722 49.2077 230.831 48.9284C232.04 49.0338 236.181 48.8485 236.634 48.8409C238.389 48.8123 237.433 48.9885 237.566 48.9928C240.322 49.0784 242.593 49.0185 243.64 49.2854C245.712 49.165 247.274 49.2336 249.471 49.2268C250.68 49.2231 250.445 49.027 251.152 49.0642C255.856 49.3126 251.375 49.566 260.449 49.0836C259.35 48.947 258.266 48.8073 257.168 48.6695C258.193 48.6179 259.212 48.5661 260.237 48.5146C260.922 48.5394 261.602 48.5644 262.288 48.5893C262.273 48.8854 262.255 49.1822 262.24 49.4784C262.993 49.4945 263.748 49.5102 264.5 49.5264C263.209 49.5555 261.916 49.5847 260.626 49.6139C260.508 49.666 260.398 49.7181 260.28 49.7702C262.197 49.851 264.107 49.9324 266.024 50.0138C266.061 49.9107 266.097 49.807 266.134 49.704C270.455 49.8474 270.558 49.9346 274.664 49.6509C277.827 49.654 280.403 49.2232 282.232 49.0419C282.888 49.0996 283.545 49.1581 284.208 49.2158C284.628 49.1301 285.053 49.0448 285.473 48.9591C286.306 49.0783 287.151 49.1976 287.984 49.3162C288.448 49.0456 288.689 48.9611 285.438 48.8661C286.552 48.5296 292.275 48.678 294.605 48.791C296.372 48.8768 294.411 49.1575 294.632 49.1917C295.37 49.3077 298.283 49.2076 298.895 49.2268C301.483 49.3069 303.297 49.2929 305.634 49.355C306.089 49.3674 307.361 49.5453 307.469 49.5509C308.309 49.5813 310.384 49.6678 310.62 49.6703C322.79 49.8031 309.786 49.0312 321.103 49.1126C320.764 49.0108 320.452 48.9097 320.12 48.8079C320.975 48.8017 321.839 48.7958 322.694 48.7896C323.778 48.8747 322.467 49.0294 324.619 48.9046C324.479 49.03 324.338 49.1555 324.191 49.2803C325.127 49.2126 326.03 49.1455 326.989 49.0778C328.493 49.513 333.984 49.6119 333.593 50.1229C333.461 50.2968 329.568 50.4752 331.625 50.6608C333.296 50.6974 332.165 50.4897 332.847 50.4788C337.772 50.4031 337.486 50.6941 339.499 50.6165C339.816 50.4918 340.149 50.3646 340.473 50.2386C341.232 50.2752 341.994 50.3119 342.76 50.3485C342.937 50.2646 343.121 50.1807 343.298 50.0969C342.583 50.0913 341.778 50.0856 341.122 50.08C342.037 49.7554 350.44 49.6095 347.235 49.8863C345.931 49.9987 343.541 49.951 345.051 50.3346C347.3 50.2793 349.851 50.2228 352.218 50.1676C352.291 50.2502 352.36 50.3329 352.434 50.4155C355.623 50.362 352.722 50.0318 352.728 49.8548C353.458 49.8499 354.195 49.8455 354.925 49.8406C355.234 49.9206 355.528 50.0043 355.852 50.0819C355.882 49.9545 356.29 49.6585 358.465 49.7684C359.863 49.8399 357.661 50.1612 360.327 50.1167C360.128 49.918 359.165 49.676 362.135 49.6121C362.43 49.8194 362.837 50.0094 363.066 50.2273C366.759 50.0281 368.44 50.3483 372.775 50.1167C375.525 49.9701 379.292 49.4499 381.069 50.2514C383.081 50.2725 382.442 50.0729 383.038 50.028C385.847 49.8157 387.936 50.1957 388.46 50.2181C391.799 50.3614 393.295 50.2298 396.016 50.4093C395.868 50.2608 395.788 50.1204 395.67 49.9757C393.178 50.198 391.916 50.1876 388.421 50.1397C389.593 50.1099 390.765 50.0795 391.937 50.0497C391.745 49.9292 391.556 49.8088 391.371 49.689C380.562 50.1634 383.084 49.4138 392.145 49.2499C392.927 49.4728 393.737 49.6951 394.511 49.9186C399.746 49.5808 402.209 49.874 408.129 49.9442C408.833 49.9522 411.396 49.8238 412.498 49.8175C412.48 49.8166 412.462 49.8158 412.443 49.8149C413.129 49.6045 412.2 49.5076 412.09 49.3195C412.687 49.2959 413.284 49.2724 413.881 49.2488C415.215 49.3922 414.746 49.51 417.37 49.4758C417.017 49.333 416.667 49.1902 416.313 49.0474C419.189 49.0424 421.071 49.1976 423.747 49.1305C423.298 49.1845 422.853 49.2387 422.404 49.2927C428.229 49.4306 423.593 50.2702 427.995 49.8523C428.275 49.9255 428.548 49.9995 428.828 50.0727C427.014 50.0907 425.2 50.1082 423.394 50.1262C423.357 50.2298 423.317 50.3331 423.288 50.4367C425.227 50.4057 427.175 50.3737 429.115 50.3426C427.699 50.4122 426.275 50.4818 424.859 50.5513C427.108 50.601 429.357 50.6507 431.606 50.7004C429.218 50.3192 432.314 50.2726 431.731 49.8951C435.713 50.2093 438.84 50.6235 445.012 50.3584C446.235 50.3055 445.571 50.0418 449.043 50.3627C448.203 49.943 452.553 49.7461 451.994 49.3469C450.785 49.3662 449.531 49.3783 448.359 49.4019C449.694 49.5403 449.915 49.9212 447.888 50.0343C445.3 50.1783 441.526 49.9143 441.68 50.3371C440.648 50.3173 439.688 50.3055 438.686 50.2888C439.099 50.1839 439.503 50.0784 439.908 49.9735C437.056 50.1379 435.264 50.0844 433.892 49.8201C437.291 49.7592 440.682 49.699 444.081 49.6388C443.58 49.6208 443.073 49.6027 442.572 49.5853C445.145 49.3152 442.491 49.0594 447.291 49.0016C447.261 49.1251 447.238 49.2488 447.208 49.3729C448.956 49.0426 453.74 49.0444 452.214 48.6643C453.659 48.7811 453.954 48.8549 454.772 48.6501C458.584 48.9388 461.032 49.3039 459.675 49.7399C461.091 49.6697 462.507 49.5994 463.915 49.5293C463.097 49.4101 462.277 49.2915 461.459 49.1723C463.922 49.1797 466.402 49.187 468.858 49.1939C469.094 49.5465 464.118 49.3008 465.553 49.6161C465.841 49.6794 467.166 49.5438 467.514 49.5795C471.186 49.965 465.422 49.6865 466.504 49.9819C470.35 50.0461 469.329 50.3097 471 50.3162L471.318 50.3144L471.316 50C471.319 49.2937 471.276 48.1065 471.152 45.8674C471.254 45.6683 471.358 45.4544 471.459 45.2702C471.465 42.6543 471.235 42.8665 471.192 40.6181C471.165 39.21 471.569 37.4427 471.294 35.8874C471.243 35.6101 470.749 38.2262 470.771 32.7284C470.788 28.4615 471.137 30.2374 471.26 27.9309C471.384 25.6231 470.9 20.3436 471.448 18.7878C471.376 19.9966 471.337 21.5365 471.277 22.878C471.384 23.4236 471.489 23.9547 471.596 24.4929C471.458 21.4257 471.62 18.2551 471.366 16.1907C471.755 12.0985 471.394 7.52195 470.954 8.76066C471.017 10.1076 471.209 8.6423 471.087 10.5131C470.985 10.7048 470.883 10.9068 470.78 11.0985C470.793 7.91324 470.79 5.70111 471.102 7.15365C471.109 6.65964 471.117 6.1703 471.124 5.6763C470.898 5.58781 470.671 5.50938 470.445 5.4209C470.42 4.83107 470.395 4.23869 470.369 3.64886C470.386 3.43279 470.402 3.21655 470.419 3L471 3.58149C470.559 3.54799 470.117 3.5143 469.673 3.48059C470.565 3.12292 472.084 3.11111 467.056 2.91116C467.041 3.03473 467.019 3.15781 467.005 3.28138C462.795 3.12429 462.684 2.82495 457.398 2.83609C461.453 2.40707 463.672 3.16757 463.657 2.30695C464.675 2.36345 465.7 2.42072 466.718 2.47723C466.873 2.35241 467.026 2.22742 467.174 2.10261C461.71 2.16844 452.636 2.98927 448.978 2.445C448.536 2.51142 448.092 2.56916 447.642 2.64055C444.058 2.31206 442.511 3.04953 438.876 2.6248C438.501 2.58023 439.286 1.88736 434.554 1.91219C434.672 2.00224 434.733 2.15381 434.829 2.2674C433.804 2.21215 432.785 2.15434 431.768 2.09785C431.584 2.18102 431.391 2.26417 431.206 2.34796C432.954 2.38025 434.696 2.41308 436.444 2.44537C434.992 2.47392 433.531 2.5025 432.079 2.53106C433.973 2.667 434.827 2.66844 433.686 2.88626C432.041 2.8993 430.395 2.91314 428.751 2.92618C428.581 2.98199 428.413 3.03845 428.244 3.09426C429.04 3.26066 429.844 3.4234 430.64 3.59228C426.357 3.4563 422.633 3.44892 419.344 3.12172C418.784 3.06646 420.766 2.84967 416.947 3.04519C416.889 2.93037 416.786 2.83714 416.72 2.731C412.045 3.05265 410.509 2.95664 405.636 2.72441C408.791 2.94112 405.976 2.80017 405.172 2.91629C404.621 2.99629 406.771 2.98447 406.527 3.06826C406.284 3.15146 403.491 3.48742 405.879 3.52783C411.733 2.83919 413.328 3.66252 420.849 3.33155C419.692 3.42035 418.526 3.50934 417.368 3.59814C417.913 3.65833 418.401 3.71293 418.991 3.77684C414.796 3.64212 416.836 3.72965 415.113 3.8358C413.387 3.94198 410.251 4.03219 408.15 4.06138C407.488 4.07055 408.186 3.91609 406.692 3.90172C405.675 3.89178 402.895 4.12075 402.253 3.85081C401.832 3.6751 406.299 3.19125 400.123 3.1924C398.96 3.02014 401.922 3.07364 401.985 3.05288C402.524 2.84797 398.727 2.6939 396.972 2.85038C396.83 2.86387 398.215 3.02355 396.709 3.0862C393.133 3.23585 391.067 3.05273 388.752 2.80497C388.501 3.09558 385.492 3.44264 381.746 3.33522C381.555 3.41838 381.372 3.50227 381.181 3.58606C381.762 3.54204 382.344 3.49861 382.925 3.45459C383.559 3.50675 384.231 3.54472 384.85 3.6062C381.084 3.67766 380.551 4.07817 378.745 4.2247C372.563 4.72526 376.309 3.6664 377.424 3.48389C378.228 3.55778 379.005 3.64027 379.801 3.71789C379.713 3.61667 379.623 3.51468 379.542 3.41285C370.289 3.41594 378.133 2.75582 373.436 2.56768C372.227 3.06565 368.778 3.11364 364.384 2.79764C363.897 2.80013 363.409 2.80076 362.922 2.80387C362.841 2.87648 362.842 2.98746 362.71 3.0353C357.416 3.11975 356.473 2.35287 355.971 2.28021C353.745 1.95799 352.011 2.40383 351.355 2.40765C348.59 2.42317 347.786 2.22521 345.154 2.31024C342.324 2.40212 344.259 2.55402 343.398 2.68998C342.707 2.79796 340.474 2.81719 339.551 2.92911C339.918 2.83757 340.325 2.74781 340.691 2.65593C337.757 2.53114 335.359 2.40951 332.027 2.37909C328.267 3.04885 325.068 1.91904 326.365 2.83536C329.521 2.89808 331.286 3.0025 332.974 3.23598C330.903 3.26578 328.83 3.2948 326.758 3.3246C326.154 3.22403 325.725 3.12602 325.01 3.02359C323.462 3.23715 319.873 3.14551 318.464 3.20815C311.865 3.50185 313.906 3.86613 307.883 3.25392C312.224 3.19427 312.217 2.89692 316.523 2.9379C315.594 2.72553 313.406 2.76953 314.822 2.51494C310.656 2.57765 312.003 2.80495 310.382 3.00674C308.983 3.1807 306.168 3.19044 306.327 3.41651C306.039 3.29222 305.816 3.17189 305.529 3.04775C302.831 3.049 300.133 3.04908 297.435 3.05032C298.585 2.92056 299.735 2.79056 300.885 2.66142C300.016 2.61241 299.145 2.56359 298.276 2.51458C291.64 2.91819 280.197 2.17847 282.025 3.1924C278.825 3.22469 278.425 3.09752 276.685 2.90567C276.494 2.98265 276.307 3.04667 276.116 3.13234C274.052 3.05176 272.467 3.34076 270.646 3.26564C268.826 3.19109 268.373 2.91812 268.108 3.37696C266.928 3.24534 265.756 3.13601 264.584 3.0137C263.876 3.11794 263.17 3.22098 262.47 3.3246C261.364 3.26996 260.256 3.21555 259.15 3.16091C258.559 3.37994 254.21 3.28553 252.293 3.43262C250.474 3.19652 250.524 2.45314 246.242 2.58635C246.353 2.77072 246.462 2.95456 246.572 3.13894C245.592 3.10044 244.61 3.06208 243.622 3.02359C243.563 2.96341 243.512 2.90323 243.453 2.84305C243.954 2.86168 244.449 2.8802 244.95 2.89945C244.515 2.79761 244.089 2.69624 243.661 2.59441C242.164 2.74527 240.666 2.89616 239.162 3.04702C241.189 3.16125 243.217 3.27555 245.244 3.38978C242.701 3.52515 240.93 3.39012 238.718 3.54102C236.794 3.28647 237.505 3.13979 238.286 2.86356C237.571 2.88715 236.848 2.90992 236.133 2.9335C236.604 2.65723 235.395 2.49261 239.575 2.51494C239.287 2.43614 238.994 2.36101 238.714 2.27912C238.029 2.29153 237.584 2.22493 236.832 2.25531C234.782 2.33852 233.211 2.82378 233.351 2.99392C233.427 3.08305 235.448 2.91261 235.367 3.0386C235.167 3.34585 230.53 3.2079 237.217 3.51648C234.998 3.71208 234.502 3.56457 232.054 3.50806C232.246 3.61044 232.432 3.71218 232.616 3.81456C231.481 3.76739 230.345 3.72038 229.21 3.67321C230.787 3.14729 222.419 2.94975 229.952 2.48968C227.726 2.46609 225.507 2.44237 223.288 2.41754C223.745 2.36353 224.203 2.31006 224.66 2.25605C225.662 2.28461 226.659 2.3127 227.662 2.34064C226.482 2.24194 225.301 2.14382 224.121 2.04512C221.334 2.16745 220.242 2.35558 218.966 2.58782C222.21 2.75729 221.15 2.5258 223.677 2.47979C223.589 2.62686 223.706 2.76214 223.485 2.91666C222.179 2.61202 217.919 2.83364 216.931 2.84855C213.925 2.89379 216.282 2.59448 214.271 2.58818C212.258 2.58197 209.884 2.76013 208.24 2.46331C208.269 2.62967 208.401 2.8018 208.519 2.95328C205.385 3.00792 206.01 2.81139 205.686 2.78593C200.51 2.36742 197.701 2.72074 191.781 2.76359C192.533 2.81512 193.292 2.86164 194.052 2.91007C189.585 3.26329 192.594 3.15513 196.472 3.27186C192.837 3.23647 190.755 3.53729 188.19 3.6267C185.624 3.71597 181.224 3.56147 179.616 3.44104C183.295 3.24731 187.264 3.37507 191.349 3.32167C190.884 3.15219 190.433 3.00876 189.954 2.82255C187.469 3.17824 186.03 2.94041 185.211 2.89322C182.808 2.75482 182.884 3.06011 181.431 2.73173C181.49 2.8447 181.534 2.93968 181.593 3.04519C176.631 2.998 171.278 2.79829 168.049 3.21547C167.754 2.94414 167.531 2.68273 167.192 2.40582C165.091 2.61006 163.292 2.40091 161.523 2.44866C159.76 2.49647 160.431 2.71575 158.36 2.80021C157.976 2.81573 157.178 2.67849 156.234 2.7797C155.281 2.88145 151.766 3.638 151.346 2.97708C149.569 2.97397 147.888 2.9498 146.148 2.93863C147.844 2.90137 149.54 2.86529 151.228 2.82804C149.783 2.66785 148.347 2.50815 146.902 2.34796C146.718 2.49078 146.533 2.63618 146.356 2.77714C142.463 2.951 139.638 2.71749 135.708 2.77274C135.052 2.78206 136.6 3.06442 133.689 2.99246C130.776 2.92043 128.615 2.39341 123.654 2.59697C123.403 2.60753 121.934 3.01116 120.157 2.73173C119.752 2.6684 121.454 2.57469 120.526 2.49151C119.597 2.4083 115.452 2.33988 115.127 2.14179C115.172 2.21194 115.43 2.28463 115.556 2.35602C114.848 2.38954 114.133 2.42309 113.418 2.45599C113.352 2.33243 113.28 2.2087 113.214 2.08577C109.144 2.37325 107.041 2.84223 101.01 2.68705C102.706 2.86649 104.402 3.04665 106.09 3.22609C106.555 3.10004 107.02 2.97313 107.477 2.84708C110.257 2.89737 113.044 2.9473 115.823 2.99759C116.28 2.85414 116.729 2.71112 117.186 2.56768C117.923 2.5863 118.653 2.60435 119.39 2.62297C119.206 2.72666 119.02 2.82981 118.829 2.9335C120.288 2.90805 121.75 2.88205 123.202 2.8566C120.245 3.46868 114.945 2.80454 115.328 3.31654C114.672 3.2371 114.015 3.15711 113.359 3.07705C113.072 3.32531 111.738 3.25386 109.387 3.21474C109.925 3.33707 110.52 3.45773 111.014 3.5813C108.728 3.40869 104.673 3.42545 102.307 3.35902C101.267 3.32984 102.305 3.14984 101.996 3.12868C100.411 3.01815 97.3809 3.33222 96.7468 3.30738C92.9572 3.15957 90.4945 2.56414 86.3582 2.95657C90.6274 3.05344 88.3048 3.01253 89.8237 3.23048C90.2992 3.29882 95.8144 3.44137 88.9082 3.37806C88.0985 3.37014 75.5673 2.95874 79.6866 2.64348C77.6589 2.74407 76.0713 2.86039 74.2133 2.96719C69.6713 2.13635 71.2432 2.91687 72.563 3.34657C71.8183 3.34843 71.1099 3.35279 70.3431 3.35279C71.9726 2.90136 63.6708 2.87333 60.8542 3.10122C59.9105 3.17697 62.5493 3.32147 60.367 3.38978C59.3278 3.35812 58.1489 3.31713 57.0508 3.28175C58.6433 3.56737 55.5179 3.67744 55.5617 3.968C53.5637 3.70908 52.0354 3.16028 53.1335 2.86283C51.4822 2.98327 49.8223 3.10356 48.171 3.22462C48.9378 3.29355 49.7145 3.36187 50.4813 3.43079C45.0841 3.24823 38.1443 3.66365 37.0162 3.05325C36.301 3.05759 35.5782 3.06135 34.863 3.0657C34.6418 3.16878 34.4281 3.27205 34.2069 3.37513C30.9707 3.28573 27.7419 3.19574 24.5058 3.10634C27.3873 3.04238 28.0732 2.89566 31.095 3.0148C29.9305 2.89625 28.7444 2.77704 27.602 2.65849C23.0528 2.97766 22.4322 3.18742 15.5828 3.09243C15.2731 3.08808 10.0979 2.82043 9.92089 2.79435C9.11017 2.67514 10.3408 2.50195 9.97983 2.4417C8.97706 2.27281 2.88372 1.84871 3.00169 1.78476C4.49111 0.999869 24.9923 0.989465 30.537 0.949103C88.0481 0.530603 144.293 1.0905 201.442 0.994877C202.03 0.993397 201.774 0.877531 202.024 0.872569C203.579 0.843469 205.107 1.02405 205.682 1.0315C206.911 1.04685 206.234 0.880012 207.132 0.879893C216.407 0.881756 225.16 0.979863 234.443 0.9513C235.048 0.949437 234.431 1.08292 235.492 1.05933C236.04 1.04641 237.756 0.841614 238.993 0.838513C243.314 0.827962 246.943 0.893617 251.5 0.890512C253.992 0.888659 257.731 0.906067 260.517 0.902963C261.748 0.901643 263.03 0.807954 264.246 0.804823C265.971 0.800477 265.619 0.990403 265.884 1.0022C267.049 1.05373 267.21 0.845271 268.316 0.850231C270.373 0.860166 270.484 0.999345 273.094 0.987553C274.96 0.97886 279.229 0.868972 281.581 0.836682C287.081 0.998114 294.013 0.934026 299.144 0.880625C302.182 0.848969 302.463 1.04384 303.702 1.04321C308.066 1.03944 311.379 0.790557 315.478 0.782485C320.918 0.77197 325.739 0.936539 331.01 0.948371C331.864 0.950232 331.668 0.771686 332.507 0.767105C335.611 0.75034 339.58 0.717844 342.345 0.743303C345.427 0.771281 346.563 1.03044 349.579 0.977666C350.463 0.961995 350.722 0.734759 352.203 0.705585C354.57 0.659707 357.165 0.86009 358.816 0.882456C361.08 0.912262 359.111 0.680762 362.164 0.71181C362.289 0.71315 362.746 0.878633 363.401 0.870738C365.311 0.848384 365.121 0.718067 367.916 0.730486C368.184 0.732201 371.889 0.88988 372.258 0.890512C374.425 0.892996 378.789 0.948201 380.073 0.914681C384.659 0.795458 381.048 0.54656 384.949 1.08679C386.666 0.954563 388.369 0.820539 390.19 0.692036C388.975 0.811879 393.906 0.984814 394.253 0.973638C397.119 0.883578 395.412 0.67338 399.046 0.708148C394.246 1.19374 403.735 0.770736 405.852 0.758317C416.041 0.698103 425.303 0.81928 435.544 0.816175C438.972 0.814903 443.567 0.712256 447.194 0.71474C448.039 0.714887 447.401 0.829805 448.145 0.832288C448.887 0.83399 448.064 0.704984 448.911 0.71181C454.183 0.756535 458.313 0.999952 463.142 0.695698C463.377 0.739688 463.37 0.774448 463.759 0.822767C465.644 0.692741 468.362 0.708154 471 0.765298L473.222 0.752356L473.235 3C473.172 5.89166 473.059 8.68691 473.033 10.183C472.955 14.6574 473.139 15.8004 473.102 19.0511C473.052 23.3495 472.692 29.8034 473.286 26.9211C473.305 29.8699 473.31 32.7087 473.255 35.687C473.249 36.0185 473.098 35.79 473.094 35.9227C473.073 36.763 473.208 37.0368 473.214 37.6044C473.231 39.1436 473.069 36.6318 473.114 38.8264C473.138 39.9839 473.256 40.6413 473.259 43.8557C473.26 45.8866 473.261 47.9358 473.261 50L473.274 52.248L471 52.2613C453.37 52.2633 434.649 52.2276 416.867 52.2098C415.503 52.2086 416.401 52.3546 414.691 52.3453C408.748 52.313 398.111 52.0672 392.986 52.1007C387.862 52.1342 389.018 52.3478 385.812 52.4372C385.192 52.4546 385.7 52.3329 385.14 52.331C381.372 52.3198 376.88 52.13 373.828 52.1014C371.809 52.0823 371.971 52.2738 370.571 52.2875C368.484 52.3073 366.336 52.1139 365.223 52.1077C359.989 52.0804 356.39 52.2362 351.502 52.1567C351.694 52.1989 351.82 52.2379 351.982 52.2794C346.194 52.2726 340.414 52.2657 334.627 52.2589C334.9 52.2974 335.163 52.3362 335.436 52.3753C328.646 52.3542 329.421 51.937 330.018 52.8181C329.524 52.8491 329.001 52.8851 328.529 52.9136C328.721 52.4598 324.613 52.1276 319.386 52.0121C319.002 52.0034 316.43 52.4459 316.71 51.9231C316.039 52.051 315.639 52.1392 315.072 52.2516C313.966 52.0933 312.845 51.9369 311.74 51.7792C311.143 51.8028 310.537 51.8255 309.94 51.8491C309.852 51.9516 309.92 52.058 309.728 52.1586C306.956 52.1741 301.27 52.0474 299.08 52.0604C293.638 52.0933 288.099 52.3703 283.866 52.071C281.805 52.1016 283.852 52.3026 280.786 52.2772C280.439 52.1754 280.114 52.0778 279.753 51.9729C277.247 52.4278 276.723 52.1511 273.289 52.056C270.967 51.9915 269.446 52.1026 267.234 52.0809C266.674 52.0753 266.753 51.9418 266.37 51.9462C265.086 51.9599 261.422 52.1437 260.516 52.1487C252.302 52.1971 245.247 52.1765 237.424 52.1274C236.583 52.1225 237.673 52.2542 236.803 52.2486C235.404 52.2399 236.227 52.0374 235.416 52.0275C233.154 52.0009 233.137 52.2144 229.982 52.2256C219.594 52.2622 207.65 52.1018 196.797 52.0875C196.458 52.0875 196.478 52.2126 196.109 52.2139C193.706 52.22 191.274 52.0509 189.092 52.0527C185.472 52.0552 182.751 52.231 179.175 52.2303C172.185 52.2297 165.94 52.1397 158.751 52.1348C152.867 52.1304 147.757 52.1471 141.306 52.1465C113.125 52.144 84.3688 52.5411 55.9964 52.3299C55.2744 52.3244 55.5683 52.2138 55.3481 52.2186C53.2542 52.2664 53.0673 52.4156 52.3227 52.1033C49.6551 52.1648 48.8134 52.3994 45.5921 52.3827C43.8751 52.3739 45.157 52.0102 42.2523 52.1977C39.6295 52.3672 42.5238 52.5665 34.7241 52.3629C34.5176 52.3573 33.5013 52.1356 31.8794 52.1933C30.2499 52.2505 32.1361 52.4092 28.2135 52.457C20.8035 52.5469 11.8089 52.4404 3 52.4261L0.588085 52.4402L0.57387 50C0.577344 47.8616 0.575387 45.7341 0.563868 43.6429C0.560143 42.972 0.441641 36.5102 0.386997 35.2346C0.280819 32.7661 0.116102 33.2818 0.0757334 30.0756C0.0446856 27.5982 0.231271 25.5542 0.194014 22.6417C0.189485 22.3025 -0.00243984 21.7343 0.0230016 19.5456ZM470.249 5.68415C470.118 5.26209 469.74 4.60299 469.596 3L471 4.40392C470.307 4.4663 469.437 4.48504 468.333 4.42134C467.986 4.40147 469.857 3.92482 467.838 3.84898C468.903 3.82187 469.953 3.80464 471 3.78945L470.211 3C470.224 3.89482 470.235 4.78712 470.25 5.68415C470.25 5.68415 470.249 5.68415 470.249 5.68415ZM4.44258 3.69939C4.40781 6.43488 4.37336 9.17971 4.33858 11.9152C4.25476 10.0277 4.17109 8.13739 4.08664 6.25725C4.20522 5.40212 4.324 4.55451 4.44258 3.69939ZM297.222 48.8866C297.219 48.8866 297.216 48.8866 297.214 48.8866C300.089 48.7972 302.966 48.7076 305.842 48.6182C305.54 48.684 305.237 48.7501 304.934 48.8159C302.664 48.9196 300.392 49.0232 298.129 49.1268C297.827 49.0468 297.524 48.9667 297.222 48.8866ZM274.503 49.5835C272.667 49.5052 273.117 49.3733 272.106 49.2448C272.106 49.245 272.106 49.2452 272.106 49.2455C271.84 49.212 270.598 49.1828 270.118 49.1777C270.295 49.2603 270.524 49.3419 270.716 49.4238C266.432 49.6238 258.054 48.9133 268.9 48.627C268.738 48.7313 268.583 48.8351 268.421 48.9394C273.811 48.9102 279.819 49.1364 274.503 49.5835ZM430.346 4.05112C425.745 4.39265 424.27 4.46465 418.688 4.23056C419.477 4.13376 420.265 4.03697 421.053 3.94017C421.975 4.0389 422.89 4.13695 423.812 4.23568C423.814 4.23568 423.817 4.23568 423.82 4.23568C424.004 4.13199 424.189 4.02811 424.366 3.92442C426.356 3.96664 428.355 4.0089 430.346 4.05112ZM98.3839 49.3367C97.1015 48.6546 97.4715 49.0511 101.134 48.8972C102.402 48.8438 101.167 48.7245 101.955 48.7046C106.216 48.5961 106.557 49.0531 105.606 49.2909C103.195 49.307 100.759 49.3218 98.3917 49.3367C98.3891 49.3367 98.3865 49.3367 98.3839 49.3367ZM3.52161 34.8456C3.52161 34.843 3.52161 34.8404 3.52161 34.8378C3.68798 34.7272 3.73273 36.4447 3.89036 34.5077C3.88974 35.9813 3.88842 37.4549 3.8878 38.9358C3.8723 38.5015 3.85753 38.0579 3.84203 37.6235C3.7849 38.0069 3.72704 38.3913 3.66992 38.7747C3.86115 39.2982 3.74999 39.7846 3.68603 41.3326C3.89031 40.905 4.09475 40.4793 4.29903 40.0517C4.2382 41.8504 4.17714 43.6556 4.1163 45.4543C4.06482 45.4764 4.01325 45.499 3.96177 45.5211C4.02757 46.1991 4.09408 46.8704 4.15988 47.5485C4.09842 47.7328 4.03751 47.9103 3.97605 48.0946C4.01217 48.7294 4.04827 49.3649 4.08467 50L3 48.9153C3.18348 48.9048 3.36694 48.8943 3.55037 48.8837C3.7993 49.0326 1.99623 49.0969 5.19271 49.0591C4.46228 49.1729 3.73296 49.2864 3 49.4001L3.59993 50C3.56103 49.7491 3.52211 49.4978 3.48316 49.2459C3.49558 44.446 3.50857 39.6455 3.52161 34.8456ZM131.707 49.1268C126.421 49.1554 127.909 49.0475 129.133 48.7098C129.988 48.8488 130.852 48.9878 131.707 49.1268ZM404.066 49.4275C405.6 49.1971 407.14 48.969 408.711 48.7467C411.837 48.6182 414.964 49.0381 412.612 49.2026C409.781 49.4001 406.824 49.1791 404.066 49.4275ZM470.325 45.7299C470.218 49.5548 469.944 45.9559 469.785 45.0933C470.041 44.0352 470.019 42.5597 470.048 40.1898C470.065 42.4152 470.343 45.0973 470.326 45.7299C470.325 45.7299 470.325 45.7299 470.325 45.7299ZM342.513 49.1686C340.98 49.1755 339.455 49.2398 338.084 49.1616C338.498 48.9413 341.24 49.1418 339.279 48.8152C340.259 48.8096 341.241 48.8042 342.214 48.798C341.596 48.9333 342.427 49.0344 342.509 49.1679C342.51 49.1681 342.511 49.1683 342.513 49.1686ZM182.927 48.8672C185.935 49.128 186.505 49.0164 189.536 48.8357C189.963 49.0481 186.35 49.4038 184.086 49.4821C183.703 49.2772 183.318 49.0721 182.927 48.8672ZM94.519 4.02402C95.2414 3.75336 100.57 3.71807 103.218 3.79808C102.903 3.83823 102.586 3.8789 102.271 3.91966C99.6905 3.95443 97.0997 3.98925 94.519 4.02402ZM470.067 39.0621C470.059 39.4588 470.053 39.8348 470.048 40.1898C470.046 39.7951 470.05 39.4142 470.067 39.0621ZM346.895 2.75846C348.155 2.50328 344.409 2.41754 348.958 2.51751C348.958 2.51726 348.958 2.51702 348.958 2.51677C351.966 2.5826 352.63 2.60017 355.417 2.62004C354.414 2.94786 348.76 3.06503 356.553 3.13271C356.655 3.13301 356.451 2.93795 357.696 2.96463C358.081 2.97292 359.31 3.13301 361.181 3.17958C361.786 3.19449 366.329 3.24386 360.136 3.24696C360.321 3.47547 359.988 3.70677 360.003 3.92845C357.585 3.99287 355.727 3.54542 353.17 3.5564C349.373 3.57378 347.44 4.02626 346.71 3.43262C349.903 3.28677 355.386 3.28327 356.101 3.64025C359.19 3.6446 360.077 3.35212 357.586 3.20741C346.917 3.39122 354.657 2.77327 345.315 3.00674C345.205 3.0893 344.821 3.17815 344.879 3.25575C342.028 2.96521 346.445 2.84973 346.895 2.75846ZM369.205 3.38978C367.361 3.56427 365.524 3.74016 363.688 3.91526C363.688 3.63088 364.7 3.37567 367.605 3.21547C368.136 3.27379 368.674 3.33208 369.205 3.38978ZM214.145 3.46448C213.88 3.61909 213.172 3.76078 212.656 3.90794C212.096 3.77754 198.824 3.65245 205.576 3.52454C206.557 3.50591 212.538 3.77931 214.145 3.46448ZM162.04 49.1001C163.603 49.2038 165.16 49.3077 166.715 49.4114C164.321 49.4772 161.924 49.5447 159.529 49.6117C160.368 49.4412 161.201 49.2706 162.04 49.1001ZM429.511 49.6988C428.851 49.693 431.044 49.4804 428.443 49.5139C430.382 49.3779 432.198 49.2628 434.093 49.1349C434.661 49.2355 435.234 49.3357 435.802 49.4363C436.244 49.3717 436.695 49.3075 437.138 49.2429C436.872 49.3895 436.636 49.5326 436.356 49.6816C433.163 49.3674 432.431 49.7237 429.511 49.6988ZM334.58 50.2719C334.006 49.9534 338.629 49.764 334.081 49.7131C334.943 49.5039 336.33 49.3941 338.992 49.3755C339.419 49.4555 339.846 49.535 340.273 49.615C340.332 49.4008 341.017 49.3212 342.513 49.1686C342.514 49.1688 342.515 49.1691 342.517 49.1693C346.563 49.1538 346.321 49.2252 347.294 49.5773C343.011 49.3786 342.882 49.7002 339.963 49.8915C337.957 50.023 335.339 49.9634 334.58 50.2719ZM228.286 3.46082C225.257 3.72967 227.976 3.98043 222.601 3.69482C222.947 3.62651 223.296 3.55879 223.642 3.49048C225.19 3.47993 226.738 3.47013 228.286 3.46082ZM319.629 49.1803C319.976 49.6733 322.828 50.0571 323.315 49.255C320.535 49.0917 321.893 49.546 319.629 49.1803ZM471.097 47.0343C471.091 48.42 471.049 49.3785 470.986 50L471 49.9856C469.555 49.8379 469.932 49.5728 471 49.3682L470.368 50C470.321 49.7556 470.278 49.475 470.239 49.1718C470.34 48.8326 470.442 48.4938 470.542 48.162C470.497 47.2256 470.45 46.2891 470.405 45.3527C470.636 45.913 470.867 46.474 471.097 47.0343ZM225.397 49.7219C229.482 49.3698 220.988 49.5261 223.841 49.3063C226.119 49.1306 229.122 49.4853 227.986 49.7076C227.197 49.7138 226.319 49.7182 225.405 49.7219C225.402 49.7219 225.4 49.7219 225.397 49.7219ZM249.035 49.6212C248.364 49.245 249.331 49.3547 246.103 49.4224C245.182 49.4416 237.858 49.3003 240.933 49.6121C243.55 49.6121 246.315 49.6175 249.035 49.6212ZM453.249 3.4535C453.2 3.28968 458.839 2.92997 459.563 3.01992C459.563 3.01968 459.563 3.01943 459.563 3.01919C461.517 3.26446 455.568 3.29931 458.148 3.63586C452.434 3.33972 450.725 4.05603 451.123 3.1122C454.489 3.0708 452.895 3.26536 453.249 3.4535ZM24.549 3.25282C24.5464 3.25282 24.5438 3.25282 24.5412 3.25282C24.9199 3.26053 28.0404 3.50095 27.6609 3.58423C23.9084 3.51282 24.5771 3.35457 21.0836 3.61462C20.892 3.53086 20.7279 3.44962 20.5217 3.36524C21.9079 3.31557 22.6762 3.21494 24.549 3.25282ZM199.796 3.13418C201.175 3.09133 203.691 3.26887 205.262 3.25831C200.263 3.94011 194.289 3.30433 199.796 3.13418ZM39.5451 49.455C39.549 49.4547 39.553 49.4545 39.5569 49.4542C39.5557 49.4546 39.5542 49.455 39.553 49.4553C39.5504 49.4552 39.5477 49.4551 39.5451 49.455ZM306.641 3.54321C306.463 3.49895 306.363 3.46051 306.327 3.42676C306.327 3.42359 306.327 3.42042 306.327 3.41724C306.423 3.45868 306.525 3.50059 306.641 3.54321ZM441.528 3.50293C439.179 3.27447 447.005 2.91125 449.536 2.99795C449.359 3.10223 449.331 3.19677 448.919 3.31654C446.876 3.0465 441.919 3.54143 441.528 3.50293ZM369.05 49.5809C375.236 49.5871 367.185 50.4892 366.854 49.7695C366.866 49.7556 368.89 49.5822 369.05 49.5809ZM470.592 22.3122C470.865 23.8883 470.937 20.721 470.89 25.7856C470.819 26.0803 470.748 26.3749 470.678 26.6696C470.649 25.2175 470.62 23.7644 470.592 22.3122ZM409.575 50.7652C417.361 50.6131 424.807 50.3447 419.736 49.5915C419.147 49.6157 418.549 49.6391 417.96 49.6633C417.871 50.0308 415.697 49.8302 412.514 49.8182C412.06 49.9641 410.295 49.9978 409.964 50.1218C409.323 50.3614 411.352 50.5299 409.575 50.7652ZM80.8678 50.1672C80.9932 50.1045 81.1157 50.0414 81.241 49.9793C82.4725 49.9086 83.707 49.8381 84.9384 49.7673C84.7395 49.8877 84.5401 50.008 84.3412 50.1284C83.1841 50.1414 82.0327 50.1545 80.8757 50.1676C80.873 50.1674 80.8704 50.1673 80.8678 50.1672ZM376.792 2.61455C376.085 3.30486 378.556 3.17772 383.57 2.82877C381.313 2.75736 379.048 2.68596 376.792 2.61455ZM284.464 50.4854C284.302 50.2893 284.142 50.0938 283.972 49.8977C281.311 50.102 281.805 50.3266 283.081 50.5861C283.545 50.5526 284 50.5189 284.464 50.4854ZM246.123 50.5689C247.227 50.6098 246.664 50.4515 246.779 50.4547C249.574 50.5379 249.967 50.6105 253.396 50.4913C253.816 50.4497 254.229 50.4059 254.649 50.3631C253.064 49.9522 251.913 50.1761 248.559 49.9347C249.164 50.0756 249.766 50.2168 250.371 50.3584C248.506 50.3286 246.648 50.2992 244.783 50.2694C244.562 50.3128 244.34 50.3559 244.119 50.3994C244.783 50.4552 245.467 50.518 246.123 50.5689ZM66.6286 49.9889C64.8149 49.9727 62.9927 49.9559 61.1789 49.9398C61.1126 50.041 61.0488 50.1429 60.9825 50.2441C62.8622 50.1591 64.7489 50.0739 66.6286 49.9889ZM339.551 2.92911C339.408 2.96501 339.267 3.00113 339.143 3.03787C339.155 2.9931 339.312 2.95815 339.551 2.92911ZM19.7634 2.69767C17.7066 2.6269 14.7427 2.67337 12.4866 2.65849C12.664 2.91239 18.3981 2.84221 20.4117 2.99612C20.7352 2.95056 20.6328 2.72746 19.7634 2.69767ZM466.571 50.0746C466.055 50.2012 465.539 50.3273 465.031 50.4539C463.785 50.4403 462.536 50.4258 461.282 50.4122C461.246 50.5159 461.209 50.6205 461.172 50.7242C466.694 50.5895 465.421 50.8885 468.154 51.1834C467.624 50.814 467.102 50.4446 466.571 50.0746ZM8.91753 50.6465C12.9065 50.5764 14.3212 50.4453 12.0726 50.1342C10.6648 50.2056 9.24878 50.2771 7.84098 50.3485C8.20216 50.4478 8.56374 50.5472 8.91753 50.6465ZM266.906 2.69474C263.568 2.81098 263.512 2.39349 260.25 2.62663C261.997 2.70361 263.744 2.78145 265.483 2.85843C265.953 2.804 266.436 2.74918 266.906 2.69474ZM430.617 1.54819C429.209 1.40296 426.576 2.09334 422.617 1.58372C421.674 1.73582 421.082 1.8811 420.272 2.0301C419.8 1.86803 419.264 1.7039 418.814 1.54307C418.811 1.54307 418.809 1.54307 418.806 1.54307C415.215 1.59771 417.543 1.80097 417.462 1.97298C417.424 2.04428 414.759 1.92509 415.592 2.08027C417.03 2.34666 422.402 2.19348 422.417 2.51824C420.529 2.4121 416.843 2.50079 417.934 2.71745C419.128 2.95525 422.602 2.55672 424.814 2.75407C421.644 2.23501 428.191 2.39534 428.935 2.79398C432.777 2.48786 429.246 2.36298 425.309 2.37726C427.712 2.07175 424.174 2.23681 423.592 1.98287C426.07 1.82957 434.576 1.95736 430.617 1.54819ZM377.148 50.889C379.803 50.8693 383.951 51.0439 385.768 50.7861C386.827 50.6359 382.67 50.5195 385.537 50.2837C382.95 50.3066 382.36 50.3988 382.802 50.6055C382.212 50.6304 381.615 50.6546 381.026 50.6788C380.753 50.6384 380.474 50.5986 380.201 50.5583C379.891 50.6434 379.58 50.7277 379.277 50.8128C378.651 50.796 378.018 50.7793 377.392 50.7619C377.318 50.8047 377.192 50.8419 377.148 50.889ZM171.062 2.70756C171.8 2.70508 172.53 2.70261 173.267 2.6995C173.186 2.64915 173.089 2.59672 172.996 2.54497C172.929 2.50408 172.862 2.46319 172.795 2.4223C173.222 2.56839 176.734 2.81122 178.213 2.6552C178.957 2.57693 177.265 2.29906 180.418 2.25055C178.133 2.26484 176.016 2.30276 173.797 2.32635C173.996 2.24377 174.187 2.1603 174.386 2.07771C174.385 2.07759 174.384 2.07747 174.383 2.07734C173.645 2.05872 172.9 2.03921 172.163 2.02058C171.794 2.24972 171.431 2.47843 171.062 2.70756ZM286.625 50.8732C289.139 50.7112 289.981 50.627 288.794 50.3649C288.791 50.3648 288.788 50.3647 288.786 50.3646C287.849 50.4807 286.913 50.5967 285.976 50.7128C286.19 50.7662 286.403 50.8198 286.625 50.8732ZM317.894 2.06416C312.549 3.05952 324.587 2.44935 322.295 2.1103C322.191 2.09478 318.395 2.17407 317.894 2.06416ZM471.403 46.0521C471.41 47.3652 471.417 48.681 471.424 50L471.426 50.4215L471 50.4239C470.845 50.4248 470.69 50.4256 470.536 50.4265C470.689 50.4819 470.845 50.5372 471 50.5926L471.596 50.5891L471.593 50C471.659 49.8123 471.726 49.6244 471.793 49.439C471.663 48.3108 471.533 47.1802 471.403 46.0521ZM26.2843 51.0984C27.8286 51.3717 31.7928 51.4706 33.73 51.1735C32.7125 51.1387 31.6946 51.1039 30.6771 51.0691C32.6007 51.035 34.5028 50.9974 36.4411 50.9651C36.5443 50.5845 34.3104 50.8053 30.9482 50.7004C30.4277 50.6835 27.0996 50.211 25.9503 50.5671C25.7192 50.6403 29.2595 50.6901 26.799 50.9029C27.875 50.9196 28.8035 50.9159 29.8205 50.9252C29.8943 51.0159 29.9673 51.1066 30.0484 51.1973C28.7908 51.1645 27.5419 51.1313 26.2843 51.0984ZM392.605 50.8593C396.252 50.8803 396.702 50.7282 397.462 50.4594C395.766 50.4898 394.069 50.5198 392.373 50.5502C392.454 50.653 392.524 50.7559 392.605 50.8593ZM58.8804 51.1856C60.8769 51.2295 60.0218 51.0108 60.8253 50.9692C63.8627 50.8127 65.9346 50.9691 68.935 50.871C68.736 50.9132 68.553 50.9527 68.3614 50.9937C68.364 50.9937 68.3666 50.9937 68.3692 50.9937C82.5768 51.1781 75.1141 50.6819 66.6129 50.7626C66.4138 50.6813 66.2227 50.5998 66.0235 50.5191C62.2191 50.6613 58.7107 50.7981 58.8804 51.1856ZM365.386 2.0301C365.223 1.97919 366.602 1.65561 364.014 1.80709C361.965 2.27953 365.326 2.04504 366.167 2.22675C365.467 2.27208 364.751 2.31618 364.057 2.36151C368.245 2.49501 368.857 2.38268 367.33 2.03743C367.221 2.01423 365.548 2.08086 365.386 2.0301ZM337.862 1.79721C337.287 2.4933 342.572 2.18028 342.38 1.96419C341.651 1.95557 341.084 2.07343 340.31 2.02132C339.528 1.96916 339.328 1.80657 337.862 1.79721ZM472.033 21.2867C472.036 21.1319 472.328 19.5763 472.099 19.7308C471.557 21.6552 471.906 25.5327 472.095 24.8544C472.085 23.5719 472.004 22.7167 472.033 21.2867C472.033 21.2867 472.033 21.2867 472.033 21.2867ZM1.73752 49.2302C1.7322 49.2503 1.71951 49.5562 1.70614 50L1.71372 51.3014L3 51.2939C4.17643 51.3293 6.32211 51.3696 6.68579 51.2903C7.09858 51.1674 7.30344 51.0356 7.61308 50.9084C6.31493 50.98 4.20967 50.975 3 51.033L1.97306 51.039L1.96701 50C1.92949 49.2171 1.8656 48.8093 1.73752 49.238C1.73752 49.2354 1.73752 49.2328 1.73752 49.2302Z" fill="#EDDDD1"/>
<defs>
<linearGradient id="paint0_linear_3312_5" x1="237" y1="3" x2="237" y2="50" gradientUnits="userSpaceOnUse">
<stop stop-color="#A90700"/>
<stop offset="0.158654" stop-color="#9A0501"/>
<stop offset="0.533654" stop-color="#3D0201"/>
<stop offset="0.826923" stop-color="#5E0401"/>
<stop offset="1" stop-color="#7F0601"/>
</linearGradient>
</defs>
</svg>
