<svg width="36" height="38" viewBox="0 0 36 38" fill="none" xmlns="http://www.w3.org/2000/svg">
<path d="M13.8819 12.1177C13.8819 11.9616 13.9439 11.812 14.0542 11.7017C14.1645 11.5914 14.3141 11.5294 14.4701 11.5294H21.529C21.685 11.5294 21.8346 11.5914 21.9449 11.7017C22.0552 11.812 22.1172 11.9616 22.1172 12.1177C22.1172 12.2737 22.0552 12.4233 21.9449 12.5336C21.8346 12.6439 21.685 12.7059 21.529 12.7059H14.4701C14.3141 12.7059 14.1645 12.6439 14.0542 12.5336C13.9439 12.4233 13.8819 12.2737 13.8819 12.1177ZM13.2937 18.5882C12.9816 18.5882 12.6824 18.7122 12.4618 18.9328C12.2411 19.1535 12.1172 19.4527 12.1172 19.7647C12.1172 20.0767 12.2411 20.376 12.4618 20.5966C12.6824 20.8172 12.9816 20.9412 13.2937 20.9412C13.6057 20.9412 13.9049 20.8172 14.1255 20.5966C14.3462 20.376 14.4701 20.0767 14.4701 19.7647C14.4701 19.4527 14.3462 19.1535 14.1255 18.9328C13.9049 18.7122 13.6057 18.5882 13.2937 18.5882ZM22.7054 18.5882C22.3934 18.5882 22.0942 18.7122 21.8735 18.9328C21.6529 19.1535 21.529 19.4527 21.529 19.7647C21.529 20.0767 21.6529 20.376 21.8735 20.5966C22.0942 20.8172 22.3934 20.9412 22.7054 20.9412C23.0174 20.9412 23.3167 20.8172 23.5373 20.5966C23.7579 20.376 23.8819 20.0767 23.8819 19.7647C23.8819 19.4527 23.7579 19.1535 23.5373 18.9328C23.3167 18.7122 23.0174 18.5882 22.7054 18.5882ZM16.8231 19.7647C16.8231 19.4527 16.947 19.1535 17.1677 18.9328C17.3883 18.7122 17.6875 18.5882 17.9995 18.5882C18.3116 18.5882 18.6108 18.7122 18.8314 18.9328C19.0521 19.1535 19.176 19.4527 19.176 19.7647C19.176 20.0767 19.0521 20.376 18.8314 20.5966C18.6108 20.8172 18.3116 20.9412 17.9995 20.9412C17.6875 20.9412 17.3883 20.8172 17.1677 20.5966C16.947 20.376 16.8231 20.0767 16.8231 19.7647ZM13.2937 23.2941C12.9816 23.2941 12.6824 23.4181 12.4618 23.6387C12.2411 23.8593 12.1172 24.1586 12.1172 24.4706C12.1172 24.7826 12.2411 25.0819 12.4618 25.3025C12.6824 25.5231 12.9816 25.6471 13.2937 25.6471C13.6057 25.6471 13.9049 25.5231 14.1255 25.3025C14.3462 25.0819 14.4701 24.7826 14.4701 24.4706C14.4701 24.1586 14.3462 23.8593 14.1255 23.6387C13.9049 23.4181 13.6057 23.2941 13.2937 23.2941ZM16.8231 24.4706C16.8231 24.1586 16.947 23.8593 17.1677 23.6387C17.3883 23.4181 17.6875 23.2941 17.9995 23.2941C18.3116 23.2941 18.6108 23.4181 18.8314 23.6387C19.0521 23.8593 19.176 24.1586 19.176 24.4706C19.176 24.7826 19.0521 25.0819 18.8314 25.3025C18.6108 25.5231 18.3116 25.6471 17.9995 25.6471C17.6875 25.6471 17.3883 25.5231 17.1677 25.3025C16.947 25.0819 16.8231 24.7826 16.8231 24.4706Z" fill="#FFF9E9"/>
<g filter="url(#filter0_d_3238_1419)">
<path d="M19.9094 8H16.0906C14.7965 8 13.7871 8 12.9788 8.06588C12.1576 8.13294 11.4906 8.27176 10.8906 8.57647C9.89417 9.08408 9.08408 9.89417 8.57647 10.8906C8.27059 11.4906 8.13294 12.1576 8.06588 12.9788C8 13.7882 8 14.7953 8 16.0906V21.0859C8 22.38 8 23.3894 8.06588 24.1976C8.13294 25.0188 8.27176 25.6859 8.57647 26.2859C9.08408 27.2823 9.89417 28.0924 10.8906 28.6C11.4906 28.9059 12.1576 29.0435 12.9788 29.1106C13.7882 29.1765 14.7953 29.1765 16.0906 29.1765H19.9094C21.2035 29.1765 22.2129 29.1765 23.0212 29.1106C23.8424 29.0435 24.5094 28.9047 25.1094 28.6C26.1058 28.0924 26.9159 27.2823 27.4235 26.2859C27.7294 25.6859 27.8671 25.0188 27.9341 24.1976C28 23.3894 28 22.3812 28 21.0859V16.0906C28 14.7965 28 13.7871 27.9341 12.9788C27.8671 12.1576 27.7282 11.4906 27.4235 10.8906C26.9159 9.89417 26.1058 9.08408 25.1094 8.57647C24.5094 8.27059 23.8424 8.13294 23.0212 8.06588C22.2118 8 21.2047 8 19.9094 8ZM11.4235 9.62471C11.8306 9.41765 12.3247 9.3 13.0741 9.23882C13.8294 9.17647 14.7906 9.17647 16.1176 9.17647H19.8824C21.2094 9.17647 22.1706 9.17647 22.9247 9.23882C23.6741 9.3 24.1682 9.41765 24.5753 9.62471C25.3504 10.0195 25.9805 10.6496 26.3753 11.4247C26.5824 11.8318 26.7 12.3259 26.7612 13.0753C26.8059 13.6129 26.8188 14.2541 26.8224 15.0588H9.17647C9.18118 14.2541 9.19294 13.6118 9.23765 13.0753C9.29882 12.3259 9.41647 11.8318 9.62353 11.4247C10.0183 10.6496 10.6485 10.0195 11.4235 9.62471ZM9.17647 16.2353H26.8235V21.0588C26.8235 22.3859 26.8235 23.3471 26.7612 24.1012C26.7 24.8506 26.5824 25.3447 26.3753 25.7518C25.9805 26.5268 25.3504 27.1569 24.5753 27.5518C24.1682 27.7588 23.6741 27.8765 22.9259 27.9376C22.1706 28 21.2094 28 19.8824 28H16.1176C14.7906 28 13.8294 28 13.0753 27.9376C12.3259 27.8765 11.8318 27.7588 11.4247 27.5518C10.6496 27.1569 10.0195 26.5268 9.62471 25.7518C9.41765 25.3447 9.3 24.8506 9.23882 24.1024C9.17647 23.3471 9.17647 22.3859 9.17647 21.0588V16.2353Z" fill="#FFF9E9"/>
</g>
<defs>
<filter id="filter0_d_3238_1419" x="0.16" y="0.16" width="35.68" height="36.8565" filterUnits="userSpaceOnUse" color-interpolation-filters="sRGB">
<feFlood flood-opacity="0" result="BackgroundImageFix"/>
<feColorMatrix in="SourceAlpha" type="matrix" values="0 0 0 0 0 0 0 0 0 0 0 0 0 0 0 0 0 0 127 0" result="hardAlpha"/>
<feOffset/>
<feGaussianBlur stdDeviation="3.92"/>
<feComposite in2="hardAlpha" operator="out"/>
<feColorMatrix type="matrix" values="0 0 0 0 0.898039 0 0 0 0 0.764706 0 0 0 0 0.517647 0 0 0 0.54 0"/>
<feBlend mode="normal" in2="BackgroundImageFix" result="effect1_dropShadow_3238_1419"/>
<feBlend mode="normal" in="SourceGraphic" in2="effect1_dropShadow_3238_1419" result="shape"/>
</filter>
</defs>
</svg>
