<svg width="229" height="92" viewBox="0 0 229 92" fill="none" xmlns="http://www.w3.org/2000/svg">
<path d="M37.998 1.71777C41.0941 0.335583 44.8533 0.4356 47.5908 0.949219L48.6973 1.15723L47.708 1.69434C46.5973 2.29676 44.9115 3.2945 43.7578 5.0293C42.6179 6.74361 41.9661 9.22683 43.0137 12.873C44.0171 16.3653 47.5484 17.9075 52.3242 18.5391C57.0778 19.1676 62.8266 18.8652 67.9844 18.8652H228.032L227.884 19.376L212.384 72.793L212.301 73.082H67.9844C63.9791 73.082 58.2465 73.0829 53.2354 74.0615C50.7304 74.5507 48.432 75.28 46.6289 76.3574C44.8309 77.4319 43.5454 78.8397 43.0137 80.6904C42.3197 83.1059 42.9411 85.189 44.0176 86.8311C45.1005 88.4828 46.6356 89.6713 47.708 90.2529L48.6973 90.7891L47.5908 90.9971C44.8658 91.5083 41.1051 91.7363 38.0049 90.416C36.4452 89.7518 35.0494 88.6937 34.0469 87.0859C33.0457 85.4803 32.4541 83.3542 32.4541 80.5801V74.457C31.708 75.8075 30.611 77.3208 29.1748 78.5654C27.1066 80.3577 24.3146 81.6085 20.8672 80.9736C20.1481 80.8411 19.4197 80.3844 18.7148 79.7109C18.0048 79.0325 17.2893 78.105 16.5977 76.9746C15.2139 74.7129 13.9021 71.5982 12.917 67.9248L12.9131 67.9111C12.2067 64.8506 10.7995 60.0954 8.87598 55.7725C7.91417 53.611 6.82817 51.5679 5.64258 49.9023C4.45285 48.231 3.18531 46.9717 1.87305 46.333L1.13379 45.9736L1.87305 45.6133C3.18521 44.9745 4.45293 43.7161 5.64258 42.0449C6.82822 40.3793 7.91413 38.3364 8.87598 36.1748C10.7997 31.8516 12.2067 27.0958 12.9131 24.0352L12.916 24.0215H12.917C13.9024 20.3471 15.2146 17.2739 16.5986 15.0332C17.2903 13.9134 18.0051 12.9932 18.7129 12.3086C19.4167 11.6279 20.137 11.1576 20.8418 10.9795L20.8545 10.9756L20.8672 10.9736C24.3145 10.3388 27.1067 11.5886 29.1748 13.3809C30.6109 14.6254 31.708 16.1388 32.4541 17.4893V11.3672C32.4541 8.7124 33.0469 6.64758 34.0479 5.06641C35.0493 3.48455 36.4423 2.41238 37.998 1.71777Z" fill="#131313" fill-opacity="0.8" stroke="#FFF9E9" stroke-width="0.8"/>
</svg>
