<svg width="573" height="95" viewBox="0 0 573 95" fill="none" xmlns="http://www.w3.org/2000/svg">
<g clip-path="url(#clip0_350_4)">
<rect y="0.551514" width="573" height="73.8473" fill="#181818"/>
<rect x="560" y="37.0488" width="18.4537" height="18.4537" transform="rotate(-45 560 37.0488)" fill="#E2DCCB"/>
<rect x="-13" y="37.0488" width="18.4537" height="18.4537" transform="rotate(-45 -13 37.0488)" fill="#E2DCCB"/>
</g>
<rect x="0.5" y="1.05151" width="572" height="72.8473" stroke="#E2DCCB"/>
<path d="M256 74.3823C257.048 78.5084 262.605 87.2106 270.153 84.5099C277.142 98.0134 298.983 98.0134 306.322 84.5099C310.515 84.5099 317.435 81.5842 317.854 74.3823H296.362L287.5 84.51L278.016 74.3823H256Z" fill="#181818" stroke="#E2DCCB" stroke-width="0.7"/>
<path d="M287.484 84.01L296.347 74.0099L287.484 64.103L278 73.8823L287.484 84.01Z" fill="#E2DCCB" stroke="#E2DCCB" stroke-width="0.7"/>
<defs>
<clipPath id="clip0_350_4">
<rect y="0.551514" width="573" height="73.8473" fill="white"/>
</clipPath>
</defs>
</svg>
