<svg width="313" height="92" viewBox="0 0 313 92" fill="none" xmlns="http://www.w3.org/2000/svg">
<path d="M274.502 1.71777C271.406 0.335583 267.647 0.4356 264.909 0.949219L263.803 1.15723L264.792 1.69434C265.903 2.29676 267.589 3.2945 268.742 5.0293C269.882 6.74361 270.534 9.22683 269.486 12.873C268.483 16.3653 264.952 17.9075 260.176 18.5391C255.422 19.1676 249.673 18.8652 244.516 18.8652H17.1992L17.1162 19.1533L1.61621 72.5703L1.46777 73.082H244.516C248.521 73.082 254.254 73.0829 259.265 74.0615C261.77 74.5507 264.068 75.28 265.871 76.3574C267.669 77.4319 268.955 78.8397 269.486 80.6904C270.18 83.1059 269.559 85.189 268.482 86.8311C267.4 88.4828 265.864 89.6713 264.792 90.2529L263.803 90.7891L264.909 90.9971C267.634 91.5083 271.395 91.7363 274.495 90.416C276.055 89.7518 277.451 88.6937 278.453 87.0859C279.454 85.4803 280.046 83.3542 280.046 80.5801V74.457C280.792 75.8075 281.889 77.3208 283.325 78.5654C285.393 80.3577 288.185 81.6085 291.633 80.9736C292.352 80.8411 293.08 80.3844 293.785 79.7109C294.495 79.0325 295.211 78.105 295.902 76.9746C297.286 74.7129 298.598 71.5982 299.583 67.9248L299.587 67.9111C300.293 64.8506 301.7 60.0954 303.624 55.7725C304.586 53.611 305.672 51.5679 306.857 49.9023C308.047 48.231 309.315 46.9717 310.627 46.333L311.366 45.9736L310.627 45.6133C309.315 44.9745 308.047 43.7161 306.857 42.0449C305.672 40.3793 304.586 38.3364 303.624 36.1748C301.7 31.8516 300.293 27.0958 299.587 24.0352L299.584 24.0215H299.583C298.598 20.3471 297.285 17.2739 295.901 15.0332C295.21 13.9134 294.495 12.9932 293.787 12.3086C293.083 11.6279 292.363 11.1576 291.658 10.9795L291.646 10.9756L291.633 10.9736C288.185 10.3388 285.393 11.5886 283.325 13.3809C281.889 14.6254 280.792 16.1388 280.046 17.4893V11.3672C280.046 8.7124 279.453 6.64758 278.452 5.06641C277.451 3.48455 276.058 2.41238 274.502 1.71777Z" fill="#131313" fill-opacity="0.8" stroke="#FFF9E9" stroke-width="0.8"/>
</svg>
