<svg width="132" height="61" viewBox="0 0 132 61" fill="none" xmlns="http://www.w3.org/2000/svg">
<g clip-path="url(#clip0_2410_5163)">
<mask id="mask0_2410_5163" style="mask-type:luminance" maskUnits="userSpaceOnUse" x="0" y="1" width="82" height="74">
<path d="M3.19021 34.8995C4.20663 33.4956 5.51109 32.3139 6.98279 31.4034C7.02726 31.3759 7.06112 31.342 7.08441 31.3039C7.15641 31.217 7.17758 31.0942 7.095 30.9693C6.29668 29.7517 5.60637 28.4578 5.08968 27.0941C4.1389 24.5848 3.77042 21.8849 4.069 19.2146C4.35487 16.6671 5.2506 14.2065 6.56561 12.0148C7.90814 9.77016 9.68903 7.80293 11.7367 6.18086C13.8394 4.51433 16.245 3.21413 18.7903 2.36922C21.3885 1.50525 24.135 1.11349 26.8709 1.26384C28.2748 1.34219 29.6661 1.56665 31.0234 1.92876C31.7476 2.12145 32.4655 2.34804 33.1833 2.55768C33.9329 2.77579 34.6678 3.0405 35.3814 3.35601C37.4481 4.27081 39.3454 5.57312 40.9145 7.19518C40.8616 7.39424 41.0268 7.66953 41.3021 7.62082C41.3042 7.62082 41.3084 7.62082 41.3105 7.62082C41.7171 8.07187 42.1004 8.5462 42.454 9.04172C44.1142 11.3647 45.0438 14.0519 45.4652 16.8598C45.8781 19.5979 45.8294 22.4947 44.9549 25.1375C44.5144 26.4694 43.841 27.7336 42.9093 28.7882C42.4667 29.29 41.9606 29.7326 41.4567 30.1731C41.0586 30.5204 40.6393 30.8422 40.2009 31.1344C38.4285 32.3245 36.3936 33.0636 34.2951 33.4151C32.1987 33.7645 30.0239 33.7221 27.9382 33.324C25.9095 32.9365 23.9338 32.2187 22.1847 31.109C20.5796 30.0926 19.1757 28.7268 18.2757 27.0412C17.3588 25.3217 17.0581 23.3396 17.3334 21.4169C17.5007 20.2585 17.8501 19.1256 18.3223 18.0563C18.7882 16.9996 19.5865 16.125 20.5288 15.4643C22.3859 14.162 24.8105 13.5966 27.0488 13.9799C28.1287 14.1641 29.1727 14.5665 30.0493 15.2272C30.9218 15.8879 31.7053 16.881 32.0039 17.9483C32.2897 18.9647 32.2537 20.0913 31.7307 21.0251C31.3157 21.7705 30.6232 22.355 29.8122 22.6239C29.0562 22.8716 28.2198 22.8526 27.5252 22.4418C26.6846 21.9441 26.278 20.9891 26.1551 20.0531C26.134 19.8837 26.0281 19.7355 25.8375 19.7355C25.6829 19.7376 25.4987 19.8816 25.5199 20.0531C25.6596 21.1098 26.0557 22.1432 26.9302 22.8039C28.4781 23.9749 30.7355 23.3566 31.8853 21.923C32.5671 21.0717 32.8805 19.9917 32.8085 18.9054C32.7217 17.6222 32.1415 16.4448 31.2818 15.5003C29.6703 13.7279 27.1589 13.0609 24.8296 13.2705C22.4388 13.4865 20.0375 14.5665 18.5319 16.4829C17.7463 17.4845 17.2974 18.7487 16.9798 19.9727C16.6982 21.059 16.5563 22.1877 16.6113 23.31C16.7108 25.3577 17.4753 27.291 18.7416 28.8962C20.0142 30.5076 21.74 31.738 23.5929 32.5977C25.6067 33.5337 27.792 34.0673 30.0028 34.2325C32.2432 34.3976 34.5322 34.1711 36.6773 33.5019C37.7488 33.1673 38.7907 32.7205 39.7626 32.1572C40.7642 31.577 41.6345 30.8549 42.5006 30.0926C44.7664 28.1042 45.8781 25.1946 46.219 22.2575C46.2614 21.8933 46.2931 21.5291 46.3143 21.1606C47.9448 20.8578 49.6325 20.8599 51.2652 21.1479C54.162 21.6583 56.9487 23.0178 58.9964 25.1502C61.0208 27.2593 62.1113 30.0545 61.872 32.9831C61.8699 33.0106 61.8699 33.036 61.8742 33.0593C61.7026 33.0572 61.5332 33.0572 61.3617 33.0593C58.5708 33.0974 55.7565 33.6417 53.2345 34.8635C50.8396 36.0218 48.7707 37.8345 47.4684 40.1681C45.7426 43.264 45.804 47.0078 47.1381 50.235C48.506 53.5406 51.1318 56.3824 54.5326 57.6148C57.3786 58.6482 60.8853 58.5254 63.4517 56.8144C65.4528 55.4803 66.7615 53.2632 66.9161 50.8597C67.0664 48.5261 66.0309 46.2582 64.0997 44.9199C62.9499 44.1216 61.5777 43.7171 60.1992 43.5668C59.8032 43.5223 59.3988 43.4905 59.0006 43.499C58.484 43.5117 57.9482 43.6684 57.4717 43.859C56.5104 44.2444 55.6358 44.8733 55.0535 45.7415C54.5432 46.5039 54.2827 47.5118 54.4267 48.4224C54.5517 49.2207 55.0048 49.964 55.6316 50.468C56.2478 50.9656 57.0398 51.2769 57.8423 51.2112C58.7656 51.135 59.5088 50.6162 60.0552 49.8899C60.3029 49.5638 59.7502 49.2482 59.5067 49.5701C59.0324 50.199 58.3336 50.6141 57.5332 50.5802C56.8386 50.5527 56.1885 50.1927 55.7248 49.6866C54.4627 48.3123 55.0789 46.2815 56.4045 45.1994C57.1202 44.615 58.1536 44.1237 59.0938 44.1364C59.8392 44.1449 60.5825 44.2211 61.3088 44.3947C62.4862 44.6743 63.6063 45.2058 64.4851 46.0465C65.2517 46.7813 65.7959 47.7109 66.0754 48.7294C66.6323 50.7792 66.1071 53.0578 64.79 54.7307C63.1383 56.8271 60.5126 57.7122 57.9058 57.6148C56.2033 57.5534 54.5538 57.0918 53.0736 56.2426C51.5977 55.3956 50.3165 54.2119 49.3149 52.8375C47.3308 50.1143 46.2826 46.5462 46.9941 43.2025C47.5616 40.5386 49.2853 38.2072 51.4812 36.638C53.6157 35.1113 56.161 34.2473 58.7465 33.8873C61.4845 33.5061 64.3051 33.684 66.9923 34.3151C69.7345 34.9567 72.373 36.0811 74.6748 37.7138C76.894 39.2871 78.7638 41.3645 79.9391 43.8293C81.2286 46.5293 81.5357 49.623 81.4574 52.5834C81.4235 53.837 81.2901 55.0906 81.0571 56.3231C80.928 56.3781 80.8348 56.5073 80.8877 56.6831C80.9068 56.7424 80.9279 56.8017 80.947 56.8609C80.6654 58.1569 80.2694 59.4253 79.7464 60.6451C78.7321 63.0062 77.273 65.1576 75.471 66.9872C73.6944 68.7956 71.6107 70.2758 69.3555 71.4299C67.0347 72.6179 64.5401 73.4501 61.9843 73.9519C59.3945 74.4602 56.7391 74.619 54.1069 74.4432C51.4409 74.2653 48.7982 73.7296 46.2804 72.836C43.769 71.9445 41.3868 70.6782 39.2607 69.0667C37.0564 67.398 35.1484 65.3397 33.6386 63.0252C33.5666 62.9151 33.4586 62.8749 33.357 62.8812C33.3083 62.8791 33.2553 62.8876 33.2024 62.9109C32.5629 63.2073 31.9149 63.4869 31.2564 63.7431C28.8699 64.6748 26.3627 65.3419 23.8089 65.5854C21.6003 65.7993 19.362 65.704 17.1915 65.2381C15.2074 64.8125 13.2952 64.0904 11.5292 63.0888C9.83724 62.1295 8.2893 60.9288 6.92559 59.5418C5.5873 58.1802 4.43111 56.6492 3.47397 54.9975C2.54224 53.3881 1.80322 51.6686 1.2823 49.8814C0.77832 48.1492 0.479752 46.3577 0.433167 44.5514C0.386574 42.8235 0.570816 41.0934 1.03456 39.4269C1.4856 37.8048 2.20343 36.2653 3.19021 34.8995Z" fill="white"/>
</mask>
<g mask="url(#mask0_2410_5163)">
<path d="M3.19021 34.8995C4.20663 33.4956 5.51109 32.3139 6.98279 31.4034C7.02726 31.3759 7.06112 31.342 7.08441 31.3039C7.15641 31.217 7.17758 31.0942 7.095 30.9693C6.29668 29.7517 5.60637 28.4578 5.08968 27.0941C4.1389 24.5848 3.77042 21.8849 4.069 19.2146C4.35487 16.6671 5.2506 14.2065 6.56561 12.0148C7.90814 9.77016 9.68903 7.80293 11.7367 6.18086C13.8394 4.51433 16.245 3.21413 18.7903 2.36922C21.3885 1.50525 24.135 1.11349 26.8709 1.26384C28.2748 1.34219 29.6661 1.56665 31.0234 1.92876C31.7476 2.12145 32.4655 2.34804 33.1833 2.55768C33.9329 2.77579 34.6678 3.0405 35.3814 3.35601C37.4481 4.27081 39.3454 5.57312 40.9145 7.19518C40.8616 7.39424 41.0268 7.66953 41.3021 7.62082C41.3042 7.62082 41.3084 7.62082 41.3105 7.62082C41.7171 8.07187 42.1004 8.5462 42.454 9.04172C44.1142 11.3647 45.0438 14.0519 45.4652 16.8598C45.8781 19.5979 45.8294 22.4947 44.9549 25.1375C44.5144 26.4694 43.841 27.7336 42.9093 28.7882C42.4667 29.29 41.9606 29.7326 41.4567 30.1731C41.0586 30.5204 40.6393 30.8422 40.2009 31.1344C38.4285 32.3245 36.3936 33.0636 34.2951 33.4151C32.1987 33.7645 30.0239 33.7221 27.9382 33.324C25.9095 32.9365 23.9338 32.2187 22.1847 31.109C20.5796 30.0926 19.1757 28.7268 18.2757 27.0412C17.3588 25.3217 17.0581 23.3396 17.3334 21.4169C17.5007 20.2585 17.8501 19.1256 18.3223 18.0563C18.7882 16.9996 19.5865 16.125 20.5288 15.4643C22.3859 14.162 24.8105 13.5966 27.0488 13.9799C28.1287 14.1641 29.1727 14.5665 30.0493 15.2272C30.9218 15.8879 31.7053 16.881 32.0039 17.9483C32.2897 18.9647 32.2537 20.0913 31.7307 21.0251C31.3157 21.7705 30.6232 22.355 29.8122 22.6239C29.0562 22.8716 28.2198 22.8526 27.5252 22.4418C26.6846 21.9441 26.278 20.9891 26.1551 20.0531C26.134 19.8837 26.0281 19.7355 25.8375 19.7355C25.6829 19.7376 25.4987 19.8816 25.5199 20.0531C25.6596 21.1098 26.0557 22.1432 26.9302 22.8039C28.4781 23.9749 30.7355 23.3566 31.8853 21.923C32.5671 21.0717 32.8805 19.9917 32.8085 18.9054C32.7217 17.6222 32.1415 16.4448 31.2818 15.5003C29.6703 13.7279 27.1589 13.0609 24.8296 13.2705C22.4388 13.4865 20.0375 14.5665 18.5319 16.4829C17.7463 17.4845 17.2974 18.7487 16.9798 19.9727C16.6982 21.059 16.5563 22.1877 16.6113 23.31C16.7108 25.3577 17.4753 27.291 18.7416 28.8962C20.0142 30.5076 21.74 31.738 23.5929 32.5977C25.6067 33.5337 27.792 34.0673 30.0028 34.2325C32.2432 34.3976 34.5322 34.1711 36.6773 33.5019C37.7488 33.1673 38.7907 32.7205 39.7626 32.1572C40.7642 31.577 41.6345 30.8549 42.5006 30.0926C44.7664 28.1042 45.8781 25.1946 46.219 22.2575C46.2614 21.8933 46.2931 21.5291 46.3143 21.1606C47.9448 20.8578 49.6325 20.8599 51.2652 21.1479C54.162 21.6583 56.9487 23.0178 58.9964 25.1502C61.0208 27.2593 62.1113 30.0545 61.872 32.9831C61.8699 33.0106 61.8699 33.036 61.8742 33.0593C61.7026 33.0572 61.5332 33.0572 61.3617 33.0593C58.5708 33.0974 55.7565 33.6417 53.2345 34.8635C50.8396 36.0218 48.7707 37.8345 47.4684 40.1681C45.7426 43.264 45.804 47.0078 47.1381 50.235C48.506 53.5406 51.1318 56.3824 54.5326 57.6148C57.3786 58.6482 60.8853 58.5254 63.4517 56.8144C65.4528 55.4803 66.7615 53.2632 66.9161 50.8597C67.0664 48.5261 66.0309 46.2582 64.0997 44.9199C62.9499 44.1216 61.5777 43.7171 60.1992 43.5668C59.8032 43.5223 59.3988 43.4905 59.0006 43.499C58.484 43.5117 57.9482 43.6684 57.4717 43.859C56.5104 44.2444 55.6358 44.8733 55.0535 45.7415C54.5432 46.5039 54.2827 47.5118 54.4267 48.4224C54.5517 49.2207 55.0048 49.964 55.6316 50.468C56.2478 50.9656 57.0398 51.2769 57.8423 51.2112C58.7656 51.135 59.5088 50.6162 60.0552 49.8899C60.3029 49.5638 59.7502 49.2482 59.5067 49.5701C59.0324 50.199 58.3336 50.6141 57.5332 50.5802C56.8386 50.5527 56.1885 50.1927 55.7248 49.6866C54.4627 48.3123 55.0789 46.2815 56.4045 45.1994C57.1202 44.615 58.1536 44.1237 59.0938 44.1364C59.8392 44.1449 60.5825 44.2211 61.3088 44.3947C62.4862 44.6743 63.6063 45.2058 64.4851 46.0465C65.2517 46.7813 65.7959 47.7109 66.0754 48.7294C66.6323 50.7792 66.1071 53.0578 64.79 54.7307C63.1383 56.8271 60.5126 57.7122 57.9058 57.6148C56.2033 57.5534 54.5538 57.0918 53.0736 56.2426C51.5977 55.3956 50.3165 54.2119 49.3149 52.8375C47.3308 50.1143 46.2826 46.5462 46.9941 43.2025C47.5616 40.5386 49.2853 38.2072 51.4812 36.638C53.6157 35.1113 56.161 34.2473 58.7465 33.8873C61.4845 33.5061 64.3051 33.684 66.9923 34.3151C69.7345 34.9567 72.373 36.0811 74.6748 37.7138C76.894 39.2871 78.7638 41.3645 79.9391 43.8293C81.2286 46.5293 81.5357 49.623 81.4574 52.5834C81.4235 53.837 81.2901 55.0906 81.0571 56.3231C80.928 56.3781 80.8348 56.5073 80.8877 56.6831C80.9068 56.7424 80.9279 56.8017 80.947 56.8609C80.6654 58.1569 80.2694 59.4253 79.7464 60.6451C78.7321 63.0062 77.273 65.1576 75.471 66.9872C73.6944 68.7956 71.6107 70.2758 69.3555 71.4299C67.0347 72.6179 64.5401 73.4501 61.9843 73.9519C59.3945 74.4602 56.7391 74.619 54.1069 74.4432C51.4409 74.2653 48.7982 73.7296 46.2804 72.836C43.769 71.9445 41.3868 70.6782 39.2607 69.0667C37.0564 67.398 35.1484 65.3397 33.6386 63.0252C33.5666 62.9151 33.4586 62.8749 33.357 62.8812C33.3083 62.8791 33.2553 62.8876 33.2024 62.9109C32.5629 63.2073 31.9149 63.4869 31.2564 63.7431C28.8699 64.6748 26.3627 65.3419 23.8089 65.5854C21.6003 65.7993 19.362 65.704 17.1915 65.2381C15.2074 64.8125 13.2952 64.0904 11.5292 63.0888C9.83724 62.1295 8.2893 60.9288 6.92559 59.5418C5.5873 58.1802 4.43111 56.6492 3.47397 54.9975C2.54224 53.3881 1.80322 51.6686 1.2823 49.8814C0.77832 48.1492 0.479752 46.3577 0.433167 44.5514C0.386574 42.8235 0.570816 41.0934 1.03456 39.4269C1.4856 37.8048 2.20343 36.2653 3.19021 34.8995Z" fill="#EDECEC"/>
</g>
<mask id="mask1_2410_5163" style="mask-type:luminance" maskUnits="userSpaceOnUse" x="42" y="7" width="44" height="28">
<path d="M42.0765 7.49993C44.1284 7.17806 46.2036 7.00019 48.283 7.02984C52.0904 7.08066 55.919 7.84298 59.3007 9.63657C62.2949 11.2269 64.8995 13.5689 66.5343 16.5611C66.5978 16.6754 66.7672 16.7538 66.8943 16.7072C68.6179 16.0634 70.4496 15.7691 72.2877 15.8305C75.4513 15.9385 78.5345 17.1116 80.921 19.1975C83.0957 21.0969 84.6648 23.6423 85.3594 26.4438C85.1561 26.465 84.9528 26.4883 84.7495 26.5137C82.8776 26.7466 81.029 27.1617 79.2502 27.7948C77.4905 28.4238 75.7986 29.2581 74.2549 30.3169C72.7006 31.382 71.2988 32.6653 70.1172 34.1349C69.9859 34.2958 70.041 34.4949 70.1617 34.605C70.1151 34.588 70.0685 34.569 70.0219 34.552C67.6269 33.6648 65.0753 33.1608 62.5194 33.0719C62.53 33.0443 62.5384 33.0168 62.5406 32.9829C62.6824 31.2486 62.386 29.5122 61.6766 27.9219C60.442 25.15 58.0238 23.0176 55.3048 21.7513C52.5308 20.4617 49.3905 19.9937 46.373 20.5146C46.4302 18.2954 46.1189 16.0507 45.5217 13.9289C44.8526 11.5572 43.6689 9.36341 42.0765 7.49993Z" fill="white"/>
</mask>
<g mask="url(#mask1_2410_5163)">
<path d="M42.0765 7.49993C44.1284 7.17806 46.2036 7.00019 48.283 7.02984C52.0904 7.08066 55.919 7.84298 59.3007 9.63657C62.2949 11.2269 64.8995 13.5689 66.5343 16.5611C66.5978 16.6754 66.7672 16.7538 66.8943 16.7072C68.6179 16.0634 70.4496 15.7691 72.2877 15.8305C75.4513 15.9385 78.5345 17.1116 80.921 19.1975C83.0957 21.0969 84.6648 23.6423 85.3594 26.4438C85.1561 26.465 84.9528 26.4883 84.7495 26.5137C82.8776 26.7466 81.029 27.1617 79.2502 27.7948C77.4905 28.4238 75.7986 29.2581 74.2549 30.3169C72.7006 31.382 71.2988 32.6653 70.1172 34.1349C69.9859 34.2958 70.041 34.4949 70.1617 34.605C70.1151 34.588 70.0685 34.569 70.0219 34.552C67.6269 33.6648 65.0753 33.1608 62.5194 33.0719C62.53 33.0443 62.5384 33.0168 62.5406 32.9829C62.6824 31.2486 62.386 29.5122 61.6766 27.9219C60.442 25.15 58.0238 23.0176 55.3048 21.7513C52.5308 20.4617 49.3905 19.9937 46.373 20.5146C46.4302 18.2954 46.1189 16.0507 45.5217 13.9289C44.8526 11.5572 43.6689 9.36341 42.0765 7.49993Z" fill="#EDECEC"/>
</g>
<mask id="mask2_2410_5163" style="mask-type:luminance" maskUnits="userSpaceOnUse" x="70" y="26" width="61" height="41">
<path d="M81.5771 46.549C80.9185 43.7242 79.4108 41.1598 77.3568 39.1248C75.379 37.1639 72.9523 35.6964 70.3646 34.6906C70.4302 34.6842 70.4938 34.6546 70.551 34.5847C71.1015 33.8986 71.6987 33.2528 72.3403 32.6514C73.6362 31.4338 75.1058 30.4152 76.6813 29.5957C78.261 28.772 79.9423 28.1579 81.6681 27.7237C83.4215 27.2854 85.2172 27.0355 87.0192 26.9572C88.834 26.8767 90.6572 26.9614 92.455 27.2092C94.2401 27.4591 96.0061 27.8614 97.7214 28.4226C99.3667 28.9625 100.965 29.6486 102.475 30.4978C103.905 31.3003 105.258 32.249 106.465 33.3608C107.604 34.4111 108.612 35.6033 109.404 36.9373C110.177 38.2375 110.73 39.6606 111.011 41.1492C111.305 42.7078 111.284 44.3256 111.001 45.8841C110.647 47.8132 109.969 49.7678 108.809 51.3623C107.517 53.1305 105.635 54.4265 103.566 55.1168C101.472 55.8156 99.1931 55.9236 97.0437 55.4323C94.6932 54.8923 92.5101 53.6408 90.9219 51.8197C90.0516 50.8202 89.3845 49.6407 89.0012 48.3702C88.8022 47.7095 88.6751 47.0276 88.6286 46.3394C88.5968 45.8545 88.5481 45.3823 88.5905 44.8973C88.7429 43.1461 89.7932 41.596 91.1569 40.5394C92.5249 39.4806 94.2655 38.8283 96.0019 38.8262C97.6938 38.8241 99.3371 39.5187 100.332 40.9226C100.915 41.7421 101.325 42.712 101.237 43.7348C101.156 44.6644 100.658 45.5263 99.9723 46.1446C99.3095 46.7439 98.4265 47.1314 97.5244 47.1039C96.527 47.07 95.7054 46.4728 95.1697 45.6597C94.9452 45.3187 94.3968 45.6385 94.6212 45.9815C95.1972 46.854 96.0421 47.538 97.0988 47.6968C99.1274 48.0017 101.118 46.5025 101.707 44.5988C102.329 42.5913 101.169 40.4102 99.534 39.2455C98.0411 38.1825 96.1036 38.0004 94.3502 38.3731C92.5228 38.7606 90.7757 39.758 89.5624 41.1852C88.961 41.8925 88.4867 42.7035 88.2071 43.5908C87.898 44.5818 87.9192 45.5665 88.0145 46.5893C88.277 49.4036 89.7487 51.9277 91.9531 53.6747C93.8737 55.1973 96.2094 56.1078 98.6489 56.3217C100.953 56.5229 103.314 56.0866 105.381 55.0448C107.456 53.9987 109.196 52.3131 110.243 50.2315C111.106 48.5099 111.634 46.5681 111.803 44.6517C111.949 43.0106 111.795 41.3419 111.329 39.7601C111.289 39.6224 111.244 39.4869 111.2 39.3493C111.236 39.3768 111.267 39.4086 111.303 39.4361C112.411 40.2429 113.834 40.3848 115.162 40.2789C116.782 40.1497 118.363 39.722 119.935 39.3344C123.157 38.5404 126.846 37.6383 129.955 39.3027C130.126 39.3959 130.296 39.4954 130.461 39.5991C130.389 39.5991 130.315 39.6013 130.243 39.6034C128.428 39.6923 126.734 40.5309 125.309 41.6151C124.019 42.5955 122.899 43.7814 121.9 45.054C120.46 46.8857 119.246 48.8869 118.171 50.9515C117.588 52.0696 117.08 53.2258 116.477 54.3333C116.013 55.1867 115.5 56.0146 114.939 56.8087C113.9 58.2847 112.688 59.6378 111.331 60.8258C108.841 63.0069 105.853 64.5908 102.653 65.44C99.7246 66.2172 96.6202 66.3887 93.6302 65.8805C90.8732 65.4146 88.1902 64.3854 85.9477 62.6977C83.9678 61.2091 82.4093 59.1783 81.6215 56.8257C81.6808 56.5377 81.7359 56.2497 81.7846 55.9596C82.0387 54.4455 82.1446 52.9103 82.1149 51.375C82.0811 49.7657 81.9434 48.1203 81.5771 46.549Z" fill="white"/>
</mask>
<g mask="url(#mask2_2410_5163)">
<path d="M81.5771 46.55C80.9185 43.7252 79.4108 41.1608 77.3568 39.1258C75.379 37.1649 72.9523 35.6974 70.3646 34.6916C70.4302 34.6852 70.4938 34.6556 70.551 34.5857C71.1015 33.8996 71.6987 33.2537 72.3403 32.6523C73.6362 31.4347 75.1058 30.4162 76.6813 29.5967C78.261 28.7729 79.9423 28.1588 81.6681 27.7247C83.4215 27.2864 85.2172 27.0365 87.0192 26.9582C88.834 26.8777 90.6572 26.9624 92.455 27.2102C94.2401 27.46 96.0061 27.8624 97.7214 28.4235C99.3667 28.9635 100.965 29.6496 102.475 30.4988C103.905 31.3013 105.258 32.25 106.465 33.3617C107.604 34.4121 108.612 35.6042 109.404 36.9383C110.177 38.2385 110.73 39.6615 111.011 41.1502C111.305 42.7087 111.284 44.3266 111.001 45.8851C110.647 47.8142 109.969 49.7688 108.809 51.3633C107.517 53.1315 105.635 54.4274 103.566 55.1178C101.472 55.8166 99.1931 55.9246 97.0437 55.4333C94.6932 54.8933 92.5101 53.6418 90.9219 51.8207C90.0516 50.8212 89.3845 49.6417 89.0012 48.3711C88.8022 47.7105 88.6751 47.0286 88.6286 46.3404C88.5968 45.8555 88.5481 45.3832 88.5905 44.8983C88.7429 43.1471 89.7932 41.597 91.1569 40.5403C92.5249 39.4815 94.2655 38.8293 96.0019 38.8272C97.6938 38.8251 99.3371 39.5197 100.332 40.9236C100.915 41.7431 101.325 42.713 101.237 43.7358C101.156 44.6654 100.658 45.5272 99.9723 46.1456C99.3095 46.7448 98.4265 47.1324 97.5244 47.1048C96.527 47.071 95.7054 46.4738 95.1697 45.6606C94.9452 45.3197 94.3968 45.6395 94.6212 45.9825C95.1972 46.855 96.0421 47.5389 97.0988 47.6978C99.1274 48.0027 101.118 46.5034 101.707 44.5997C102.329 42.5923 101.169 40.4112 99.534 39.2465C98.0411 38.1835 96.1036 38.0014 94.3502 38.374C92.5228 38.7616 90.7757 39.7589 89.5624 41.1862C88.961 41.8935 88.4867 42.7045 88.2071 43.5918C87.898 44.5828 87.9192 45.5675 88.0145 46.5903C88.277 49.4045 89.7487 51.9287 91.9531 53.6757C93.8737 55.1982 96.2094 56.1088 98.6489 56.3227C100.953 56.5238 103.314 56.0876 105.381 55.0458C107.456 53.9997 109.196 52.3141 110.243 50.2325C111.106 48.5109 111.634 46.5691 111.803 44.6527C111.949 43.0116 111.795 41.3429 111.329 39.7611C111.289 39.6234 111.244 39.4879 111.2 39.3502C111.236 39.3778 111.267 39.4095 111.303 39.4371C112.411 40.2439 113.834 40.3857 115.162 40.2799C116.782 40.1507 118.363 39.7229 119.935 39.3354C123.157 38.5413 126.846 37.6392 129.955 39.3037C130.126 39.3968 130.296 39.4964 130.461 39.6001C130.389 39.6001 130.315 39.6022 130.243 39.6044C128.428 39.6933 126.734 40.5319 125.309 41.6161C124.019 42.5965 122.899 43.7824 121.9 45.055C120.46 46.8867 119.246 48.8878 118.171 50.9525C117.588 52.0706 117.08 53.2268 116.477 54.3343C116.013 55.1876 115.5 56.0156 114.939 56.8097C113.9 58.2857 112.688 59.6388 111.331 60.8268C108.841 63.0079 105.853 64.5918 102.653 65.441C99.7246 66.2181 96.6202 66.3897 93.6302 65.8814C90.8732 65.4156 88.1902 64.3864 85.9477 62.6987C83.9678 61.21 82.4093 59.1793 81.6215 56.8267C81.6808 56.5387 81.7359 56.2507 81.7846 55.9606C82.0387 54.4465 82.1446 52.9112 82.1149 51.376C82.0811 49.7666 81.9434 48.1213 81.5771 46.55Z" fill="#EDECEC"/>
</g>
</g>
<defs>
<clipPath id="clip0_2410_5163">
<rect width="132" height="61" fill="white"/>
</clipPath>
</defs>
</svg>
