<svg width="78" height="61" viewBox="0 0 78 61" fill="none" xmlns="http://www.w3.org/2000/svg">
<g clip-path="url(#clip0_2413_7739)">
<mask id="mask0_2413_7739" style="mask-type:luminance" maskUnits="userSpaceOnUse" x="-4" y="1" width="82" height="74">
<path d="M75.0129 34.8995C73.9965 33.4956 72.692 32.3139 71.2203 31.4034C71.1759 31.3759 71.142 31.342 71.1187 31.3039C71.0467 31.217 71.0255 31.0942 71.1081 30.9693C71.9064 29.7517 72.5968 28.4578 73.1134 27.0941C74.0642 24.5848 74.4327 21.8849 74.1341 19.2146C73.8483 16.6671 72.9525 14.2065 71.6375 12.0148C70.295 9.77016 68.5141 7.80293 66.4664 6.18086C64.3637 4.51433 61.9581 3.21413 59.4128 2.36922C56.8146 1.50525 54.0681 1.11349 51.3322 1.26384C49.9283 1.34219 48.5371 1.56665 47.1797 1.92876C46.4555 2.12145 45.7376 2.34804 45.0198 2.55768C44.2702 2.77579 43.5354 3.0405 42.8217 3.35601C40.755 4.27081 38.8577 5.57312 37.2886 7.19518C37.3415 7.39424 37.1763 7.66953 36.9011 7.62082C36.8989 7.62082 36.8947 7.62082 36.8926 7.62082C36.486 8.07187 36.1027 8.5462 35.7491 9.04172C34.0889 11.3647 33.1593 14.0519 32.7379 16.8598C32.325 19.5979 32.3737 22.4947 33.2483 25.1375C33.6887 26.4694 34.3621 27.7336 35.2938 28.7882C35.7364 29.29 36.2425 29.7326 36.7465 30.1731C37.1446 30.5204 37.5639 30.8422 38.0022 31.1344C39.7746 32.3245 41.8096 33.0636 43.9081 33.4151C46.0045 33.7645 48.1792 33.7221 50.265 33.324C52.2936 32.9365 54.2693 32.2187 56.0184 31.109C57.6235 30.0926 59.0275 28.7268 59.9274 27.0412C60.8443 25.3217 61.145 23.3396 60.8697 21.4169C60.7024 20.2585 60.353 19.1256 59.8808 18.0563C59.4149 16.9996 58.6166 16.125 57.6743 15.4643C55.8172 14.162 53.3926 13.5966 51.1543 13.9799C50.0744 14.1641 49.0304 14.5665 48.1538 15.2272C47.2813 15.8879 46.4978 16.881 46.1993 17.9483C45.9134 18.9647 45.9494 20.0913 46.4724 21.0251C46.8875 21.7705 47.5799 22.355 48.3909 22.6239C49.1469 22.8716 49.9833 22.8526 50.6779 22.4418C51.5186 21.9441 51.9252 20.9891 52.048 20.0531C52.0692 19.8837 52.175 19.7355 52.3656 19.7355C52.5202 19.7376 52.7044 19.8816 52.6833 20.0531C52.5435 21.1098 52.1475 22.1432 51.2729 22.8039C49.725 23.9749 47.4677 23.3566 46.3178 21.923C45.636 21.0717 45.3226 19.9917 45.3946 18.9054C45.4814 17.6222 46.0616 16.4448 46.9213 15.5003C48.5328 13.7279 51.0443 13.0609 53.3736 13.2705C55.7643 13.4865 58.1656 14.5665 59.6712 16.4829C60.4568 17.4845 60.9057 18.7487 61.2233 19.9727C61.505 21.059 61.6469 22.1877 61.5918 23.31C61.4923 25.3577 60.7278 27.291 59.4615 28.8962C58.1889 30.5076 56.4631 31.738 54.6102 32.5977C52.5964 33.5337 50.4111 34.0673 48.2004 34.2325C45.96 34.3976 43.6709 34.1711 41.5258 33.5019C40.4543 33.1673 39.4125 32.7205 38.4405 32.1572C37.4389 31.577 36.5686 30.8549 35.7025 30.0926C33.4367 28.1042 32.325 25.1946 31.9841 22.2575C31.9417 21.8933 31.91 21.5291 31.8888 21.1606C30.2583 20.8578 28.5706 20.8599 26.9379 21.1479C24.0411 21.6583 21.2544 23.0178 19.2067 25.1502C17.1824 27.2593 16.0918 30.0545 16.3311 32.9831C16.3332 33.0106 16.3332 33.036 16.329 33.0593C16.5005 33.0572 16.6699 33.0572 16.8414 33.0593C19.6323 33.0974 22.4466 33.6417 24.9686 34.8635C27.3636 36.0218 29.4324 37.8345 30.7347 40.1681C32.4606 43.264 32.3991 47.0078 31.0651 50.235C29.6971 53.5406 27.0713 56.3824 23.6705 57.6148C20.8245 58.6482 17.3179 58.5254 14.7514 56.8144C12.7503 55.4803 11.4416 53.2632 11.2871 50.8597C11.1367 48.5261 12.1722 46.2582 14.1034 44.9199C15.2533 44.1216 16.6254 43.7171 18.0039 43.5668C18.3999 43.5223 18.8044 43.4905 19.2025 43.499C19.7192 43.5117 20.2549 43.6684 20.7314 43.859C21.6928 44.2444 22.5673 44.8733 23.1496 45.7415C23.6599 46.5039 23.9204 47.5118 23.7764 48.4224C23.6515 49.2207 23.1983 49.964 22.5715 50.468C21.9553 50.9656 21.1634 51.2769 20.3608 51.2112C19.4376 51.135 18.6943 50.6162 18.148 49.8899C17.9002 49.5638 18.4529 49.2482 18.6964 49.5701C19.1707 50.199 19.8695 50.6141 20.67 50.5802C21.3645 50.5527 22.0146 50.1927 22.4784 49.6866C23.7404 48.3123 23.1242 46.2815 21.7986 45.1994C21.0829 44.615 20.0495 44.1237 19.1093 44.1364C18.364 44.1449 17.6207 44.2211 16.8943 44.3947C15.717 44.6743 14.5968 45.2058 13.718 46.0465C12.9514 46.7813 12.4072 47.7109 12.1277 48.7294C11.5708 50.7792 12.096 53.0578 13.4131 54.7307C15.0648 56.8271 17.6906 57.7122 20.2973 57.6148C21.9998 57.5534 23.6494 57.0918 25.1295 56.2426C26.6055 55.3956 27.8866 54.2119 28.8882 52.8375C30.8724 50.1143 31.9205 46.5462 31.209 43.2025C30.6415 40.5386 28.9179 38.2072 26.722 36.638C24.5875 35.1113 22.0421 34.2473 19.4566 33.8873C16.7186 33.5061 13.898 33.684 11.2108 34.3151C8.4686 34.9567 5.8301 36.0811 3.52832 37.7138C1.30912 39.2871 -0.560682 41.3645 -1.73593 43.8293C-3.02552 46.5293 -3.33259 49.623 -3.25424 52.5834C-3.22036 53.837 -3.08695 55.0906 -2.85402 56.3231C-2.72484 56.3781 -2.63167 56.5073 -2.68461 56.6831C-2.70367 56.7424 -2.72482 56.8017 -2.74388 56.8609C-2.46224 58.1569 -2.06627 59.4253 -1.54324 60.6451C-0.528926 63.0062 0.93008 65.1576 2.73212 66.9872C4.50876 68.7956 6.59241 70.2758 8.84761 71.4299C11.1685 72.6179 13.663 73.4501 16.2189 73.9519C18.8086 74.4602 21.4641 74.619 24.0962 74.4432C26.7622 74.2653 29.4049 73.7296 31.9227 72.836C34.4341 71.9445 36.8164 70.6782 38.9424 69.0667C41.1468 67.398 43.0547 65.3397 44.5645 63.0252C44.6365 62.9151 44.7445 62.8749 44.8461 62.8812C44.8948 62.8791 44.9478 62.8876 45.0007 62.9109C45.6402 63.2073 46.2882 63.4869 46.9468 63.7431C49.3333 64.6748 51.8404 65.3419 54.3942 65.5854C56.6028 65.7993 58.8411 65.704 61.0116 65.2381C62.9957 64.8125 64.9079 64.0904 66.674 63.0888C68.3659 62.1295 69.9138 60.9288 71.2775 59.5418C72.6158 58.1802 73.772 56.6492 74.7292 54.9975C75.6609 53.3881 76.3999 51.6686 76.9208 49.8814C77.4248 48.1492 77.7234 46.3577 77.77 44.5514C77.8166 42.8235 77.6323 41.0934 77.1686 39.4269C76.7175 37.8048 75.9997 36.2653 75.0129 34.8995Z" fill="white"/>
</mask>
<g mask="url(#mask0_2413_7739)">
<path d="M75.0129 34.8995C73.9965 33.4956 72.692 32.3139 71.2203 31.4034C71.1759 31.3759 71.142 31.342 71.1187 31.3039C71.0467 31.217 71.0255 31.0942 71.1081 30.9693C71.9064 29.7517 72.5968 28.4578 73.1134 27.0941C74.0642 24.5848 74.4327 21.8849 74.1341 19.2146C73.8483 16.6671 72.9525 14.2065 71.6375 12.0148C70.295 9.77016 68.5141 7.80293 66.4664 6.18086C64.3637 4.51433 61.9581 3.21413 59.4128 2.36922C56.8146 1.50525 54.0681 1.11349 51.3322 1.26384C49.9283 1.34219 48.5371 1.56665 47.1797 1.92876C46.4555 2.12145 45.7376 2.34804 45.0198 2.55768C44.2702 2.77579 43.5354 3.0405 42.8217 3.35601C40.755 4.27081 38.8577 5.57312 37.2886 7.19518C37.3415 7.39424 37.1763 7.66953 36.9011 7.62082C36.8989 7.62082 36.8947 7.62082 36.8926 7.62082C36.486 8.07187 36.1027 8.5462 35.7491 9.04172C34.0889 11.3647 33.1593 14.0519 32.7379 16.8598C32.325 19.5979 32.3737 22.4947 33.2483 25.1375C33.6887 26.4694 34.3621 27.7336 35.2938 28.7882C35.7364 29.29 36.2425 29.7326 36.7465 30.1731C37.1446 30.5204 37.5639 30.8422 38.0022 31.1344C39.7746 32.3245 41.8096 33.0636 43.9081 33.4151C46.0045 33.7645 48.1792 33.7221 50.265 33.324C52.2936 32.9365 54.2693 32.2187 56.0184 31.109C57.6235 30.0926 59.0275 28.7268 59.9274 27.0412C60.8443 25.3217 61.145 23.3396 60.8697 21.4169C60.7024 20.2585 60.353 19.1256 59.8808 18.0563C59.4149 16.9996 58.6166 16.125 57.6743 15.4643C55.8172 14.162 53.3926 13.5966 51.1543 13.9799C50.0744 14.1641 49.0304 14.5665 48.1538 15.2272C47.2813 15.8879 46.4978 16.881 46.1993 17.9483C45.9134 18.9647 45.9494 20.0913 46.4724 21.0251C46.8875 21.7705 47.5799 22.355 48.3909 22.6239C49.1469 22.8716 49.9833 22.8526 50.6779 22.4418C51.5186 21.9441 51.9252 20.9891 52.048 20.0531C52.0692 19.8837 52.175 19.7355 52.3656 19.7355C52.5202 19.7376 52.7044 19.8816 52.6833 20.0531C52.5435 21.1098 52.1475 22.1432 51.2729 22.8039C49.725 23.9749 47.4677 23.3566 46.3178 21.923C45.636 21.0717 45.3226 19.9917 45.3946 18.9054C45.4814 17.6222 46.0616 16.4448 46.9213 15.5003C48.5328 13.7279 51.0443 13.0609 53.3736 13.2705C55.7643 13.4865 58.1656 14.5665 59.6712 16.4829C60.4568 17.4845 60.9057 18.7487 61.2233 19.9727C61.505 21.059 61.6469 22.1877 61.5918 23.31C61.4923 25.3577 60.7278 27.291 59.4615 28.8962C58.1889 30.5076 56.4631 31.738 54.6102 32.5977C52.5964 33.5337 50.4111 34.0673 48.2004 34.2325C45.96 34.3976 43.6709 34.1711 41.5258 33.5019C40.4543 33.1673 39.4125 32.7205 38.4405 32.1572C37.4389 31.577 36.5686 30.8549 35.7025 30.0926C33.4367 28.1042 32.325 25.1946 31.9841 22.2575C31.9417 21.8933 31.91 21.5291 31.8888 21.1606C30.2583 20.8578 28.5706 20.8599 26.9379 21.1479C24.0411 21.6583 21.2544 23.0178 19.2067 25.1502C17.1824 27.2593 16.0918 30.0545 16.3311 32.9831C16.3332 33.0106 16.3332 33.036 16.329 33.0593C16.5005 33.0572 16.6699 33.0572 16.8414 33.0593C19.6323 33.0974 22.4466 33.6417 24.9686 34.8635C27.3636 36.0218 29.4324 37.8345 30.7347 40.1681C32.4606 43.264 32.3991 47.0078 31.0651 50.235C29.6971 53.5406 27.0713 56.3824 23.6705 57.6148C20.8245 58.6482 17.3179 58.5254 14.7514 56.8144C12.7503 55.4803 11.4416 53.2632 11.2871 50.8597C11.1367 48.5261 12.1722 46.2582 14.1034 44.9199C15.2533 44.1216 16.6254 43.7171 18.0039 43.5668C18.3999 43.5223 18.8044 43.4905 19.2025 43.499C19.7192 43.5117 20.2549 43.6684 20.7314 43.859C21.6928 44.2444 22.5673 44.8733 23.1496 45.7415C23.6599 46.5039 23.9204 47.5118 23.7764 48.4224C23.6515 49.2207 23.1983 49.964 22.5715 50.468C21.9553 50.9656 21.1634 51.2769 20.3608 51.2112C19.4376 51.135 18.6943 50.6162 18.148 49.8899C17.9002 49.5638 18.4529 49.2482 18.6964 49.5701C19.1707 50.199 19.8695 50.6141 20.67 50.5802C21.3645 50.5527 22.0146 50.1927 22.4784 49.6866C23.7404 48.3123 23.1242 46.2815 21.7986 45.1994C21.0829 44.615 20.0495 44.1237 19.1093 44.1364C18.364 44.1449 17.6207 44.2211 16.8943 44.3947C15.717 44.6743 14.5968 45.2058 13.718 46.0465C12.9514 46.7813 12.4072 47.7109 12.1277 48.7294C11.5708 50.7792 12.096 53.0578 13.4131 54.7307C15.0648 56.8271 17.6906 57.7122 20.2973 57.6148C21.9998 57.5534 23.6494 57.0918 25.1295 56.2426C26.6055 55.3956 27.8866 54.2119 28.8882 52.8375C30.8724 50.1143 31.9205 46.5462 31.209 43.2025C30.6415 40.5386 28.9179 38.2072 26.722 36.638C24.5875 35.1113 22.0421 34.2473 19.4566 33.8873C16.7186 33.5061 13.898 33.684 11.2108 34.3151C8.4686 34.9567 5.8301 36.0811 3.52832 37.7138C1.30912 39.2871 -0.560682 41.3645 -1.73593 43.8293C-3.02552 46.5293 -3.33259 49.623 -3.25424 52.5834C-3.22036 53.837 -3.08695 55.0906 -2.85402 56.3231C-2.72484 56.3781 -2.63167 56.5073 -2.68461 56.6831C-2.70367 56.7424 -2.72482 56.8017 -2.74388 56.8609C-2.46224 58.1569 -2.06627 59.4253 -1.54324 60.6451C-0.528926 63.0062 0.93008 65.1576 2.73212 66.9872C4.50876 68.7956 6.59241 70.2758 8.84761 71.4299C11.1685 72.6179 13.663 73.4501 16.2189 73.9519C18.8086 74.4602 21.4641 74.619 24.0962 74.4432C26.7622 74.2653 29.4049 73.7296 31.9227 72.836C34.4341 71.9445 36.8164 70.6782 38.9424 69.0667C41.1468 67.398 43.0547 65.3397 44.5645 63.0252C44.6365 62.9151 44.7445 62.8749 44.8461 62.8812C44.8948 62.8791 44.9478 62.8876 45.0007 62.9109C45.6402 63.2073 46.2882 63.4869 46.9468 63.7431C49.3333 64.6748 51.8404 65.3419 54.3942 65.5854C56.6028 65.7993 58.8411 65.704 61.0116 65.2381C62.9957 64.8125 64.9079 64.0904 66.674 63.0888C68.3659 62.1295 69.9138 60.9288 71.2775 59.5418C72.6158 58.1802 73.772 56.6492 74.7292 54.9975C75.6609 53.3881 76.3999 51.6686 76.9208 49.8814C77.4248 48.1492 77.7234 46.3577 77.77 44.5514C77.8166 42.8235 77.6323 41.0934 77.1686 39.4269C76.7175 37.8048 75.9997 36.2653 75.0129 34.8995Z" fill="#EDECEC"/>
</g>
<mask id="mask1_2413_7739" style="mask-type:luminance" maskUnits="userSpaceOnUse" x="-8" y="7" width="45" height="28">
<path d="M36.1267 7.49993C34.0748 7.17806 31.9996 7.00019 29.9201 7.02984C26.1127 7.08066 22.2842 7.84298 18.9024 9.63657C15.9082 11.2269 13.3036 13.5689 11.6689 16.5611C11.6053 16.6754 11.4359 16.7538 11.3089 16.7072C9.58518 16.0634 7.7535 15.7691 5.91546 15.8305C2.75183 15.9385 -0.331364 17.1116 -2.71785 19.1975C-4.89259 21.0969 -6.46169 23.6423 -7.15625 26.4438C-6.95296 26.465 -6.74966 26.4883 -6.54638 26.5137C-4.67445 26.7466 -2.82584 27.1617 -1.04709 27.7948C0.712602 28.4238 2.40454 29.2581 3.94824 30.3169C5.50253 31.382 6.90436 32.6653 8.08596 34.1349C8.21725 34.2958 8.16216 34.4949 8.04146 34.605C8.08805 34.588 8.13467 34.569 8.18125 34.552C10.5762 33.6648 13.1278 33.1608 15.6837 33.0719C15.6732 33.0443 15.6647 33.0168 15.6626 32.9829C15.5207 31.2486 15.8172 29.5122 16.5265 27.9219C17.7611 25.15 20.1793 23.0176 22.8983 21.7513C25.6723 20.4617 28.8126 19.9937 31.8301 20.5146C31.773 18.2954 32.0843 16.0507 32.6814 13.9289C33.3506 11.5572 34.5343 9.36341 36.1267 7.49993Z" fill="white"/>
</mask>
<g mask="url(#mask1_2413_7739)">
<path d="M36.1267 7.49993C34.0748 7.17806 31.9996 7.00019 29.9201 7.02984C26.1127 7.08066 22.2842 7.84298 18.9024 9.63657C15.9082 11.2269 13.3036 13.5689 11.6689 16.5611C11.6053 16.6754 11.4359 16.7538 11.3089 16.7072C9.58518 16.0634 7.7535 15.7691 5.91546 15.8305C2.75183 15.9385 -0.331364 17.1116 -2.71785 19.1975C-4.89259 21.0969 -6.46169 23.6423 -7.15625 26.4438C-6.95296 26.465 -6.74966 26.4883 -6.54638 26.5137C-4.67445 26.7466 -2.82584 27.1617 -1.04709 27.7948C0.712602 28.4238 2.40454 29.2581 3.94824 30.3169C5.50253 31.382 6.90436 32.6653 8.08596 34.1349C8.21725 34.2958 8.16216 34.4949 8.04146 34.605C8.08805 34.588 8.13467 34.569 8.18125 34.552C10.5762 33.6648 13.1278 33.1608 15.6837 33.0719C15.6732 33.0443 15.6647 33.0168 15.6626 32.9829C15.5207 31.2486 15.8172 29.5122 16.5265 27.9219C17.7611 25.15 20.1793 23.0176 22.8983 21.7513C25.6723 20.4617 28.8126 19.9937 31.8301 20.5146C31.773 18.2954 32.0843 16.0507 32.6814 13.9289C33.3506 11.5572 34.5343 9.36341 36.1267 7.49993Z" fill="#EDECEC"/>
</g>
<mask id="mask2_2413_7739" style="mask-type:luminance" maskUnits="userSpaceOnUse" x="-53" y="26" width="61" height="41">
<path d="M-3.37395 46.549C-2.71539 43.7242 -1.20771 41.1598 0.846321 39.1248C2.82412 37.1639 5.25087 35.6964 7.83853 34.6906C7.77288 34.6842 7.70934 34.6546 7.65216 34.5847C7.1016 33.8986 6.50445 33.2528 5.86283 32.6514C4.56688 31.4338 3.09729 30.4152 1.52183 29.5957C-0.057869 28.772 -1.73921 28.1579 -3.46502 27.7237C-5.21836 27.2854 -7.01404 27.0355 -8.81608 26.9572C-10.6308 26.8767 -12.4541 26.9614 -14.2519 27.2092C-16.037 27.4591 -17.803 27.8614 -19.5182 28.4226C-21.1636 28.9625 -22.7623 29.6486 -24.2722 30.4978C-25.7015 31.3003 -27.0546 32.249 -28.2616 33.3608C-29.4009 34.4111 -30.4088 35.6033 -31.2008 36.9373C-31.9737 38.2375 -32.5264 39.6606 -32.808 41.1492C-33.1024 42.7078 -33.0812 44.3256 -32.7974 45.8841C-32.4438 47.8132 -31.7662 49.7678 -30.6058 51.3623C-29.3141 53.1305 -27.4316 54.4265 -25.3627 55.1168C-23.2684 55.8156 -20.9899 55.9236 -18.8406 55.4323C-16.4901 54.8923 -14.3069 53.6408 -12.7188 51.8197C-11.8484 50.8202 -11.1814 49.6407 -10.7981 48.3702C-10.5991 47.7095 -10.472 47.0276 -10.4254 46.3394C-10.3937 45.8545 -10.345 45.3823 -10.3873 44.8973C-10.5398 43.1461 -11.5901 41.596 -12.9538 40.5394C-14.3217 39.4806 -16.0624 38.8283 -17.7988 38.8262C-19.4907 38.8241 -21.1339 39.5187 -22.1292 40.9226C-22.7115 41.7421 -23.1223 42.712 -23.0334 43.7348C-22.9529 44.6644 -22.4553 45.5263 -21.7692 46.1446C-21.1064 46.7439 -20.2234 47.1314 -19.3213 47.1039C-18.3239 47.07 -17.5023 46.4728 -16.9666 45.6597C-16.7421 45.3187 -16.1937 45.6385 -16.4181 45.9815C-16.9941 46.854 -17.839 47.538 -18.8957 47.6968C-20.9243 48.0017 -22.9148 46.5025 -23.5035 44.5988C-24.126 42.5913 -22.9656 40.4102 -21.3309 39.2455C-19.838 38.1825 -17.9004 38.0004 -16.1471 38.3731C-14.3196 38.7606 -12.5726 39.758 -11.3593 41.1852C-10.7579 41.8925 -10.2835 42.7035 -10.004 43.5908C-9.69486 44.5818 -9.71604 45.5665 -9.81133 46.5893C-10.0739 49.4036 -11.5456 51.9277 -13.75 53.6747C-15.6706 55.1973 -18.0063 56.1078 -20.4457 56.3217C-22.7496 56.5229 -25.1107 56.0866 -27.1774 55.0448C-29.2526 53.9987 -30.9933 52.3131 -32.0394 50.2315C-32.9033 48.5099 -33.4306 46.5681 -33.6 44.6517C-33.7461 43.0106 -33.5915 41.3419 -33.1257 39.7601C-33.0854 39.6224 -33.041 39.4869 -32.9965 39.3493C-33.0325 39.3768 -33.0643 39.4086 -33.1003 39.4361C-34.2078 40.2429 -35.6307 40.3848 -36.9584 40.2789C-38.5784 40.1497 -40.1602 39.722 -41.7314 39.3344C-44.9544 38.5404 -48.6431 37.6383 -51.7517 39.3027C-51.9232 39.3959 -52.0926 39.4954 -52.2578 39.5991C-52.1858 39.5991 -52.1117 39.6013 -52.0397 39.6034C-50.225 39.6923 -48.5309 40.5309 -47.1058 41.6151C-45.8162 42.5955 -44.696 43.7814 -43.6965 45.054C-42.2566 46.8857 -41.0432 48.8869 -39.9675 50.9515C-39.3852 52.0696 -38.8769 53.2258 -38.2734 54.3333C-37.8097 55.1867 -37.2973 56.0146 -36.7361 56.8087C-35.6964 58.2847 -34.4851 59.6378 -33.1278 60.8258C-30.6375 63.0069 -27.6497 64.5908 -24.45 65.44C-21.5215 66.2172 -18.4171 66.3887 -15.4271 65.8805C-12.6701 65.4146 -9.9871 64.3854 -7.7446 62.6977C-5.76468 61.2091 -4.20614 59.1783 -3.41841 56.8257C-3.4777 56.5377 -3.53278 56.2497 -3.58149 55.9596C-3.83559 54.4455 -3.94147 52.9103 -3.91182 51.375C-3.87794 49.7657 -3.74029 48.1203 -3.37395 46.549Z" fill="white"/>
</mask>
<g mask="url(#mask2_2413_7739)">
<path d="M-3.37395 46.55C-2.71539 43.7252 -1.20771 41.1608 0.846321 39.1258C2.82412 37.1649 5.25087 35.6974 7.83853 34.6916C7.77288 34.6852 7.70934 34.6556 7.65216 34.5857C7.1016 33.8996 6.50445 33.2537 5.86283 32.6523C4.56688 31.4347 3.09729 30.4162 1.52183 29.5967C-0.057869 28.7729 -1.73921 28.1588 -3.46502 27.7247C-5.21836 27.2864 -7.01404 27.0365 -8.81608 26.9582C-10.6308 26.8777 -12.4541 26.9624 -14.2519 27.2102C-16.037 27.46 -17.803 27.8624 -19.5182 28.4235C-21.1636 28.9635 -22.7623 29.6496 -24.2722 30.4988C-25.7015 31.3013 -27.0546 32.25 -28.2616 33.3617C-29.4009 34.4121 -30.4088 35.6042 -31.2008 36.9383C-31.9737 38.2385 -32.5264 39.6615 -32.808 41.1502C-33.1024 42.7087 -33.0812 44.3266 -32.7974 45.8851C-32.4438 47.8142 -31.7662 49.7688 -30.6058 51.3633C-29.3141 53.1315 -27.4316 54.4274 -25.3627 55.1178C-23.2684 55.8166 -20.9899 55.9246 -18.8406 55.4333C-16.4901 54.8933 -14.3069 53.6418 -12.7188 51.8207C-11.8484 50.8212 -11.1814 49.6417 -10.7981 48.3711C-10.5991 47.7105 -10.472 47.0286 -10.4254 46.3404C-10.3937 45.8555 -10.345 45.3832 -10.3873 44.8983C-10.5398 43.1471 -11.5901 41.597 -12.9538 40.5403C-14.3217 39.4815 -16.0624 38.8293 -17.7988 38.8272C-19.4907 38.8251 -21.1339 39.5197 -22.1292 40.9236C-22.7115 41.7431 -23.1223 42.713 -23.0334 43.7358C-22.9529 44.6654 -22.4553 45.5272 -21.7692 46.1456C-21.1064 46.7448 -20.2234 47.1324 -19.3213 47.1048C-18.3239 47.071 -17.5023 46.4738 -16.9666 45.6606C-16.7421 45.3197 -16.1937 45.6395 -16.4181 45.9825C-16.9941 46.855 -17.839 47.5389 -18.8957 47.6978C-20.9243 48.0027 -22.9148 46.5034 -23.5035 44.5997C-24.126 42.5923 -22.9656 40.4112 -21.3309 39.2465C-19.838 38.1835 -17.9004 38.0014 -16.1471 38.374C-14.3196 38.7616 -12.5726 39.7589 -11.3593 41.1862C-10.7579 41.8935 -10.2835 42.7045 -10.004 43.5918C-9.69486 44.5828 -9.71604 45.5675 -9.81133 46.5903C-10.0739 49.4045 -11.5456 51.9287 -13.75 53.6757C-15.6706 55.1982 -18.0063 56.1088 -20.4457 56.3227C-22.7496 56.5238 -25.1107 56.0876 -27.1774 55.0458C-29.2526 53.9997 -30.9933 52.3141 -32.0394 50.2325C-32.9033 48.5109 -33.4306 46.5691 -33.6 44.6527C-33.7461 43.0116 -33.5915 41.3429 -33.1257 39.7611C-33.0854 39.6234 -33.041 39.4879 -32.9965 39.3502C-33.0325 39.3778 -33.0643 39.4095 -33.1003 39.4371C-34.2078 40.2439 -35.6307 40.3857 -36.9584 40.2799C-38.5784 40.1507 -40.1602 39.7229 -41.7314 39.3354C-44.9544 38.5413 -48.6431 37.6392 -51.7517 39.3037C-51.9232 39.3968 -52.0926 39.4964 -52.2578 39.6001C-52.1858 39.6001 -52.1117 39.6022 -52.0397 39.6044C-50.225 39.6933 -48.5309 40.5319 -47.1058 41.6161C-45.8162 42.5965 -44.696 43.7824 -43.6965 45.055C-42.2566 46.8867 -41.0432 48.8878 -39.9675 50.9525C-39.3852 52.0706 -38.8769 53.2268 -38.2734 54.3343C-37.8097 55.1876 -37.2973 56.0156 -36.7361 56.8097C-35.6964 58.2857 -34.4851 59.6388 -33.1278 60.8268C-30.6375 63.0079 -27.6497 64.5918 -24.45 65.441C-21.5215 66.2181 -18.4171 66.3897 -15.4271 65.8814C-12.6701 65.4156 -9.9871 64.3864 -7.7446 62.6987C-5.76468 61.21 -4.20614 59.1793 -3.41841 56.8267C-3.4777 56.5387 -3.53278 56.2507 -3.58149 55.9606C-3.83559 54.4465 -3.94147 52.9112 -3.91182 51.376C-3.87794 49.7666 -3.74029 48.1213 -3.37395 46.55Z" fill="#EDECEC"/>
</g>
</g>
<defs>
<clipPath id="clip0_2413_7739">
<rect width="78" height="61" fill="white" transform="matrix(-1 0 0 1 78 0)"/>
</clipPath>
</defs>
</svg>
