<svg width="667" height="50" viewBox="0 0 667 50" fill="none" xmlns="http://www.w3.org/2000/svg">
<line x1="150.297" y1="24.8936" x2="516.432" y2="24.8936" stroke="white"/>
<line x1="150.297" y1="25.8936" x2="516.432" y2="25.8936" stroke="white" stroke-dasharray="2 2"/>
<path d="M66.2969 25.3936L80.7969 39.8936L95.2969 25.3936L80.7969 9.39355L66.2969 25.3936Z" stroke="white" stroke-width="3"/>
<circle cx="5" cy="5" r="5" transform="matrix(-1 0 0 1 85.7969 19.3936)" fill="white"/>
<path d="M130.477 26.9404C129.227 26.3675 127.539 24.8467 130.789 23.3467L182.664 25.2217L130.477 26.9404Z" fill="white"/>
<path d="M130.735 25.1844C130.267 24.9696 129.634 24.3993 130.853 23.8368L150.306 24.5399L130.735 25.1844Z" fill="white"/>
<path d="M130.477 26.9404C129.227 26.3675 127.539 24.8467 130.789 23.3467L182.664 25.2217L130.477 26.9404Z" stroke="white" stroke-width="0.117188"/>
<path d="M130.735 25.1844C130.267 24.9696 129.634 24.3993 130.853 23.8368L150.306 24.5399L130.735 25.1844Z" stroke="white" stroke-width="0.117188"/>
<path d="M93.2969 21.3936V29.7354L120.336 25.5991L93.2969 21.3936Z" fill="white"/>
<path d="M124.527 20.3936C117.557 20.3936 117.55 31.2236 124.527 31.2236C131.496 31.2236 131.503 20.3936 124.527 20.3936Z" fill="white"/>
<path d="M0 25.4443C2.8 25.4443 40.4167 27.111 58.875 27.9443L64 25.4443L58.875 22.8193L0 25.4443Z" fill="white" stroke="white" stroke-width="0.25"/>
<path d="M116.825 0.678711C117.228 0.678711 117.547 0.997911 117.547 1.40071C117.547 1.79591 117.228 2.12271 116.825 2.12271C104.087 2.12271 93.7209 12.4891 93.7209 25.2267C93.7209 37.9643 104.087 48.3307 116.825 48.3307C117.228 48.3307 117.547 48.6499 117.547 49.0527C117.547 49.4479 117.228 49.7747 116.825 49.7747C103.289 49.7747 92.2769 38.7623 92.2769 25.2267C92.2769 11.6911 103.289 0.678711 116.825 0.678711Z" fill="white"/>
<path d="M58.25 24.1943C58.9403 24.1944 59.5 24.754 59.5 25.4443C59.5 26.1346 58.9403 26.6942 58.25 26.6943C57.5596 26.6943 57 26.1347 57 25.4443C57 24.754 57.5596 24.1943 58.25 24.1943Z" fill="white"/>
<path d="M600.664 25.1084L586.164 39.6084L571.664 25.1084L586.164 9.1084L600.664 25.1084Z" stroke="white" stroke-width="3"/>
<circle cx="586.164" cy="24.1084" r="5" fill="white"/>
<path d="M536.484 26.6553C537.734 26.0824 539.422 24.5615 536.172 23.0615L484.297 24.9365L536.484 26.6553Z" fill="white"/>
<path d="M536.226 24.8993C536.694 24.6844 537.327 24.1141 536.108 23.5516L516.655 24.2548L536.226 24.8993Z" fill="white"/>
<path d="M536.484 26.6553C537.734 26.0824 539.422 24.5615 536.172 23.0615L484.297 24.9365L536.484 26.6553Z" stroke="white" stroke-width="0.117188"/>
<path d="M536.226 24.8993C536.694 24.6844 537.327 24.1141 536.108 23.5516L516.655 24.2548L536.226 24.8993Z" stroke="white" stroke-width="0.117188"/>
<path d="M573.664 21.1084V29.4502L546.625 25.3139L573.664 21.1084Z" fill="white"/>
<path d="M542.434 20.1085C549.404 20.1085 549.411 30.9385 542.434 30.9385C535.465 30.9385 535.458 20.1085 542.434 20.1085Z" fill="white"/>
<path d="M666.961 25.1592C664.161 25.1592 626.544 26.8258 608.086 27.6592L602.961 25.1592L608.086 22.5342L666.961 25.1592Z" fill="white" stroke="white" stroke-width="0.25"/>
<path d="M550.136 0.393555C549.733 0.393555 549.414 0.712755 549.414 1.11555C549.414 1.51075 549.733 1.83755 550.136 1.83755C562.874 1.83755 573.24 12.204 573.24 24.9416C573.24 37.6792 562.874 48.0456 550.136 48.0456C549.733 48.0456 549.414 48.3648 549.414 48.7676C549.414 49.1628 549.733 49.4896 550.136 49.4896C563.672 49.4896 574.684 38.4772 574.684 24.9416C574.684 11.406 563.672 0.393555 550.136 0.393555Z" fill="white"/>
<path d="M608.711 23.9092C608.021 23.9093 607.461 24.4689 607.461 25.1592C607.461 25.8495 608.021 26.4091 608.711 26.4092C609.401 26.4092 609.961 25.8495 609.961 25.1592C609.961 24.4688 609.401 23.9092 608.711 23.9092Z" fill="white"/>
</svg>
