<svg width="578" height="142" viewBox="0 0 578 142" fill="none" xmlns="http://www.w3.org/2000/svg">
<mask id="path-1-inside-1_338_3847" fill="white">
<path d="M344.107 28.6222C344.134 28.6178 344.161 28.6121 344.187 28.605C350.975 28.1864 354.639 26.1443 354.8 26.0534L353.751 25.0778C353.474 25.2205 353.186 25.3524 352.89 25.4728V25.1068C352.88 24.9474 352.786 24.797 352.627 24.6868C352.468 24.5767 352.257 24.5152 352.037 24.5152C351.818 24.5152 351.607 24.5767 351.448 24.6868C351.289 24.797 351.195 24.9474 351.185 25.1068V26.0929C350.859 26.1956 350.504 26.3009 350.119 26.4036V25.7848C350.125 25.7011 350.107 25.6174 350.066 25.5389C350.026 25.4604 349.964 25.3886 349.884 25.328C349.804 25.2673 349.709 25.2191 349.603 25.1861C349.496 25.1531 349.382 25.1361 349.267 25.1361C349.152 25.1361 349.037 25.1531 348.931 25.1861C348.825 25.2191 348.729 25.2673 348.65 25.328C348.57 25.3886 348.508 25.4604 348.468 25.5389C348.427 25.6174 348.409 25.7011 348.414 25.7848V26.8013C348.116 26.8618 347.806 26.9193 347.483 26.9737V26.3009C347.473 26.1416 347.379 25.9912 347.22 25.881C347.061 25.7709 346.85 25.7094 346.63 25.7094C346.411 25.7094 346.2 25.7709 346.041 25.881C345.882 25.9912 345.788 26.1416 345.778 26.3009V27.2134C345.461 27.2489 345.136 27.2818 344.801 27.3108V26.6169C344.801 26.4528 344.712 26.2954 344.552 26.1794C344.392 26.0633 344.175 25.9981 343.95 25.9981C343.724 25.9981 343.507 26.0633 343.347 26.1794C343.188 26.2954 343.098 26.4528 343.098 26.6169V27.4069H342.944C337.64 27.5741 334.395 24.2984 333.268 22.9198C333.168 22.7553 333.07 22.5867 332.976 22.4129H333.719V21.7033H331.784V20.8646H333.719V20.1549H324.023V18.3788H323.057C324.101 18.0424 325.113 17.6572 326.087 17.2254L329.97 15.5007V13.6942C329.97 13.6942 325.455 15.0741 320.477 14.7633C320.504 14.7599 320.531 14.7546 320.557 14.7475C327.344 14.3289 331.008 12.2868 331.17 12.1959L330.12 11.219C329.845 11.3653 329.557 11.4998 329.26 11.6219V11.2598C329.25 11.1004 329.155 10.9501 328.997 10.8399C328.838 10.7297 328.627 10.6682 328.407 10.6682C328.188 10.6682 327.977 10.7297 327.818 10.8399C327.659 10.9501 327.565 11.1004 327.555 11.2598V12.2459C327.229 12.3486 326.873 12.454 326.489 12.5567V11.9379C326.495 11.8541 326.476 11.7704 326.436 11.6919C326.396 11.6134 326.334 11.5416 326.254 11.481C326.174 11.4204 326.078 11.3721 325.972 11.3391C325.866 11.3062 325.752 11.2892 325.637 11.2892C325.521 11.2892 325.407 11.3062 325.301 11.3391C325.195 11.3721 325.099 11.4204 325.019 11.481C324.94 11.5416 324.878 11.6134 324.837 11.6919C324.797 11.7704 324.779 11.8541 324.784 11.9379V12.9543C324.485 13.0149 324.174 13.0724 323.853 13.1268V12.4448C323.858 12.361 323.84 12.2773 323.8 12.1988C323.759 12.1203 323.697 12.0485 323.617 11.9879C323.538 11.9273 323.442 11.879 323.336 11.846C323.23 11.8131 323.116 11.7961 323 11.7961C322.885 11.7961 322.771 11.8131 322.665 11.846C322.559 11.879 322.463 11.9273 322.383 11.9879C322.303 12.0485 322.241 12.1203 322.201 12.1988C322.161 12.2773 322.142 12.361 322.148 12.4448V13.3664C321.831 13.4033 321.506 13.4362 321.171 13.4651V12.7713C321.171 12.6072 321.081 12.4498 320.922 12.3337C320.762 12.2177 320.545 12.1525 320.319 12.1525C320.094 12.1525 319.877 12.2177 319.717 12.3337C319.557 12.4498 319.468 12.6072 319.468 12.7713V13.5613H319.314C314.015 13.7272 310.772 10.4619 309.641 9.08473C309.54 8.91751 309.44 8.74768 309.346 8.57256H310.089V7.8629H308.154V7.02421H310.089V6.31455H306.122V5.1862H302.016V2.83338H300.103V0.718881H295.274V3.28894H298.59V1.62077H296.51V2.08554H297.95V2.82417H295.912V1.18234H299.463V3.65101H294.656V0.718881H289.497V2.23827H289.119V0.463455H294.638V0H282.795V0.463455H288.481V2.23432H287.917V0.718881H282.759V3.65101H277.95V1.18234H281.501V2.82417H279.464V2.08554H280.903V1.62077H278.827V3.28894H282.143V0.718881H277.323V2.83338H275.4V5.18225H271.292V6.31059H267.369V7.02026H269.169V7.85895H267.377V8.56861H268.12C268.024 8.74372 267.926 8.91489 267.824 9.08078C266.694 10.4632 263.45 13.7298 258.15 13.5573H257.998V12.7673C257.998 12.6032 257.908 12.4458 257.748 12.3298C257.589 12.2137 257.372 12.1485 257.146 12.1485C256.92 12.1485 256.704 12.2137 256.544 12.3298C256.384 12.4458 256.294 12.6032 256.294 12.7673V13.4612C255.959 13.4322 255.635 13.3993 255.318 13.3624V12.4448C255.323 12.361 255.305 12.2773 255.265 12.1988C255.224 12.1203 255.162 12.0485 255.082 11.9879C255.003 11.9273 254.907 11.879 254.801 11.846C254.695 11.8131 254.581 11.7961 254.465 11.7961C254.35 11.7961 254.236 11.8131 254.13 11.846C254.024 11.879 253.928 11.9273 253.848 11.9879C253.768 12.0485 253.706 12.1203 253.666 12.1988C253.626 12.2773 253.607 12.361 253.613 12.4448V13.1176C253.29 13.064 252.979 13.0065 252.68 12.9451V11.9286C252.68 11.7645 252.59 11.6071 252.43 11.4911C252.27 11.375 252.054 11.3098 251.828 11.3098C251.602 11.3098 251.385 11.375 251.226 11.4911C251.066 11.6071 250.976 11.7645 250.976 11.9286V12.5475C250.59 12.4448 250.235 12.3394 249.911 12.2367V11.2598C249.901 11.1004 249.806 10.9501 249.648 10.8399C249.489 10.7297 249.278 10.6682 249.058 10.6682C248.839 10.6682 248.628 10.7297 248.469 10.8399C248.31 10.9501 248.216 11.1004 248.206 11.2598V11.6258C247.91 11.5057 247.623 11.3738 247.347 11.2308L246.296 12.2065C246.455 12.2973 250.119 14.3394 256.909 14.7581C256.935 14.7652 256.961 14.7705 256.988 14.7739C252.011 15.0846 247.495 13.7048 247.495 13.7048V15.5112L251.379 17.236C252.353 17.6677 253.365 18.053 254.408 18.3893H253.586V20.1826H243.891V20.8922H245.825V21.7309H243.882V22.4406H244.623C244.529 22.6144 244.431 22.7829 244.332 22.9475C243.205 24.326 239.959 27.6018 234.656 27.4346H234.503V26.6446C234.493 26.4852 234.399 26.3348 234.24 26.2247C234.082 26.1145 233.87 26.053 233.651 26.053C233.431 26.053 233.22 26.1145 233.062 26.2247C232.903 26.3348 232.809 26.4852 232.798 26.6446V27.3226C232.463 27.2937 232.139 27.2608 231.822 27.2252V26.3128C231.812 26.1534 231.717 26.003 231.559 25.8929C231.4 25.7827 231.189 25.7212 230.969 25.7212C230.75 25.7212 230.539 25.7827 230.38 25.8929C230.221 26.003 230.127 26.1534 230.117 26.3128V26.9856C229.794 26.932 229.484 26.8746 229.185 26.8131V25.7967C229.191 25.7129 229.172 25.6293 229.132 25.5507C229.092 25.4722 229.03 25.4005 228.95 25.3398C228.87 25.2792 228.774 25.2309 228.668 25.198C228.562 25.165 228.448 25.148 228.333 25.148C228.217 25.148 228.103 25.165 227.997 25.198C227.891 25.2309 227.795 25.2792 227.716 25.3398C227.636 25.4005 227.574 25.4722 227.533 25.5507C227.493 25.6293 227.475 25.7129 227.48 25.7967V26.4155C227.096 26.3128 226.741 26.2075 226.415 26.1048V25.1186C226.415 24.9545 226.325 24.7971 226.165 24.681C226.006 24.565 225.789 24.4998 225.563 24.4998C225.337 24.4998 225.121 24.565 224.961 24.681C224.801 24.7971 224.711 24.9545 224.711 25.1186V25.4794C224.415 25.3587 224.127 25.2269 223.849 25.0844L222.8 26.06C222.961 26.1508 226.625 28.1929 233.413 28.6116C233.439 28.6185 233.465 28.6242 233.492 28.6287C228.515 28.9381 224.001 27.5583 224.001 27.5583V29.3647L227.882 31.0895C232.032 32.9312 236.8 33.9057 241.663 33.9058H237.932V34.6141H239.602V55.48H238.963V56.8151H238.04V59.8842H245.636V56.8151H244.716V55.4708H244.076V36.3639H263.089V55.5867H262.45V56.931H261.529V59.9987H269.125V56.931H268.203V55.5867H267.565V31.4924H268.328V32.4575H272.34V28.9447H275.148V30.3246H273.532V29.7979H274.028V30.0046H274.668V29.3345H272.892V30.792H275.792V29.8703H301.679V30.792H304.579V29.3318H302.803V30.002H303.441V29.7953H303.939V30.3219H302.323V28.9447H305.128V32.4575H309.141V31.4937H309.904V55.588H309.264V56.9323H308.344V60H315.94V56.9323H315.012V55.588H314.372V36.3652H333.529V55.4761H332.889V56.8151H331.969V59.8842H339.565V56.8151H338.642V55.4708H338.004V34.6089H339.673V33.9058H335.942C340.802 33.9041 345.567 32.9292 349.714 31.0882L353.597 29.3634V27.5517C353.597 27.5517 349.078 28.9316 344.107 28.6222ZM306.418 26.6025V25.4399H307.891V25.8349H307.483V25.6439H306.844V26.3023H308.531V25.9797H309.897V26.6077L306.418 26.6025ZM267.569 26.6025V25.9744H269.018V26.297H270.703V25.6387H270.075V25.8296H269.667V25.4346H271.142V26.5972L267.569 26.6025ZM262.858 20.8817V21.7204H261.377V20.8817H262.858ZM273.42 7.02421V7.8629H271.928V7.02421H273.42ZM306.023 21.7928V20.7474H307.514V21.7928H306.023ZM308.527 24.0837V23.5992H309.893V25.5057H308.527V24.9725H307.462V24.0837H308.527ZM306.822 24.9725H305.771V25.5057H304.332V23.6032H305.771V24.0877H306.818L306.822 24.9725ZM270.725 24.9725V24.0837H271.773V23.5992H273.122V25.5057H271.773V24.9725H270.725ZM269.022 24.9725V25.5057H267.572V23.6032H269.022V24.0877H270.087V24.9764L269.022 24.9725ZM303.892 21.7928V20.7474H305.383V21.7928H303.892ZM303.252 21.7928H301.761V20.7474H303.252V21.7928ZM301.121 21.7928H299.63V20.7474H301.121V21.7928ZM298.992 21.7928H297.499V20.7474H298.992V21.7928ZM296.861 21.7928H295.37V20.7474H296.861V21.7928ZM294.73 21.7928H293.239V20.7474H294.73V21.7928ZM292.6 21.7928H291.108V20.7474H292.6V21.7928ZM290.469 21.7928H288.977V20.7474H290.469V21.7928ZM288.338 21.7928H286.846V20.7474H288.338V21.7928ZM286.201 21.7928H284.71V20.7474H286.201V21.7928ZM284.071 21.7928H282.577V20.7474H284.069L284.071 21.7928ZM281.941 21.7928H280.45V20.7474H281.941V21.7928ZM279.811 21.7928H278.319V20.7474H279.811V21.7928ZM277.685 21.7928H276.194V20.7474H277.685V21.7928ZM275.554 21.7928H274.061V20.7474H275.552L275.554 21.7928ZM273.423 21.7928H271.932V20.7474H273.423V21.7928ZM271.292 21.7928H269.801V20.7474H271.292V21.7928ZM269.169 21.7928H267.572V20.7474H269.169V21.7928ZM271.142 22.5025V23.6203H269.667V23.2253H270.075V23.4162H270.714V22.7579H269.029V23.1292H267.58V22.4972L271.142 22.5025ZM273.135 23.1345H271.785V22.5025H273.135V23.1345ZM305.787 23.1345H304.349V22.5025H305.771L305.787 23.1345ZM286.846 9.40336V17.5059C286.84 17.5645 286.804 17.6193 286.745 17.6592C286.685 17.6992 286.608 17.7214 286.527 17.7214C286.446 17.7214 286.368 17.6992 286.309 17.6592C286.249 17.6193 286.213 17.5645 286.207 17.5059V9.40336C286.213 9.34474 286.249 9.28997 286.309 9.25C286.368 9.21003 286.446 9.18781 286.527 9.18781C286.608 9.18781 286.685 9.21003 286.745 9.25C286.804 9.28997 286.84 9.34474 286.846 9.40336ZM284.716 9.40336V17.5059C284.71 17.5645 284.673 17.6193 284.614 17.6592C284.555 17.6992 284.477 17.7214 284.396 17.7214C284.315 17.7214 284.237 17.6992 284.178 17.6592C284.118 17.6193 284.082 17.5645 284.076 17.5059V9.40336C284.082 9.34474 284.118 9.28997 284.178 9.25C284.237 9.21003 284.315 9.18781 284.396 9.18781C284.477 9.18781 284.555 9.21003 284.614 9.25C284.673 9.28997 284.71 9.34474 284.716 9.40336ZM282.585 9.40336V17.5059C282.585 17.5673 282.551 17.6263 282.491 17.6697C282.431 17.7132 282.35 17.7376 282.266 17.7376C282.181 17.7376 282.1 17.7132 282.04 17.6697C281.98 17.6263 281.947 17.5673 281.947 17.5059V9.40336C281.947 9.3419 281.98 9.28296 282.04 9.2395C282.1 9.19604 282.181 9.17163 282.266 9.17163C282.35 9.17163 282.431 9.19604 282.491 9.2395C282.551 9.28296 282.585 9.3419 282.585 9.40336ZM280.456 9.40336V17.5059C280.45 17.5645 280.413 17.6193 280.354 17.6592C280.295 17.6992 280.217 17.7214 280.136 17.7214C280.055 17.7214 279.977 17.6992 279.918 17.6592C279.858 17.6193 279.822 17.5645 279.816 17.5059V9.40336C279.822 9.34474 279.858 9.28997 279.918 9.25C279.977 9.21003 280.055 9.18781 280.136 9.18781C280.217 9.18781 280.295 9.21003 280.354 9.25C280.413 9.28997 280.45 9.34474 280.456 9.40336ZM278.325 9.40336V17.5059C278.319 17.5645 278.282 17.6193 278.223 17.6592C278.164 17.6992 278.086 17.7214 278.005 17.7214C277.924 17.7214 277.846 17.6992 277.787 17.6592C277.727 17.6193 277.691 17.5645 277.685 17.5059V9.40336C277.691 9.34474 277.727 9.28997 277.787 9.25C277.846 9.21003 277.924 9.18781 278.005 9.18781C278.086 9.18781 278.164 9.21003 278.223 9.25C278.282 9.28997 278.319 9.34474 278.325 9.40336ZM276.194 9.40336V17.5059C276.188 17.5645 276.151 17.6193 276.092 17.6592C276.033 17.6992 275.955 17.7214 275.874 17.7214C275.793 17.7214 275.715 17.6992 275.656 17.6592C275.597 17.6193 275.56 17.5645 275.554 17.5059V9.40336C275.56 9.34474 275.597 9.28997 275.656 9.25C275.715 9.21003 275.793 9.18781 275.874 9.18781C275.955 9.18781 276.033 9.21003 276.092 9.25C276.151 9.28997 276.188 9.34474 276.194 9.40336ZM274.063 9.40336V17.5059C274.057 17.5645 274.02 17.6193 273.961 17.6592C273.902 17.6992 273.824 17.7214 273.743 17.7214C273.662 17.7214 273.584 17.6992 273.525 17.6592C273.466 17.6193 273.429 17.5645 273.423 17.5059V9.40336C273.429 9.34474 273.466 9.28997 273.525 9.25C273.584 9.21003 273.662 9.18781 273.743 9.18781C273.824 9.18781 273.902 9.21003 273.961 9.25C274.02 9.28997 274.057 9.34474 274.063 9.40336ZM271.932 9.40336V17.5059C271.926 17.5645 271.89 17.6193 271.83 17.6592C271.771 17.6992 271.693 17.7214 271.612 17.7214C271.531 17.7214 271.453 17.6992 271.394 17.6592C271.335 17.6193 271.298 17.5645 271.292 17.5059V9.40336C271.298 9.34474 271.335 9.28997 271.394 9.25C271.453 9.21003 271.531 9.18781 271.612 9.18781C271.693 9.18781 271.771 9.21003 271.83 9.25C271.89 9.28997 271.926 9.34474 271.932 9.40336ZM307.833 10.3658C307.918 10.3658 308 10.3904 308.06 10.4341C308.12 10.4778 308.154 10.537 308.154 10.5988V17.5059C308.148 17.5645 308.111 17.6193 308.052 17.6592C307.993 17.6992 307.915 17.7214 307.834 17.7214C307.753 17.7214 307.675 17.6992 307.616 17.6592C307.556 17.6193 307.52 17.5645 307.514 17.5059V10.6015C307.513 10.5707 307.521 10.5402 307.537 10.5116C307.552 10.483 307.576 10.457 307.606 10.4351C307.635 10.4131 307.671 10.3957 307.71 10.3838C307.749 10.3719 307.791 10.3658 307.833 10.3658ZM306.021 9.40336V17.5059C306.015 17.5645 305.979 17.6193 305.919 17.6592C305.86 17.6992 305.782 17.7214 305.701 17.7214C305.62 17.7214 305.542 17.6992 305.483 17.6592C305.424 17.6193 305.387 17.5645 305.381 17.5059V9.40336C305.387 9.34474 305.424 9.28997 305.483 9.25C305.542 9.21003 305.62 9.18781 305.701 9.18781C305.782 9.18781 305.86 9.21003 305.919 9.25C305.979 9.28997 306.015 9.34474 306.021 9.40336ZM303.89 9.40336V17.5059C303.884 17.5645 303.848 17.6193 303.788 17.6592C303.729 17.6992 303.651 17.7214 303.57 17.7214C303.489 17.7214 303.411 17.6992 303.352 17.6592C303.293 17.6193 303.257 17.5645 303.25 17.5059V9.40336C303.257 9.34474 303.293 9.28997 303.352 9.25C303.411 9.21003 303.489 9.18781 303.57 9.18781C303.651 9.18781 303.729 9.21003 303.788 9.25C303.848 9.28997 303.884 9.34474 303.89 9.40336ZM301.759 9.40336V17.5059C301.753 17.5645 301.717 17.6193 301.657 17.6592C301.598 17.6992 301.52 17.7214 301.439 17.7214C301.358 17.7214 301.281 17.6992 301.221 17.6592C301.162 17.6193 301.126 17.5645 301.12 17.5059V9.40336C301.126 9.34474 301.162 9.28997 301.221 9.25C301.281 9.21003 301.358 9.18781 301.439 9.18781C301.52 9.18781 301.598 9.21003 301.657 9.25C301.717 9.28997 301.753 9.34474 301.759 9.40336ZM299.628 9.40336V17.5059C299.628 17.5673 299.595 17.6263 299.535 17.6697C299.475 17.7132 299.394 17.7376 299.309 17.7376C299.225 17.7376 299.144 17.7132 299.084 17.6697C299.024 17.6263 298.99 17.5673 298.99 17.5059V9.40336C298.99 9.3419 299.024 9.28296 299.084 9.2395C299.144 9.19604 299.225 9.17163 299.309 9.17163C299.394 9.17163 299.475 9.19604 299.535 9.2395C299.595 9.28296 299.628 9.3419 299.628 9.40336ZM297.497 9.40336V17.5059C297.497 17.5673 297.464 17.6263 297.404 17.6697C297.344 17.7132 297.263 17.7376 297.178 17.7376C297.094 17.7376 297.013 17.7132 296.953 17.6697C296.893 17.6263 296.86 17.5673 296.86 17.5059V9.40336C296.86 9.3419 296.893 9.28296 296.953 9.2395C297.013 9.19604 297.094 9.17163 297.178 9.17163C297.263 9.17163 297.344 9.19604 297.404 9.2395C297.464 9.28296 297.497 9.3419 297.497 9.40336ZM295.368 9.40336V17.5059C295.362 17.5645 295.326 17.6193 295.267 17.6592C295.207 17.6992 295.129 17.7214 295.048 17.7214C294.968 17.7214 294.89 17.6992 294.83 17.6592C294.771 17.6193 294.735 17.5645 294.729 17.5059V9.40336C294.735 9.34474 294.771 9.28997 294.83 9.25C294.89 9.21003 294.968 9.18781 295.048 9.18781C295.129 9.18781 295.207 9.21003 295.267 9.25C295.326 9.28997 295.362 9.34474 295.368 9.40336ZM293.237 9.40336V17.5059C293.231 17.5645 293.195 17.6193 293.136 17.6592C293.076 17.6992 292.998 17.7214 292.918 17.7214C292.837 17.7214 292.759 17.6992 292.699 17.6592C292.64 17.6193 292.604 17.5645 292.598 17.5059V9.40336C292.604 9.34474 292.64 9.28997 292.699 9.25C292.759 9.21003 292.837 9.18781 292.918 9.18781C292.998 9.18781 293.076 9.21003 293.136 9.25C293.195 9.28997 293.231 9.34474 293.237 9.40336ZM291.106 9.40336V17.5059C291.1 17.5645 291.064 17.6193 291.005 17.6592C290.945 17.6992 290.868 17.7214 290.787 17.7214C290.706 17.7214 290.628 17.6992 290.569 17.6592C290.509 17.6193 290.473 17.5645 290.467 17.5059V9.40336C290.473 9.34474 290.509 9.28997 290.569 9.25C290.628 9.21003 290.706 9.18781 290.787 9.18781C290.868 9.18781 290.945 9.21003 291.005 9.25C291.064 9.28997 291.1 9.34474 291.106 9.40336ZM288.336 9.40336C288.342 9.34474 288.378 9.28997 288.438 9.25C288.497 9.21003 288.575 9.18781 288.656 9.18781C288.737 9.18781 288.815 9.21003 288.874 9.25C288.933 9.28997 288.97 9.34474 288.976 9.40336V17.5059C288.97 17.5645 288.933 17.6193 288.874 17.6592C288.815 17.6992 288.737 17.7214 288.656 17.7214C288.575 17.7214 288.497 17.6992 288.438 17.6592C288.378 17.6193 288.342 17.5645 288.336 17.5059V9.40336ZM309.643 17.5059V12.0498C309.649 11.9912 309.686 11.9364 309.745 11.8964C309.804 11.8564 309.882 11.8342 309.963 11.8342C310.044 11.8342 310.122 11.8564 310.181 11.8964C310.24 11.9364 310.277 11.9912 310.283 12.0498V17.5125C310.277 17.5711 310.24 17.6258 310.181 17.6658C310.122 17.7058 310.044 17.728 309.963 17.728C309.882 17.728 309.804 17.7058 309.745 17.6658C309.686 17.6258 309.649 17.5711 309.643 17.5125V17.5059ZM279.814 7.02421V7.8629H278.323V7.02421H279.814ZM280.454 7.02421H281.945V7.8629H280.454V7.02421ZM282.583 7.02421H284.074V7.8629H282.577L282.583 7.02421ZM284.714 7.02421H286.201V7.8629H284.71L284.714 7.02421ZM286.845 7.02421H288.336V7.8629H286.845V7.02421ZM297.497 7.8629V7.02421H298.99V7.8629H297.497ZM296.86 7.8629H295.368V7.02421H296.86V7.8629ZM294.729 7.8629H293.237V7.02421H294.729V7.8629ZM292.598 7.8629H291.106V7.02421H292.598V7.8629ZM290.467 7.8629H288.976V7.02421H290.467V7.8629ZM303.89 7.8629V7.02421H305.381V7.8629H303.89ZM303.25 7.8629H301.759V7.02421H303.25V7.8629ZM301.12 7.8629H299.628V7.02421H301.12V7.8629ZM277.683 7.8629H276.192V7.02421H277.685L277.683 7.8629ZM275.552 7.8629H274.061V7.02421H275.552V7.8629ZM269.801 10.6015V17.5085C269.795 17.5671 269.759 17.6219 269.699 17.6619C269.64 17.7018 269.562 17.724 269.481 17.724C269.4 17.724 269.322 17.7018 269.263 17.6619C269.204 17.6219 269.168 17.5671 269.161 17.5085V10.6015C269.158 10.5695 269.164 10.5374 269.178 10.5071C269.193 10.4768 269.216 10.449 269.246 10.4255C269.276 10.402 269.313 10.3832 269.353 10.3704C269.393 10.3576 269.437 10.3509 269.481 10.3509C269.525 10.3509 269.569 10.3576 269.61 10.3704C269.65 10.3832 269.686 10.402 269.716 10.4255C269.746 10.449 269.769 10.4768 269.784 10.5071C269.799 10.5374 269.804 10.5695 269.801 10.6015ZM267.67 12.0498V17.5125C267.67 17.5739 267.637 17.6329 267.577 17.6763C267.517 17.7198 267.436 17.7442 267.351 17.7442C267.267 17.7442 267.186 17.7198 267.126 17.6763C267.066 17.6329 267.032 17.5739 267.032 17.5125V12.0498C267.032 11.9883 267.066 11.9294 267.126 11.8859C267.186 11.8425 267.267 11.818 267.351 11.818C267.436 11.818 267.517 11.8425 267.577 11.8859C267.637 11.9294 267.67 11.9883 267.67 12.0498ZM271.773 25.981H273.122V26.609H271.773V25.981ZM304.336 25.981H305.771V26.609H304.332L304.336 25.981ZM309.893 23.145H308.527V22.7671H306.84V23.4254H307.48V23.2345H307.887V23.6295H306.414V22.5117H309.893V23.145ZM309.893 21.8033H308.154V20.7579H309.893V21.8033ZM307.514 7.8629H306.023V7.02421H307.514V7.8629ZM300.103 4.11578V3.30078H301.371V5.65097H305.479V6.30928H300.388V4.5213H297.523V4.11578H300.103ZM289.497 2.70172V4.11446H292.966V1.59575H290.512V2.93081H291.152V2.06052H292.328V3.65101H290.137V1.18234H294.017V4.11578H296.892V4.5213H289.119V2.70172H289.497ZM283.398 4.11446V1.18234H287.289V3.65101H285.098V2.06052H286.274V2.93081H286.912V1.59575H284.458V4.11578H287.926V2.70172H288.49V4.51998H280.537V4.11446H283.398ZM271.932 5.65097H276.04V3.30078H277.308V4.11578H279.883V4.5213H277.201V6.31455H271.932V5.65097ZM269.801 7.02421H271.292V7.8629H269.801V7.02421ZM260.73 20.8817V21.7204H259.239V20.8817H260.73ZM258.599 20.8817V21.7204H257.108V20.8817H258.599ZM256.47 20.8817V21.7204H254.979V20.8817H256.47ZM252.846 20.8817H254.338V21.7204H252.846V20.8817ZM250.715 20.8817H252.207V21.7204H250.715V20.8817ZM248.584 20.8817H250.076V21.7204H248.584V20.8817ZM246.454 20.8817H247.945V21.7204H246.454V20.8817ZM244.004 31.5951C243.962 31.5953 243.92 31.5894 243.881 31.5778C243.842 31.5663 243.807 31.5492 243.777 31.5277C243.747 31.5062 243.724 31.4806 243.707 31.4524C243.691 31.4242 243.683 31.3939 243.683 31.3634V25.9007C243.689 25.8421 243.725 25.7873 243.785 25.7473C243.844 25.7074 243.922 25.6851 244.003 25.6851C244.084 25.6851 244.162 25.7074 244.221 25.7473C244.28 25.7873 244.317 25.8421 244.323 25.9007V31.3634C244.323 31.4246 244.289 31.4833 244.23 31.5268C244.17 31.5702 244.09 31.5948 244.006 31.5951H244.004ZM245.816 35.6543H244.076V34.6089H245.816V35.6543ZM246.455 31.3634C246.449 31.422 246.413 31.4768 246.354 31.5167C246.294 31.5567 246.216 31.5789 246.136 31.5789C246.055 31.5789 245.977 31.5567 245.917 31.5167C245.858 31.4768 245.822 31.422 245.816 31.3634V24.4563C245.812 24.4244 245.818 24.3922 245.833 24.3619C245.847 24.3317 245.87 24.3039 245.9 24.2804C245.93 24.2568 245.967 24.2381 246.007 24.2253C246.048 24.2124 246.091 24.2058 246.136 24.2058C246.18 24.2058 246.223 24.2124 246.264 24.2253C246.304 24.2381 246.341 24.2568 246.371 24.2804C246.401 24.3039 246.424 24.3317 246.438 24.3619C246.453 24.3922 246.459 24.4244 246.455 24.4563V31.3634ZM247.947 35.6543H246.455V34.6089H247.947V35.6543ZM248.586 31.3634C248.58 31.422 248.544 31.4768 248.485 31.5167C248.425 31.5567 248.347 31.5789 248.266 31.5789C248.186 31.5789 248.108 31.5567 248.048 31.5167C247.989 31.4768 247.953 31.422 247.947 31.3634V23.2609C247.953 23.2022 247.989 23.1475 248.048 23.1075C248.108 23.0675 248.186 23.0453 248.266 23.0453C248.347 23.0453 248.425 23.0675 248.485 23.1075C248.544 23.1475 248.58 23.2022 248.586 23.2609V31.3634ZM250.078 35.6543H248.586V34.6089H250.078V35.6543ZM250.717 31.3634C250.711 31.422 250.675 31.4768 250.615 31.5167C250.556 31.5567 250.478 31.5789 250.397 31.5789C250.316 31.5789 250.239 31.5567 250.179 31.5167C250.12 31.4768 250.084 31.422 250.078 31.3634V23.2609C250.084 23.2022 250.12 23.1475 250.179 23.1075C250.239 23.0675 250.316 23.0453 250.397 23.0453C250.478 23.0453 250.556 23.0675 250.615 23.1075C250.675 23.1475 250.711 23.2022 250.717 23.2609V31.3634ZM252.208 35.6543H250.717V34.6089H252.208V35.6543ZM252.848 31.3634C252.842 31.422 252.806 31.4768 252.746 31.5167C252.687 31.5567 252.609 31.5789 252.528 31.5789C252.447 31.5789 252.369 31.5567 252.31 31.5167C252.251 31.4768 252.215 31.422 252.208 31.3634V23.2609C252.215 23.2022 252.251 23.1475 252.31 23.1075C252.369 23.0675 252.447 23.0453 252.528 23.0453C252.609 23.0453 252.687 23.0675 252.746 23.1075C252.806 23.1475 252.842 23.2022 252.848 23.2609V31.3634ZM254.339 35.6543H252.848V34.6089H254.339V35.6543ZM254.979 31.3634C254.973 31.422 254.937 31.4768 254.877 31.5167C254.818 31.5567 254.74 31.5789 254.659 31.5789C254.578 31.5789 254.5 31.5567 254.441 31.5167C254.382 31.4768 254.345 31.422 254.339 31.3634V23.2609C254.345 23.2022 254.382 23.1475 254.441 23.1075C254.5 23.0675 254.578 23.0453 254.659 23.0453C254.74 23.0453 254.818 23.0675 254.877 23.1075C254.937 23.1475 254.973 23.2022 254.979 23.2609V31.3634ZM256.47 35.6543H254.979V34.6089H256.47V35.6543ZM257.108 31.3634C257.108 31.4248 257.074 31.4838 257.015 31.5272C256.955 31.5707 256.874 31.5951 256.789 31.5951C256.705 31.5951 256.623 31.5707 256.564 31.5272C256.504 31.4838 256.47 31.4248 256.47 31.3634V23.2609C256.47 23.1994 256.504 23.1405 256.564 23.097C256.623 23.0535 256.705 23.0291 256.789 23.0291C256.874 23.0291 256.955 23.0535 257.015 23.097C257.074 23.1405 257.108 23.1994 257.108 23.2609V31.3634ZM258.599 35.6543H257.108V34.6089H258.599V35.6543ZM259.239 31.3634C259.233 31.422 259.197 31.4768 259.137 31.5167C259.078 31.5567 259 31.5789 258.919 31.5789C258.838 31.5789 258.76 31.5567 258.701 31.5167C258.642 31.4768 258.605 31.422 258.599 31.3634V23.2609C258.605 23.2022 258.642 23.1475 258.701 23.1075C258.76 23.0675 258.838 23.0453 258.919 23.0453C259 23.0453 259.078 23.0675 259.137 23.1075C259.197 23.1475 259.233 23.2022 259.239 23.2609V31.3634ZM260.73 35.6543H259.239V34.6089H260.73V35.6543ZM261.377 31.3634C261.371 31.422 261.335 31.4768 261.275 31.5167C261.216 31.5567 261.138 31.5789 261.057 31.5789C260.976 31.5789 260.899 31.5567 260.839 31.5167C260.78 31.4768 260.744 31.422 260.737 31.3634V23.2609C260.744 23.2022 260.78 23.1475 260.839 23.1075C260.899 23.0675 260.976 23.0453 261.057 23.0453C261.138 23.0453 261.216 23.0675 261.275 23.1075C261.335 23.1475 261.371 23.2022 261.377 23.2609V31.3634ZM262.868 35.6543H261.377V34.6089H262.868V35.6543ZM262.868 31.3634V23.2609C262.869 23.2111 262.891 23.1626 262.932 23.1228C262.973 23.083 263.031 23.0538 263.097 23.0397V31.5846C263.03 31.5714 262.97 31.5426 262.928 31.5027C262.885 31.4628 262.862 31.4139 262.861 31.3634H262.868ZM267.58 31.025V27.3121H269.573V30.0152H268.348V31.025H267.58ZM271.705 28.48V31.9888H268.968V30.4825H270.76V31.179H270.192V30.8183H269.553V31.6438H271.399V30.0152H270.192V27.3121H273.122V28.0547H273.485V28.48H271.705ZM275.788 28.9447H277.504V29.4003H275.781L275.788 28.9447ZM298.818 28.9447V29.4003H297.327V28.9447H298.818ZM296.687 29.4003H295.196V28.9447H296.687V29.4003ZM294.557 29.4003H293.065V28.9447H294.557V29.4003ZM292.426 29.4003H290.934V28.9447H292.426V29.4003ZM290.295 29.4003H288.803V28.9447H290.295V29.4003ZM288.164 29.4003H286.673V28.9447H288.164V29.4003ZM286.033 29.4003H284.542V28.9447H286.033V29.4003ZM283.904 29.4003H282.411V28.9447H283.904V29.4003ZM281.773 29.4003H280.282V28.9447H281.773V29.4003ZM279.642 29.4003H278.151V28.9447H279.642V29.4003ZM299.456 29.4003V28.9447H301.676V29.4003H299.456ZM301.993 28.4786H274.134V28.0534H303.325V28.4786H301.993ZM308.489 31.9888H305.755V28.48H303.959V28.0547H304.332V27.3121H307.262V30.0152H306.055V31.6412H307.902V30.8157H307.262V31.1764H306.693V30.4825H308.487L308.489 31.9888ZM309.129 31.025V30.0152H307.904V27.3121H309.897V31.025H309.129ZM314.418 31.5951C314.4 31.5964 314.383 31.5964 314.365 31.5951V23.037C314.383 23.0357 314.4 23.0357 314.418 23.037C314.502 23.037 314.583 23.0614 314.643 23.1049C314.703 23.1484 314.737 23.2073 314.737 23.2688V31.3713C314.734 31.4311 314.699 31.4879 314.64 31.5296C314.581 31.5713 314.502 31.5948 314.42 31.5951H314.418ZM316.23 35.6543H314.738V34.6089H316.23V35.6543ZM316.23 21.7204H314.738V20.8817H316.23V21.7204ZM316.549 31.5951C316.464 31.5951 316.383 31.5707 316.323 31.5272C316.263 31.4838 316.23 31.4248 316.23 31.3634V23.2609C316.236 23.2022 316.272 23.1475 316.331 23.1075C316.391 23.0675 316.469 23.0453 316.55 23.0453C316.63 23.0453 316.708 23.0675 316.768 23.1075C316.827 23.1475 316.863 23.2022 316.869 23.2609V31.3634C316.869 31.3939 316.861 31.4242 316.845 31.4524C316.829 31.4806 316.805 31.5062 316.775 31.5277C316.746 31.5492 316.71 31.5663 316.671 31.5778C316.632 31.5894 316.591 31.5953 316.549 31.5951ZM318.361 35.6543H316.869V34.6089H318.361V35.6543ZM318.361 21.7204H316.869V20.8817H318.361V21.7204ZM318.68 31.5951C318.595 31.5951 318.514 31.5707 318.454 31.5272C318.394 31.4838 318.361 31.4248 318.361 31.3634V23.2609C318.367 23.2022 318.403 23.1475 318.462 23.1075C318.522 23.0675 318.6 23.0453 318.68 23.0453C318.761 23.0453 318.839 23.0675 318.899 23.1075C318.958 23.1475 318.994 23.2022 319 23.2609V31.3634C319 31.3939 318.992 31.4242 318.976 31.4524C318.96 31.4806 318.936 31.5062 318.906 31.5277C318.876 31.5492 318.841 31.5663 318.802 31.5778C318.763 31.5894 318.722 31.5953 318.68 31.5951ZM320.492 35.6543H318.998V34.6089H320.49L320.492 35.6543ZM320.492 21.7204H318.998V20.8817H320.49L320.492 21.7204ZM320.81 31.5951C320.726 31.5951 320.645 31.5707 320.585 31.5272C320.525 31.4838 320.492 31.4248 320.492 31.3634V23.2609C320.498 23.2022 320.534 23.1475 320.593 23.1075C320.653 23.0675 320.73 23.0453 320.811 23.0453C320.892 23.0453 320.97 23.0675 321.029 23.1075C321.089 23.1475 321.125 23.2022 321.131 23.2609V31.3634C321.131 31.3939 321.123 31.4242 321.107 31.4524C321.091 31.4806 321.067 31.5062 321.037 31.5277C321.007 31.5492 320.972 31.5663 320.933 31.5778C320.894 31.5894 320.852 31.5953 320.81 31.5951ZM322.622 35.6543H321.131V34.6089H322.622V35.6543ZM322.622 21.7204H321.131V20.8817H322.622V21.7204ZM322.941 31.5951C322.857 31.5951 322.776 31.5707 322.716 31.5272C322.656 31.4838 322.622 31.4248 322.622 31.3634V23.2609C322.622 23.1994 322.656 23.1405 322.716 23.097C322.776 23.0535 322.857 23.0291 322.941 23.0291C323.026 23.0291 323.107 23.0535 323.167 23.097C323.227 23.1405 323.26 23.1994 323.26 23.2609V31.3634C323.26 31.4248 323.227 31.4838 323.167 31.5272C323.107 31.5707 323.026 31.5951 322.941 31.5951ZM324.753 35.6543H323.262V34.6089H324.753V35.6543ZM324.753 21.7204H323.262V20.8817H324.753V21.7204ZM325.074 31.5951C325.032 31.5953 324.99 31.5894 324.951 31.5778C324.913 31.5663 324.877 31.5492 324.847 31.5277C324.818 31.5062 324.794 31.4806 324.778 31.4524C324.762 31.4242 324.753 31.3939 324.753 31.3634V23.2609C324.759 23.2022 324.796 23.1475 324.855 23.1075C324.914 23.0675 324.992 23.0453 325.073 23.0453C325.154 23.0453 325.232 23.0675 325.291 23.1075C325.351 23.1475 325.387 23.2022 325.393 23.2609V31.3634C325.393 31.3939 325.385 31.4242 325.369 31.4524C325.352 31.4806 325.329 31.5062 325.299 31.5277C325.269 31.5492 325.234 31.5663 325.195 31.5778C325.156 31.5894 325.114 31.5953 325.072 31.5951H325.074ZM326.886 35.6543H325.395V34.6089H326.886V35.6543ZM326.886 21.7204H325.395V20.8817H326.886V21.7204ZM327.207 31.5951C327.165 31.5953 327.123 31.5894 327.084 31.5778C327.045 31.5663 327.01 31.5492 326.98 31.5277C326.95 31.5062 326.927 31.4806 326.911 31.4524C326.894 31.4242 326.886 31.3939 326.886 31.3634V23.2609C326.892 23.2022 326.928 23.1475 326.988 23.1075C327.047 23.0675 327.125 23.0453 327.206 23.0453C327.287 23.0453 327.365 23.0675 327.424 23.1075C327.483 23.1475 327.52 23.2022 327.526 23.2609V31.3634C327.526 31.394 327.517 31.4244 327.501 31.4527C327.485 31.4809 327.461 31.5066 327.431 31.5282C327.401 31.5497 327.365 31.5667 327.326 31.5782C327.287 31.5897 327.245 31.5954 327.203 31.5951H327.207ZM329.019 35.6543H327.515V34.6089H329.006L329.019 35.6543ZM329.019 21.7204H327.515V20.8817H329.006L329.019 21.7204ZM329.34 31.5951C329.297 31.5953 329.256 31.5894 329.217 31.5778C329.178 31.5663 329.143 31.5492 329.113 31.5277C329.083 31.5062 329.059 31.4806 329.043 31.4524C329.027 31.4242 329.019 31.3939 329.019 31.3634V23.2609C329.025 23.2022 329.061 23.1475 329.12 23.1075C329.18 23.0675 329.258 23.0453 329.339 23.0453C329.419 23.0453 329.497 23.0675 329.557 23.1075C329.616 23.1475 329.652 23.2022 329.658 23.2609V31.3634C329.658 31.3946 329.65 31.4255 329.633 31.4542C329.616 31.483 329.592 31.5089 329.561 31.5306C329.53 31.5522 329.493 31.5691 329.453 31.5802C329.413 31.5913 329.37 31.5963 329.327 31.5951H329.34ZM331.151 35.6543H329.66V34.6089H331.139L331.151 35.6543ZM331.151 21.7204H329.66V20.8817H331.139L331.151 21.7204ZM331.47 31.5951C331.386 31.5951 331.305 31.5707 331.245 31.5272C331.185 31.4838 331.151 31.4248 331.151 31.3634V24.4563C331.148 24.4244 331.154 24.3922 331.169 24.3619C331.183 24.3317 331.206 24.3039 331.236 24.2804C331.266 24.2568 331.303 24.2381 331.343 24.2253C331.384 24.2124 331.427 24.2058 331.471 24.2058C331.515 24.2058 331.559 24.2124 331.6 24.2253C331.64 24.2381 331.676 24.2568 331.706 24.2804C331.736 24.3039 331.76 24.3317 331.774 24.3619C331.789 24.3922 331.794 24.4244 331.791 24.4563V31.3634C331.791 31.3944 331.783 31.4251 331.766 31.4536C331.749 31.4822 331.725 31.508 331.695 31.5296C331.664 31.5512 331.628 31.5681 331.588 31.5794C331.548 31.5906 331.506 31.596 331.463 31.5951H331.47ZM333.531 35.6543H331.791V34.6089H333.531V35.6543ZM333.922 31.3634C333.916 31.422 333.88 31.4768 333.82 31.5167C333.761 31.5567 333.683 31.5789 333.602 31.5789C333.521 31.5789 333.443 31.5567 333.384 31.5167C333.325 31.4768 333.288 31.422 333.282 31.3634V25.9007C333.288 25.8421 333.325 25.7873 333.384 25.7473C333.443 25.7074 333.521 25.6851 333.602 25.6851C333.683 25.6851 333.761 25.7074 333.82 25.7473C333.88 25.7873 333.916 25.8421 333.922 25.9007V31.3634Z"/>
</mask>
<path d="M344.107 28.6222C344.134 28.6178 344.161 28.6121 344.187 28.605C350.975 28.1864 354.639 26.1443 354.8 26.0534L353.751 25.0778C353.474 25.2205 353.186 25.3524 352.89 25.4728V25.1068C352.88 24.9474 352.786 24.797 352.627 24.6868C352.468 24.5767 352.257 24.5152 352.037 24.5152C351.818 24.5152 351.607 24.5767 351.448 24.6868C351.289 24.797 351.195 24.9474 351.185 25.1068V26.0929C350.859 26.1956 350.504 26.3009 350.119 26.4036V25.7848C350.125 25.7011 350.107 25.6174 350.066 25.5389C350.026 25.4604 349.964 25.3886 349.884 25.328C349.804 25.2673 349.709 25.2191 349.603 25.1861C349.496 25.1531 349.382 25.1361 349.267 25.1361C349.152 25.1361 349.037 25.1531 348.931 25.1861C348.825 25.2191 348.729 25.2673 348.65 25.328C348.57 25.3886 348.508 25.4604 348.468 25.5389C348.427 25.6174 348.409 25.7011 348.414 25.7848V26.8013C348.116 26.8618 347.806 26.9193 347.483 26.9737V26.3009C347.473 26.1416 347.379 25.9912 347.22 25.881C347.061 25.7709 346.85 25.7094 346.63 25.7094C346.411 25.7094 346.2 25.7709 346.041 25.881C345.882 25.9912 345.788 26.1416 345.778 26.3009V27.2134C345.461 27.2489 345.136 27.2818 344.801 27.3108V26.6169C344.801 26.4528 344.712 26.2954 344.552 26.1794C344.392 26.0633 344.175 25.9981 343.95 25.9981C343.724 25.9981 343.507 26.0633 343.347 26.1794C343.188 26.2954 343.098 26.4528 343.098 26.6169V27.4069H342.944C337.64 27.5741 334.395 24.2984 333.268 22.9198C333.168 22.7553 333.07 22.5867 332.976 22.4129H333.719V21.7033H331.784V20.8646H333.719V20.1549H324.023V18.3788H323.057C324.101 18.0424 325.113 17.6572 326.087 17.2254L329.97 15.5007V13.6942C329.97 13.6942 325.455 15.0741 320.477 14.7633C320.504 14.7599 320.531 14.7546 320.557 14.7475C327.344 14.3289 331.008 12.2868 331.17 12.1959L330.12 11.219C329.845 11.3653 329.557 11.4998 329.26 11.6219V11.2598C329.25 11.1004 329.155 10.9501 328.997 10.8399C328.838 10.7297 328.627 10.6682 328.407 10.6682C328.188 10.6682 327.977 10.7297 327.818 10.8399C327.659 10.9501 327.565 11.1004 327.555 11.2598V12.2459C327.229 12.3486 326.873 12.454 326.489 12.5567V11.9379C326.495 11.8541 326.476 11.7704 326.436 11.6919C326.396 11.6134 326.334 11.5416 326.254 11.481C326.174 11.4204 326.078 11.3721 325.972 11.3391C325.866 11.3062 325.752 11.2892 325.637 11.2892C325.521 11.2892 325.407 11.3062 325.301 11.3391C325.195 11.3721 325.099 11.4204 325.019 11.481C324.94 11.5416 324.878 11.6134 324.837 11.6919C324.797 11.7704 324.779 11.8541 324.784 11.9379V12.9543C324.485 13.0149 324.174 13.0724 323.853 13.1268V12.4448C323.858 12.361 323.84 12.2773 323.8 12.1988C323.759 12.1203 323.697 12.0485 323.617 11.9879C323.538 11.9273 323.442 11.879 323.336 11.846C323.23 11.8131 323.116 11.7961 323 11.7961C322.885 11.7961 322.771 11.8131 322.665 11.846C322.559 11.879 322.463 11.9273 322.383 11.9879C322.303 12.0485 322.241 12.1203 322.201 12.1988C322.161 12.2773 322.142 12.361 322.148 12.4448V13.3664C321.831 13.4033 321.506 13.4362 321.171 13.4651V12.7713C321.171 12.6072 321.081 12.4498 320.922 12.3337C320.762 12.2177 320.545 12.1525 320.319 12.1525C320.094 12.1525 319.877 12.2177 319.717 12.3337C319.557 12.4498 319.468 12.6072 319.468 12.7713V13.5613H319.314C314.015 13.7272 310.772 10.4619 309.641 9.08473C309.54 8.91751 309.44 8.74768 309.346 8.57256H310.089V7.8629H308.154V7.02421H310.089V6.31455H306.122V5.1862H302.016V2.83338H300.103V0.718881H295.274V3.28894H298.59V1.62077H296.51V2.08554H297.95V2.82417H295.912V1.18234H299.463V3.65101H294.656V0.718881H289.497V2.23827H289.119V0.463455H294.638V0H282.795V0.463455H288.481V2.23432H287.917V0.718881H282.759V3.65101H277.95V1.18234H281.501V2.82417H279.464V2.08554H280.903V1.62077H278.827V3.28894H282.143V0.718881H277.323V2.83338H275.4V5.18225H271.292V6.31059H267.369V7.02026H269.169V7.85895H267.377V8.56861H268.12C268.024 8.74372 267.926 8.91489 267.824 9.08078C266.694 10.4632 263.45 13.7298 258.15 13.5573H257.998V12.7673C257.998 12.6032 257.908 12.4458 257.748 12.3298C257.589 12.2137 257.372 12.1485 257.146 12.1485C256.92 12.1485 256.704 12.2137 256.544 12.3298C256.384 12.4458 256.294 12.6032 256.294 12.7673V13.4612C255.959 13.4322 255.635 13.3993 255.318 13.3624V12.4448C255.323 12.361 255.305 12.2773 255.265 12.1988C255.224 12.1203 255.162 12.0485 255.082 11.9879C255.003 11.9273 254.907 11.879 254.801 11.846C254.695 11.8131 254.581 11.7961 254.465 11.7961C254.35 11.7961 254.236 11.8131 254.13 11.846C254.024 11.879 253.928 11.9273 253.848 11.9879C253.768 12.0485 253.706 12.1203 253.666 12.1988C253.626 12.2773 253.607 12.361 253.613 12.4448V13.1176C253.29 13.064 252.979 13.0065 252.68 12.9451V11.9286C252.68 11.7645 252.59 11.6071 252.43 11.4911C252.27 11.375 252.054 11.3098 251.828 11.3098C251.602 11.3098 251.385 11.375 251.226 11.4911C251.066 11.6071 250.976 11.7645 250.976 11.9286V12.5475C250.59 12.4448 250.235 12.3394 249.911 12.2367V11.2598C249.901 11.1004 249.806 10.9501 249.648 10.8399C249.489 10.7297 249.278 10.6682 249.058 10.6682C248.839 10.6682 248.628 10.7297 248.469 10.8399C248.31 10.9501 248.216 11.1004 248.206 11.2598V11.6258C247.91 11.5057 247.623 11.3738 247.347 11.2308L246.296 12.2065C246.455 12.2973 250.119 14.3394 256.909 14.7581C256.935 14.7652 256.961 14.7705 256.988 14.7739C252.011 15.0846 247.495 13.7048 247.495 13.7048V15.5112L251.379 17.236C252.353 17.6677 253.365 18.053 254.408 18.3893H253.586V20.1826H243.891V20.8922H245.825V21.7309H243.882V22.4406H244.623C244.529 22.6144 244.431 22.7829 244.332 22.9475C243.205 24.326 239.959 27.6018 234.656 27.4346H234.503V26.6446C234.493 26.4852 234.399 26.3348 234.24 26.2247C234.082 26.1145 233.87 26.053 233.651 26.053C233.431 26.053 233.22 26.1145 233.062 26.2247C232.903 26.3348 232.809 26.4852 232.798 26.6446V27.3226C232.463 27.2937 232.139 27.2608 231.822 27.2252V26.3128C231.812 26.1534 231.717 26.003 231.559 25.8929C231.4 25.7827 231.189 25.7212 230.969 25.7212C230.75 25.7212 230.539 25.7827 230.38 25.8929C230.221 26.003 230.127 26.1534 230.117 26.3128V26.9856C229.794 26.932 229.484 26.8746 229.185 26.8131V25.7967C229.191 25.7129 229.172 25.6293 229.132 25.5507C229.092 25.4722 229.03 25.4005 228.95 25.3398C228.87 25.2792 228.774 25.2309 228.668 25.198C228.562 25.165 228.448 25.148 228.333 25.148C228.217 25.148 228.103 25.165 227.997 25.198C227.891 25.2309 227.795 25.2792 227.716 25.3398C227.636 25.4005 227.574 25.4722 227.533 25.5507C227.493 25.6293 227.475 25.7129 227.48 25.7967V26.4155C227.096 26.3128 226.741 26.2075 226.415 26.1048V25.1186C226.415 24.9545 226.325 24.7971 226.165 24.681C226.006 24.565 225.789 24.4998 225.563 24.4998C225.337 24.4998 225.121 24.565 224.961 24.681C224.801 24.7971 224.711 24.9545 224.711 25.1186V25.4794C224.415 25.3587 224.127 25.2269 223.849 25.0844L222.8 26.06C222.961 26.1508 226.625 28.1929 233.413 28.6116C233.439 28.6185 233.465 28.6242 233.492 28.6287C228.515 28.9381 224.001 27.5583 224.001 27.5583V29.3647L227.882 31.0895C232.032 32.9312 236.8 33.9057 241.663 33.9058H237.932V34.6141H239.602V55.48H238.963V56.8151H238.04V59.8842H245.636V56.8151H244.716V55.4708H244.076V36.3639H263.089V55.5867H262.45V56.931H261.529V59.9987H269.125V56.931H268.203V55.5867H267.565V31.4924H268.328V32.4575H272.34V28.9447H275.148V30.3246H273.532V29.7979H274.028V30.0046H274.668V29.3345H272.892V30.792H275.792V29.8703H301.679V30.792H304.579V29.3318H302.803V30.002H303.441V29.7953H303.939V30.3219H302.323V28.9447H305.128V32.4575H309.141V31.4937H309.904V55.588H309.264V56.9323H308.344V60H315.94V56.9323H315.012V55.588H314.372V36.3652H333.529V55.4761H332.889V56.8151H331.969V59.8842H339.565V56.8151H338.642V55.4708H338.004V34.6089H339.673V33.9058H335.942C340.802 33.9041 345.567 32.9292 349.714 31.0882L353.597 29.3634V27.5517C353.597 27.5517 349.078 28.9316 344.107 28.6222ZM306.418 26.6025V25.4399H307.891V25.8349H307.483V25.6439H306.844V26.3023H308.531V25.9797H309.897V26.6077L306.418 26.6025ZM267.569 26.6025V25.9744H269.018V26.297H270.703V25.6387H270.075V25.8296H269.667V25.4346H271.142V26.5972L267.569 26.6025ZM262.858 20.8817V21.7204H261.377V20.8817H262.858ZM273.42 7.02421V7.8629H271.928V7.02421H273.42ZM306.023 21.7928V20.7474H307.514V21.7928H306.023ZM308.527 24.0837V23.5992H309.893V25.5057H308.527V24.9725H307.462V24.0837H308.527ZM306.822 24.9725H305.771V25.5057H304.332V23.6032H305.771V24.0877H306.818L306.822 24.9725ZM270.725 24.9725V24.0837H271.773V23.5992H273.122V25.5057H271.773V24.9725H270.725ZM269.022 24.9725V25.5057H267.572V23.6032H269.022V24.0877H270.087V24.9764L269.022 24.9725ZM303.892 21.7928V20.7474H305.383V21.7928H303.892ZM303.252 21.7928H301.761V20.7474H303.252V21.7928ZM301.121 21.7928H299.63V20.7474H301.121V21.7928ZM298.992 21.7928H297.499V20.7474H298.992V21.7928ZM296.861 21.7928H295.37V20.7474H296.861V21.7928ZM294.73 21.7928H293.239V20.7474H294.73V21.7928ZM292.6 21.7928H291.108V20.7474H292.6V21.7928ZM290.469 21.7928H288.977V20.7474H290.469V21.7928ZM288.338 21.7928H286.846V20.7474H288.338V21.7928ZM286.201 21.7928H284.71V20.7474H286.201V21.7928ZM284.071 21.7928H282.577V20.7474H284.069L284.071 21.7928ZM281.941 21.7928H280.45V20.7474H281.941V21.7928ZM279.811 21.7928H278.319V20.7474H279.811V21.7928ZM277.685 21.7928H276.194V20.7474H277.685V21.7928ZM275.554 21.7928H274.061V20.7474H275.552L275.554 21.7928ZM273.423 21.7928H271.932V20.7474H273.423V21.7928ZM271.292 21.7928H269.801V20.7474H271.292V21.7928ZM269.169 21.7928H267.572V20.7474H269.169V21.7928ZM271.142 22.5025V23.6203H269.667V23.2253H270.075V23.4162H270.714V22.7579H269.029V23.1292H267.58V22.4972L271.142 22.5025ZM273.135 23.1345H271.785V22.5025H273.135V23.1345ZM305.787 23.1345H304.349V22.5025H305.771L305.787 23.1345ZM286.846 9.40336V17.5059C286.84 17.5645 286.804 17.6193 286.745 17.6592C286.685 17.6992 286.608 17.7214 286.527 17.7214C286.446 17.7214 286.368 17.6992 286.309 17.6592C286.249 17.6193 286.213 17.5645 286.207 17.5059V9.40336C286.213 9.34474 286.249 9.28997 286.309 9.25C286.368 9.21003 286.446 9.18781 286.527 9.18781C286.608 9.18781 286.685 9.21003 286.745 9.25C286.804 9.28997 286.84 9.34474 286.846 9.40336ZM284.716 9.40336V17.5059C284.71 17.5645 284.673 17.6193 284.614 17.6592C284.555 17.6992 284.477 17.7214 284.396 17.7214C284.315 17.7214 284.237 17.6992 284.178 17.6592C284.118 17.6193 284.082 17.5645 284.076 17.5059V9.40336C284.082 9.34474 284.118 9.28997 284.178 9.25C284.237 9.21003 284.315 9.18781 284.396 9.18781C284.477 9.18781 284.555 9.21003 284.614 9.25C284.673 9.28997 284.71 9.34474 284.716 9.40336ZM282.585 9.40336V17.5059C282.585 17.5673 282.551 17.6263 282.491 17.6697C282.431 17.7132 282.35 17.7376 282.266 17.7376C282.181 17.7376 282.1 17.7132 282.04 17.6697C281.98 17.6263 281.947 17.5673 281.947 17.5059V9.40336C281.947 9.3419 281.98 9.28296 282.04 9.2395C282.1 9.19604 282.181 9.17163 282.266 9.17163C282.35 9.17163 282.431 9.19604 282.491 9.2395C282.551 9.28296 282.585 9.3419 282.585 9.40336ZM280.456 9.40336V17.5059C280.45 17.5645 280.413 17.6193 280.354 17.6592C280.295 17.6992 280.217 17.7214 280.136 17.7214C280.055 17.7214 279.977 17.6992 279.918 17.6592C279.858 17.6193 279.822 17.5645 279.816 17.5059V9.40336C279.822 9.34474 279.858 9.28997 279.918 9.25C279.977 9.21003 280.055 9.18781 280.136 9.18781C280.217 9.18781 280.295 9.21003 280.354 9.25C280.413 9.28997 280.45 9.34474 280.456 9.40336ZM278.325 9.40336V17.5059C278.319 17.5645 278.282 17.6193 278.223 17.6592C278.164 17.6992 278.086 17.7214 278.005 17.7214C277.924 17.7214 277.846 17.6992 277.787 17.6592C277.727 17.6193 277.691 17.5645 277.685 17.5059V9.40336C277.691 9.34474 277.727 9.28997 277.787 9.25C277.846 9.21003 277.924 9.18781 278.005 9.18781C278.086 9.18781 278.164 9.21003 278.223 9.25C278.282 9.28997 278.319 9.34474 278.325 9.40336ZM276.194 9.40336V17.5059C276.188 17.5645 276.151 17.6193 276.092 17.6592C276.033 17.6992 275.955 17.7214 275.874 17.7214C275.793 17.7214 275.715 17.6992 275.656 17.6592C275.597 17.6193 275.56 17.5645 275.554 17.5059V9.40336C275.56 9.34474 275.597 9.28997 275.656 9.25C275.715 9.21003 275.793 9.18781 275.874 9.18781C275.955 9.18781 276.033 9.21003 276.092 9.25C276.151 9.28997 276.188 9.34474 276.194 9.40336ZM274.063 9.40336V17.5059C274.057 17.5645 274.02 17.6193 273.961 17.6592C273.902 17.6992 273.824 17.7214 273.743 17.7214C273.662 17.7214 273.584 17.6992 273.525 17.6592C273.466 17.6193 273.429 17.5645 273.423 17.5059V9.40336C273.429 9.34474 273.466 9.28997 273.525 9.25C273.584 9.21003 273.662 9.18781 273.743 9.18781C273.824 9.18781 273.902 9.21003 273.961 9.25C274.02 9.28997 274.057 9.34474 274.063 9.40336ZM271.932 9.40336V17.5059C271.926 17.5645 271.89 17.6193 271.83 17.6592C271.771 17.6992 271.693 17.7214 271.612 17.7214C271.531 17.7214 271.453 17.6992 271.394 17.6592C271.335 17.6193 271.298 17.5645 271.292 17.5059V9.40336C271.298 9.34474 271.335 9.28997 271.394 9.25C271.453 9.21003 271.531 9.18781 271.612 9.18781C271.693 9.18781 271.771 9.21003 271.83 9.25C271.89 9.28997 271.926 9.34474 271.932 9.40336ZM307.833 10.3658C307.918 10.3658 308 10.3904 308.06 10.4341C308.12 10.4778 308.154 10.537 308.154 10.5988V17.5059C308.148 17.5645 308.111 17.6193 308.052 17.6592C307.993 17.6992 307.915 17.7214 307.834 17.7214C307.753 17.7214 307.675 17.6992 307.616 17.6592C307.556 17.6193 307.52 17.5645 307.514 17.5059V10.6015C307.513 10.5707 307.521 10.5402 307.537 10.5116C307.552 10.483 307.576 10.457 307.606 10.4351C307.635 10.4131 307.671 10.3957 307.71 10.3838C307.749 10.3719 307.791 10.3658 307.833 10.3658ZM306.021 9.40336V17.5059C306.015 17.5645 305.979 17.6193 305.919 17.6592C305.86 17.6992 305.782 17.7214 305.701 17.7214C305.62 17.7214 305.542 17.6992 305.483 17.6592C305.424 17.6193 305.387 17.5645 305.381 17.5059V9.40336C305.387 9.34474 305.424 9.28997 305.483 9.25C305.542 9.21003 305.62 9.18781 305.701 9.18781C305.782 9.18781 305.86 9.21003 305.919 9.25C305.979 9.28997 306.015 9.34474 306.021 9.40336ZM303.89 9.40336V17.5059C303.884 17.5645 303.848 17.6193 303.788 17.6592C303.729 17.6992 303.651 17.7214 303.57 17.7214C303.489 17.7214 303.411 17.6992 303.352 17.6592C303.293 17.6193 303.257 17.5645 303.25 17.5059V9.40336C303.257 9.34474 303.293 9.28997 303.352 9.25C303.411 9.21003 303.489 9.18781 303.57 9.18781C303.651 9.18781 303.729 9.21003 303.788 9.25C303.848 9.28997 303.884 9.34474 303.89 9.40336ZM301.759 9.40336V17.5059C301.753 17.5645 301.717 17.6193 301.657 17.6592C301.598 17.6992 301.52 17.7214 301.439 17.7214C301.358 17.7214 301.281 17.6992 301.221 17.6592C301.162 17.6193 301.126 17.5645 301.12 17.5059V9.40336C301.126 9.34474 301.162 9.28997 301.221 9.25C301.281 9.21003 301.358 9.18781 301.439 9.18781C301.52 9.18781 301.598 9.21003 301.657 9.25C301.717 9.28997 301.753 9.34474 301.759 9.40336ZM299.628 9.40336V17.5059C299.628 17.5673 299.595 17.6263 299.535 17.6697C299.475 17.7132 299.394 17.7376 299.309 17.7376C299.225 17.7376 299.144 17.7132 299.084 17.6697C299.024 17.6263 298.99 17.5673 298.99 17.5059V9.40336C298.99 9.3419 299.024 9.28296 299.084 9.2395C299.144 9.19604 299.225 9.17163 299.309 9.17163C299.394 9.17163 299.475 9.19604 299.535 9.2395C299.595 9.28296 299.628 9.3419 299.628 9.40336ZM297.497 9.40336V17.5059C297.497 17.5673 297.464 17.6263 297.404 17.6697C297.344 17.7132 297.263 17.7376 297.178 17.7376C297.094 17.7376 297.013 17.7132 296.953 17.6697C296.893 17.6263 296.86 17.5673 296.86 17.5059V9.40336C296.86 9.3419 296.893 9.28296 296.953 9.2395C297.013 9.19604 297.094 9.17163 297.178 9.17163C297.263 9.17163 297.344 9.19604 297.404 9.2395C297.464 9.28296 297.497 9.3419 297.497 9.40336ZM295.368 9.40336V17.5059C295.362 17.5645 295.326 17.6193 295.267 17.6592C295.207 17.6992 295.129 17.7214 295.048 17.7214C294.968 17.7214 294.89 17.6992 294.83 17.6592C294.771 17.6193 294.735 17.5645 294.729 17.5059V9.40336C294.735 9.34474 294.771 9.28997 294.83 9.25C294.89 9.21003 294.968 9.18781 295.048 9.18781C295.129 9.18781 295.207 9.21003 295.267 9.25C295.326 9.28997 295.362 9.34474 295.368 9.40336ZM293.237 9.40336V17.5059C293.231 17.5645 293.195 17.6193 293.136 17.6592C293.076 17.6992 292.998 17.7214 292.918 17.7214C292.837 17.7214 292.759 17.6992 292.699 17.6592C292.64 17.6193 292.604 17.5645 292.598 17.5059V9.40336C292.604 9.34474 292.64 9.28997 292.699 9.25C292.759 9.21003 292.837 9.18781 292.918 9.18781C292.998 9.18781 293.076 9.21003 293.136 9.25C293.195 9.28997 293.231 9.34474 293.237 9.40336ZM291.106 9.40336V17.5059C291.1 17.5645 291.064 17.6193 291.005 17.6592C290.945 17.6992 290.868 17.7214 290.787 17.7214C290.706 17.7214 290.628 17.6992 290.569 17.6592C290.509 17.6193 290.473 17.5645 290.467 17.5059V9.40336C290.473 9.34474 290.509 9.28997 290.569 9.25C290.628 9.21003 290.706 9.18781 290.787 9.18781C290.868 9.18781 290.945 9.21003 291.005 9.25C291.064 9.28997 291.1 9.34474 291.106 9.40336ZM288.336 9.40336C288.342 9.34474 288.378 9.28997 288.438 9.25C288.497 9.21003 288.575 9.18781 288.656 9.18781C288.737 9.18781 288.815 9.21003 288.874 9.25C288.933 9.28997 288.97 9.34474 288.976 9.40336V17.5059C288.97 17.5645 288.933 17.6193 288.874 17.6592C288.815 17.6992 288.737 17.7214 288.656 17.7214C288.575 17.7214 288.497 17.6992 288.438 17.6592C288.378 17.6193 288.342 17.5645 288.336 17.5059V9.40336ZM309.643 17.5059V12.0498C309.649 11.9912 309.686 11.9364 309.745 11.8964C309.804 11.8564 309.882 11.8342 309.963 11.8342C310.044 11.8342 310.122 11.8564 310.181 11.8964C310.24 11.9364 310.277 11.9912 310.283 12.0498V17.5125C310.277 17.5711 310.24 17.6258 310.181 17.6658C310.122 17.7058 310.044 17.728 309.963 17.728C309.882 17.728 309.804 17.7058 309.745 17.6658C309.686 17.6258 309.649 17.5711 309.643 17.5125V17.5059ZM279.814 7.02421V7.8629H278.323V7.02421H279.814ZM280.454 7.02421H281.945V7.8629H280.454V7.02421ZM282.583 7.02421H284.074V7.8629H282.577L282.583 7.02421ZM284.714 7.02421H286.201V7.8629H284.71L284.714 7.02421ZM286.845 7.02421H288.336V7.8629H286.845V7.02421ZM297.497 7.8629V7.02421H298.99V7.8629H297.497ZM296.86 7.8629H295.368V7.02421H296.86V7.8629ZM294.729 7.8629H293.237V7.02421H294.729V7.8629ZM292.598 7.8629H291.106V7.02421H292.598V7.8629ZM290.467 7.8629H288.976V7.02421H290.467V7.8629ZM303.89 7.8629V7.02421H305.381V7.8629H303.89ZM303.25 7.8629H301.759V7.02421H303.25V7.8629ZM301.12 7.8629H299.628V7.02421H301.12V7.8629ZM277.683 7.8629H276.192V7.02421H277.685L277.683 7.8629ZM275.552 7.8629H274.061V7.02421H275.552V7.8629ZM269.801 10.6015V17.5085C269.795 17.5671 269.759 17.6219 269.699 17.6619C269.64 17.7018 269.562 17.724 269.481 17.724C269.4 17.724 269.322 17.7018 269.263 17.6619C269.204 17.6219 269.168 17.5671 269.161 17.5085V10.6015C269.158 10.5695 269.164 10.5374 269.178 10.5071C269.193 10.4768 269.216 10.449 269.246 10.4255C269.276 10.402 269.313 10.3832 269.353 10.3704C269.393 10.3576 269.437 10.3509 269.481 10.3509C269.525 10.3509 269.569 10.3576 269.61 10.3704C269.65 10.3832 269.686 10.402 269.716 10.4255C269.746 10.449 269.769 10.4768 269.784 10.5071C269.799 10.5374 269.804 10.5695 269.801 10.6015ZM267.67 12.0498V17.5125C267.67 17.5739 267.637 17.6329 267.577 17.6763C267.517 17.7198 267.436 17.7442 267.351 17.7442C267.267 17.7442 267.186 17.7198 267.126 17.6763C267.066 17.6329 267.032 17.5739 267.032 17.5125V12.0498C267.032 11.9883 267.066 11.9294 267.126 11.8859C267.186 11.8425 267.267 11.818 267.351 11.818C267.436 11.818 267.517 11.8425 267.577 11.8859C267.637 11.9294 267.67 11.9883 267.67 12.0498ZM271.773 25.981H273.122V26.609H271.773V25.981ZM304.336 25.981H305.771V26.609H304.332L304.336 25.981ZM309.893 23.145H308.527V22.7671H306.84V23.4254H307.48V23.2345H307.887V23.6295H306.414V22.5117H309.893V23.145ZM309.893 21.8033H308.154V20.7579H309.893V21.8033ZM307.514 7.8629H306.023V7.02421H307.514V7.8629ZM300.103 4.11578V3.30078H301.371V5.65097H305.479V6.30928H300.388V4.5213H297.523V4.11578H300.103ZM289.497 2.70172V4.11446H292.966V1.59575H290.512V2.93081H291.152V2.06052H292.328V3.65101H290.137V1.18234H294.017V4.11578H296.892V4.5213H289.119V2.70172H289.497ZM283.398 4.11446V1.18234H287.289V3.65101H285.098V2.06052H286.274V2.93081H286.912V1.59575H284.458V4.11578H287.926V2.70172H288.49V4.51998H280.537V4.11446H283.398ZM271.932 5.65097H276.04V3.30078H277.308V4.11578H279.883V4.5213H277.201V6.31455H271.932V5.65097ZM269.801 7.02421H271.292V7.8629H269.801V7.02421ZM260.73 20.8817V21.7204H259.239V20.8817H260.73ZM258.599 20.8817V21.7204H257.108V20.8817H258.599ZM256.47 20.8817V21.7204H254.979V20.8817H256.47ZM252.846 20.8817H254.338V21.7204H252.846V20.8817ZM250.715 20.8817H252.207V21.7204H250.715V20.8817ZM248.584 20.8817H250.076V21.7204H248.584V20.8817ZM246.454 20.8817H247.945V21.7204H246.454V20.8817ZM244.004 31.5951C243.962 31.5953 243.92 31.5894 243.881 31.5778C243.842 31.5663 243.807 31.5492 243.777 31.5277C243.747 31.5062 243.724 31.4806 243.707 31.4524C243.691 31.4242 243.683 31.3939 243.683 31.3634V25.9007C243.689 25.8421 243.725 25.7873 243.785 25.7473C243.844 25.7074 243.922 25.6851 244.003 25.6851C244.084 25.6851 244.162 25.7074 244.221 25.7473C244.28 25.7873 244.317 25.8421 244.323 25.9007V31.3634C244.323 31.4246 244.289 31.4833 244.23 31.5268C244.17 31.5702 244.09 31.5948 244.006 31.5951H244.004ZM245.816 35.6543H244.076V34.6089H245.816V35.6543ZM246.455 31.3634C246.449 31.422 246.413 31.4768 246.354 31.5167C246.294 31.5567 246.216 31.5789 246.136 31.5789C246.055 31.5789 245.977 31.5567 245.917 31.5167C245.858 31.4768 245.822 31.422 245.816 31.3634V24.4563C245.812 24.4244 245.818 24.3922 245.833 24.3619C245.847 24.3317 245.87 24.3039 245.9 24.2804C245.93 24.2568 245.967 24.2381 246.007 24.2253C246.048 24.2124 246.091 24.2058 246.136 24.2058C246.18 24.2058 246.223 24.2124 246.264 24.2253C246.304 24.2381 246.341 24.2568 246.371 24.2804C246.401 24.3039 246.424 24.3317 246.438 24.3619C246.453 24.3922 246.459 24.4244 246.455 24.4563V31.3634ZM247.947 35.6543H246.455V34.6089H247.947V35.6543ZM248.586 31.3634C248.58 31.422 248.544 31.4768 248.485 31.5167C248.425 31.5567 248.347 31.5789 248.266 31.5789C248.186 31.5789 248.108 31.5567 248.048 31.5167C247.989 31.4768 247.953 31.422 247.947 31.3634V23.2609C247.953 23.2022 247.989 23.1475 248.048 23.1075C248.108 23.0675 248.186 23.0453 248.266 23.0453C248.347 23.0453 248.425 23.0675 248.485 23.1075C248.544 23.1475 248.58 23.2022 248.586 23.2609V31.3634ZM250.078 35.6543H248.586V34.6089H250.078V35.6543ZM250.717 31.3634C250.711 31.422 250.675 31.4768 250.615 31.5167C250.556 31.5567 250.478 31.5789 250.397 31.5789C250.316 31.5789 250.239 31.5567 250.179 31.5167C250.12 31.4768 250.084 31.422 250.078 31.3634V23.2609C250.084 23.2022 250.12 23.1475 250.179 23.1075C250.239 23.0675 250.316 23.0453 250.397 23.0453C250.478 23.0453 250.556 23.0675 250.615 23.1075C250.675 23.1475 250.711 23.2022 250.717 23.2609V31.3634ZM252.208 35.6543H250.717V34.6089H252.208V35.6543ZM252.848 31.3634C252.842 31.422 252.806 31.4768 252.746 31.5167C252.687 31.5567 252.609 31.5789 252.528 31.5789C252.447 31.5789 252.369 31.5567 252.31 31.5167C252.251 31.4768 252.215 31.422 252.208 31.3634V23.2609C252.215 23.2022 252.251 23.1475 252.31 23.1075C252.369 23.0675 252.447 23.0453 252.528 23.0453C252.609 23.0453 252.687 23.0675 252.746 23.1075C252.806 23.1475 252.842 23.2022 252.848 23.2609V31.3634ZM254.339 35.6543H252.848V34.6089H254.339V35.6543ZM254.979 31.3634C254.973 31.422 254.937 31.4768 254.877 31.5167C254.818 31.5567 254.74 31.5789 254.659 31.5789C254.578 31.5789 254.5 31.5567 254.441 31.5167C254.382 31.4768 254.345 31.422 254.339 31.3634V23.2609C254.345 23.2022 254.382 23.1475 254.441 23.1075C254.5 23.0675 254.578 23.0453 254.659 23.0453C254.74 23.0453 254.818 23.0675 254.877 23.1075C254.937 23.1475 254.973 23.2022 254.979 23.2609V31.3634ZM256.47 35.6543H254.979V34.6089H256.47V35.6543ZM257.108 31.3634C257.108 31.4248 257.074 31.4838 257.015 31.5272C256.955 31.5707 256.874 31.5951 256.789 31.5951C256.705 31.5951 256.623 31.5707 256.564 31.5272C256.504 31.4838 256.47 31.4248 256.47 31.3634V23.2609C256.47 23.1994 256.504 23.1405 256.564 23.097C256.623 23.0535 256.705 23.0291 256.789 23.0291C256.874 23.0291 256.955 23.0535 257.015 23.097C257.074 23.1405 257.108 23.1994 257.108 23.2609V31.3634ZM258.599 35.6543H257.108V34.6089H258.599V35.6543ZM259.239 31.3634C259.233 31.422 259.197 31.4768 259.137 31.5167C259.078 31.5567 259 31.5789 258.919 31.5789C258.838 31.5789 258.76 31.5567 258.701 31.5167C258.642 31.4768 258.605 31.422 258.599 31.3634V23.2609C258.605 23.2022 258.642 23.1475 258.701 23.1075C258.76 23.0675 258.838 23.0453 258.919 23.0453C259 23.0453 259.078 23.0675 259.137 23.1075C259.197 23.1475 259.233 23.2022 259.239 23.2609V31.3634ZM260.73 35.6543H259.239V34.6089H260.73V35.6543ZM261.377 31.3634C261.371 31.422 261.335 31.4768 261.275 31.5167C261.216 31.5567 261.138 31.5789 261.057 31.5789C260.976 31.5789 260.899 31.5567 260.839 31.5167C260.78 31.4768 260.744 31.422 260.737 31.3634V23.2609C260.744 23.2022 260.78 23.1475 260.839 23.1075C260.899 23.0675 260.976 23.0453 261.057 23.0453C261.138 23.0453 261.216 23.0675 261.275 23.1075C261.335 23.1475 261.371 23.2022 261.377 23.2609V31.3634ZM262.868 35.6543H261.377V34.6089H262.868V35.6543ZM262.868 31.3634V23.2609C262.869 23.2111 262.891 23.1626 262.932 23.1228C262.973 23.083 263.031 23.0538 263.097 23.0397V31.5846C263.03 31.5714 262.97 31.5426 262.928 31.5027C262.885 31.4628 262.862 31.4139 262.861 31.3634H262.868ZM267.58 31.025V27.3121H269.573V30.0152H268.348V31.025H267.58ZM271.705 28.48V31.9888H268.968V30.4825H270.76V31.179H270.192V30.8183H269.553V31.6438H271.399V30.0152H270.192V27.3121H273.122V28.0547H273.485V28.48H271.705ZM275.788 28.9447H277.504V29.4003H275.781L275.788 28.9447ZM298.818 28.9447V29.4003H297.327V28.9447H298.818ZM296.687 29.4003H295.196V28.9447H296.687V29.4003ZM294.557 29.4003H293.065V28.9447H294.557V29.4003ZM292.426 29.4003H290.934V28.9447H292.426V29.4003ZM290.295 29.4003H288.803V28.9447H290.295V29.4003ZM288.164 29.4003H286.673V28.9447H288.164V29.4003ZM286.033 29.4003H284.542V28.9447H286.033V29.4003ZM283.904 29.4003H282.411V28.9447H283.904V29.4003ZM281.773 29.4003H280.282V28.9447H281.773V29.4003ZM279.642 29.4003H278.151V28.9447H279.642V29.4003ZM299.456 29.4003V28.9447H301.676V29.4003H299.456ZM301.993 28.4786H274.134V28.0534H303.325V28.4786H301.993ZM308.489 31.9888H305.755V28.48H303.959V28.0547H304.332V27.3121H307.262V30.0152H306.055V31.6412H307.902V30.8157H307.262V31.1764H306.693V30.4825H308.487L308.489 31.9888ZM309.129 31.025V30.0152H307.904V27.3121H309.897V31.025H309.129ZM314.418 31.5951C314.4 31.5964 314.383 31.5964 314.365 31.5951V23.037C314.383 23.0357 314.4 23.0357 314.418 23.037C314.502 23.037 314.583 23.0614 314.643 23.1049C314.703 23.1484 314.737 23.2073 314.737 23.2688V31.3713C314.734 31.4311 314.699 31.4879 314.64 31.5296C314.581 31.5713 314.502 31.5948 314.42 31.5951H314.418ZM316.23 35.6543H314.738V34.6089H316.23V35.6543ZM316.23 21.7204H314.738V20.8817H316.23V21.7204ZM316.549 31.5951C316.464 31.5951 316.383 31.5707 316.323 31.5272C316.263 31.4838 316.23 31.4248 316.23 31.3634V23.2609C316.236 23.2022 316.272 23.1475 316.331 23.1075C316.391 23.0675 316.469 23.0453 316.55 23.0453C316.63 23.0453 316.708 23.0675 316.768 23.1075C316.827 23.1475 316.863 23.2022 316.869 23.2609V31.3634C316.869 31.3939 316.861 31.4242 316.845 31.4524C316.829 31.4806 316.805 31.5062 316.775 31.5277C316.746 31.5492 316.71 31.5663 316.671 31.5778C316.632 31.5894 316.591 31.5953 316.549 31.5951ZM318.361 35.6543H316.869V34.6089H318.361V35.6543ZM318.361 21.7204H316.869V20.8817H318.361V21.7204ZM318.68 31.5951C318.595 31.5951 318.514 31.5707 318.454 31.5272C318.394 31.4838 318.361 31.4248 318.361 31.3634V23.2609C318.367 23.2022 318.403 23.1475 318.462 23.1075C318.522 23.0675 318.6 23.0453 318.68 23.0453C318.761 23.0453 318.839 23.0675 318.899 23.1075C318.958 23.1475 318.994 23.2022 319 23.2609V31.3634C319 31.3939 318.992 31.4242 318.976 31.4524C318.96 31.4806 318.936 31.5062 318.906 31.5277C318.876 31.5492 318.841 31.5663 318.802 31.5778C318.763 31.5894 318.722 31.5953 318.68 31.5951ZM320.492 35.6543H318.998V34.6089H320.49L320.492 35.6543ZM320.492 21.7204H318.998V20.8817H320.49L320.492 21.7204ZM320.81 31.5951C320.726 31.5951 320.645 31.5707 320.585 31.5272C320.525 31.4838 320.492 31.4248 320.492 31.3634V23.2609C320.498 23.2022 320.534 23.1475 320.593 23.1075C320.653 23.0675 320.73 23.0453 320.811 23.0453C320.892 23.0453 320.97 23.0675 321.029 23.1075C321.089 23.1475 321.125 23.2022 321.131 23.2609V31.3634C321.131 31.3939 321.123 31.4242 321.107 31.4524C321.091 31.4806 321.067 31.5062 321.037 31.5277C321.007 31.5492 320.972 31.5663 320.933 31.5778C320.894 31.5894 320.852 31.5953 320.81 31.5951ZM322.622 35.6543H321.131V34.6089H322.622V35.6543ZM322.622 21.7204H321.131V20.8817H322.622V21.7204ZM322.941 31.5951C322.857 31.5951 322.776 31.5707 322.716 31.5272C322.656 31.4838 322.622 31.4248 322.622 31.3634V23.2609C322.622 23.1994 322.656 23.1405 322.716 23.097C322.776 23.0535 322.857 23.0291 322.941 23.0291C323.026 23.0291 323.107 23.0535 323.167 23.097C323.227 23.1405 323.26 23.1994 323.26 23.2609V31.3634C323.26 31.4248 323.227 31.4838 323.167 31.5272C323.107 31.5707 323.026 31.5951 322.941 31.5951ZM324.753 35.6543H323.262V34.6089H324.753V35.6543ZM324.753 21.7204H323.262V20.8817H324.753V21.7204ZM325.074 31.5951C325.032 31.5953 324.99 31.5894 324.951 31.5778C324.913 31.5663 324.877 31.5492 324.847 31.5277C324.818 31.5062 324.794 31.4806 324.778 31.4524C324.762 31.4242 324.753 31.3939 324.753 31.3634V23.2609C324.759 23.2022 324.796 23.1475 324.855 23.1075C324.914 23.0675 324.992 23.0453 325.073 23.0453C325.154 23.0453 325.232 23.0675 325.291 23.1075C325.351 23.1475 325.387 23.2022 325.393 23.2609V31.3634C325.393 31.3939 325.385 31.4242 325.369 31.4524C325.352 31.4806 325.329 31.5062 325.299 31.5277C325.269 31.5492 325.234 31.5663 325.195 31.5778C325.156 31.5894 325.114 31.5953 325.072 31.5951H325.074ZM326.886 35.6543H325.395V34.6089H326.886V35.6543ZM326.886 21.7204H325.395V20.8817H326.886V21.7204ZM327.207 31.5951C327.165 31.5953 327.123 31.5894 327.084 31.5778C327.045 31.5663 327.01 31.5492 326.98 31.5277C326.95 31.5062 326.927 31.4806 326.911 31.4524C326.894 31.4242 326.886 31.3939 326.886 31.3634V23.2609C326.892 23.2022 326.928 23.1475 326.988 23.1075C327.047 23.0675 327.125 23.0453 327.206 23.0453C327.287 23.0453 327.365 23.0675 327.424 23.1075C327.483 23.1475 327.52 23.2022 327.526 23.2609V31.3634C327.526 31.394 327.517 31.4244 327.501 31.4527C327.485 31.4809 327.461 31.5066 327.431 31.5282C327.401 31.5497 327.365 31.5667 327.326 31.5782C327.287 31.5897 327.245 31.5954 327.203 31.5951H327.207ZM329.019 35.6543H327.515V34.6089H329.006L329.019 35.6543ZM329.019 21.7204H327.515V20.8817H329.006L329.019 21.7204ZM329.34 31.5951C329.297 31.5953 329.256 31.5894 329.217 31.5778C329.178 31.5663 329.143 31.5492 329.113 31.5277C329.083 31.5062 329.059 31.4806 329.043 31.4524C329.027 31.4242 329.019 31.3939 329.019 31.3634V23.2609C329.025 23.2022 329.061 23.1475 329.12 23.1075C329.18 23.0675 329.258 23.0453 329.339 23.0453C329.419 23.0453 329.497 23.0675 329.557 23.1075C329.616 23.1475 329.652 23.2022 329.658 23.2609V31.3634C329.658 31.3946 329.65 31.4255 329.633 31.4542C329.616 31.483 329.592 31.5089 329.561 31.5306C329.53 31.5522 329.493 31.5691 329.453 31.5802C329.413 31.5913 329.37 31.5963 329.327 31.5951H329.34ZM331.151 35.6543H329.66V34.6089H331.139L331.151 35.6543ZM331.151 21.7204H329.66V20.8817H331.139L331.151 21.7204ZM331.47 31.5951C331.386 31.5951 331.305 31.5707 331.245 31.5272C331.185 31.4838 331.151 31.4248 331.151 31.3634V24.4563C331.148 24.4244 331.154 24.3922 331.169 24.3619C331.183 24.3317 331.206 24.3039 331.236 24.2804C331.266 24.2568 331.303 24.2381 331.343 24.2253C331.384 24.2124 331.427 24.2058 331.471 24.2058C331.515 24.2058 331.559 24.2124 331.6 24.2253C331.64 24.2381 331.676 24.2568 331.706 24.2804C331.736 24.3039 331.76 24.3317 331.774 24.3619C331.789 24.3922 331.794 24.4244 331.791 24.4563V31.3634C331.791 31.3944 331.783 31.4251 331.766 31.4536C331.749 31.4822 331.725 31.508 331.695 31.5296C331.664 31.5512 331.628 31.5681 331.588 31.5794C331.548 31.5906 331.506 31.596 331.463 31.5951H331.47ZM333.531 35.6543H331.791V34.6089H333.531V35.6543ZM333.922 31.3634C333.916 31.422 333.88 31.4768 333.82 31.5167C333.761 31.5567 333.683 31.5789 333.602 31.5789C333.521 31.5789 333.443 31.5567 333.384 31.5167C333.325 31.4768 333.288 31.422 333.282 31.3634V25.9007C333.288 25.8421 333.325 25.7873 333.384 25.7473C333.443 25.7074 333.521 25.6851 333.602 25.6851C333.683 25.6851 333.761 25.7074 333.82 25.7473C333.88 25.7873 333.916 25.8421 333.922 25.9007V31.3634Z" stroke="white" stroke-width="8" mask="url(#path-1-inside-1_338_3847)"/>
<g filter="url(#filter0_d_338_3847)">
<path d="M5.99805 48V56L6.99805 66L8.99805 74L19.998 112L24.998 127L102.998 131H232.998H549.998L566.998 78L571.998 54V48L570.998 46L567.998 47L558.998 51L552.998 53L545.998 55L523.998 59L509.998 60H57.998L43.998 58L28.998 54L14.998 49L5.99805 46V48Z" fill="url(#paint0_linear_338_3847)"/>
<path d="M5.99805 48V56L6.99805 66L8.99805 74L19.998 112L24.998 127L102.998 131H232.998H549.998L566.998 78L571.998 54V48L570.998 46L567.998 47L558.998 51L552.998 53L545.998 55L523.998 59L509.998 60H57.998L43.998 58L28.998 54L14.998 49L5.99805 46V48Z" stroke="#EDECEC" stroke-width="1.25"/>
</g>
<path d="M7.01477 51.09C7.04399 50.7416 7.14938 50.4049 7.32285 50.1056C7.49632 49.8064 7.73327 49.5525 8.0155 49.3635C8.29774 49.1745 8.61776 49.0554 8.95102 49.0153C9.28428 48.9753 9.62193 49.0153 9.93803 49.1324C10.9304 49.6347 11.7386 50.4605 12.2403 51.4846C12.4675 51.754 12.6703 52.0447 12.8462 52.3529C13.4225 53.5534 14.0648 54.7183 14.7698 55.8418C15.5271 56.9153 16.2844 57.9888 17.0266 59.1097C17.2992 59.3307 17.5567 59.5675 17.8294 59.757C19.344 60.8305 20.0559 62.346 21.4342 63.4827C22.6647 64.3542 23.7582 65.4193 24.6756 66.6401C26.7415 67.2789 28.6593 68.3536 30.31 69.7974C31.2982 70.736 32.5652 71.2932 33.8997 71.3761C34.9635 71.3916 36.0255 71.4707 37.0805 71.6129C38.7769 71.7234 40.4127 70.492 41.9728 69.8763C43.0607 69.3742 44.1729 68.9316 45.305 68.5503C46.3517 68.3793 47.4131 68.3264 48.4706 68.3924C49.7732 68.3924 50.8184 67.6978 52.0755 67.5873C53.9082 67.4452 55.2108 68.9449 56.6195 69.9237C57.6191 70.6025 58.7854 70.792 59.7851 71.5024C60.7377 72.3783 61.7848 73.1359 62.9052 73.7599C63.087 73.7599 63.0264 74.1862 62.8143 74.1388C61.1634 73.8073 60.1334 72.1023 58.6036 71.4235C57.7424 71.1087 56.915 70.7013 56.1348 70.2079C55.2829 69.4383 54.3225 68.8099 53.2872 68.345C52.232 68.1384 51.141 68.2993 50.1822 68.8029C49.1174 69.0104 48.0388 69.1318 46.956 69.1659C44.4265 69.5133 41.8516 71.1867 39.5797 72.3233C37.7167 73.2705 35.8082 72.939 33.8543 73.4442C33.0522 73.5862 32.2299 73.5439 31.4451 73.3203C30.6603 73.0967 29.9317 72.6972 29.3104 72.1497C27.9926 71.2656 26.887 70.2552 25.5844 69.4817C25.7182 70.653 25.6926 71.8382 25.5086 73.0022C25.0438 75.1445 25.3454 77.39 26.3568 79.3169C27.4322 81.4482 28.3713 83.6583 29.4921 85.758C30.0011 86.5846 30.5682 87.3708 31.1885 88.1102C31.5963 88.8614 31.8636 89.6864 31.9762 90.5414C31.9762 90.8098 32.1427 91.0939 32.2336 91.3623C32.7992 92.321 33.2711 93.3365 33.6422 94.3934L33.7332 94.6776C33.9765 95.0089 34.299 95.2678 34.6685 95.4285C35.0379 95.5892 35.4414 95.646 35.8385 95.5932C38.8466 95.5289 41.8388 96.0648 44.6538 97.1719C44.8658 97.0614 45.093 96.9667 45.305 96.8404C47.9536 95.5308 50.8278 94.7899 53.7567 94.6618C56.5891 94.3303 57.7706 95.6721 59.2852 98.0086C59.4717 98.4348 59.7403 98.8164 60.0745 99.1296C60.4087 99.4427 60.8011 99.6808 61.2275 99.829C61.6538 99.9771 62.1048 100.032 62.5524 99.9905C63.0001 99.9489 63.4347 99.8117 63.8292 99.5873C65.1433 99.1644 66.5007 98.9047 67.8733 98.8137C67.9217 98.8271 67.9646 98.8568 67.9952 98.8982C68.0257 98.9396 68.0423 98.9904 68.0423 99.0426C68.0423 99.0949 68.0257 99.1457 67.9952 99.1871C67.9646 99.2285 67.9217 99.2582 67.8733 99.2716C66.6105 99.6007 65.3747 100.034 64.1775 100.566C63.39 101.035 62.5083 101.305 61.6026 101.355C59.8002 101.261 58.7399 99.7767 57.8311 98.198C57.5219 97.5157 57.0265 96.9436 56.4069 96.5532C55.7872 96.1629 55.0709 95.9718 54.3475 96.0037C53.0528 96.1387 51.7677 96.3602 50.5003 96.6667C49.1267 96.7952 47.7791 97.1357 46.5016 97.6771L46.3199 97.7876L47.5467 98.2296C49.0403 98.5598 50.4059 99.3456 51.4697 100.487C51.7921 100.984 52.0661 101.513 52.2876 102.066C52.8597 103.095 53.5916 104.018 54.4535 104.797C55.8924 106.376 55.8773 108.586 58.0887 109.438C60.3 110.291 62.6326 109.438 64.7985 109.28C66.8505 109.077 68.9195 109.167 70.948 109.549C71.9846 109.909 72.9967 110.341 73.9773 110.843C74.8255 111.191 75.7343 111.08 76.5976 111.349C77.8245 111.727 78.9302 112.28 80.2176 112.548C81.1207 112.688 81.9956 112.982 82.8077 113.417C84.6637 114.403 86.4066 115.605 88.0029 117C86.4827 115.85 84.8655 114.846 83.1712 114.001C81.293 112.896 79.0211 112.817 77.0066 112.075C76.0978 111.727 75.2042 111.806 74.2802 111.554C73.5272 111.256 72.7892 110.919 72.0689 110.543C69.7463 109.853 67.3091 109.686 64.9197 110.054C61.8904 110.212 58.0432 111.727 55.6955 108.854C55.2819 108.289 54.9548 107.661 54.7261 106.991C54.1875 106.006 53.4668 105.142 52.6056 104.45C51.4242 103.297 50.7123 101.498 49.2431 100.771C47.4575 100.01 45.5992 99.4489 43.6995 99.0979H43.6086C41.2467 99.8235 38.78 100.107 36.3232 99.9346C35.6263 99.9714 34.9331 99.8083 34.3189 99.4632C33.7047 99.1181 33.193 98.604 32.8395 97.977C32.8395 98.1507 32.9304 98.2928 32.9607 98.4664C33.4151 100.945 32.9607 104.592 34.6571 106.549C35.3872 107.313 36.0512 108.142 36.6413 109.028C37.325 110.056 38.2614 110.874 39.3525 111.396C40.9697 112.44 42.239 113.978 42.9876 115.8C43.0059 115.848 43.0078 115.9 42.993 115.949C42.9782 115.998 42.9477 116.04 42.9066 116.068C42.8655 116.096 42.8164 116.108 42.7677 116.102C42.719 116.097 42.6736 116.074 42.6392 116.037C41.9512 115.046 41.2024 114.102 40.3976 113.211C39.6177 112.512 38.7454 111.932 37.8075 111.491C36.9808 110.936 36.299 110.177 35.8233 109.28C35.1872 108.239 34.233 107.544 33.5968 106.534C32.3699 104.576 32.5972 101.687 32.3094 99.4452C32.0216 97.2035 30.7947 95.2143 30.2949 93.1305C29.7814 92.4315 29.1438 91.8419 28.4167 91.3939C27.2959 90.7308 26.2962 89.8941 25.1905 89.1995C24.3555 88.7418 23.678 88.0245 23.2518 87.1472C22.343 85.0476 23.2518 82.9479 23.2518 80.8325C23.2664 80.6539 23.2664 80.4743 23.2518 80.2957C23.1264 80.419 22.9728 80.507 22.8057 80.5513C22.6386 80.5956 22.4635 80.5949 22.2968 80.5491C22.13 80.5032 21.9772 80.4139 21.8528 80.2895C21.7284 80.165 21.6365 80.0096 21.5857 79.8379C21.1464 78.6065 21.3585 77.3436 20.8587 76.1753C20.3338 74.9173 19.6731 73.7256 18.8896 72.6233C17.2087 70.1663 15.8012 67.5181 14.694 64.7298C13.301 61.995 11.7376 59.3582 10.0138 56.8364C9.60204 55.8485 9.01048 54.9532 8.2719 54.2C7.83747 53.8255 7.49631 53.3472 7.27742 52.8057C7.05853 52.2642 6.96843 51.6756 7.01477 51.09ZM40.337 98.3086H40.6854C39.2392 97.8512 37.7238 97.6799 36.2172 97.8034C35.8688 97.8034 35.5507 97.8981 35.2629 97.9139C36.6413 98.7664 39.0495 98.498 40.337 98.3086ZM27.5837 87.4472C27.4473 87.2419 27.3262 87.0367 27.205 86.8315C26.3416 85.3475 25.6146 83.7846 24.827 82.2533C24.8521 83.0329 24.9382 83.809 25.0845 84.574C25.4935 86.1369 26.5234 86.721 27.6594 87.4472H27.5837ZM22.7671 70.3184C22.7464 69.7321 22.5995 69.1581 22.3373 68.6389C22.0752 68.1197 21.7044 67.6686 21.2524 67.3189C20.9949 67.2242 20.9192 67.0979 20.9344 67.4452C21.5554 68.4713 22.1613 69.3554 22.8428 70.3184H22.7671Z" fill="#730000"/>
<path d="M570.988 49.9668C570.96 49.6389 570.862 49.322 570.699 49.0404C570.536 48.7587 570.314 48.5197 570.049 48.3419C569.784 48.164 569.484 48.0519 569.171 48.0142C568.858 47.9765 568.542 48.0142 568.245 48.1244C567.314 48.5972 566.556 49.3744 566.085 50.3382C565.872 50.5918 565.682 50.8653 565.516 51.1554C564.976 52.2854 564.373 53.3817 563.712 54.4391C563.001 55.4495 562.29 56.4598 561.594 57.5148C561.338 57.7228 561.097 57.9457 560.841 58.124C559.42 59.1343 558.752 60.5607 557.459 61.6305C556.304 62.4507 555.278 63.4532 554.417 64.6022C552.479 65.2035 550.679 66.2149 549.131 67.5738C548.203 68.4572 547.015 68.9816 545.763 69.0597C544.764 69.0742 543.768 69.1486 542.778 69.2825C541.186 69.3865 539.652 68.2276 538.188 67.6481C537.167 67.1755 536.123 66.7589 535.061 66.4C534.079 66.2391 533.083 66.1893 532.091 66.2514C530.869 66.2514 529.888 65.5977 528.709 65.4937C526.989 65.3599 525.767 66.7715 524.445 67.6927C523.507 68.3316 522.413 68.5099 521.475 69.1785C520.581 70.0029 519.599 70.7159 518.547 71.3032C518.377 71.3032 518.434 71.7044 518.633 71.6598C520.182 71.3478 521.148 69.7431 522.584 69.1042C523.392 68.808 524.168 68.4245 524.9 67.9601C525.699 67.2358 526.6 66.6444 527.572 66.2068C528.562 66.0124 529.586 66.1638 530.485 66.6377C531.484 66.8331 532.496 66.9473 533.512 66.9795C535.886 67.3064 538.301 68.8813 540.433 69.9511C542.181 70.8426 543.972 70.5306 545.805 71.0061C546.558 71.1397 547.329 71.0999 548.066 70.8894C548.802 70.679 549.486 70.303 550.069 69.7877C551.305 68.9556 552.342 68.0047 553.565 67.2766C553.439 68.3791 553.463 69.4946 553.636 70.59C554.072 72.6064 553.789 74.7198 552.84 76.5334C551.831 78.5392 550.95 80.6194 549.898 82.5955C549.42 83.3735 548.888 84.1135 548.306 84.8094C547.924 85.5164 547.673 86.2928 547.567 87.0976C547.567 87.3502 547.411 87.6176 547.326 87.8702C546.795 88.7725 546.352 89.7282 546.004 90.723L545.919 90.9904C545.69 91.3023 545.388 91.546 545.041 91.6972C544.695 91.8484 544.316 91.9019 543.943 91.8522C541.121 91.7917 538.314 92.296 535.672 93.338C535.473 93.234 535.26 93.1449 535.061 93.026C532.576 91.7934 529.879 91.0961 527.131 90.9756C524.474 90.6636 523.365 91.9265 521.944 94.1255C521.769 94.5266 521.517 94.8858 521.203 95.1805C520.89 95.4753 520.522 95.6994 520.122 95.8388C519.722 95.9782 519.298 96.0299 518.878 95.9908C518.458 95.9517 518.051 95.8225 517.681 95.6113C516.448 95.2133 515.174 94.9689 513.886 94.8833C513.841 94.8959 513.8 94.9238 513.772 94.9628C513.743 95.0018 513.728 95.0496 513.728 95.0987C513.728 95.1479 513.743 95.1957 513.772 95.2347C513.8 95.2736 513.841 95.3016 513.886 95.3142C515.071 95.6239 516.23 96.0313 517.354 96.5325C518.093 96.9737 518.92 97.2281 519.77 97.2755C521.461 97.1863 522.456 95.7896 523.308 94.3038C523.598 93.6616 524.063 93.1231 524.645 92.7558C525.226 92.3884 525.898 92.2085 526.577 92.2385C527.792 92.3656 528.997 92.574 530.187 92.8626C531.475 92.9835 532.74 93.304 533.939 93.8135L534.109 93.9175L532.958 94.3335C531.557 94.6443 530.275 95.3839 529.277 96.4583C528.975 96.9256 528.718 97.4233 528.51 97.9441C527.973 98.9125 527.286 99.7812 526.477 100.515C525.127 102 525.142 104.081 523.067 104.883C520.992 105.685 518.803 104.883 516.771 104.734C514.846 104.543 512.904 104.628 511.001 104.987C510.029 105.326 509.079 105.733 508.159 106.205C507.363 106.532 506.51 106.428 505.7 106.681C504.549 107.037 503.512 107.557 502.304 107.81C501.456 107.942 500.636 108.218 499.874 108.627C498.132 109.555 496.497 110.687 494.999 112C496.425 110.918 497.943 109.973 499.532 109.177C501.295 108.137 503.426 108.063 505.317 107.364C506.169 107.037 507.008 107.112 507.875 106.874C508.581 106.594 509.274 106.276 509.95 105.923C512.129 105.273 514.415 105.116 516.657 105.462C519.5 105.611 523.109 107.037 525.312 104.333C525.7 103.801 526.007 103.21 526.222 102.58C526.727 101.653 527.403 100.84 528.211 100.188C529.32 99.103 529.988 97.4092 531.366 96.7257C533.042 96.0091 534.785 95.4811 536.568 95.1507H536.653C538.869 95.8337 541.183 96.1003 543.489 95.9382C544.143 95.9728 544.793 95.8194 545.369 95.4945C545.946 95.1697 546.426 94.6859 546.757 94.0958C546.757 94.2592 546.672 94.393 546.644 94.5564C546.217 96.8891 546.644 100.321 545.052 102.164C544.367 102.883 543.744 103.663 543.19 104.497C542.549 105.465 541.67 106.234 540.646 106.725C539.129 107.708 537.938 109.155 537.236 110.871C537.218 110.915 537.217 110.965 537.231 111.011C537.244 111.057 537.273 111.096 537.312 111.122C537.35 111.149 537.396 111.16 537.442 111.155C537.488 111.15 537.53 111.128 537.562 111.094C538.208 110.161 538.911 109.272 539.666 108.434C540.398 107.775 541.216 107.23 542.096 106.814C542.872 106.293 543.511 105.578 543.958 104.734C544.555 103.754 545.45 103.1 546.047 102.149C547.198 100.307 546.985 97.5875 547.255 95.4776C547.525 93.3678 548.676 91.4956 549.145 89.5343C549.627 88.8765 550.225 88.3216 550.907 87.8999C551.959 87.2759 552.897 86.4884 553.934 85.8346C554.718 85.4038 555.353 84.7287 555.753 83.903C556.606 81.9269 555.753 79.9507 555.753 77.9597C555.739 77.7916 555.739 77.6226 555.753 77.4546C555.871 77.5706 556.015 77.6534 556.172 77.6951C556.328 77.7368 556.493 77.7361 556.649 77.693C556.806 77.6499 556.949 77.5658 557.066 77.4487C557.183 77.3316 557.269 77.1853 557.316 77.0237C557.729 75.8647 557.53 74.6761 557.999 73.5766C558.491 72.3925 559.111 71.2709 559.846 70.2334C561.423 67.921 562.744 65.4286 563.783 62.8043C565.09 60.2303 566.557 57.7486 568.174 55.3752C568.56 54.4455 569.115 53.6028 569.808 52.8939C570.216 52.5414 570.536 52.0912 570.741 51.5816C570.947 51.0719 571.031 50.5179 570.988 49.9668ZM539.723 94.4078H539.396C540.753 93.9774 542.175 93.8161 543.588 93.9324C543.915 93.9324 544.213 94.0215 544.483 94.0364C543.19 94.8387 540.931 94.5861 539.723 94.4078ZM551.689 84.1853C551.817 83.9922 551.93 83.799 552.044 83.6059C552.854 82.2092 553.536 80.7382 554.275 79.297C554.252 80.0307 554.171 80.7612 554.034 81.4812C553.65 82.9521 552.683 83.5019 551.618 84.1853H551.689ZM556.208 68.0641C556.227 67.5123 556.365 66.9721 556.611 66.4835C556.857 65.9948 557.205 65.5702 557.629 65.2411C557.871 65.1519 557.942 65.0331 557.928 65.3599C557.345 66.3257 556.776 67.1578 556.137 68.0641H556.208Z" fill="#730000"/>
<path d="M125.752 104.888V113C123.864 113 122.072 112.76 120.376 112.28C118.68 111.768 117.16 111.032 115.816 110.072C114.472 109.08 113.336 107.864 112.408 106.424C111.512 104.952 110.904 103.24 110.584 101.288H109.528V113H100.504V101.288H97.816V92.264H100.504V89.528H97.816V80.552H125.752V93.176C125.752 94.168 125.576 95.112 125.224 96.008C124.872 96.904 124.392 97.72 123.784 98.456C123.176 99.16 122.456 99.752 121.624 100.232C120.792 100.712 119.88 101.016 118.888 101.144C119.144 101.88 119.512 102.488 119.992 102.968C120.472 103.448 121.016 103.832 121.624 104.12C122.264 104.408 122.936 104.616 123.64 104.744C124.344 104.84 125.048 104.888 125.752 104.888ZM116.728 93.176V89.528H109.528V93.176H116.728ZM136.465 101.288H133.777V92.312H136.465V89.576H133.777V80.6H161.713V89.576H145.489V93.176H156.289V101.288H145.489C145.457 103.112 146.353 104.024 148.177 104.024H161.713V113H148.177C146.577 113 145.057 112.696 143.617 112.088C142.209 111.448 140.977 110.6 139.921 109.544C138.865 108.488 138.017 107.256 137.377 105.848C136.769 104.408 136.465 102.888 136.465 101.288ZM197.719 93.176V113H189.607C187.239 113 185.015 112.552 182.935 111.656C180.855 110.76 179.031 109.544 177.463 108.008C175.927 106.44 174.711 104.616 173.815 102.536C172.919 100.456 172.471 98.232 172.471 95.864V90.44H169.783V80.552H197.719V91.352H188.695V89.576H181.495V95.864C181.495 96.888 181.671 97.864 182.023 98.792C182.407 99.72 182.919 100.552 183.559 101.288C184.199 101.992 184.951 102.584 185.815 103.064C186.711 103.512 187.671 103.8 188.695 103.928V101.288H186.007V93.176H197.719ZM217.596 80.552V104.888C217.596 106.008 217.372 107.064 216.924 108.056C216.508 109.016 215.932 109.864 215.196 110.6C214.46 111.336 213.596 111.928 212.604 112.376C211.644 112.792 210.604 113 209.484 113H205.884V103.976C206.236 103.976 206.572 103.976 206.892 103.976C207.244 103.944 207.532 103.88 207.756 103.784C208.012 103.688 208.204 103.528 208.332 103.304C208.492 103.048 208.572 102.68 208.572 102.2V89.576V80.552H217.596ZM225.764 101.288V92.264C225.764 90.664 226.068 89.16 226.676 87.752C227.316 86.312 228.164 85.064 229.22 84.008C230.276 82.952 231.508 82.12 232.916 81.512C234.356 80.872 235.876 80.552 237.476 80.552H251.012V89.528H241.988C240.964 89.528 240.004 89.496 239.108 89.432C238.244 89.336 237.492 89.368 236.852 89.528C236.212 89.656 235.7 89.992 235.316 90.536C234.964 91.048 234.788 91.928 234.788 93.176H251.012V101.288C251.012 102.888 250.692 104.408 250.052 105.848C249.444 107.256 248.612 108.488 247.556 109.544C246.5 110.6 245.252 111.448 243.812 112.088C242.404 112.696 240.9 113 239.3 113H225.764V103.976H237.476C238.02 103.976 238.564 103.992 239.108 104.024C239.652 104.024 240.132 103.96 240.548 103.832C240.996 103.672 241.348 103.4 241.604 103.016C241.86 102.632 241.988 102.056 241.988 101.288H225.764ZM275.95 102.152C275.95 102.632 276.014 103 276.142 103.256C276.302 103.512 276.494 103.704 276.718 103.832C276.974 103.928 277.262 103.976 277.582 103.976C277.902 103.976 278.254 103.976 278.638 103.976V113H275.038C273.918 113 272.862 112.792 271.87 112.376C270.91 111.928 270.062 111.336 269.326 110.6C268.59 109.864 267.998 109.016 267.55 108.056C267.134 107.064 266.926 106.008 266.926 104.888V101.288V89.576H258.814V80.552H284.014V89.576H275.95V102.152ZM319.848 104.888V113C317.96 113 316.168 112.76 314.472 112.28C312.776 111.768 311.256 111.032 309.912 110.072C308.568 109.08 307.432 107.864 306.504 106.424C305.608 104.952 305 103.24 304.68 101.288H303.624V113H294.6V101.288H291.912V92.264H294.6V89.528H291.912V80.552H319.848V93.176C319.848 94.168 319.672 95.112 319.32 96.008C318.968 96.904 318.488 97.72 317.88 98.456C317.272 99.16 316.552 99.752 315.72 100.232C314.888 100.712 313.976 101.016 312.984 101.144C313.24 101.88 313.608 102.488 314.088 102.968C314.568 103.448 315.112 103.832 315.72 104.12C316.36 104.408 317.032 104.616 317.736 104.744C318.44 104.84 319.144 104.888 319.848 104.888ZM310.824 93.176V89.528H303.624V93.176H310.824ZM338.721 80.6V78.776H347.745V80.6H358.545V89.576H355.809V102.2C355.809 102.68 355.873 103.048 356.001 103.304C356.161 103.56 356.369 103.752 356.625 103.88C356.881 103.976 357.169 104.024 357.489 104.024C357.809 104.024 358.161 104.024 358.545 104.024V113H354.945C353.089 113 351.617 112.648 350.529 111.944C349.473 111.24 348.657 110.344 348.081 109.256C347.537 108.136 347.185 106.888 347.025 105.512C346.897 104.104 346.833 102.696 346.833 101.288H339.633V104.936C339.633 106.056 339.409 107.112 338.961 108.104C338.545 109.064 337.969 109.912 337.233 110.648C336.497 111.384 335.633 111.96 334.641 112.376C333.649 112.792 332.609 113 331.521 113H327.873V104.024C328.257 104.024 328.609 104.024 328.929 104.024C329.249 104.024 329.537 103.976 329.793 103.88C330.049 103.752 330.241 103.56 330.369 103.304C330.529 103.048 330.609 102.68 330.609 102.2V89.576H327.873V80.6H338.721ZM346.833 92.312V89.576H339.633V92.312H346.833ZM383.686 102.152C383.686 102.632 383.75 103 383.878 103.256C384.038 103.512 384.23 103.704 384.454 103.832C384.71 103.928 384.998 103.976 385.318 103.976C385.638 103.976 385.99 103.976 386.374 103.976V113H382.774C381.654 113 380.598 112.792 379.606 112.376C378.646 111.928 377.798 111.336 377.062 110.6C376.326 109.864 375.734 109.016 375.286 108.056C374.87 107.064 374.662 106.008 374.662 104.888V101.288V89.576H366.55V80.552H391.75V89.576H383.686V102.152ZM411.552 80.552V104.888C411.552 106.008 411.328 107.064 410.88 108.056C410.464 109.016 409.888 109.864 409.152 110.6C408.416 111.336 407.552 111.928 406.56 112.376C405.6 112.792 404.56 113 403.44 113H399.84V103.976C400.192 103.976 400.528 103.976 400.848 103.976C401.2 103.944 401.488 103.88 401.712 103.784C401.968 103.688 402.16 103.528 402.288 103.304C402.448 103.048 402.528 102.68 402.528 102.2V89.576V80.552H411.552ZM436.087 103.976V89.576H428.887V103.976H436.087ZM445.111 113H419.863V80.552H445.111V113ZM482.086 103.976V113H478.486C477.366 113 476.31 112.792 475.318 112.376C474.358 111.928 473.51 111.336 472.774 110.6C472.038 109.864 471.446 109.016 470.998 108.056C470.582 107.064 470.374 106.008 470.374 104.888V101.288V89.576C468.294 89.8 466.71 90.2 465.622 90.776C464.534 91.352 463.734 92.12 463.222 93.08C462.71 94.04 462.422 95.208 462.358 96.584C462.294 97.96 462.262 99.528 462.262 101.288V113H453.238V80.552H462.262V82.28C463.702 81.64 465.11 81.192 466.486 80.936C467.894 80.68 469.382 80.552 470.95 80.552H479.398V102.2C479.398 102.68 479.462 103.048 479.59 103.304C479.75 103.528 479.942 103.688 480.166 103.784C480.422 103.88 480.71 103.944 481.03 103.976C481.382 103.976 481.734 103.976 482.086 103.976Z" fill="white"/>
<defs>
<filter id="filter0_d_338_3847" x="0.573047" y="45.1328" width="576.85" height="96.0922" filterUnits="userSpaceOnUse" color-interpolation-filters="sRGB">
<feFlood flood-opacity="0" result="BackgroundImageFix"/>
<feColorMatrix in="SourceAlpha" type="matrix" values="0 0 0 0 0 0 0 0 0 0 0 0 0 0 0 0 0 0 127 0" result="hardAlpha"/>
<feOffset dy="4.8"/>
<feGaussianBlur stdDeviation="2.4"/>
<feComposite in2="hardAlpha" operator="out"/>
<feColorMatrix type="matrix" values="0 0 0 0 0 0 0 0 0 0 0 0 0 0 0 0 0 0 0.7 0"/>
<feBlend mode="normal" in2="BackgroundImageFix" result="effect1_dropShadow_338_3847"/>
<feBlend mode="normal" in="SourceGraphic" in2="effect1_dropShadow_338_3847" result="shape"/>
</filter>
<linearGradient id="paint0_linear_338_3847" x1="5.99805" y1="88.5" x2="571.998" y2="88.5" gradientUnits="userSpaceOnUse">
<stop/>
<stop offset="0.538462" stop-color="#842728"/>
<stop offset="0.975962"/>
</linearGradient>
</defs>
</svg>
