<svg width="132" height="61" viewBox="0 0 132 61" fill="none" xmlns="http://www.w3.org/2000/svg">
<g clip-path="url(#clip0_2410_4974)">
<mask id="mask0_2410_4974" style="mask-type:luminance" maskUnits="userSpaceOnUse" x="50" y="1" width="82" height="74">
<path d="M128.607 34.8995C127.59 33.4956 126.286 32.3139 124.814 31.4034C124.77 31.3759 124.736 31.342 124.712 31.3039C124.64 31.217 124.619 31.0942 124.702 30.9693C125.5 29.7517 126.191 28.4578 126.707 27.0941C127.658 24.5848 128.026 21.8849 127.728 19.2146C127.442 16.6671 126.546 14.2065 125.231 12.0148C123.889 9.77016 122.108 7.80293 120.06 6.18086C117.957 4.51433 115.552 3.21413 113.007 2.36922C110.408 1.50525 107.662 1.11349 104.926 1.26384C103.522 1.34219 102.131 1.56665 100.773 1.92876C100.049 2.12145 99.3314 2.34804 98.6135 2.55768C97.8639 2.77579 97.1291 3.0405 96.4155 3.35601C94.3488 4.27081 92.4515 5.57312 90.8823 7.19518C90.9353 7.39424 90.7701 7.66953 90.4948 7.62082C90.4927 7.62082 90.4884 7.62082 90.4863 7.62082C90.0798 8.07187 89.6965 8.5462 89.3428 9.04172C87.6827 11.3647 86.7531 14.0519 86.3317 16.8598C85.9188 19.5979 85.9675 22.4947 86.842 25.1375C87.2825 26.4694 87.9558 27.7336 88.8876 28.7882C89.3301 29.29 89.8362 29.7326 90.3402 30.1731C90.7383 30.5204 91.1576 30.8422 91.5959 31.1344C93.3683 32.3245 95.4033 33.0636 97.5018 33.4151C99.5982 33.7645 101.773 33.7221 103.859 33.324C105.887 32.9365 107.863 32.2187 109.612 31.109C111.217 30.0926 112.621 28.7268 113.521 27.0412C114.438 25.3217 114.739 23.3396 114.463 21.4169C114.296 20.2585 113.947 19.1256 113.475 18.0563C113.009 16.9996 112.21 16.125 111.268 15.4643C109.411 14.162 106.986 13.5966 104.748 13.9799C103.668 14.1641 102.624 14.5665 101.748 15.2272C100.875 15.8879 100.092 16.881 99.793 17.9483C99.5071 18.9647 99.5431 20.0913 100.066 21.0251C100.481 21.7705 101.174 22.355 101.985 22.6239C102.741 22.8716 103.577 22.8526 104.272 22.4418C105.112 21.9441 105.519 20.9891 105.642 20.0531C105.663 19.8837 105.769 19.7355 105.959 19.7355C106.114 19.7376 106.298 19.8816 106.277 20.0531C106.137 21.1098 105.741 22.1432 104.867 22.8039C103.319 23.9749 101.061 23.3566 99.9116 21.923C99.2297 21.0717 98.9163 19.9917 98.9883 18.9054C99.0752 17.6222 99.6554 16.4448 100.515 15.5003C102.127 13.7279 104.638 13.0609 106.967 13.2705C109.358 13.4865 111.759 14.5665 113.265 16.4829C114.051 17.4845 114.499 18.7487 114.817 19.9727C115.099 21.059 115.241 22.1877 115.186 23.31C115.086 25.3577 114.322 27.291 113.055 28.8962C111.783 30.5076 110.057 31.738 108.204 32.5977C106.19 33.5337 104.005 34.0673 101.794 34.2325C99.5537 34.3976 97.2647 34.1711 95.1196 33.5019C94.0481 33.1673 93.0062 32.7205 92.0343 32.1572C91.0326 31.577 90.1624 30.8549 89.2963 30.0926C87.0305 28.1042 85.9188 25.1946 85.5779 22.2575C85.5355 21.8933 85.5037 21.5291 85.4826 21.1606C83.852 20.8578 82.1643 20.8599 80.5317 21.1479C77.6349 21.6583 74.8482 23.0178 72.8005 25.1502C70.7761 27.2593 69.6855 30.0545 69.9248 32.9831C69.9269 33.0106 69.927 33.036 69.9227 33.0593C70.0942 33.0572 70.2636 33.0572 70.4351 33.0593C73.2261 33.0974 76.0403 33.6417 78.5624 34.8635C80.9573 36.0218 83.0262 37.8345 84.3285 40.1681C86.0543 43.264 85.9929 47.0078 84.6588 50.235C83.2909 53.5406 80.6651 56.3824 77.2643 57.6148C74.4183 58.6482 70.9116 58.5254 68.3451 56.8144C66.344 55.4803 65.0354 53.2632 64.8808 50.8597C64.7305 48.5261 65.766 46.2582 67.6972 44.9199C68.847 44.1216 70.2192 43.7171 71.5977 43.5668C71.9937 43.5223 72.3981 43.4905 72.7962 43.499C73.3129 43.5117 73.8487 43.6684 74.3251 43.859C75.2865 44.2444 76.161 44.8733 76.7434 45.7415C77.2537 46.5039 77.5142 47.5118 77.3702 48.4224C77.2452 49.2207 76.7921 49.964 76.1653 50.468C75.5491 50.9656 74.7571 51.2769 73.9546 51.2112C73.0313 51.135 72.288 50.6162 71.7417 49.8899C71.494 49.5638 72.0466 49.2482 72.2902 49.5701C72.7645 50.199 73.4633 50.6141 74.2637 50.5802C74.9583 50.5527 75.6084 50.1927 76.0721 49.6866C77.3342 48.3123 76.718 46.2815 75.3924 45.1994C74.6767 44.615 73.6433 44.1237 72.7031 44.1364C71.9577 44.1449 71.2144 44.2211 70.4881 44.3947C69.3107 44.6743 68.1905 45.2058 67.3117 46.0465C66.5452 46.7813 66.001 47.7109 65.7215 48.7294C65.1646 50.7792 65.6897 53.0578 67.0069 54.7307C68.6586 56.8271 71.2843 57.7122 73.891 57.6148C75.5935 57.5534 77.2431 57.0918 78.7233 56.2426C80.1992 55.3956 81.4803 54.2119 82.482 52.8375C84.4661 50.1143 85.5143 46.5462 84.8028 43.2025C84.2353 40.5386 82.5116 38.2072 80.3157 36.638C78.1812 35.1113 75.6359 34.2473 73.0503 33.8873C70.3123 33.5061 67.4918 33.684 64.8046 34.3151C62.0624 34.9567 59.4239 36.0811 57.1221 37.7138C54.9029 39.2871 53.0331 41.3645 51.8578 43.8293C50.5682 46.5293 50.2612 49.623 50.3395 52.5834C50.3734 53.837 50.5068 55.0906 50.7397 56.3231C50.8689 56.3781 50.9621 56.5073 50.9091 56.6831C50.8901 56.7424 50.8689 56.8017 50.8499 56.8609C51.1315 58.1569 51.5275 59.4253 52.0505 60.6451C53.0648 63.0062 54.5238 65.1576 56.3259 66.9872C58.1025 68.7956 60.1862 70.2758 62.4414 71.4299C64.7622 72.6179 67.2567 73.4501 69.8126 73.9519C72.4024 74.4602 75.0578 74.619 77.6899 74.4432C80.3559 74.2653 82.9987 73.7296 85.5164 72.836C88.0279 71.9445 90.4101 70.6782 92.5361 69.0667C94.7405 67.398 96.6484 65.3397 98.1583 63.0252C98.2303 62.9151 98.3382 62.8749 98.4399 62.8812C98.4886 62.8791 98.5415 62.8876 98.5945 62.9109C99.234 63.2073 99.882 63.4869 100.541 63.7431C102.927 64.6748 105.434 65.3419 107.988 65.5854C110.197 65.7993 112.435 65.704 114.605 65.2381C116.589 64.8125 118.502 64.0904 120.268 63.0888C121.96 62.1295 123.508 60.9288 124.871 59.5418C126.21 58.1802 127.366 56.6492 128.323 54.9975C129.255 53.3881 129.994 51.6686 130.515 49.8814C131.019 48.1492 131.317 46.3577 131.364 44.5514C131.41 42.8235 131.226 41.0934 130.762 39.4269C130.311 37.8048 129.593 36.2653 128.607 34.8995Z" fill="white"/>
</mask>
<g mask="url(#mask0_2410_4974)">
<path d="M128.607 34.8995C127.59 33.4956 126.286 32.3139 124.814 31.4034C124.77 31.3759 124.736 31.342 124.712 31.3039C124.64 31.217 124.619 31.0942 124.702 30.9693C125.5 29.7517 126.191 28.4578 126.707 27.0941C127.658 24.5848 128.026 21.8849 127.728 19.2146C127.442 16.6671 126.546 14.2065 125.231 12.0148C123.889 9.77016 122.108 7.80293 120.06 6.18086C117.957 4.51433 115.552 3.21413 113.007 2.36922C110.408 1.50525 107.662 1.11349 104.926 1.26384C103.522 1.34219 102.131 1.56665 100.773 1.92876C100.049 2.12145 99.3314 2.34804 98.6135 2.55768C97.8639 2.77579 97.1291 3.0405 96.4155 3.35601C94.3488 4.27081 92.4515 5.57312 90.8823 7.19518C90.9353 7.39424 90.7701 7.66953 90.4948 7.62082C90.4927 7.62082 90.4884 7.62082 90.4863 7.62082C90.0798 8.07187 89.6965 8.5462 89.3428 9.04172C87.6827 11.3647 86.7531 14.0519 86.3317 16.8598C85.9188 19.5979 85.9675 22.4947 86.842 25.1375C87.2825 26.4694 87.9558 27.7336 88.8876 28.7882C89.3301 29.29 89.8362 29.7326 90.3402 30.1731C90.7383 30.5204 91.1576 30.8422 91.5959 31.1344C93.3683 32.3245 95.4033 33.0636 97.5018 33.4151C99.5982 33.7645 101.773 33.7221 103.859 33.324C105.887 32.9365 107.863 32.2187 109.612 31.109C111.217 30.0926 112.621 28.7268 113.521 27.0412C114.438 25.3217 114.739 23.3396 114.463 21.4169C114.296 20.2585 113.947 19.1256 113.475 18.0563C113.009 16.9996 112.21 16.125 111.268 15.4643C109.411 14.162 106.986 13.5966 104.748 13.9799C103.668 14.1641 102.624 14.5665 101.748 15.2272C100.875 15.8879 100.092 16.881 99.793 17.9483C99.5071 18.9647 99.5431 20.0913 100.066 21.0251C100.481 21.7705 101.174 22.355 101.985 22.6239C102.741 22.8716 103.577 22.8526 104.272 22.4418C105.112 21.9441 105.519 20.9891 105.642 20.0531C105.663 19.8837 105.769 19.7355 105.959 19.7355C106.114 19.7376 106.298 19.8816 106.277 20.0531C106.137 21.1098 105.741 22.1432 104.867 22.8039C103.319 23.9749 101.061 23.3566 99.9116 21.923C99.2297 21.0717 98.9163 19.9917 98.9883 18.9054C99.0752 17.6222 99.6554 16.4448 100.515 15.5003C102.127 13.7279 104.638 13.0609 106.967 13.2705C109.358 13.4865 111.759 14.5665 113.265 16.4829C114.051 17.4845 114.499 18.7487 114.817 19.9727C115.099 21.059 115.241 22.1877 115.186 23.31C115.086 25.3577 114.322 27.291 113.055 28.8962C111.783 30.5076 110.057 31.738 108.204 32.5977C106.19 33.5337 104.005 34.0673 101.794 34.2325C99.5537 34.3976 97.2647 34.1711 95.1196 33.5019C94.0481 33.1673 93.0062 32.7205 92.0343 32.1572C91.0326 31.577 90.1624 30.8549 89.2963 30.0926C87.0305 28.1042 85.9188 25.1946 85.5779 22.2575C85.5355 21.8933 85.5037 21.5291 85.4826 21.1606C83.852 20.8578 82.1643 20.8599 80.5317 21.1479C77.6349 21.6583 74.8482 23.0178 72.8005 25.1502C70.7761 27.2593 69.6855 30.0545 69.9248 32.9831C69.9269 33.0106 69.927 33.036 69.9227 33.0593C70.0942 33.0572 70.2636 33.0572 70.4351 33.0593C73.2261 33.0974 76.0403 33.6417 78.5624 34.8635C80.9573 36.0218 83.0262 37.8345 84.3285 40.1681C86.0543 43.264 85.9929 47.0078 84.6588 50.235C83.2909 53.5406 80.6651 56.3824 77.2643 57.6148C74.4183 58.6482 70.9116 58.5254 68.3451 56.8144C66.344 55.4803 65.0354 53.2632 64.8808 50.8597C64.7305 48.5261 65.766 46.2582 67.6972 44.9199C68.847 44.1216 70.2192 43.7171 71.5977 43.5668C71.9937 43.5223 72.3981 43.4905 72.7962 43.499C73.3129 43.5117 73.8487 43.6684 74.3251 43.859C75.2865 44.2444 76.161 44.8733 76.7434 45.7415C77.2537 46.5039 77.5142 47.5118 77.3702 48.4224C77.2452 49.2207 76.7921 49.964 76.1653 50.468C75.5491 50.9656 74.7571 51.2769 73.9546 51.2112C73.0313 51.135 72.288 50.6162 71.7417 49.8899C71.494 49.5638 72.0466 49.2482 72.2902 49.5701C72.7645 50.199 73.4633 50.6141 74.2637 50.5802C74.9583 50.5527 75.6084 50.1927 76.0721 49.6866C77.3342 48.3123 76.718 46.2815 75.3924 45.1994C74.6767 44.615 73.6433 44.1237 72.7031 44.1364C71.9577 44.1449 71.2144 44.2211 70.4881 44.3947C69.3107 44.6743 68.1905 45.2058 67.3117 46.0465C66.5452 46.7813 66.001 47.7109 65.7215 48.7294C65.1646 50.7792 65.6897 53.0578 67.0069 54.7307C68.6586 56.8271 71.2843 57.7122 73.891 57.6148C75.5935 57.5534 77.2431 57.0918 78.7233 56.2426C80.1992 55.3956 81.4803 54.2119 82.482 52.8375C84.4661 50.1143 85.5143 46.5462 84.8028 43.2025C84.2353 40.5386 82.5116 38.2072 80.3157 36.638C78.1812 35.1113 75.6359 34.2473 73.0503 33.8873C70.3123 33.5061 67.4918 33.684 64.8046 34.3151C62.0624 34.9567 59.4239 36.0811 57.1221 37.7138C54.9029 39.2871 53.0331 41.3645 51.8578 43.8293C50.5682 46.5293 50.2612 49.623 50.3395 52.5834C50.3734 53.837 50.5068 55.0906 50.7397 56.3231C50.8689 56.3781 50.9621 56.5073 50.9091 56.6831C50.8901 56.7424 50.8689 56.8017 50.8499 56.8609C51.1315 58.1569 51.5275 59.4253 52.0505 60.6451C53.0648 63.0062 54.5238 65.1576 56.3259 66.9872C58.1025 68.7956 60.1862 70.2758 62.4414 71.4299C64.7622 72.6179 67.2567 73.4501 69.8126 73.9519C72.4024 74.4602 75.0578 74.619 77.6899 74.4432C80.3559 74.2653 82.9987 73.7296 85.5164 72.836C88.0279 71.9445 90.4101 70.6782 92.5361 69.0667C94.7405 67.398 96.6484 65.3397 98.1583 63.0252C98.2303 62.9151 98.3382 62.8749 98.4399 62.8812C98.4886 62.8791 98.5415 62.8876 98.5945 62.9109C99.234 63.2073 99.882 63.4869 100.541 63.7431C102.927 64.6748 105.434 65.3419 107.988 65.5854C110.197 65.7993 112.435 65.704 114.605 65.2381C116.589 64.8125 118.502 64.0904 120.268 63.0888C121.96 62.1295 123.508 60.9288 124.871 59.5418C126.21 58.1802 127.366 56.6492 128.323 54.9975C129.255 53.3881 129.994 51.6686 130.515 49.8814C131.019 48.1492 131.317 46.3577 131.364 44.5514C131.41 42.8235 131.226 41.0934 130.762 39.4269C130.311 37.8048 129.593 36.2653 128.607 34.8995Z" fill="#EDECEC"/>
</g>
<mask id="mask1_2410_4974" style="mask-type:luminance" maskUnits="userSpaceOnUse" x="46" y="7" width="44" height="28">
<path d="M89.7204 7.49993C87.6685 7.17806 85.5933 7.00019 83.5139 7.02984C79.7065 7.08066 75.8779 7.84298 72.4962 9.63657C69.502 11.2269 66.8974 13.5689 65.2626 16.5611C65.1991 16.6754 65.0297 16.7538 64.9026 16.7072C63.1789 16.0634 61.3473 15.7691 59.5092 15.8305C56.3456 15.9385 53.2624 17.1116 50.8759 19.1975C48.7012 21.0969 47.1321 23.6423 46.4375 26.4438C46.6408 26.465 46.8441 26.4883 47.0474 26.5137C48.9193 26.7466 50.7679 27.1617 52.5467 27.7948C54.3064 28.4238 55.9983 29.2581 57.542 30.3169C59.0963 31.382 60.4981 32.6653 61.6797 34.1349C61.811 34.2958 61.7559 34.4949 61.6352 34.605C61.6818 34.588 61.7284 34.569 61.775 34.552C64.17 33.6648 66.7216 33.1608 69.2775 33.0719C69.2669 33.0443 69.2584 33.0168 69.2563 32.9829C69.1144 31.2486 69.4109 29.5122 70.1203 27.9219C71.3548 25.15 73.7731 23.0176 76.492 21.7513C79.266 20.4617 82.4064 19.9937 85.4239 20.5146C85.3667 18.2954 85.678 16.0507 86.2752 13.9289C86.9443 11.5572 88.128 9.36341 89.7204 7.49993Z" fill="white"/>
</mask>
<g mask="url(#mask1_2410_4974)">
<path d="M89.7204 7.49993C87.6685 7.17806 85.5933 7.00019 83.5139 7.02984C79.7065 7.08066 75.8779 7.84298 72.4962 9.63657C69.502 11.2269 66.8974 13.5689 65.2626 16.5611C65.1991 16.6754 65.0297 16.7538 64.9026 16.7072C63.1789 16.0634 61.3473 15.7691 59.5092 15.8305C56.3456 15.9385 53.2624 17.1116 50.8759 19.1975C48.7012 21.0969 47.1321 23.6423 46.4375 26.4438C46.6408 26.465 46.8441 26.4883 47.0474 26.5137C48.9193 26.7466 50.7679 27.1617 52.5467 27.7948C54.3064 28.4238 55.9983 29.2581 57.542 30.3169C59.0963 31.382 60.4981 32.6653 61.6797 34.1349C61.811 34.2958 61.7559 34.4949 61.6352 34.605C61.6818 34.588 61.7284 34.569 61.775 34.552C64.17 33.6648 66.7216 33.1608 69.2775 33.0719C69.2669 33.0443 69.2584 33.0168 69.2563 32.9829C69.1144 31.2486 69.4109 29.5122 70.1203 27.9219C71.3548 25.15 73.7731 23.0176 76.492 21.7513C79.266 20.4617 82.4064 19.9937 85.4239 20.5146C85.3667 18.2954 85.678 16.0507 86.2752 13.9289C86.9443 11.5572 88.128 9.36341 89.7204 7.49993Z" fill="#EDECEC"/>
</g>
<mask id="mask2_2410_4974" style="mask-type:luminance" maskUnits="userSpaceOnUse" x="1" y="26" width="61" height="41">
<path d="M50.2198 46.549C50.8784 43.7242 52.386 41.1598 54.4401 39.1248C56.4179 37.1639 58.8446 35.6964 61.4323 34.6906C61.3666 34.6842 61.3031 34.6546 61.2459 34.5847C60.6954 33.8986 60.0982 33.2528 59.4566 32.6514C58.1606 31.4338 56.691 30.4152 55.1156 29.5957C53.5359 28.772 51.8545 28.1579 50.1287 27.7237C48.3754 27.2854 46.5797 27.0355 44.7777 26.9572C42.9629 26.8767 41.1397 26.9614 39.3419 27.2092C37.5568 27.4591 35.7907 27.8614 34.0755 28.4226C32.4302 28.9625 30.8314 29.6486 29.3216 30.4978C27.8922 31.3003 26.5391 32.249 25.3321 33.3608C24.1929 34.4111 23.1849 35.6033 22.393 36.9373C21.62 38.2375 21.0674 39.6606 20.7857 41.1492C20.4914 42.7078 20.5126 44.3256 20.7963 45.8841C21.1499 47.8132 21.8276 49.7678 22.988 51.3623C24.2797 53.1305 26.1622 54.4265 28.2311 55.1168C30.3253 55.8156 32.6038 55.9236 34.7531 55.4323C37.1036 54.8923 39.2868 53.6408 40.875 51.8197C41.7453 50.8202 42.4124 49.6407 42.7956 48.3702C42.9947 47.7095 43.1217 47.0276 43.1683 46.3394C43.2001 45.8545 43.2488 45.3823 43.2064 44.8973C43.054 43.1461 42.0037 41.596 40.6399 40.5394C39.272 39.4806 37.5314 38.8283 35.795 38.8262C34.103 38.8241 32.4598 39.5187 31.4646 40.9226C30.8822 41.7421 30.4714 42.712 30.5604 43.7348C30.6408 44.6644 31.1384 45.5263 31.8245 46.1446C32.4873 46.7439 33.3704 47.1314 34.2725 47.1039C35.2698 47.07 36.0914 46.4728 36.6272 45.6597C36.8516 45.3187 37.4001 45.6385 37.1756 45.9815C36.5997 46.854 35.7547 47.538 34.6981 47.6968C32.6695 48.0017 30.679 46.5025 30.0903 44.5988C29.4677 42.5913 30.6281 40.4102 32.2629 39.2455C33.7558 38.1825 35.6933 38.0004 37.4467 38.3731C39.2741 38.7606 41.0211 39.758 42.2345 41.1852C42.8359 41.8925 43.3102 42.7035 43.5897 43.5908C43.8989 44.5818 43.8777 45.5665 43.7824 46.5893C43.5198 49.4036 42.0481 51.9277 39.8438 53.6747C37.9231 55.1973 35.5874 56.1078 33.148 56.3217C30.8441 56.5229 28.4831 56.0866 26.4163 55.0448C24.3411 53.9987 22.6004 52.3131 21.5544 50.2315C20.6904 48.5099 20.1632 46.5681 19.9937 44.6517C19.8476 43.0106 20.0022 41.3419 20.4681 39.7601C20.5083 39.6224 20.5528 39.4869 20.5972 39.3493C20.5613 39.3768 20.5295 39.4086 20.4935 39.4361C19.386 40.2429 17.963 40.3848 16.6353 40.2789C15.0154 40.1497 13.4335 39.722 11.8623 39.3344C8.63939 38.5404 4.95062 37.6383 1.84204 39.3027C1.67052 39.3959 1.50111 39.4954 1.33594 39.5991C1.40793 39.5991 1.48202 39.6013 1.55402 39.6034C3.36877 39.6923 5.06282 40.5309 6.48794 41.6151C7.77753 42.5955 8.89772 43.7814 9.89721 45.054C11.3371 46.8857 12.5505 48.8869 13.6263 50.9515C14.2086 52.0696 14.7168 53.2258 15.3203 54.3333C15.7841 55.1867 16.2965 56.0146 16.8576 56.8087C17.8974 58.2847 19.1086 59.6378 20.466 60.8258C22.9562 63.0069 25.9441 64.5908 29.1437 65.44C32.0723 66.2172 35.1766 66.3887 38.1666 65.8805C40.9237 65.4146 43.6067 64.3854 45.8491 62.6977C47.8291 61.2091 49.3876 59.1783 50.1753 56.8257C50.116 56.5377 50.061 56.2497 50.0123 55.9596C49.7582 54.4455 49.6523 52.9103 49.6819 51.375C49.7158 49.7657 49.8535 48.1203 50.2198 46.549Z" fill="white"/>
</mask>
<g mask="url(#mask2_2410_4974)">
<path d="M50.2198 46.55C50.8784 43.7252 52.386 41.1608 54.4401 39.1258C56.4179 37.1649 58.8446 35.6974 61.4323 34.6916C61.3666 34.6852 61.3031 34.6556 61.2459 34.5857C60.6954 33.8996 60.0982 33.2537 59.4566 32.6523C58.1606 31.4347 56.691 30.4162 55.1156 29.5967C53.5359 28.7729 51.8545 28.1588 50.1287 27.7247C48.3754 27.2864 46.5797 27.0365 44.7777 26.9582C42.9629 26.8777 41.1397 26.9624 39.3419 27.2102C37.5568 27.46 35.7907 27.8624 34.0755 28.4235C32.4302 28.9635 30.8314 29.6496 29.3216 30.4988C27.8922 31.3013 26.5391 32.25 25.3321 33.3617C24.1929 34.4121 23.1849 35.6042 22.393 36.9383C21.62 38.2385 21.0674 39.6615 20.7857 41.1502C20.4914 42.7087 20.5126 44.3266 20.7963 45.8851C21.1499 47.8142 21.8276 49.7688 22.988 51.3633C24.2797 53.1315 26.1622 54.4274 28.2311 55.1178C30.3253 55.8166 32.6038 55.9246 34.7531 55.4333C37.1036 54.8933 39.2868 53.6418 40.875 51.8207C41.7453 50.8212 42.4124 49.6417 42.7956 48.3711C42.9947 47.7105 43.1217 47.0286 43.1683 46.3404C43.2001 45.8555 43.2488 45.3832 43.2064 44.8983C43.054 43.1471 42.0037 41.597 40.6399 40.5403C39.272 39.4815 37.5314 38.8293 35.795 38.8272C34.103 38.8251 32.4598 39.5197 31.4646 40.9236C30.8822 41.7431 30.4714 42.713 30.5604 43.7358C30.6408 44.6654 31.1384 45.5272 31.8245 46.1456C32.4873 46.7448 33.3704 47.1324 34.2725 47.1048C35.2698 47.071 36.0914 46.4738 36.6272 45.6606C36.8516 45.3197 37.4001 45.6395 37.1756 45.9825C36.5997 46.855 35.7547 47.5389 34.6981 47.6978C32.6695 48.0027 30.679 46.5034 30.0903 44.5997C29.4677 42.5923 30.6281 40.4112 32.2629 39.2465C33.7558 38.1835 35.6933 38.0014 37.4467 38.374C39.2741 38.7616 41.0211 39.7589 42.2345 41.1862C42.8359 41.8935 43.3102 42.7045 43.5897 43.5918C43.8989 44.5828 43.8777 45.5675 43.7824 46.5903C43.5198 49.4045 42.0481 51.9287 39.8438 53.6757C37.9231 55.1982 35.5874 56.1088 33.148 56.3227C30.8441 56.5238 28.4831 56.0876 26.4163 55.0458C24.3411 53.9997 22.6004 52.3141 21.5544 50.2325C20.6904 48.5109 20.1632 46.5691 19.9937 44.6527C19.8476 43.0116 20.0022 41.3429 20.4681 39.7611C20.5083 39.6234 20.5528 39.4879 20.5972 39.3502C20.5613 39.3778 20.5295 39.4095 20.4935 39.4371C19.386 40.2439 17.963 40.3857 16.6353 40.2799C15.0154 40.1507 13.4335 39.7229 11.8623 39.3354C8.63939 38.5413 4.95062 37.6392 1.84204 39.3037C1.67052 39.3968 1.50111 39.4964 1.33594 39.6001C1.40793 39.6001 1.48202 39.6022 1.55402 39.6044C3.36877 39.6933 5.06282 40.5319 6.48794 41.6161C7.77753 42.5965 8.89772 43.7824 9.89721 45.055C11.3371 46.8867 12.5505 48.8878 13.6263 50.9525C14.2086 52.0706 14.7168 53.2268 15.3203 54.3343C15.7841 55.1876 16.2965 56.0156 16.8576 56.8097C17.8974 58.2857 19.1086 59.6388 20.466 60.8268C22.9562 63.0079 25.9441 64.5918 29.1437 65.441C32.0723 66.2181 35.1766 66.3897 38.1666 65.8814C40.9237 65.4156 43.6067 64.3864 45.8491 62.6987C47.8291 61.21 49.3876 59.1793 50.1753 56.8267C50.116 56.5387 50.061 56.2507 50.0123 55.9606C49.7582 54.4465 49.6523 52.9112 49.6819 51.376C49.7158 49.7666 49.8535 48.1213 50.2198 46.55Z" fill="#EDECEC"/>
</g>
</g>
<defs>
<clipPath id="clip0_2410_4974">
<rect width="132" height="61" fill="white" transform="matrix(-1 0 0 1 132 0)"/>
</clipPath>
</defs>
</svg>
