<svg width="78" height="61" viewBox="0 0 78 61" fill="none" xmlns="http://www.w3.org/2000/svg">
<g clip-path="url(#clip0_2413_7445)">
<mask id="mask0_2413_7445" style="mask-type:luminance" maskUnits="userSpaceOnUse" x="0" y="1" width="82" height="74">
<path d="M2.98708 34.8995C4.00351 33.4956 5.30796 32.3139 6.77966 31.4034C6.82413 31.3759 6.85799 31.342 6.88129 31.3039C6.95329 31.217 6.97446 31.0942 6.89188 30.9693C6.09355 29.7517 5.40324 28.4578 4.88656 27.0941C3.93578 24.5848 3.5673 21.8849 3.86588 19.2146C4.15174 16.6671 5.04748 14.2065 6.36248 12.0148C7.70502 9.77016 9.48591 7.80293 11.5336 6.18086C13.6363 4.51433 16.0419 3.21413 18.5872 2.36922C21.1854 1.50525 23.9319 1.11349 26.6678 1.26384C28.0717 1.34219 29.4629 1.56665 30.8203 1.92876C31.5445 2.12145 32.2624 2.34804 32.9802 2.55768C33.7298 2.77579 34.4646 3.0405 35.1783 3.35601C37.245 4.27081 39.1423 5.57312 40.7114 7.19518C40.6585 7.39424 40.8237 7.66953 41.0989 7.62082C41.1011 7.62082 41.1053 7.62082 41.1074 7.62082C41.514 8.07187 41.8973 8.5462 42.2509 9.04172C43.9111 11.3647 44.8407 14.0519 45.2621 16.8598C45.675 19.5979 45.6263 22.4947 44.7517 25.1375C44.3113 26.4694 43.6379 27.7336 42.7062 28.7882C42.2636 29.29 41.7575 29.7326 41.2535 30.1731C40.8554 30.5204 40.4361 30.8422 39.9978 31.1344C38.2254 32.3245 36.1904 33.0636 34.0919 33.4151C31.9955 33.7645 29.8208 33.7221 27.735 33.324C25.7064 32.9365 23.7307 32.2187 21.9816 31.109C20.3765 30.0926 18.9725 28.7268 18.0726 27.0412C17.1557 25.3217 16.855 23.3396 17.1303 21.4169C17.2976 20.2585 17.647 19.1256 18.1192 18.0563C18.5851 16.9996 19.3834 16.125 20.3257 15.4643C22.1828 14.162 24.6074 13.5966 26.8457 13.9799C27.9256 14.1641 28.9696 14.5665 29.8462 15.2272C30.7187 15.8879 31.5022 16.881 31.8007 17.9483C32.0866 18.9647 32.0506 20.0913 31.5276 21.0251C31.1125 21.7705 30.4201 22.355 29.6091 22.6239C28.8531 22.8716 28.0167 22.8526 27.3221 22.4418C26.4814 21.9441 26.0748 20.9891 25.952 20.0531C25.9308 19.8837 25.825 19.7355 25.6344 19.7355C25.4798 19.7376 25.2956 19.8816 25.3167 20.0531C25.4565 21.1098 25.8525 22.1432 26.7271 22.8039C28.275 23.9749 30.5323 23.3566 31.6822 21.923C32.364 21.0717 32.6774 19.9917 32.6054 18.9054C32.5186 17.6222 31.9384 16.4448 31.0787 15.5003C29.4672 13.7279 26.9557 13.0609 24.6264 13.2705C22.2357 13.4865 19.8344 14.5665 18.3288 16.4829C17.5432 17.4845 17.0943 18.7487 16.7767 19.9727C16.495 21.059 16.3531 22.1877 16.4082 23.31C16.5077 25.3577 17.2722 27.291 18.5385 28.8962C19.8111 30.5076 21.5369 31.738 23.3898 32.5977C25.4036 33.5337 27.5889 34.0673 29.7996 34.2325C32.04 34.3976 34.3291 34.1711 36.4742 33.5019C37.5457 33.1673 38.5875 32.7205 39.5595 32.1572C40.5611 31.577 41.4314 30.8549 42.2975 30.0926C44.5633 28.1042 45.675 25.1946 46.0159 22.2575C46.0583 21.8933 46.09 21.5291 46.1112 21.1606C47.7417 20.8578 49.4294 20.8599 51.0621 21.1479C53.9589 21.6583 56.7456 23.0178 58.7933 25.1502C60.8176 27.2593 61.9082 30.0545 61.6689 32.9831C61.6668 33.0106 61.6668 33.036 61.671 33.0593C61.4995 33.0572 61.3301 33.0572 61.1586 33.0593C58.3677 33.0974 55.5534 33.6417 53.0314 34.8635C50.6364 36.0218 48.5676 37.8345 47.2653 40.1681C45.5394 43.264 45.6009 47.0078 46.9349 50.235C48.3029 53.5406 50.9287 56.3824 54.3295 57.6148C57.1755 58.6482 60.6821 58.5254 63.2486 56.8144C65.2497 55.4803 66.5584 53.2632 66.7129 50.8597C66.8633 48.5261 65.8278 46.2582 63.8966 44.9199C62.7467 44.1216 61.3746 43.7171 59.9961 43.5668C59.6001 43.5223 59.1956 43.4905 58.7975 43.499C58.2808 43.5117 57.7451 43.6684 57.2686 43.859C56.3072 44.2444 55.4327 44.8733 54.8504 45.7415C54.3401 46.5039 54.0796 47.5118 54.2236 48.4224C54.3485 49.2207 54.8017 49.964 55.4285 50.468C56.0447 50.9656 56.8366 51.2769 57.6392 51.2112C58.5624 51.135 59.3057 50.6162 59.852 49.8899C60.0998 49.5638 59.5471 49.2482 59.3036 49.5701C58.8293 50.199 58.1305 50.6141 57.33 50.5802C56.6355 50.5527 55.9854 50.1927 55.5216 49.6866C54.2596 48.3123 54.8758 46.2815 56.2014 45.1994C56.9171 44.615 57.9505 44.1237 58.8907 44.1364C59.636 44.1449 60.3793 44.2211 61.1057 44.3947C62.283 44.6743 63.4032 45.2058 64.282 46.0465C65.0486 46.7813 65.5928 47.7109 65.8723 48.7294C66.4292 50.7792 65.904 53.0578 64.5869 54.7307C62.9352 56.8271 60.3094 57.7122 57.7027 57.6148C56.0002 57.5534 54.3506 57.0918 52.8705 56.2426C51.3945 55.3956 50.1134 54.2119 49.1118 52.8375C47.1276 50.1143 46.0795 46.5462 46.791 43.2025C47.3585 40.5386 49.0821 38.2072 51.278 36.638C53.4125 35.1113 55.9579 34.2473 58.5434 33.8873C61.2814 33.5061 64.102 33.684 66.7892 34.3151C69.5314 34.9567 72.1699 36.0811 74.4717 37.7138C76.6909 39.2871 78.5607 41.3645 79.7359 43.8293C81.0255 46.5293 81.3326 49.623 81.2542 52.5834C81.2204 53.837 81.0869 55.0906 80.854 56.3231C80.7248 56.3781 80.6317 56.5073 80.6846 56.6831C80.7037 56.7424 80.7248 56.8017 80.7439 56.8609C80.4622 58.1569 80.0663 59.4253 79.5432 60.6451C78.5289 63.0062 77.0699 65.1576 75.2679 66.9872C73.4912 68.7956 71.4076 70.2758 69.1524 71.4299C66.8315 72.6179 64.337 73.4501 61.7811 73.9519C59.1914 74.4602 56.5359 74.619 53.9038 74.4432C51.2378 74.2653 48.5951 73.7296 46.0773 72.836C43.5659 71.9445 41.1836 70.6782 39.0576 69.0667C36.8532 67.398 34.9453 65.3397 33.4355 63.0252C33.3635 62.9151 33.2555 62.8749 33.1539 62.8812C33.1052 62.8791 33.0522 62.8876 32.9993 62.9109C32.3598 63.2073 31.7118 63.4869 31.0532 63.7431C28.6667 64.6748 26.1596 65.3419 23.6058 65.5854C21.3972 65.7993 19.1589 65.704 16.9884 65.2381C15.0043 64.8125 13.0921 64.0904 11.326 63.0888C9.63412 62.1295 8.08617 60.9288 6.72247 59.5418C5.38417 58.1802 4.22798 56.6492 3.27084 54.9975C2.33912 53.3881 1.60009 51.6686 1.07917 49.8814C0.575195 48.1492 0.276627 46.3577 0.230042 44.5514C0.183449 42.8235 0.367691 41.0934 0.831436 39.4269C1.28247 37.8048 2.00031 36.2653 2.98708 34.8995Z" fill="white"/>
</mask>
<g mask="url(#mask0_2413_7445)">
<path d="M2.98708 34.8995C4.00351 33.4956 5.30796 32.3139 6.77966 31.4034C6.82413 31.3759 6.85799 31.342 6.88129 31.3039C6.95329 31.217 6.97446 31.0942 6.89188 30.9693C6.09355 29.7517 5.40324 28.4578 4.88656 27.0941C3.93578 24.5848 3.5673 21.8849 3.86588 19.2146C4.15174 16.6671 5.04748 14.2065 6.36248 12.0148C7.70502 9.77016 9.48591 7.80293 11.5336 6.18086C13.6363 4.51433 16.0419 3.21413 18.5872 2.36922C21.1854 1.50525 23.9319 1.11349 26.6678 1.26384C28.0717 1.34219 29.4629 1.56665 30.8203 1.92876C31.5445 2.12145 32.2624 2.34804 32.9802 2.55768C33.7298 2.77579 34.4646 3.0405 35.1783 3.35601C37.245 4.27081 39.1423 5.57312 40.7114 7.19518C40.6585 7.39424 40.8237 7.66953 41.0989 7.62082C41.1011 7.62082 41.1053 7.62082 41.1074 7.62082C41.514 8.07187 41.8973 8.5462 42.2509 9.04172C43.9111 11.3647 44.8407 14.0519 45.2621 16.8598C45.675 19.5979 45.6263 22.4947 44.7517 25.1375C44.3113 26.4694 43.6379 27.7336 42.7062 28.7882C42.2636 29.29 41.7575 29.7326 41.2535 30.1731C40.8554 30.5204 40.4361 30.8422 39.9978 31.1344C38.2254 32.3245 36.1904 33.0636 34.0919 33.4151C31.9955 33.7645 29.8208 33.7221 27.735 33.324C25.7064 32.9365 23.7307 32.2187 21.9816 31.109C20.3765 30.0926 18.9725 28.7268 18.0726 27.0412C17.1557 25.3217 16.855 23.3396 17.1303 21.4169C17.2976 20.2585 17.647 19.1256 18.1192 18.0563C18.5851 16.9996 19.3834 16.125 20.3257 15.4643C22.1828 14.162 24.6074 13.5966 26.8457 13.9799C27.9256 14.1641 28.9696 14.5665 29.8462 15.2272C30.7187 15.8879 31.5022 16.881 31.8007 17.9483C32.0866 18.9647 32.0506 20.0913 31.5276 21.0251C31.1125 21.7705 30.4201 22.355 29.6091 22.6239C28.8531 22.8716 28.0167 22.8526 27.3221 22.4418C26.4814 21.9441 26.0748 20.9891 25.952 20.0531C25.9308 19.8837 25.825 19.7355 25.6344 19.7355C25.4798 19.7376 25.2956 19.8816 25.3167 20.0531C25.4565 21.1098 25.8525 22.1432 26.7271 22.8039C28.275 23.9749 30.5323 23.3566 31.6822 21.923C32.364 21.0717 32.6774 19.9917 32.6054 18.9054C32.5186 17.6222 31.9384 16.4448 31.0787 15.5003C29.4672 13.7279 26.9557 13.0609 24.6264 13.2705C22.2357 13.4865 19.8344 14.5665 18.3288 16.4829C17.5432 17.4845 17.0943 18.7487 16.7767 19.9727C16.495 21.059 16.3531 22.1877 16.4082 23.31C16.5077 25.3577 17.2722 27.291 18.5385 28.8962C19.8111 30.5076 21.5369 31.738 23.3898 32.5977C25.4036 33.5337 27.5889 34.0673 29.7996 34.2325C32.04 34.3976 34.3291 34.1711 36.4742 33.5019C37.5457 33.1673 38.5875 32.7205 39.5595 32.1572C40.5611 31.577 41.4314 30.8549 42.2975 30.0926C44.5633 28.1042 45.675 25.1946 46.0159 22.2575C46.0583 21.8933 46.09 21.5291 46.1112 21.1606C47.7417 20.8578 49.4294 20.8599 51.0621 21.1479C53.9589 21.6583 56.7456 23.0178 58.7933 25.1502C60.8176 27.2593 61.9082 30.0545 61.6689 32.9831C61.6668 33.0106 61.6668 33.036 61.671 33.0593C61.4995 33.0572 61.3301 33.0572 61.1586 33.0593C58.3677 33.0974 55.5534 33.6417 53.0314 34.8635C50.6364 36.0218 48.5676 37.8345 47.2653 40.1681C45.5394 43.264 45.6009 47.0078 46.9349 50.235C48.3029 53.5406 50.9287 56.3824 54.3295 57.6148C57.1755 58.6482 60.6821 58.5254 63.2486 56.8144C65.2497 55.4803 66.5584 53.2632 66.7129 50.8597C66.8633 48.5261 65.8278 46.2582 63.8966 44.9199C62.7467 44.1216 61.3746 43.7171 59.9961 43.5668C59.6001 43.5223 59.1956 43.4905 58.7975 43.499C58.2808 43.5117 57.7451 43.6684 57.2686 43.859C56.3072 44.2444 55.4327 44.8733 54.8504 45.7415C54.3401 46.5039 54.0796 47.5118 54.2236 48.4224C54.3485 49.2207 54.8017 49.964 55.4285 50.468C56.0447 50.9656 56.8366 51.2769 57.6392 51.2112C58.5624 51.135 59.3057 50.6162 59.852 49.8899C60.0998 49.5638 59.5471 49.2482 59.3036 49.5701C58.8293 50.199 58.1305 50.6141 57.33 50.5802C56.6355 50.5527 55.9854 50.1927 55.5216 49.6866C54.2596 48.3123 54.8758 46.2815 56.2014 45.1994C56.9171 44.615 57.9505 44.1237 58.8907 44.1364C59.636 44.1449 60.3793 44.2211 61.1057 44.3947C62.283 44.6743 63.4032 45.2058 64.282 46.0465C65.0486 46.7813 65.5928 47.7109 65.8723 48.7294C66.4292 50.7792 65.904 53.0578 64.5869 54.7307C62.9352 56.8271 60.3094 57.7122 57.7027 57.6148C56.0002 57.5534 54.3506 57.0918 52.8705 56.2426C51.3945 55.3956 50.1134 54.2119 49.1118 52.8375C47.1276 50.1143 46.0795 46.5462 46.791 43.2025C47.3585 40.5386 49.0821 38.2072 51.278 36.638C53.4125 35.1113 55.9579 34.2473 58.5434 33.8873C61.2814 33.5061 64.102 33.684 66.7892 34.3151C69.5314 34.9567 72.1699 36.0811 74.4717 37.7138C76.6909 39.2871 78.5607 41.3645 79.7359 43.8293C81.0255 46.5293 81.3326 49.623 81.2542 52.5834C81.2204 53.837 81.0869 55.0906 80.854 56.3231C80.7248 56.3781 80.6317 56.5073 80.6846 56.6831C80.7037 56.7424 80.7248 56.8017 80.7439 56.8609C80.4622 58.1569 80.0663 59.4253 79.5432 60.6451C78.5289 63.0062 77.0699 65.1576 75.2679 66.9872C73.4912 68.7956 71.4076 70.2758 69.1524 71.4299C66.8315 72.6179 64.337 73.4501 61.7811 73.9519C59.1914 74.4602 56.5359 74.619 53.9038 74.4432C51.2378 74.2653 48.5951 73.7296 46.0773 72.836C43.5659 71.9445 41.1836 70.6782 39.0576 69.0667C36.8532 67.398 34.9453 65.3397 33.4355 63.0252C33.3635 62.9151 33.2555 62.8749 33.1539 62.8812C33.1052 62.8791 33.0522 62.8876 32.9993 62.9109C32.3598 63.2073 31.7118 63.4869 31.0532 63.7431C28.6667 64.6748 26.1596 65.3419 23.6058 65.5854C21.3972 65.7993 19.1589 65.704 16.9884 65.2381C15.0043 64.8125 13.0921 64.0904 11.326 63.0888C9.63412 62.1295 8.08617 60.9288 6.72247 59.5418C5.38417 58.1802 4.22798 56.6492 3.27084 54.9975C2.33912 53.3881 1.60009 51.6686 1.07917 49.8814C0.575195 48.1492 0.276627 46.3577 0.230042 44.5514C0.183449 42.8235 0.367691 41.0934 0.831436 39.4269C1.28247 37.8048 2.00031 36.2653 2.98708 34.8995Z" fill="#EDECEC"/>
</g>
<mask id="mask1_2413_7445" style="mask-type:luminance" maskUnits="userSpaceOnUse" x="41" y="7" width="45" height="28">
<path d="M41.8733 7.49993C43.9252 7.17806 46.0004 7.00019 48.0799 7.02984C51.8873 7.08066 55.7158 7.84298 59.0976 9.63657C62.0918 11.2269 64.6964 13.5689 66.3311 16.5611C66.3947 16.6754 66.5641 16.7538 66.6911 16.7072C68.4148 16.0634 70.2465 15.7691 72.0845 15.8305C75.2482 15.9385 78.3314 17.1116 80.7179 19.1975C82.8926 21.0969 84.4617 23.6423 85.1562 26.4438C84.953 26.465 84.7497 26.4883 84.5464 26.5137C82.6745 26.7466 80.8258 27.1617 79.0471 27.7948C77.2874 28.4238 75.5955 29.2581 74.0518 30.3169C72.4975 31.382 71.0956 32.6653 69.914 34.1349C69.7828 34.2958 69.8378 34.4949 69.9585 34.605C69.912 34.588 69.8653 34.569 69.8187 34.552C67.4238 33.6648 64.8722 33.1608 62.3163 33.0719C62.3268 33.0443 62.3353 33.0168 62.3374 32.9829C62.4793 31.2486 62.1828 29.5122 61.4735 27.9219C60.2389 25.15 57.8207 23.0176 55.1017 21.7513C52.3277 20.4617 49.1874 19.9937 46.1699 20.5146C46.227 18.2954 45.9157 16.0507 45.3186 13.9289C44.6494 11.5572 43.4657 9.36341 41.8733 7.49993Z" fill="white"/>
</mask>
<g mask="url(#mask1_2413_7445)">
<path d="M41.8733 7.49993C43.9252 7.17806 46.0004 7.00019 48.0799 7.02984C51.8873 7.08066 55.7158 7.84298 59.0976 9.63657C62.0918 11.2269 64.6964 13.5689 66.3311 16.5611C66.3947 16.6754 66.5641 16.7538 66.6911 16.7072C68.4148 16.0634 70.2465 15.7691 72.0845 15.8305C75.2482 15.9385 78.3314 17.1116 80.7179 19.1975C82.8926 21.0969 84.4617 23.6423 85.1562 26.4438C84.953 26.465 84.7497 26.4883 84.5464 26.5137C82.6745 26.7466 80.8258 27.1617 79.0471 27.7948C77.2874 28.4238 75.5955 29.2581 74.0518 30.3169C72.4975 31.382 71.0956 32.6653 69.914 34.1349C69.7828 34.2958 69.8378 34.4949 69.9585 34.605C69.912 34.588 69.8653 34.569 69.8187 34.552C67.4238 33.6648 64.8722 33.1608 62.3163 33.0719C62.3268 33.0443 62.3353 33.0168 62.3374 32.9829C62.4793 31.2486 62.1828 29.5122 61.4735 27.9219C60.2389 25.15 57.8207 23.0176 55.1017 21.7513C52.3277 20.4617 49.1874 19.9937 46.1699 20.5146C46.227 18.2954 45.9157 16.0507 45.3186 13.9289C44.6494 11.5572 43.4657 9.36341 41.8733 7.49993Z" fill="#EDECEC"/>
</g>
<mask id="mask2_2413_7445" style="mask-type:luminance" maskUnits="userSpaceOnUse" x="70" y="26" width="61" height="41">
<path d="M81.374 46.549C80.7154 43.7242 79.2077 41.1598 77.1537 39.1248C75.1759 37.1639 72.7491 35.6964 70.1615 34.6906C70.2271 34.6842 70.2907 34.6546 70.3478 34.5847C70.8984 33.8986 71.4956 33.2528 72.1372 32.6514C73.4331 31.4338 74.9027 30.4152 76.4782 29.5957C78.0579 28.772 79.7392 28.1579 81.465 27.7237C83.2184 27.2854 85.014 27.0355 86.8161 26.9572C88.6308 26.8767 90.4541 26.9614 92.2519 27.2092C94.037 27.4591 95.803 27.8614 97.5182 28.4226C99.1636 28.9625 100.762 29.6486 102.272 30.4978C103.702 31.3003 105.055 32.249 106.262 33.3608C107.401 34.4111 108.409 35.6033 109.201 36.9373C109.974 38.2375 110.526 39.6606 110.808 41.1492C111.102 42.7078 111.081 44.3256 110.797 45.8841C110.444 47.8132 109.766 49.7678 108.606 51.3623C107.314 53.1305 105.432 54.4265 103.363 55.1168C101.268 55.8156 98.9899 55.9236 96.8406 55.4323C94.4901 54.8923 92.3069 53.6408 90.7188 51.8197C89.8484 50.8202 89.1814 49.6407 88.7981 48.3702C88.5991 47.7095 88.472 47.0276 88.4254 46.3394C88.3937 45.8545 88.345 45.3823 88.3873 44.8973C88.5398 43.1461 89.5901 41.596 90.9538 40.5394C92.3217 39.4806 94.0624 38.8283 95.7988 38.8262C97.4907 38.8241 99.1339 39.5187 100.129 40.9226C100.712 41.7421 101.122 42.712 101.033 43.7348C100.953 44.6644 100.455 45.5263 99.7692 46.1446C99.1064 46.7439 98.2234 47.1314 97.3213 47.1039C96.3239 47.07 95.5023 46.4728 94.9666 45.6597C94.7421 45.3187 94.1937 45.6385 94.4181 45.9815C94.9941 46.854 95.839 47.538 96.8957 47.6968C98.9243 48.0017 100.915 46.5025 101.503 44.5988C102.126 42.5913 100.966 40.4102 99.3309 39.2455C97.838 38.1825 95.9004 38.0004 94.1471 38.3731C92.3196 38.7606 90.5726 39.758 89.3593 41.1852C88.7579 41.8925 88.2835 42.7035 88.004 43.5908C87.6949 44.5818 87.716 45.5665 87.8113 46.5893C88.0739 49.4036 89.5456 51.9277 91.75 53.6747C93.6706 55.1973 96.0063 56.1078 98.4457 56.3217C100.75 56.5229 103.111 56.0866 105.177 55.0448C107.253 53.9987 108.993 52.3131 110.039 50.2315C110.903 48.5099 111.431 46.5681 111.6 44.6517C111.746 43.0106 111.592 41.3419 111.126 39.7601C111.085 39.6224 111.041 39.4869 110.997 39.3493C111.032 39.3768 111.064 39.4086 111.1 39.4361C112.208 40.2429 113.631 40.3848 114.958 40.2789C116.578 40.1497 118.16 39.722 119.731 39.3344C122.954 38.5404 126.643 37.6383 129.752 39.3027C129.923 39.3959 130.093 39.4954 130.258 39.5991C130.186 39.5991 130.112 39.6013 130.04 39.6034C128.225 39.6923 126.531 40.5309 125.106 41.6151C123.816 42.5955 122.696 43.7814 121.697 45.054C120.257 46.8857 119.043 48.8869 117.967 50.9515C117.385 52.0696 116.877 53.2258 116.273 54.3333C115.81 55.1867 115.297 56.0146 114.736 56.8087C113.696 58.2847 112.485 59.6378 111.128 60.8258C108.638 63.0069 105.65 64.5908 102.45 65.44C99.5215 66.2172 96.4171 66.3887 93.4271 65.8805C90.6701 65.4146 87.9871 64.3854 85.7446 62.6977C83.7647 61.2091 82.2061 59.1783 81.4184 56.8257C81.4777 56.5377 81.5328 56.2497 81.5815 55.9596C81.8356 54.4455 81.9415 52.9103 81.9118 51.375C81.8779 49.7657 81.7403 48.1203 81.374 46.549Z" fill="white"/>
</mask>
<g mask="url(#mask2_2413_7445)">
<path d="M81.374 46.55C80.7154 43.7252 79.2077 41.1608 77.1537 39.1258C75.1759 37.1649 72.7491 35.6974 70.1615 34.6916C70.2271 34.6852 70.2907 34.6556 70.3478 34.5857C70.8984 33.8996 71.4956 33.2537 72.1372 32.6523C73.4331 31.4347 74.9027 30.4162 76.4782 29.5967C78.0579 28.7729 79.7392 28.1588 81.465 27.7247C83.2184 27.2864 85.014 27.0365 86.8161 26.9582C88.6308 26.8777 90.4541 26.9624 92.2519 27.2102C94.037 27.46 95.803 27.8624 97.5182 28.4235C99.1636 28.9635 100.762 29.6496 102.272 30.4988C103.702 31.3013 105.055 32.25 106.262 33.3617C107.401 34.4121 108.409 35.6042 109.201 36.9383C109.974 38.2385 110.526 39.6615 110.808 41.1502C111.102 42.7087 111.081 44.3266 110.797 45.8851C110.444 47.8142 109.766 49.7688 108.606 51.3633C107.314 53.1315 105.432 54.4274 103.363 55.1178C101.268 55.8166 98.9899 55.9246 96.8406 55.4333C94.4901 54.8933 92.3069 53.6418 90.7188 51.8207C89.8484 50.8212 89.1814 49.6417 88.7981 48.3711C88.5991 47.7105 88.472 47.0286 88.4254 46.3404C88.3937 45.8555 88.345 45.3832 88.3873 44.8983C88.5398 43.1471 89.5901 41.597 90.9538 40.5403C92.3217 39.4815 94.0624 38.8293 95.7988 38.8272C97.4907 38.8251 99.1339 39.5197 100.129 40.9236C100.712 41.7431 101.122 42.713 101.033 43.7358C100.953 44.6654 100.455 45.5272 99.7692 46.1456C99.1064 46.7448 98.2234 47.1324 97.3213 47.1048C96.3239 47.071 95.5023 46.4738 94.9666 45.6606C94.7421 45.3197 94.1937 45.6395 94.4181 45.9825C94.9941 46.855 95.839 47.5389 96.8957 47.6978C98.9243 48.0027 100.915 46.5034 101.503 44.5997C102.126 42.5923 100.966 40.4112 99.3309 39.2465C97.838 38.1835 95.9004 38.0014 94.1471 38.374C92.3196 38.7616 90.5726 39.7589 89.3593 41.1862C88.7579 41.8935 88.2835 42.7045 88.004 43.5918C87.6949 44.5828 87.716 45.5675 87.8113 46.5903C88.0739 49.4045 89.5456 51.9287 91.75 53.6757C93.6706 55.1982 96.0063 56.1088 98.4457 56.3227C100.75 56.5238 103.111 56.0876 105.177 55.0458C107.253 53.9997 108.993 52.3141 110.039 50.2325C110.903 48.5109 111.431 46.5691 111.6 44.6527C111.746 43.0116 111.592 41.3429 111.126 39.7611C111.085 39.6234 111.041 39.4879 110.997 39.3502C111.032 39.3778 111.064 39.4095 111.1 39.4371C112.208 40.2439 113.631 40.3857 114.958 40.2799C116.578 40.1507 118.16 39.7229 119.731 39.3354C122.954 38.5413 126.643 37.6392 129.752 39.3037C129.923 39.3968 130.093 39.4964 130.258 39.6001C130.186 39.6001 130.112 39.6022 130.04 39.6044C128.225 39.6933 126.531 40.5319 125.106 41.6161C123.816 42.5965 122.696 43.7824 121.697 45.055C120.257 46.8867 119.043 48.8878 117.967 50.9525C117.385 52.0706 116.877 53.2268 116.273 54.3343C115.81 55.1876 115.297 56.0156 114.736 56.8097C113.696 58.2857 112.485 59.6388 111.128 60.8268C108.638 63.0079 105.65 64.5918 102.45 65.441C99.5215 66.2181 96.4171 66.3897 93.4271 65.8814C90.6701 65.4156 87.9871 64.3864 85.7446 62.6987C83.7647 61.21 82.2061 59.1793 81.4184 56.8267C81.4777 56.5387 81.5328 56.2507 81.5815 55.9606C81.8356 54.4465 81.9415 52.9112 81.9118 51.376C81.8779 49.7666 81.7403 48.1213 81.374 46.55Z" fill="#EDECEC"/>
</g>
</g>
<defs>
<clipPath id="clip0_2413_7445">
<rect width="78" height="61" fill="white"/>
</clipPath>
</defs>
</svg>
