<svg width="70" height="70" viewBox="0 0 70 70" fill="none" xmlns="http://www.w3.org/2000/svg">
<path d="M55.4778 46.3066L55.4464 46.3387L54.369 45.2612C51.6615 42.5537 50.3223 38.8467 50.3376 35.018C50.3376 34.9779 50.3376 34.9378 50.3376 34.8977C50.323 31.0698 51.6629 27.3628 54.3697 24.656L55.4472 23.5793L55.4785 23.6106L58.6409 23.0712L69.8755 0.0355072L46.8398 11.2701L46.3004 14.4325L46.3317 14.4646L45.2477 15.5486C42.5409 18.2554 38.834 19.5938 35.0053 19.5807C34.9695 19.5807 34.9331 19.5807 34.8974 19.5807C31.0694 19.5938 27.3631 18.2554 24.6564 15.5486L23.5723 14.4646L23.6044 14.4325L23.065 11.2701L0.0292969 0.0355072L11.2639 23.0712L14.4263 23.6106L14.4584 23.5793L15.5417 24.6626C18.2485 27.3694 19.5869 31.0756 19.5738 34.9029C19.5738 34.9393 19.5738 34.9765 19.5738 35.0129C19.5876 38.8409 18.2485 42.5479 15.5417 45.2547L14.4584 46.3379L14.4263 46.3059L11.2639 46.8453L0.0292969 69.881L23.065 58.6464L23.6044 55.484L23.5723 55.4519L24.652 54.3723C27.3588 51.6655 31.0657 50.3263 34.8937 50.3401C34.9324 50.3401 34.971 50.3401 35.0096 50.3401C38.8376 50.3256 42.5453 51.6655 45.2521 54.3723L46.3317 55.4519L46.3004 55.484L46.8398 58.6464L69.8755 69.881L58.6409 46.8453L55.4778 46.3066ZM32.2489 37.657C30.7588 36.1669 30.7588 33.7539 32.2489 32.2522C33.739 30.7629 36.1636 30.7629 37.6537 32.2522C39.1431 33.7532 39.1431 36.1669 37.6537 37.657C36.1636 39.1464 33.7383 39.1464 32.2489 37.657Z" fill="white"/>
<path d="M57.162 6.23494L46.8379 11.2701L46.2948 14.434L46.3298 14.469L45.2443 15.5428C42.5419 18.2561 38.835 19.596 35.0011 19.5844H34.8969C31.0748 19.596 27.3678 18.2561 24.6537 15.5428L23.5682 14.469L23.6032 14.434L23.0601 11.2701L0.0332031 0.0340576L11.2693 23.0727L14.4222 23.6158L14.4572 23.5808L15.5427 24.6662C18.2451 27.3686 19.5843 31.0756 19.5733 34.8978V35.0129C19.585 38.8351 18.2451 42.542 15.5427 45.2561L14.4572 46.3416L14.4222 46.3066L11.2693 46.849L6.25741 57.1155C9.17924 57.7388 12.2163 58.0734 15.3225 58.0734C18.0475 58.0734 20.704 57.8197 23.2905 57.3342L23.6025 55.4862L23.5675 55.4519L24.653 54.3664C27.3554 51.664 31.0624 50.3248 34.8962 50.3365H35.058C35.3926 50.3365 35.7163 50.3482 36.0509 50.3715C36.3972 50.3948 36.7442 50.4291 37.0788 50.4641C37.1138 50.4758 37.1481 50.4758 37.183 50.4758C37.4951 50.5217 37.7954 50.5793 38.095 50.6376C38.4413 50.7068 38.7766 50.7761 39.0996 50.8687C43.7535 47.7508 47.7492 43.7551 50.8671 39.1128C50.7745 38.7892 50.6936 38.4546 50.636 38.1083C50.5668 37.8079 50.5208 37.4966 50.4742 37.1846C50.4742 37.1496 50.4625 37.1037 50.4625 37.0578C50.4166 36.7232 50.3933 36.3995 50.3699 36.0532C50.3466 35.7295 50.3349 35.3949 50.3349 35.0596V34.8978C50.3233 31.0756 51.6632 27.357 54.3656 24.6546L55.4394 23.5808L55.4736 23.6158L57.3676 23.2921C57.8641 20.6939 58.1185 18.0141 58.1185 15.2774C58.1207 12.1712 57.786 9.14511 57.162 6.23494ZM37.6576 37.6577C36.1683 39.1478 33.7429 39.1478 32.2535 37.6577C30.7635 36.1677 30.7635 33.7547 32.2535 32.2537C33.7429 30.7636 36.1683 30.7636 37.6576 32.2537C39.147 33.7547 39.147 36.1677 37.6576 37.6577Z" fill="white"/>
<path d="M38.0848 19.2848C37.9463 23.4532 37.2071 27.4838 35.9365 31.2717C34.6665 30.9254 33.2457 31.26 32.2528 32.2537C30.7627 33.7547 30.7627 36.1684 32.2528 37.6577C32.4722 37.8655 32.7033 38.0507 32.9454 38.2009C27.1943 48.7561 17.1472 56.6198 5.13766 59.4264H5.126L6.25741 57.1169L11.2693 46.8504L14.4222 46.3081L14.4572 46.3431L15.5427 45.2576C18.2451 42.5435 19.5843 38.8365 19.5733 35.0144V34.8992C19.585 31.0771 18.2451 27.3701 15.5427 24.6677L14.4572 23.5822L14.4222 23.6172L11.2693 23.0741L0.0332031 0.0355072L23.0601 11.2716L23.6032 14.4355L23.5682 14.4704L24.6537 15.5443C27.3678 18.2576 31.0748 19.5975 34.8969 19.5858H35.0471C35.5202 19.5858 35.994 19.5625 36.4672 19.5282C36.7792 19.4933 37.0905 19.459 37.4025 19.4123C37.6343 19.3773 37.8537 19.3424 38.0848 19.2848Z" fill="#FF0000"/>
<path d="M30.0578 18.8343C28.8681 33.3042 20.4846 45.73 8.49762 52.5316L11.2693 46.8498L14.4222 46.3074L14.4572 46.3424L15.5427 45.2569C18.2451 42.5429 19.5843 38.8359 19.5733 35.0137V34.8986C19.585 31.0764 18.2451 27.3694 15.5427 24.667L14.4572 23.5816L14.4222 23.6166L11.2693 23.0735L0.0332031 0.0348663L23.0601 11.2709L23.6032 14.4348L23.5682 14.4698L24.6537 15.5436C26.1897 17.0789 28.0487 18.176 30.0578 18.8343Z" fill="#FF0000"/>
<path d="M48.7148 56.7729L48.3904 53.3954L46.3652 55.4213L46.8405 58.6464L69.8762 69.8817L68.1631 66.3679L48.7148 56.7729Z" fill="#D2D2D2"/>
<path d="M0.0292969 0.0355072L1.74245 3.54929L21.1907 13.1444L21.5151 16.5211L23.5403 14.496L23.065 11.2701L0.0292969 0.0355072Z" fill="#D2D2D2"/>
<path d="M58.6396 23.0712L69.8743 0.0355072L66.3605 1.7494L56.7654 21.1969L53.3887 21.5213L55.4138 23.5472L58.6396 23.0712Z" fill="#D2D2D2"/>
<path d="M11.2639 46.8453L0.0292969 69.8817L3.54308 68.1679L13.1374 48.7196L16.5149 48.3952L14.489 46.37L11.2639 46.8453Z" fill="#D2D2D2"/>
<circle cx="34.9867" cy="34.9886" r="4.0824" fill="black"/>
</svg>
