<svg width="66" height="34" viewBox="0 0 66 34" fill="none" xmlns="http://www.w3.org/2000/svg">
<path d="M65.6486 17.7599C64.7585 17.8023 64.1415 17.8312 63.0186 17.8842C64.1766 19.3479 65.089 20.5007 66 21.6527C63.7274 21.068 61.5847 20.5553 59.6993 19.2023C57.1835 17.3989 54.5633 15.7092 51.4081 15.2147C50.098 15.0084 48.7916 14.762 47.5023 14.4533C44.0204 13.6183 41.333 15.2959 38.8231 17.3443C37.9368 18.0685 37.2071 18.7359 35.9582 18.7382C35.2576 18.7382 34.5563 19.2873 33.5804 19.7089C35.941 23.4152 39.2036 25.5296 42.6468 27.7638C42.179 28.1483 41.847 28.4918 41.4516 28.7307C40.569 29.2669 39.6901 29.8433 38.7411 30.2301C37.8853 30.5774 36.9497 30.7814 36.0305 30.8936C34.7242 31.0552 33.4028 31.109 32.0867 31.1439C31.0571 31.1735 30.0223 31.156 28.9965 31.0726C27.2014 30.9247 26.9321 30.8474 26.8537 28.9385C26.7082 25.3665 24.8094 23.064 22.1571 21.0831C19.5518 19.1379 17.5687 19.3093 15.0499 21.3243C11.8127 23.9119 10.2116 27.4149 8.93576 31.3206C7.91959 31.4685 6.82359 31.5496 6.46249 32.9656C6.35356 33.394 5.55525 33.6413 5.03001 34C3.74451 32.0259 4.61146 29.7075 2.98798 27.7683C2.52391 28.849 2.15013 29.731 1.61667 30.9771C1.39136 30.2862 1.18917 29.9366 1.17947 29.5816C1.13769 28.2317 1.16604 26.881 1.15485 25.5296C1.14739 24.4284 1.3645 23.2931 0.224482 22.4831C-0.0426162 22.295 -0.023964 21.526 0.0409453 21.0482C0.583349 17.0819 1.89795 13.3218 3.56321 9.7475C4.2414 8.29291 5.73879 7.10679 7.10636 6.16715C7.82036 5.67571 9.11557 5.75762 10.0571 5.97679C11.4799 6.30897 12.8191 6.99834 14.2001 7.51481C14.8186 7.74536 15.4431 8.01762 16.0847 8.10862C16.9771 8.233 17.6814 7.92434 17.8634 6.87776C18.0693 5.69164 18.2088 4.41224 19.657 4.07779C21.3028 3.69935 22.892 3.76003 24.2081 5.05687C24.9549 5.79251 25.7301 6.6601 26.8724 6.29683C27.8908 5.973 28.9562 5.52024 29.7545 4.83163C30.752 3.96934 31.6018 2.87802 32.3233 1.76016C33.4349 0.040131 34.9248 -0.160084 36.7528 0.0863927C40.701 0.620298 44.2703 2.12873 47.6911 4.11723C50.5046 5.75155 53.3852 7.27364 56.1771 8.9474C57.1552 9.53136 58.5988 9.86733 58.3243 11.6268C58.2877 11.8596 58.9197 12.2206 59.2658 12.4944C61.1296 13.9619 63.0052 15.4142 64.8674 16.8862C65.0913 17.0644 65.2591 17.3192 65.6486 17.7599Z" fill="white"/>
</svg>
